999
DXF file: C:\Users\Harry\OneDrive - Loughborough University\3rd Year Notes\17MMD550 - Individual Project\5. CAD Models\Creo Rig Design\v_new\Drawings\Latest\DXF\hinge_v3.dxf
999
Pro/ENGINEER 2014440 by Parametric Technology Corporation
  0
SECTION
  2
HEADER
  9
$ACADVER
  1
AC1027
  9
$DWGCODEPAGE
  3
ANSI_1252
  9
$EXTMAX
 10
16.5354330709
 20
11.6929133858
 30
0.0
  9
$EXTMIN
 10
0.0
 20
0.0
 30
0.0
  9
$LIMMIN
 10
0.0
 20
0.0
  9
$LIMMAX
 10
16.5354330709
 20
11.6929133858
  9
$VIEWCTR
 10
8.2677165354
 20
5.8464566929
  9
$VIEWSIZE
 40
11.6929133858
  9
$CLAYER
  8
0
  9
$LTSCALE
 40
0.9094488189
  9
$CELTYPE
  6
BYLAYER
  9
$DIMSCALE
 40
1.0
  9
$DIMASZ
 40
0.1875
  9
$DIMEXO
 40
0.0625
  9
$DIMDLI
 40
0.6283464567
  9
$DIMEXE
 40
0.125
  9
$DIMCEN
 40
0.1488188976
  9
$DIMLFAC
 40
1.0
  9
$DIMBLK
  1
_CLOSED
  9
$DIMALT
 70
0
  9
$DIMALTF
 40
25.4
  9
$DIMTXT
 40
0.15625
  9
$DIMTOL
 70
1
  9
$DIMLIM
 70
0
  9
$DIMTFAC
 40
1.0
  9
$DIMTP
 40
0.01
  9
$DIMTM
 40
0.01
  9
$DIMGAP
 40
0.09
  9
$DIMDSEP
 70
46
  9
$AUNITS
 70
0
  9
$PDMODE
 70
3
  9
$PDSIZE
 40
0.3125
  9
$HANDSEED
  5
4E8
  9
$TILEMODE
 70
1
  9
$MEASUREMENT
 70
0
  9
$INSUNITS
 70
1
  0
ENDSEC
  0
SECTION
  2
CLASSES
  0
CLASS
  1
ACDBDICTIONARYWDFLT
  2
AcDbDictionaryWithDefault
  3
AutoCAD 2000
 90
0
 91
1
280
0
281
0
  0
CLASS
  1
ACDBPLACEHOLDER
  2
AcDbPlaceHolder
  3
AutoCAD 2000
 90
0
 91
1
280
0
281
0
  0
CLASS
  1
LAYOUT
  2
AcDbLayout
  3
AutoCAD 2000
 90
0
 91
0
280
0
281
0
  0
CLASS
  1
RASTERVARIABLES
  2
AcDbRasterVariables
  3
ISM
 90
0
 91
1
280
0
281
0
  0
CLASS
  1
IMAGEDEF
  2
AcDbRasterImageDef
  3
ISM
 90
0
 91
1
280
0
281
0
  0
CLASS
  1
IMAGEDEF_REACTOR
  2
AcDbRasterImageDefReactor
  3
ISM
 90
0
 91
1
280
0
281
0
  0
CLASS
  1
IMAGE
  2
AcDbRasterImage
  3
ISM
 90
127
 91
1
280
0
281
1
  0
CLASS
  1
TABLESTYLE
  2
AcDbTableStyle
  3
ObjectDBX Classes
 90
2047
 91
1
280
0
281
0
  0
CLASS
  1
ACAD_TABLE
  2
AcDbTable
  3
ObjectDBX Classes
 90
1025
 91
6
280
0
281
1
  0
ENDSEC
  0
SECTION
  2
TABLES
  0
TABLE
  2
VPORT
  5
8
100
AcDbSymbolTable
 70
2
  0
VPORT
  5
1F4
100
AcDbSymbolTableRecord
100
AcDbViewportTableRecord
  2
*ACTIVE
 70
0
 10
0.0
 20
0.0
 11
1.0
 21
1.0
 12
8.2677165354
 22
5.8464566929
 13
0.0
 23
0.0
 14
1.0
 24
1.0
 15
0.0
 25
0.0
 16
0.0
 26
0.0
 36
1.0
 17
0.0
 27
0.0
 37
0.0
 40
11.6929133858
 41
1.4141414141
 42
50.0
 43
0.0
 44
0.0
 50
0.0
 51
0.0
 71
0
 72
100
 73
1
 74
1
 75
0
 76
0
 77
0
 78
0
  0
ENDTAB
  0
TABLE
  2
LTYPE
  5
5
100
AcDbSymbolTable
 70
6
  0
LTYPE
  5
14
100
AcDbSymbolTableRecord
100
AcDbLinetypeTableRecord
  2
BYBLOCK
 70
0
  3

 72
65
 73
0
 40
0.0
  0
LTYPE
  5
15
100
AcDbSymbolTableRecord
100
AcDbLinetypeTableRecord
  2
BYLAYER
 70
0
  3

 72
65
 73
0
 40
0.0
  0
LTYPE
  5
16
100
AcDbSymbolTableRecord
100
AcDbLinetypeTableRecord
  2
CONTINUOUS
 70
64
  3
Solid line
 72
65
 73
0
 40
0.0
  0
LTYPE
  5
1F5
100
AcDbSymbolTableRecord
100
AcDbLinetypeTableRecord
  2
CENTER
 70
64
  3
____ _ ____ _ ____ _ ____ _ ____ _ ____ _ ____
 72
65
 73
4
 40
0.6
 49
0.375
 74
0
 49
-0.075
 74
0
 49
0.075
 74
0
 49
-0.075
 74
0
  0
LTYPE
  5
1F6
100
AcDbSymbolTableRecord
100
AcDbLinetypeTableRecord
  2
HIDDEN
 70
64
  3
- - - - - - - - - - - - - - - - - - - -
 72
65
 73
2
 40
0.2
 49
0.1
 74
0
 49
-0.1
 74
0
  0
LTYPE
  5
1F7
100
AcDbSymbolTableRecord
100
AcDbLinetypeTableRecord
  2
PHANTOM
 70
64
  3
_____ _ _ _____ _ _ _____ _ _ _____
 72
65
 73
6
 40
0.8
 49
0.45
 74
0
 49
-0.05
 74
0
 49
0.1
 74
0
 49
-0.05
 74
0
 49
0.1
 74
0
 49
-0.05
 74
0
  0
LTYPE
  5
1F8
100
AcDbSymbolTableRecord
100
AcDbLinetypeTableRecord
  2
DOT
 70
64
  3
. . . . . . . . . . . . . . . . . . . .
 72
65
 73
2
 40
0.2
 49
0.1
 74
0
 49
-0.1
 74
0
  0
LTYPE
  5
1F9
100
AcDbSymbolTableRecord
100
AcDbLinetypeTableRecord
  2
DASHED
 70
64
  3
- - - - - - - - - - - - - - - - - - - -
 72
65
 73
2
 40
0.2
 49
0.1
 74
0
 49
-0.1
 74
0
  0
ENDTAB
  0
TABLE
  2
LAYER
  5
2
100
AcDbSymbolTable
 70
36
  0
LAYER
  5
10
100
AcDbSymbolTableRecord
100
AcDbLayerTableRecord
  2
0
 70
0
 62
7
  6
CONTINUOUS
370
-3
390
F
  0
LAYER
  5
1FA
100
AcDbSymbolTableRecord
100
AcDbLayerTableRecord
  2
DEFAULT_1
 70
0
 62
7
  6
CENTER
370
-3
390
F
  0
LAYER
  5
1FB
100
AcDbSymbolTableRecord
100
AcDbLayerTableRecord
  2
DEFAULT_2
 70
0
 62
8
  6
HIDDEN
370
-3
390
F
  0
LAYER
  5
1FC
100
AcDbSymbolTableRecord
100
AcDbLayerTableRecord
  2
DEFAULT_3
 70
0
 62
7
  6
PHANTOM
370
-3
390
F
  0
LAYER
  5
1FD
100
AcDbSymbolTableRecord
100
AcDbLayerTableRecord
  2
01___PRT_ALL_DTM_PLN
 70
0
 62
7
  6
CONTINUOUS
370
-3
390
F
  0
LAYER
  5
1FE
100
AcDbSymbolTableRecord
100
AcDbLayerTableRecord
  2
01___PRT_DEF_DTM_PLN
 70
0
 62
7
  6
CONTINUOUS
370
-3
390
F
  0
LAYER
  5
1FF
100
AcDbSymbolTableRecord
100
AcDbLayerTableRecord
  2
02___PRT_ALL_AXES
 70
0
 62
7
  6
CONTINUOUS
370
-3
390
F
  0
LAYER
  5
200
100
AcDbSymbolTableRecord
100
AcDbLayerTableRecord
  2
03___PRT_ALL_CURVES
 70
0
 62
7
  6
CONTINUOUS
370
-3
390
F
  0
LAYER
  5
201
100
AcDbSymbolTableRecord
100
AcDbLayerTableRecord
  2
04___PRT_ALL_DTM_PNT
 70
0
 62
7
  6
CONTINUOUS
370
-3
390
F
  0
LAYER
  5
202
100
AcDbSymbolTableRecord
100
AcDbLayerTableRecord
  2
05___PRT_ALL_DTM_CSYS
 70
0
 62
7
  6
CONTINUOUS
370
-3
390
F
  0
LAYER
  5
203
100
AcDbSymbolTableRecord
100
AcDbLayerTableRecord
  2
05___PRT_DEF_DTM_CSYS
 70
0
 62
7
  6
CONTINUOUS
370
-3
390
F
  0
LAYER
  5
204
100
AcDbSymbolTableRecord
100
AcDbLayerTableRecord
  2
06___PRT_ALL_SURFS
 70
0
 62
7
  6
CONTINUOUS
370
-3
390
F
  0
LAYER
  5
205
100
AcDbSymbolTableRecord
100
AcDbLayerTableRecord
  2
3_ALL_SYMBOLS
 70
0
 62
7
  6
CONTINUOUS
370
-3
390
F
  0
ENDTAB
  0
TABLE
  2
STYLE
  5
3
100
AcDbSymbolTable
 70
1
  0
STYLE
  5
11
100
AcDbSymbolTableRecord
100
AcDbTextStyleTableRecord
  2
STANDARD
 70
0
 40
0.0
 41
0.8
 50
0.0
 71
0
 42
0.2
  3
txt
  4

  0
STYLE
  5
206
100
AcDbSymbolTableRecord
100
AcDbTextStyleTableRecord
  2
TEXTSTYLE_1
 70
0
 40
0.0
 41
0.8
 50
0.0
 71
0
 42
0.2
  3
gdt
  4

  0
ENDTAB
  0
TABLE
  2
VIEW
  5
6
100
AcDbSymbolTable
 70
0
  0
ENDTAB
  0
TABLE
  2
UCS
  5
7
100
AcDbSymbolTable
 70
0
  0
ENDTAB
  0
TABLE
  2
APPID
  5
9
100
AcDbSymbolTable
 70
1
  0
APPID
  5
207
100
AcDbSymbolTableRecord
100
AcDbRegAppTableRecord
  2
ACAD
 70
0
  0
ENDTAB
  0
TABLE
  2
BLOCK_RECORD
  5
1
100
AcDbSymbolTable
 70
0
  0
BLOCK_RECORD
  5
208
100
AcDbSymbolTableRecord
100
AcDbBlockTableRecord
  2
*Model_Space
  0
BLOCK_RECORD
  5
209
100
AcDbSymbolTableRecord
100
AcDbBlockTableRecord
  2
*Paper_Space
  0
BLOCK_RECORD
  5
20A
100
AcDbSymbolTableRecord
100
AcDbBlockTableRecord
  2
_CLOSED
  0
BLOCK_RECORD
  5
20B
100
AcDbSymbolTableRecord
100
AcDbBlockTableRecord
  2
*D0
  0
BLOCK_RECORD
  5
20C
100
AcDbSymbolTableRecord
100
AcDbBlockTableRecord
  2
*D1
  0
BLOCK_RECORD
  5
20D
100
AcDbSymbolTableRecord
100
AcDbBlockTableRecord
  2
*D2
  0
BLOCK_RECORD
  5
20E
100
AcDbSymbolTableRecord
100
AcDbBlockTableRecord
  2
*D3
  0
BLOCK_RECORD
  5
20F
100
AcDbSymbolTableRecord
100
AcDbBlockTableRecord
  2
*D4
  0
BLOCK_RECORD
  5
210
100
AcDbSymbolTableRecord
100
AcDbBlockTableRecord
  2
*D5
  0
BLOCK_RECORD
  5
211
100
AcDbSymbolTableRecord
100
AcDbBlockTableRecord
  2
*D6
  0
BLOCK_RECORD
  5
212
100
AcDbSymbolTableRecord
100
AcDbBlockTableRecord
  2
*D7
  0
BLOCK_RECORD
  5
213
100
AcDbSymbolTableRecord
100
AcDbBlockTableRecord
  2
*D8
  0
BLOCK_RECORD
  5
214
100
AcDbSymbolTableRecord
100
AcDbBlockTableRecord
  2
*D9
  0
BLOCK_RECORD
  5
215
100
AcDbSymbolTableRecord
100
AcDbBlockTableRecord
  2
*D10
  0
BLOCK_RECORD
  5
216
100
AcDbSymbolTableRecord
100
AcDbBlockTableRecord
  2
*D11
  0
BLOCK_RECORD
  5
217
100
AcDbSymbolTableRecord
100
AcDbBlockTableRecord
  2
*D12
  0
BLOCK_RECORD
  5
218
100
AcDbSymbolTableRecord
100
AcDbBlockTableRecord
  2
*D13
  0
BLOCK_RECORD
  5
219
100
AcDbSymbolTableRecord
100
AcDbBlockTableRecord
  2
*D14
  0
BLOCK_RECORD
  5
21A
100
AcDbSymbolTableRecord
100
AcDbBlockTableRecord
  2
*D15
  0
BLOCK_RECORD
  5
21B
100
AcDbSymbolTableRecord
100
AcDbBlockTableRecord
  2
*D16
  0
BLOCK_RECORD
  5
21C
100
AcDbSymbolTableRecord
100
AcDbBlockTableRecord
  2
*T1
  0
BLOCK_RECORD
  5
21D
100
AcDbSymbolTableRecord
100
AcDbBlockTableRecord
  2
*T2
  0
BLOCK_RECORD
  5
21E
100
AcDbSymbolTableRecord
100
AcDbBlockTableRecord
  2
*T3
  0
BLOCK_RECORD
  5
21F
100
AcDbSymbolTableRecord
100
AcDbBlockTableRecord
  2
*T4
  0
BLOCK_RECORD
  5
220
100
AcDbSymbolTableRecord
100
AcDbBlockTableRecord
  2
*T5
  0
BLOCK_RECORD
  5
221
100
AcDbSymbolTableRecord
100
AcDbBlockTableRecord
  2
*T6
  0
ENDTAB
  0
TABLE
  2
DIMSTYLE
  5
A
100
AcDbSymbolTable
 70
1
100
AcDbDimStyleTable
 71
0
  0
DIMSTYLE
105
222
100
AcDbSymbolTableRecord
100
AcDbDimStyleTableRecord
  2
STANDARD
 70
0
  3

  4

 40
1.0
 41
0.1875
 42
0.0625
 43
0.38
 44
0.125
 45
0.0
 46
0.0
 47
0.01
 48
0.01
140
0.15625
141
0.09
142
0.0
143
25.4
144
1.0
145
0.0
146
1.0
147
0.09
 71
1.0
 72
0.0
 73
1
 74
1
 75
0
 76
0
 77
0
 78
4
170
0
171
2
172
0
173
0
174
0
175
0
176
0
177
0
178
0
270
2
271
2
272
2
273
2
274
2
275
0
280
0
281
0
282
0
283
1
284
4
285
0
286
0
287
3
288
0
340
11
278
46
341
20A
342
20A
343
20A
344
20A
  0
DIMSTYLE
105
223
100
AcDbSymbolTableRecord
100
AcDbDimStyleTableRecord
  2
DIMSTYLE_1
 70
0
  3

  4

 40
1.0
 41
0.1875
 42
0.0625
 43
0.38
 44
0.125
 45
0.0
 46
0.0
 47
0.01
 48
0.01
140
0.15625
141
0.09
142
0.0
143
25.4
144
5.0
145
0.0
146
1.0
147
0.078125
 71
0.0
 72
0.0
 73
1
 74
1
 75
0
 76
0
 77
0
 78
4
170
0
171
2
172
0
173
0
174
0
175
0
176
0
177
0
178
0
270
2
271
2
272
2
273
2
274
2
275
0
280
0
281
0
282
0
283
1
284
4
285
0
286
0
287
3
288
0
340
11
278
46
341
20A
342
20A
343
20A
344
20A
  0
DIMSTYLE
105
224
100
AcDbSymbolTableRecord
100
AcDbDimStyleTableRecord
  2
DIMSTYLE_2
 70
0
  3
<>
  4

 40
1.0
 41
0.1875
 42
0.0625
 43
0.38
 44
0.125
 45
0.0
 46
0.0
 47
0.2
 48
0.0
140
0.15625
141
0.09
142
0.0
143
25.4
144
5.0
145
0.0
146
1.0
147
0.09
 71
1.0
 72
0.0
 73
1
 74
1
 75
0
 76
0
 77
0
 78
4
170
0
171
2
172
0
173
0
174
0
175
0
176
0
177
0
178
0
270
2
271
2
272
2
273
2
274
2
275
0
280
0
281
0
282
0
283
1
284
4
285
0
286
0
287
3
288
1
340
11
278
46
289
2
341
20A
342
20A
343
20A
344
20A
  0
DIMSTYLE
105
225
100
AcDbSymbolTableRecord
100
AcDbDimStyleTableRecord
  2
DIMSTYLE_3
 70
0
  3
<>
  4

 40
1.0
 41
0.1875
 42
0.0625
 43
0.38
 44
0.125
 45
0.0
 46
0.0
 47
0.01
 48
0.01
140
0.15625
141
0.09
142
0.0
143
25.4
144
5.0
145
0.0
146
1.0
147
0.09
 71
0.0
 72
0.0
 73
1
 74
1
 75
0
 76
0
 77
0
 78
4
170
0
171
2
172
1
173
0
174
0
175
0
176
0
177
0
178
0
270
2
271
2
272
2
273
2
274
2
275
0
280
0
281
0
282
0
283
1
284
4
285
0
286
0
287
3
288
1
340
11
278
46
289
2
341
20A
342
20A
343
20A
344
20A
  0
DIMSTYLE
105
226
100
AcDbSymbolTableRecord
100
AcDbDimStyleTableRecord
  2
DIMSTYLE_4
 70
0
  3
<>
  4

 40
1.0
 41
0.1875
 42
0.0625
 43
0.38
 44
0.125
 45
0.0
 46
0.0
 47
0.0195
 48
0.0195
140
0.15625
141
0.09
142
0.0
143
25.4
144
5.0
145
0.0
146
1.0
147
0.09
 71
0.0
 72
1.0
 73
1
 74
1
 75
0
 76
0
 77
0
 78
4
170
0
171
2
172
0
173
0
174
0
175
0
176
0
177
0
178
0
270
2
271
2
272
2
273
2
274
2
275
0
280
0
281
0
282
0
283
1
284
4
285
0
286
0
287
3
288
1
340
11
278
46
289
2
341
20A
342
20A
343
20A
344
20A
  0
DIMSTYLE
105
227
100
AcDbSymbolTableRecord
100
AcDbDimStyleTableRecord
  2
DIMSTYLE_5
 70
0
  3
<>
  4

 40
1.0
 41
0.1875
 42
0.0625
 43
0.38
 44
0.125
 45
0.0
 46
0.0
 47
0.01
 48
0.01
140
0.15625
141
0.09
142
0.0
143
25.4
144
5.0
145
0.0
146
1.0
147
0.09
 71
0.0
 72
0.0
 73
1
 74
1
 75
0
 76
0
 77
0
 78
4
170
0
171
2
172
0
173
0
174
0
175
0
176
0
177
0
178
0
270
2
271
2
272
2
273
2
274
2
275
0
280
0
281
0
282
0
283
1
284
4
285
0
286
0
287
3
288
1
340
11
278
46
289
2
341
20A
342
20A
343
20A
344
20A
  0
ENDTAB
  0
ENDSEC
  0
SECTION
  2
BLOCKS
  0
BLOCK
  5
20
100
AcDbEntity
  8
0
100
AcDbBlockBegin
  2
*Model_Space
 70
0
 10
0.0
 20
0.0
 30
0.0
  3
*Model_Space
  1

  0
ENDBLK
  5
21
100
AcDbEntity
  8
0
100
AcDbBlockEnd
  0
BLOCK
  5
1C
100
AcDbEntity
  8
0
100
AcDbBlockBegin
  2
*Paper_Space
 70
0
 10
0.0
 20
0.0
 30
0.0
  3
*Paper_Space
  1

  0
ENDBLK
  5
1D
100
AcDbEntity
  8
0
100
AcDbBlockEnd
  0
BLOCK
  5
228
100
AcDbEntity
  8
0
100
AcDbBlockBegin
  2
_CLOSED
 70
64
 10
0.0
 20
0.0
  3
_CLOSED
  1

  0
LINE
  5
229
100
AcDbEntity
  8
0
  6
BYBLOCK
 62
0
100
AcDbLine
 10
0.0
 20
0.0
 11
-1.0
 21
0.1666666667
  0
LINE
  5
22A
100
AcDbEntity
  8
0
  6
BYBLOCK
 62
0
100
AcDbLine
 10
-1.0
 20
0.1666666667
 11
-1.0
 21
-0.1666666667
  0
LINE
  5
22B
100
AcDbEntity
  8
0
  6
BYBLOCK
 62
0
100
AcDbLine
 10
-1.0
 20
-0.1666666667
 11
0.0
 21
0.0
  0
LINE
  5
22C
100
AcDbEntity
  8
0
  6
BYBLOCK
 62
0
100
AcDbLine
 10
-1.0
 20
0.0
 11
0.0
 21
0.0
  0
ENDBLK
  5
22D
100
AcDbEntity
  8
0
  6
BYBLOCK
 62
0
100
AcDbBlockEnd
  0
BLOCK
  5
22E
100
AcDbEntity
  8
0
100
AcDbBlockBegin
 62
2
  6
CONTINUOUS
  2
*D0
 70
65
 10
0.0
 20
0.0
  3
*D0
  1

  0
MTEXT
  5
22F
100
AcDbEntity
  8
0
100
AcDbMText
 62
2
  6
CONTINUOUS
  7
STANDARD
 71
2
 72
1
 10
1.9873427361
 20
6.6844188433
 30
0.0
 11
1.0
 21
0.0
 31
0.0
 44
0.9
  1
120
 40
0.15625
 41
0.375
  0
LINE
  5
230
100
AcDbEntity
  8
0
100
AcDbLine
 62
2
  6
CONTINUOUS
 10
3.0016113612
 20
6.1338528984
 11
1.8623427361
 21
6.1338528984
  0
LINE
  5
231
100
AcDbEntity
  8
0
100
AcDbLine
 62
2
  6
CONTINUOUS
 10
3.0248517576
 20
7.0787347882
 11
1.8623427361
 21
7.0787347882
  0
LINE
  5
232
100
AcDbEntity
  8
0
100
AcDbLine
 62
2
  6
CONTINUOUS
 10
1.9873427361
 20
6.1338528984
 11
1.9873427361
 21
6.4500438433
  0
LINE
  5
233
100
AcDbEntity
  8
0
100
AcDbLine
 62
2
  6
CONTINUOUS
 10
1.9873427361
 20
7.0787347882
 11
1.9873427361
 21
6.7625438433
  0
INSERT
  5
234
100
AcDbEntity
  8
0
100
AcDbBlockReference
 62
2
  6
CONTINUOUS
  2
_CLOSED
 10
1.9873427361
 20
6.1338528984
 41
0.1875
 42
0.1875
 43
0.1875
 50
270.0
  0
INSERT
  5
235
100
AcDbEntity
  8
0
100
AcDbBlockReference
 62
2
  6
CONTINUOUS
  2
_CLOSED
 10
1.9873427361
 20
7.0787347882
 41
0.1875
 42
0.1875
 43
0.1875
 50
90.0
  0
ENDBLK
  5
236
100
AcDbEntity
  8
0
  6
BYBLOCK
 62
0
100
AcDbBlockEnd
  0
BLOCK
  5
237
100
AcDbEntity
  8
0
100
AcDbBlockBegin
 62
2
  6
CONTINUOUS
  2
*D1
 70
65
 10
0.0
 20
0.0
  3
*D1
  1

  0
MTEXT
  5
238
100
AcDbEntity
  8
0
100
AcDbMText
 62
2
  6
CONTINUOUS
  7
STANDARD
 71
2
 72
1
 10
13.7377848924
 20
3.633545891
 30
0.0
 11
1.0
 21
0.0
 31
0.0
 44
0.9
  1
120
 40
0.15625
 41
0.375
  0
LINE
  5
239
100
AcDbEntity
  8
0
100
AcDbLine
 62
2
  6
CONTINUOUS
 10
12.7201017733
 20
4.0278618359
 11
13.8627848924
 21
4.0278618359
  0
LINE
  5
23A
100
AcDbEntity
  8
0
100
AcDbLine
 62
2
  6
CONTINUOUS
 10
12.733637406
 20
3.0829799462
 11
13.8627848924
 21
3.0829799462
  0
LINE
  5
23B
100
AcDbEntity
  8
0
100
AcDbLine
 62
2
  6
CONTINUOUS
 10
13.7377848924
 20
4.0278618359
 11
13.7377848924
 21
3.711670891
  0
LINE
  5
23C
100
AcDbEntity
  8
0
100
AcDbLine
 62
2
  6
CONTINUOUS
 10
13.7377848924
 20
3.0829799462
 11
13.7377848924
 21
3.399170891
  0
INSERT
  5
23D
100
AcDbEntity
  8
0
100
AcDbBlockReference
 62
2
  6
CONTINUOUS
  2
_CLOSED
 10
13.7377848924
 20
4.0278618359
 41
0.1875
 42
0.1875
 43
0.1875
 50
90.0
  0
INSERT
  5
23E
100
AcDbEntity
  8
0
100
AcDbBlockReference
 62
2
  6
CONTINUOUS
  2
_CLOSED
 10
13.7377848924
 20
3.0829799462
 41
0.1875
 42
0.1875
 43
0.1875
 50
270.0
  0
ENDBLK
  5
23F
100
AcDbEntity
  8
0
  6
BYBLOCK
 62
0
100
AcDbBlockEnd
  0
BLOCK
  5
240
100
AcDbEntity
  8
0
100
AcDbBlockBegin
 62
2
  6
CONTINUOUS
  2
*D2
 70
65
 10
0.0
 20
0.0
  3
*D2
  1

  0
MTEXT
  5
241
100
AcDbEntity
  8
0
100
AcDbMText
 62
2
  6
CONTINUOUS
  7
STANDARD
 71
2
 72
1
 10
7.9166855587
 20
7.8879318657
 30
0.0
 11
1.0
 21
0.0
 31
0.0
 44
0.9
  1
1220
 40
0.15625
 41
0.5
  0
LINE
  5
242
100
AcDbEntity
  8
0
100
AcDbLine
 62
2
  6
CONTINUOUS
 10
3.1135359524
 20
7.4773177285
 11
3.1135359524
 21
7.9348068657
  0
LINE
  5
243
100
AcDbEntity
  8
0
100
AcDbLine
 62
2
  6
CONTINUOUS
 10
12.719835165
 20
7.1775763993
 11
12.719835165
 21
7.9348068657
  0
LINE
  5
244
100
AcDbEntity
  8
0
100
AcDbLine
 62
2
  6
CONTINUOUS
 10
3.1135359524
 20
7.8098068657
 11
7.5885605587
 21
7.8098068657
  0
LINE
  5
245
100
AcDbEntity
  8
0
100
AcDbLine
 62
2
  6
CONTINUOUS
 10
12.719835165
 20
7.8098068657
 11
8.2448105587
 21
7.8098068657
  0
INSERT
  5
246
100
AcDbEntity
  8
0
100
AcDbBlockReference
 62
2
  6
CONTINUOUS
  2
_CLOSED
 10
3.1135359524
 20
7.8098068657
 41
0.1875
 42
0.1875
 43
0.1875
 50
180.0
  0
INSERT
  5
247
100
AcDbEntity
  8
0
100
AcDbBlockReference
 62
2
  6
CONTINUOUS
  2
_CLOSED
 10
12.719835165
 20
7.8098068657
 41
0.1875
 42
0.1875
 43
0.1875
  0
ENDBLK
  5
248
100
AcDbEntity
  8
0
  6
BYBLOCK
 62
0
100
AcDbBlockEnd
  0
BLOCK
  5
249
100
AcDbEntity
  8
0
100
AcDbBlockBegin
 62
2
  6
CONTINUOUS
  2
*D3
 70
65
 10
0.0
 20
0.0
  3
*D3
  1

  0
MTEXT
  5
24A
100
AcDbEntity
  8
0
100
AcDbMText
 62
2
  6
CONTINUOUS
  7
STANDARD
 71
2
 72
1
 10
13.1205716883
 20
3.8697663635
 30
0.0
 11
1.0
 21
0.0
 31
0.0
 44
0.9
  1
60
 40
0.15625
 41
0.25
  0
LINE
  5
24B
100
AcDbEntity
  8
0
100
AcDbLine
 62
2
  6
CONTINUOUS
 10
12.930810834
 20
3.555420891
 11
13.2455716883
 21
3.555420891
  0
LINE
  5
24C
100
AcDbEntity
  8
0
100
AcDbLine
 62
2
  6
CONTINUOUS
 10
12.9955716883
 20
4.0278618359
 11
13.3028907855
 21
4.0278618359
  0
LINE
  5
24D
100
AcDbEntity
  8
0
100
AcDbLine
 62
2
  6
CONTINUOUS
 10
13.1205716883
 20
3.555420891
 11
13.1205716883
 21
3.055420891
  0
LINE
  5
24E
100
AcDbEntity
  8
0
100
AcDbLine
 62
2
  6
CONTINUOUS
 10
13.1205716883
 20
4.0278618359
 11
13.1205716883
 21
4.5278618359
  0
INSERT
  5
24F
100
AcDbEntity
  8
0
100
AcDbBlockReference
 62
2
  6
CONTINUOUS
  2
_CLOSED
 10
13.1205716883
 20
3.555420891
 41
0.1875
 42
0.1875
 43
0.1875
 50
90.0
  0
INSERT
  5
250
100
AcDbEntity
  8
0
100
AcDbBlockReference
 62
2
  6
CONTINUOUS
  2
_CLOSED
 10
13.1205716883
 20
4.0278618359
 41
0.1875
 42
0.1875
 43
0.1875
 50
270.0
  0
ENDBLK
  5
251
100
AcDbEntity
  8
0
  6
BYBLOCK
 62
0
100
AcDbBlockEnd
  0
BLOCK
  5
252
100
AcDbEntity
  8
0
100
AcDbBlockBegin
 62
2
  6
CONTINUOUS
  2
*D4
 70
65
 10
0.0
 20
0.0
  3
*D4
  1

  0
MTEXT
  5
253
100
AcDbEntity
  8
0
100
AcDbMText
 62
2
  6
CONTINUOUS
  7
STANDARD
 71
2
 72
1
 10
5.5151107555
 20
7.477953065
 30
0.0
 11
1.0
 21
0.0
 31
0.0
 44
0.9
  1
610
 40
0.15625
 41
0.375
  0
LINE
  5
254
100
AcDbEntity
  8
0
100
AcDbLine
 62
2
  6
CONTINUOUS
 10
7.9166855587
 20
7.2633846955
 11
7.9166855587
 21
7.524828065
  0
LINE
  5
255
100
AcDbEntity
  8
0
100
AcDbLine
 62
2
  6
CONTINUOUS
 10
3.1135359524
 20
7.142929319
 11
3.1135359524
 21
7.524828065
  0
LINE
  5
256
100
AcDbEntity
  8
0
100
AcDbLine
 62
2
  6
CONTINUOUS
 10
7.9166855587
 20
7.399828065
 11
5.7807357555
 21
7.399828065
  0
LINE
  5
257
100
AcDbEntity
  8
0
100
AcDbLine
 62
2
  6
CONTINUOUS
 10
3.1135359524
 20
7.399828065
 11
5.2494857555
 21
7.399828065
  0
INSERT
  5
258
100
AcDbEntity
  8
0
100
AcDbBlockReference
 62
2
  6
CONTINUOUS
  2
_CLOSED
 10
7.9166855587
 20
7.399828065
 41
0.1875
 42
0.1875
 43
0.1875
  0
INSERT
  5
259
100
AcDbEntity
  8
0
100
AcDbBlockReference
 62
2
  6
CONTINUOUS
  2
_CLOSED
 10
3.1135359524
 20
7.399828065
 41
0.1875
 42
0.1875
 43
0.1875
 50
180.0
  0
ENDBLK
  5
25A
100
AcDbEntity
  8
0
  6
BYBLOCK
 62
0
100
AcDbBlockEnd
  0
BLOCK
  5
25B
100
AcDbEntity
  8
0
100
AcDbBlockBegin
 62
2
  6
CONTINUOUS
  2
*D5
 70
65
 10
0.0
 20
0.0
  3
*D5
  1

  0
TEXT
  5
25C
100
AcDbEntity
  8
0
100
AcDbText
 62
2
  6
CONTINUOUS
 10
9.0482091791
 20
5.6256483025
  7
TEXTSTYLE_1
 40
0.15625
  1
n
 41
1.0
 72
0
100
AcDbText
  0
TEXT
  5
25D
100
AcDbEntity
  8
0
100
AcDbText
 62
2
  6
CONTINUOUS
 10
9.2565425125
 20
5.6256483025
  7
STANDARD
 40
0.15625
  1
30
 41
0.8
 72
0
100
AcDbText
  0
TEXT
  5
25E
100
AcDbEntity
  8
0
100
AcDbText
 62
2
  6
CONTINUOUS
 10
9.5065425125
 20
5.7428358025
  7
STANDARD
 40
0.15625
  1
+0.2
 41
0.8
 72
0
100
AcDbText
  0
TEXT
  5
25F
100
AcDbEntity
  8
0
100
AcDbText
 62
2
  6
CONTINUOUS
 10
9.5065425125
 20
5.5084608025
  7
STANDARD
 40
0.15625
  1
 0
 41
0.8
 72
0
100
AcDbText
  0
TEXT
  5
260
100
AcDbEntity
  8
0
100
AcDbText
 62
2
  6
CONTINUOUS
 10
10.0065425125
 20
5.6256483025
  7
STANDARD
 40
0.15625
  1
 THRU
 41
0.8
 72
0
100
AcDbText
  0
LINE
  5
261
100
AcDbEntity
  8
0
100
AcDbLine
 62
2
  6
CONTINUOUS
 10
7.9992134622
 20
6.5218002161
 11
8.7982091791
 21
5.7037733025
  0
LINE
  5
262
100
AcDbEntity
  8
0
100
AcDbLine
 62
2
  6
CONTINUOUS
 10
8.7982091791
 20
5.7037733025
 11
8.9700841791
 21
5.7037733025
  0
INSERT
  5
263
100
AcDbEntity
  8
0
100
AcDbBlockReference
 62
2
  6
CONTINUOUS
  2
_CLOSED
 10
7.9992134622
 20
6.5218002161
 41
0.1875
 42
0.1875
 43
0.1875
 50
134.3257008964
  0
ENDBLK
  5
264
100
AcDbEntity
  8
0
  6
BYBLOCK
 62
0
100
AcDbBlockEnd
  0
BLOCK
  5
265
100
AcDbEntity
  8
0
100
AcDbBlockBegin
 62
2
  6
CONTINUOUS
  2
*D6
 70
65
 10
0.0
 20
0.0
  3
*D6
  1

  0
MTEXT
  5
266
100
AcDbEntity
  8
0
100
AcDbMText
 62
2
  6
CONTINUOUS
  7
STANDARD
 71
2
 72
1
 10
2.6135359524
 20
6.9206393158
 30
0.0
 11
1.0
 21
0.0
 31
0.0
 44
0.9
  1
60
 40
0.15625
 41
0.25
  0
LINE
  5
267
100
AcDbEntity
  8
0
100
AcDbLine
 62
2
  6
CONTINUOUS
 10
2.86046442
 20
7.0787347882
 11
2.4885359524
 21
7.0787347882
  0
LINE
  5
268
100
AcDbEntity
  8
0
100
AcDbLine
 62
2
  6
CONTINUOUS
 10
2.9238752964
 20
6.6062938433
 11
2.4885359524
 21
6.6062938433
  0
LINE
  5
269
100
AcDbEntity
  8
0
100
AcDbLine
 62
2
  6
CONTINUOUS
 10
2.6135359524
 20
7.0787347882
 11
2.6135359524
 21
7.5787347882
  0
LINE
  5
26A
100
AcDbEntity
  8
0
100
AcDbLine
 62
2
  6
CONTINUOUS
 10
2.6135359524
 20
6.6062938433
 11
2.6135359524
 21
6.1062938433
  0
INSERT
  5
26B
100
AcDbEntity
  8
0
100
AcDbBlockReference
 62
2
  6
CONTINUOUS
  2
_CLOSED
 10
2.6135359524
 20
7.0787347882
 41
0.1875
 42
0.1875
 43
0.1875
 50
270.0
  0
INSERT
  5
26C
100
AcDbEntity
  8
0
100
AcDbBlockReference
 62
2
  6
CONTINUOUS
  2
_CLOSED
 10
2.6135359524
 20
6.6062938433
 41
0.1875
 42
0.1875
 43
0.1875
 50
90.0
  0
ENDBLK
  5
26D
100
AcDbEntity
  8
0
  6
BYBLOCK
 62
0
100
AcDbBlockEnd
  0
BLOCK
  5
26E
100
AcDbEntity
  8
0
100
AcDbBlockBegin
 62
2
  6
CONTINUOUS
  2
*D7
 70
65
 10
0.0
 20
0.0
  3
*D7
  1

  0
MTEXT
  5
26F
100
AcDbEntity
  8
0
100
AcDbMText
 62
2
  6
CONTINUOUS
  7
STANDARD
 71
2
 72
1
 10
5.751331228
 20
4.8519587317
 30
0.0
 11
1.0
 21
0.0
 31
0.0
 44
0.9
  1
550
 40
0.15625
 41
0.375
  0
LINE
  5
270
100
AcDbEntity
  8
0
100
AcDbLine
 62
2
  6
CONTINUOUS
 10
7.9166855587
 20
3.617920891
 11
7.9166855587
 21
4.8988337317
  0
LINE
  5
271
100
AcDbEntity
  8
0
100
AcDbLine
 62
2
  6
CONTINUOUS
 10
3.5859768973
 20
3.617920891
 11
3.5859768973
 21
4.8988337317
  0
LINE
  5
272
100
AcDbEntity
  8
0
100
AcDbLine
 62
2
  6
CONTINUOUS
 10
7.9166855587
 20
4.7738337317
 11
6.016956228
 21
4.7738337317
  0
LINE
  5
273
100
AcDbEntity
  8
0
100
AcDbLine
 62
2
  6
CONTINUOUS
 10
3.5859768973
 20
4.7738337317
 11
5.485706228
 21
4.7738337317
  0
INSERT
  5
274
100
AcDbEntity
  8
0
100
AcDbBlockReference
 62
2
  6
CONTINUOUS
  2
_CLOSED
 10
7.9166855587
 20
4.7738337317
 41
0.1875
 42
0.1875
 43
0.1875
  0
INSERT
  5
275
100
AcDbEntity
  8
0
100
AcDbBlockReference
 62
2
  6
CONTINUOUS
  2
_CLOSED
 10
3.5859768973
 20
4.7738337317
 41
0.1875
 42
0.1875
 43
0.1875
 50
180.0
  0
ENDBLK
  5
276
100
AcDbEntity
  8
0
  6
BYBLOCK
 62
0
100
AcDbBlockEnd
  0
BLOCK
  5
277
100
AcDbEntity
  8
0
100
AcDbBlockBegin
 62
2
  6
CONTINUOUS
  2
*D8
 70
65
 10
0.0
 20
0.0
  3
*D8
  1

  0
MTEXT
  5
278
100
AcDbEntity
  8
0
100
AcDbMText
 62
2
  6
CONTINUOUS
  7
TEXTSTYLE_1
 71
1
 72
1
 10
4.3821582506
 20
2.784187
 30
0.0
 11
1.0
 21
0.0
 31
0.0
 44
0.9
  1
{\Fgdt;n}\Ftxt;60\P\Fgdt;{\Fgdt;x}\Ftxt; 40 DEEP\PChamfer 1 x 45\Fgdt;{\Fgdt;~}
 40
0.15625
 41
1.8541666667
  0
LINE
  5
279
100
AcDbEntity
  8
0
100
AcDbLine
 62
2
  6
CONTINUOUS
 10
3.713742208
 20
3.3567348649
 11
3.5859768973
 21
3.555420891
  0
LINE
  5
27A
100
AcDbEntity
  8
0
100
AcDbLine
 62
2
  6
CONTINUOUS
 10
3.5859768973
 20
3.555420891
 11
4.1321582506
 21
2.706062
  0
LINE
  5
27B
100
AcDbEntity
  8
0
100
AcDbLine
 62
2
  6
CONTINUOUS
 10
4.1321582506
 20
2.706062
 11
4.3040332506
 21
2.706062
  0
LINE
  5
27C
100
AcDbEntity
  8
0
100
AcDbLine
 62
2
  6
CONTINUOUS
 10
3.4582115865
 20
3.7541069172
 11
3.5859768973
 21
3.555420891
  0
INSERT
  5
27D
100
AcDbEntity
  8
0
100
AcDbBlockReference
 62
2
  6
CONTINUOUS
  2
_CLOSED
 10
3.713742208
 20
3.3567348649
 41
0.1875
 42
0.1875
 43
0.1875
 50
302.7430976659
  0
INSERT
  5
27E
100
AcDbEntity
  8
0
100
AcDbBlockReference
 62
2
  6
CONTINUOUS
  2
_CLOSED
 10
3.4582115865
 20
3.7541069172
 41
0.1875
 42
0.1875
 43
0.1875
 50
122.7430976659
  0
ENDBLK
  5
27F
100
AcDbEntity
  8
0
  6
BYBLOCK
 62
0
100
AcDbBlockEnd
  0
BLOCK
  5
280
100
AcDbEntity
  8
0
100
AcDbBlockBegin
 62
2
  6
CONTINUOUS
  2
*D9
 70
65
 10
0.0
 20
0.0
  3
*D9
  1

  0
MTEXT
  5
281
100
AcDbEntity
  8
0
100
AcDbMText
 62
2
  6
CONTINUOUS
  7
STANDARD
 71
2
 72
1
 10
1.9036382559
 20
3.8107112454
 30
0.0
 11
1.0
 21
0.0
 31
0.0
 44
0.9
  1
45
 40
0.15625
 41
0.25
  0
LINE
  5
282
100
AcDbEntity
  8
0
100
AcDbLine
 62
2
  6
CONTINUOUS
 10
2.6240042286
 20
3.555420891
 11
1.7786382559
 21
3.555420891
  0
LINE
  5
283
100
AcDbEntity
  8
0
100
AcDbLine
 62
2
  6
CONTINUOUS
 10
3.4591714339
 20
3.9097515997
 11
1.7786382559
 21
3.9097515997
  0
LINE
  5
284
100
AcDbEntity
  8
0
100
AcDbLine
 62
2
  6
CONTINUOUS
 10
1.9036382559
 20
3.555420891
 11
1.9036382559
 21
3.055420891
  0
LINE
  5
285
100
AcDbEntity
  8
0
100
AcDbLine
 62
2
  6
CONTINUOUS
 10
1.9036382559
 20
3.9097515997
 11
1.9036382559
 21
4.4097515997
  0
INSERT
  5
286
100
AcDbEntity
  8
0
100
AcDbBlockReference
 62
2
  6
CONTINUOUS
  2
_CLOSED
 10
1.9036382559
 20
3.555420891
 41
0.1875
 42
0.1875
 43
0.1875
 50
90.0
  0
INSERT
  5
287
100
AcDbEntity
  8
0
100
AcDbBlockReference
 62
2
  6
CONTINUOUS
  2
_CLOSED
 10
1.9036382559
 20
3.9097515997
 41
0.1875
 42
0.1875
 43
0.1875
 50
270.0
  0
ENDBLK
  5
288
100
AcDbEntity
  8
0
  6
BYBLOCK
 62
0
100
AcDbBlockEnd
  0
BLOCK
  5
289
100
AcDbEntity
  8
0
100
AcDbBlockBegin
 62
2
  6
CONTINUOUS
  2
*D10
 70
65
 10
0.0
 20
0.0
  3
*D10
  1

  0
TEXT
  5
28A
100
AcDbEntity
  8
0
100
AcDbText
 62
2
  6
CONTINUOUS
 10
10.5420651698
 20
2.6189925948
  7
TEXTSTYLE_1
 40
0.15625
  1
n
 41
1.0
 72
0
100
AcDbText
  0
TEXT
  5
28B
100
AcDbEntity
  8
0
100
AcDbText
 62
2
  6
CONTINUOUS
 10
10.7503985031
 20
2.7361800948
  7
STANDARD
 40
0.15625
  1
20.039
 41
0.8
 72
0
100
AcDbText
  0
TEXT
  5
28C
100
AcDbEntity
  8
0
100
AcDbText
 62
2
  6
CONTINUOUS
 10
10.7503985031
 20
2.5018050948
  7
STANDARD
 40
0.15625
  1
20.000
 41
0.8
 72
0
100
AcDbText
  0
TEXT
  5
28D
100
AcDbEntity
  8
0
100
AcDbText
 62
2
  6
CONTINUOUS
 10
11.5003985031
 20
2.6189925948
  7
STANDARD
 40
0.15625
  1
 (H8)
 41
0.8
 72
0
100
AcDbText
  0
TEXT
  5
28E
100
AcDbEntity
  8
0
100
AcDbText
 62
2
  6
CONTINUOUS
 10
10.5420651698
 20
2.2674300948
  7
TEXTSTYLE_1
 40
0.15625
  1
x
 41
1.0
 72
0
100
AcDbText
  0
TEXT
  5
28F
100
AcDbEntity
  8
0
100
AcDbText
 62
2
  6
CONTINUOUS
 10
10.7634193365
 20
2.2674300948
  7
STANDARD
 40
0.15625
  1
 
 41
0.8
 72
0
100
AcDbText
  0
TEXT
  5
290
100
AcDbEntity
  8
0
100
AcDbText
 62
2
  6
CONTINUOUS
 10
10.8884193365
 20
2.2674300948
  7
STANDARD
 40
0.15625
  1
40
 41
0.8
 72
0
100
AcDbText
  0
TEXT
  5
291
100
AcDbEntity
  8
0
100
AcDbText
 62
2
  6
CONTINUOUS
 10
11.1384193365
 20
2.2674300948
  7
STANDARD
 40
0.15625
  1
 DEEP
 41
0.8
 72
0
100
AcDbText
  0
TEXT
  5
292
100
AcDbEntity
  8
0
100
AcDbText
 62
2
  6
CONTINUOUS
 10
10.5420651698
 20
2.0330550948
  7
STANDARD
 40
0.15625
  1
CHAMFER 1 x 45
 41
0.8
 72
0
100
AcDbText
  0
TEXT
  5
293
100
AcDbEntity
  8
0
100
AcDbText
 62
2
  6
CONTINUOUS
 10
12.2920651698
 20
2.0330550948
  7
TEXTSTYLE_1
 40
0.15625
  1
~
 41
1.0
 72
0
100
AcDbText
  0
LINE
  5
294
100
AcDbEntity
  8
0
100
AcDbLine
 62
2
  6
CONTINUOUS
 10
9.5072449749
 20
3.4990897774
 11
10.2920651698
 21
2.6971175948
  0
LINE
  5
295
100
AcDbEntity
  8
0
100
AcDbLine
 62
2
  6
CONTINUOUS
 10
10.2920651698
 20
2.6971175948
 11
10.4639401698
 21
2.6971175948
  0
INSERT
  5
296
100
AcDbEntity
  8
0
100
AcDbBlockReference
 62
2
  6
CONTINUOUS
  2
_CLOSED
 10
9.5072449749
 20
3.4990897774
 41
0.1875
 42
0.1875
 43
0.1875
 50
134.3807014374
  0
ENDBLK
  5
297
100
AcDbEntity
  8
0
  6
BYBLOCK
 62
0
100
AcDbBlockEnd
  0
BLOCK
  5
298
100
AcDbEntity
  8
0
100
AcDbBlockBegin
 62
2
  6
CONTINUOUS
  2
*D11
 70
65
 10
0.0
 20
0.0
  3
*D11
  1

  0
MTEXT
  5
299
100
AcDbEntity
  8
0
100
AcDbMText
 62
2
  6
CONTINUOUS
  7
STANDARD
 71
2
 72
1
 10
8.6844020941
 20
4.8519587317
 30
0.0
 11
1.0
 21
0.0
 31
0.0
 44
0.9
  1
195
 40
0.15625
 41
0.375
  0
LINE
  5
29A
100
AcDbEntity
  8
0
100
AcDbLine
 62
2
  6
CONTINUOUS
 10
7.9166855587
 20
3.617920891
 11
7.9166855587
 21
4.8988337317
  0
LINE
  5
29B
100
AcDbEntity
  8
0
100
AcDbLine
 62
2
  6
CONTINUOUS
 10
9.4521186295
 20
3.9153336591
 11
9.4521186295
 21
4.8988337317
  0
LINE
  5
29C
100
AcDbEntity
  8
0
100
AcDbLine
 62
2
  6
CONTINUOUS
 10
7.9166855587
 20
4.7738337317
 11
8.4187770941
 21
4.7738337317
  0
LINE
  5
29D
100
AcDbEntity
  8
0
100
AcDbLine
 62
2
  6
CONTINUOUS
 10
9.4521186295
 20
4.7738337317
 11
8.9500270941
 21
4.7738337317
  0
INSERT
  5
29E
100
AcDbEntity
  8
0
100
AcDbBlockReference
 62
2
  6
CONTINUOUS
  2
_CLOSED
 10
7.9166855587
 20
4.7738337317
 41
0.1875
 42
0.1875
 43
0.1875
 50
180.0
  0
INSERT
  5
29F
100
AcDbEntity
  8
0
100
AcDbBlockReference
 62
2
  6
CONTINUOUS
  2
_CLOSED
 10
9.4521186295
 20
4.7738337317
 41
0.1875
 42
0.1875
 43
0.1875
  0
ENDBLK
  5
2A0
100
AcDbEntity
  8
0
  6
BYBLOCK
 62
0
100
AcDbBlockEnd
  0
BLOCK
  5
2A1
100
AcDbEntity
  8
0
100
AcDbBlockBegin
 62
2
  6
CONTINUOUS
  2
*D12
 70
65
 10
0.0
 20
0.0
  3
*D12
  1

  0
TEXT
  5
2A2
100
AcDbEntity
  8
0
100
AcDbText
 62
2
  6
CONTINUOUS
 10
10.3972142722
 20
4.8714137308
  7
STANDARD
 40
0.15625
  1
4 x 
 41
0.8
 72
0
100
AcDbText
  0
TEXT
  5
2A3
100
AcDbEntity
  8
0
100
AcDbText
 62
2
  6
CONTINUOUS
 10
10.8972142722
 20
4.8714137308
  7
STANDARD
 40
0.15625
  1
M
 41
0.8
 72
0
100
AcDbText
  0
TEXT
  5
2A4
100
AcDbEntity
  8
0
100
AcDbText
 62
2
  6
CONTINUOUS
 10
11.0222142722
 20
4.8714137308
  7
STANDARD
 40
0.15625
  1
8
 41
0.8
 72
0
100
AcDbText
  0
TEXT
  5
2A5
100
AcDbEntity
  8
0
100
AcDbText
 62
2
  6
CONTINUOUS
 10
11.1472142722
 20
4.8714137308
  7
STANDARD
 40
0.15625
  1
 EQUISPACED
 41
0.8
 72
0
100
AcDbText
  0
TEXT
  5
2A6
100
AcDbEntity
  8
0
100
AcDbText
 62
2
  6
CONTINUOUS
 10
10.3972142722
 20
4.6370387308
  7
TEXTSTYLE_1
 40
0.15625
  1
x
 41
1.0
 72
0
100
AcDbText
  0
TEXT
  5
2A7
100
AcDbEntity
  8
0
100
AcDbText
 62
2
  6
CONTINUOUS
 10
10.6185684389
 20
4.6370387308
  7
STANDARD
 40
0.15625
  1
 
 41
0.8
 72
0
100
AcDbText
  0
TEXT
  5
2A8
100
AcDbEntity
  8
0
100
AcDbText
 62
2
  6
CONTINUOUS
 10
10.7435684389
 20
4.6370387308
  7
STANDARD
 40
0.15625
  1
25
 41
0.8
 72
0
100
AcDbText
  0
TEXT
  5
2A9
100
AcDbEntity
  8
0
100
AcDbText
 62
2
  6
CONTINUOUS
 10
10.9935684389
 20
4.6370387308
  7
STANDARD
 40
0.15625
  1
 DEEP
 41
0.8
 72
0
100
AcDbText
  0
TEXT
  5
2AA
100
AcDbEntity
  8
0
100
AcDbText
 62
2
  6
CONTINUOUS
 10
10.3972142722
 20
4.3636012308
  7
STANDARD
 40
0.15625
  1
ON A 
 41
0.8
 72
0
100
AcDbText
  0
TEXT
  5
2AB
100
AcDbEntity
  8
0
100
AcDbText
 62
2
  6
CONTINUOUS
 10
11.1003392722
 20
4.3636012308
  7
TEXTSTYLE_1
 40
0.15625
  1
n
 41
1.0
 72
0
100
AcDbText
  0
TEXT
  5
2AC
100
AcDbEntity
  8
0
100
AcDbText
 62
2
  6
CONTINUOUS
 10
11.3086726056
 20
4.3636012308
  7
STANDARD
 40
0.15625
  1
50
 41
0.8
 72
0
100
AcDbText
  0
TEXT
  5
2AD
100
AcDbEntity
  8
0
100
AcDbText
 62
2
  6
CONTINUOUS
 10
11.6367976056
 20
4.3636012308
  7
STANDARD
 40
0.15625
  1
 PCD
 41
0.8
 72
0
100
AcDbText
  0
LINE
  5
2AE
100
AcDbEntity
  8
0
100
AcDbLine
 62
2
  6
CONTINUOUS
 10
9.4679323577
 20
3.7795096398
 11
10.1472142722
 21
4.9495387308
  0
LINE
  5
2AF
100
AcDbEntity
  8
0
100
AcDbLine
 62
2
  6
CONTINUOUS
 10
10.1472142722
 20
4.9495387308
 11
10.3190892722
 21
4.9495387308
  0
INSERT
  5
2B0
100
AcDbEntity
  8
0
100
AcDbBlockReference
 62
2
  6
CONTINUOUS
  2
_CLOSED
 10
9.4679323577
 20
3.7795096398
 41
0.1875
 42
0.1875
 43
0.1875
 50
239.8619038194
  0
ENDBLK
  5
2B1
100
AcDbEntity
  8
0
  6
BYBLOCK
 62
0
100
AcDbBlockEnd
  0
BLOCK
  5
2B2
100
AcDbEntity
  8
0
100
AcDbBlockBegin
 62
2
  6
CONTINUOUS
  2
*D13
 70
65
 10
0.0
 20
0.0
  3
*D13
  1

  0
MTEXT
  5
2B3
100
AcDbEntity
  8
0
100
AcDbMText
 62
2
  6
CONTINUOUS
  7
STANDARD
 71
1
 72
1
 10
12.8352066059
 20
8.8337213974
 30
0.0
 11
1.0
 21
0.0
 31
0.0
 44
0.9
  1
M16x2\P\Fgdt;{\Fgdt;x}\Ftxt; 42 DEEP\P2 POS
 40
0.15625
 41
1.2213541667
  0
LINE
  5
2B4
100
AcDbEntity
  8
0
100
AcDbLine
 62
2
  6
CONTINUOUS
 10
10.7285063942
 20
9.7188352788
 11
12.5852066059
 21
8.7555963974
  0
LINE
  5
2B5
100
AcDbEntity
  8
0
100
AcDbLine
 62
2
  6
CONTINUOUS
 10
12.5852066059
 20
8.7555963974
 11
12.7570816059
 21
8.7555963974
  0
INSERT
  5
2B6
100
AcDbEntity
  8
0
100
AcDbBlockReference
 62
2
  6
CONTINUOUS
  2
_CLOSED
 10
10.7285063942
 20
9.7188352788
 41
0.1875
 42
0.1875
 43
0.1875
 50
152.580133583
  0
ENDBLK
  5
2B7
100
AcDbEntity
  8
0
  6
BYBLOCK
 62
0
100
AcDbBlockEnd
  0
BLOCK
  5
2B8
100
AcDbEntity
  8
0
100
AcDbBlockBegin
 62
2
  6
CONTINUOUS
  2
*D14
 70
65
 10
0.0
 20
0.0
  3
*D14
  1

  0
MTEXT
  5
2B9
100
AcDbEntity
  8
0
100
AcDbMText
 62
2
  6
CONTINUOUS
  7
STANDARD
 71
2
 72
1
 10
9.2946383146
 20
10.836543914
 30
0.0
 11
1.0
 21
0.0
 31
0.0
 44
0.9
  1
350
 40
0.15625
 41
0.375
  0
LINE
  5
2BA
100
AcDbEntity
  8
0
100
AcDbLine
 62
2
  6
CONTINUOUS
 10
7.9166855587
 20
9.9941194261
 11
7.9166855587
 21
10.883418914
  0
LINE
  5
2BB
100
AcDbEntity
  8
0
100
AcDbLine
 62
2
  6
CONTINUOUS
 10
10.6725910705
 20
9.9941194261
 11
10.6725910705
 21
10.883418914
  0
LINE
  5
2BC
100
AcDbEntity
  8
0
100
AcDbLine
 62
2
  6
CONTINUOUS
 10
7.9166855587
 20
10.758418914
 11
9.0290133146
 21
10.758418914
  0
LINE
  5
2BD
100
AcDbEntity
  8
0
100
AcDbLine
 62
2
  6
CONTINUOUS
 10
10.6725910705
 20
10.758418914
 11
9.5602633146
 21
10.758418914
  0
INSERT
  5
2BE
100
AcDbEntity
  8
0
100
AcDbBlockReference
 62
2
  6
CONTINUOUS
  2
_CLOSED
 10
7.9166855587
 20
10.758418914
 41
0.1875
 42
0.1875
 43
0.1875
 50
180.0
  0
INSERT
  5
2BF
100
AcDbEntity
  8
0
100
AcDbBlockReference
 62
2
  6
CONTINUOUS
  2
_CLOSED
 10
10.6725910705
 20
10.758418914
 41
0.1875
 42
0.1875
 43
0.1875
  0
ENDBLK
  5
2C0
100
AcDbEntity
  8
0
  6
BYBLOCK
 62
0
100
AcDbBlockEnd
  0
BLOCK
  5
2C1
100
AcDbEntity
  8
0
100
AcDbBlockBegin
 62
2
  6
CONTINUOUS
  2
*D15
 70
65
 10
0.0
 20
0.0
  3
*D15
  1

  0
MTEXT
  5
2C2
100
AcDbEntity
  8
0
100
AcDbMText
 62
2
  6
CONTINUOUS
  7
STANDARD
 71
2
 72
1
 10
6.5387328028
 20
10.836543914
 30
0.0
 11
1.0
 21
0.0
 31
0.0
 44
0.9
  1
350
 40
0.15625
 41
0.375
  0
LINE
  5
2C3
100
AcDbEntity
  8
0
100
AcDbLine
 62
2
  6
CONTINUOUS
 10
7.9166855587
 20
9.9941194261
 11
7.9166855587
 21
10.883418914
  0
LINE
  5
2C4
100
AcDbEntity
  8
0
100
AcDbLine
 62
2
  6
CONTINUOUS
 10
5.1607800469
 20
9.9711072895
 11
5.1607800469
 21
10.883418914
  0
LINE
  5
2C5
100
AcDbEntity
  8
0
100
AcDbLine
 62
2
  6
CONTINUOUS
 10
7.9166855587
 20
10.758418914
 11
6.8043578028
 21
10.758418914
  0
LINE
  5
2C6
100
AcDbEntity
  8
0
100
AcDbLine
 62
2
  6
CONTINUOUS
 10
5.1607800469
 20
10.758418914
 11
6.2731078028
 21
10.758418914
  0
INSERT
  5
2C7
100
AcDbEntity
  8
0
100
AcDbBlockReference
 62
2
  6
CONTINUOUS
  2
_CLOSED
 10
7.9166855587
 20
10.758418914
 41
0.1875
 42
0.1875
 43
0.1875
  0
INSERT
  5
2C8
100
AcDbEntity
  8
0
100
AcDbBlockReference
 62
2
  6
CONTINUOUS
  2
_CLOSED
 10
5.1607800469
 20
10.758418914
 41
0.1875
 42
0.1875
 43
0.1875
 50
180.0
  0
ENDBLK
  5
2C9
100
AcDbEntity
  8
0
  6
BYBLOCK
 62
0
100
AcDbBlockEnd
  0
BLOCK
  5
2CA
100
AcDbEntity
  8
0
100
AcDbBlockBegin
 62
2
  6
CONTINUOUS
  2
*D16
 70
65
 10
0.0
 20
0.0
  3
*D16
  1

  0
MTEXT
  5
2CB
100
AcDbEntity
  8
0
100
AcDbMText
 62
2
  6
CONTINUOUS
  7
STANDARD
 71
3
 72
1
 10
2.8785616958
 20
2.9322252773
 30
0.0
 11
1.0
 21
0.0
 31
0.0
 44
0.9
  1
2 x M8\P\Fgdt;{\Fgdt;x}\Ftxt; 40 DEEP\PChamfer 0.5 x 45\Fgdt;{\Fgdt;~}\Ftxt; 
 40
0.15625
 41
2.2291666667
  0
LINE
  5
2CC
100
AcDbEntity
  8
0
100
AcDbLine
 62
2
  6
CONTINUOUS
 10
3.5608838697
 20
3.1820549006
 11
3.1285616958
 21
2.8541002773
  0
LINE
  5
2CD
100
AcDbEntity
  8
0
100
AcDbLine
 62
2
  6
CONTINUOUS
 10
3.1285616958
 20
2.8541002773
 11
2.9566866958
 21
2.8541002773
  0
INSERT
  5
2CE
100
AcDbEntity
  8
0
100
AcDbBlockReference
 62
2
  6
CONTINUOUS
  2
_CLOSED
 10
3.5608838697
 20
3.1820549006
 41
0.1875
 42
0.1875
 43
0.1875
 50
37.1835352876
  0
ENDBLK
  5
2CF
100
AcDbEntity
  8
0
  6
BYBLOCK
 62
0
100
AcDbBlockEnd
  0
BLOCK
  5
2D0
100
AcDbEntity
  8
0
100
AcDbBlockBegin
  2
*T1
 70
1
 10
0.0
 20
0.0
  3
*T1
  1

  0
LINE
  5
2D1
100
AcDbEntity
  8
0
100
AcDbLine
 62
2
  6
CONTINUOUS
 10
0.0
 20
0.0
 11
15.8267716535
 21
0.0
  0
LINE
  5
2D2
100
AcDbEntity
  8
0
100
AcDbLine
 62
2
  6
CONTINUOUS
 10
0.0
 20
0.0
 11
0.0
 21
-0.157480315
  0
LINE
  5
2D3
100
AcDbEntity
  8
0
100
AcDbLine
 62
2
  6
CONTINUOUS
 10
0.0
 20
-0.157480315
 11
15.8267716535
 21
-0.157480315
  0
LINE
  5
2D4
100
AcDbEntity
  8
0
100
AcDbLine
 62
2
  6
CONTINUOUS
 10
1.4566929134
 20
0.0
 11
1.4566929134
 21
-0.157480315
  0
LINE
  5
2D5
100
AcDbEntity
  8
0
100
AcDbLine
 62
2
  6
CONTINUOUS
 10
3.0708661417
 20
0.0
 11
3.0708661417
 21
-0.157480315
  0
LINE
  5
2D6
100
AcDbEntity
  8
0
100
AcDbLine
 62
2
  6
CONTINUOUS
 10
4.6850393701
 20
0.0
 11
4.6850393701
 21
-0.157480315
  0
LINE
  5
2D7
100
AcDbEntity
  8
0
100
AcDbLine
 62
2
  6
CONTINUOUS
 10
6.2992125984
 20
0.0
 11
6.2992125984
 21
-0.157480315
  0
LINE
  5
2D8
100
AcDbEntity
  8
0
100
AcDbLine
 62
2
  6
CONTINUOUS
 10
7.9133858268
 20
0.0
 11
7.9133858268
 21
-0.157480315
  0
LINE
  5
2D9
100
AcDbEntity
  8
0
100
AcDbLine
 62
2
  6
CONTINUOUS
 10
9.5275590551
 20
0.0
 11
9.5275590551
 21
-0.157480315
  0
LINE
  5
2DA
100
AcDbEntity
  8
0
100
AcDbLine
 62
2
  6
CONTINUOUS
 10
11.1417322835
 20
0.0
 11
11.1417322835
 21
-0.157480315
  0
LINE
  5
2DB
100
AcDbEntity
  8
0
100
AcDbLine
 62
2
  6
CONTINUOUS
 10
12.7559055118
 20
0.0
 11
12.7559055118
 21
-0.157480315
  0
LINE
  5
2DC
100
AcDbEntity
  8
0
100
AcDbLine
 62
2
  6
CONTINUOUS
 10
14.3700787402
 20
0.0
 11
14.3700787402
 21
-0.157480315
  0
LINE
  5
2DD
100
AcDbEntity
  8
0
100
AcDbLine
 62
2
  6
CONTINUOUS
 10
15.8267716535
 20
0.0
 11
15.8267716535
 21
-0.157480315
  0
MTEXT
  5
2DE
100
AcDbEntity
  8
0
100
AcDbMText
 62
2
  6
CONTINUOUS
  7
STANDARD
 71
2
 72
1
 10
0.7283464567
 20
-0.0196850394
 30
0.0
 11
1.0
 21
0.0
 31
0.0
 44
0.9
  1
1
 40
0.1181102362
 41
0.188976378
  0
MTEXT
  5
2DF
100
AcDbEntity
  8
0
100
AcDbMText
 62
2
  6
CONTINUOUS
  7
STANDARD
 71
2
 72
1
 10
2.2637795276
 20
-0.0196850394
 30
0.0
 11
1.0
 21
0.0
 31
0.0
 44
0.9
  1
2
 40
0.1181102362
 41
0.188976378
  0
MTEXT
  5
2E0
100
AcDbEntity
  8
0
100
AcDbMText
 62
2
  6
CONTINUOUS
  7
STANDARD
 71
2
 72
1
 10
3.8779527559
 20
-0.0196850394
 30
0.0
 11
1.0
 21
0.0
 31
0.0
 44
0.9
  1
3 
 40
0.1181102362
 41
0.3779527559
  0
MTEXT
  5
2E1
100
AcDbEntity
  8
0
100
AcDbMText
 62
2
  6
CONTINUOUS
  7
STANDARD
 71
2
 72
1
 10
5.4921259843
 20
-0.0196850394
 30
0.0
 11
1.0
 21
0.0
 31
0.0
 44
0.9
  1
4
 40
0.1181102362
 41
0.188976378
  0
MTEXT
  5
2E2
100
AcDbEntity
  8
0
100
AcDbMText
 62
2
  6
CONTINUOUS
  7
STANDARD
 71
2
 72
1
 10
7.1062992126
 20
-0.0196850394
 30
0.0
 11
1.0
 21
0.0
 31
0.0
 44
0.9
  1
5
 40
0.1181102362
 41
0.188976378
  0
MTEXT
  5
2E3
100
AcDbEntity
  8
0
100
AcDbMText
 62
2
  6
CONTINUOUS
  7
STANDARD
 71
2
 72
1
 10
8.7204724409
 20
-0.0196850394
 30
0.0
 11
1.0
 21
0.0
 31
0.0
 44
0.9
  1
6
 40
0.1181102362
 41
0.188976378
  0
MTEXT
  5
2E4
100
AcDbEntity
  8
0
100
AcDbMText
 62
2
  6
CONTINUOUS
  7
STANDARD
 71
2
 72
1
 10
10.3346456693
 20
-0.0196850394
 30
0.0
 11
1.0
 21
0.0
 31
0.0
 44
0.9
  1
7
 40
0.1181102362
 41
0.188976378
  0
MTEXT
  5
2E5
100
AcDbEntity
  8
0
100
AcDbMText
 62
2
  6
CONTINUOUS
  7
STANDARD
 71
2
 72
1
 10
11.9488188976
 20
-0.0196850394
 30
0.0
 11
1.0
 21
0.0
 31
0.0
 44
0.9
  1
8
 40
0.1181102362
 41
0.188976378
  0
MTEXT
  5
2E6
100
AcDbEntity
  8
0
100
AcDbMText
 62
2
  6
CONTINUOUS
  7
STANDARD
 71
2
 72
1
 10
13.562992126
 20
-0.0196850394
 30
0.0
 11
1.0
 21
0.0
 31
0.0
 44
0.9
  1
9
 40
0.1181102362
 41
0.188976378
  0
MTEXT
  5
2E7
100
AcDbEntity
  8
0
100
AcDbMText
 62
2
  6
CONTINUOUS
  7
STANDARD
 71
2
 72
1
 10
15.0984251969
 20
-0.0196850394
 30
0.0
 11
1.0
 21
0.0
 31
0.0
 44
0.9
  1
10
 40
0.1181102362
 41
0.3779527559
  0
ENDBLK
  5
2E8
100
AcDbEntity
  8
0
  6
BYBLOCK
 62
0
100
AcDbBlockEnd
  0
BLOCK
  5
2E9
100
AcDbEntity
  8
0
100
AcDbBlockBegin
  2
*T2
 70
1
 10
0.0
 20
0.0
  3
*T2
  1

  0
LINE
  5
2EA
100
AcDbEntity
  8
0
100
AcDbLine
 62
2
  6
CONTINUOUS
 10
0.0
 20
0.0
 11
15.8267716535
 21
0.0
  0
LINE
  5
2EB
100
AcDbEntity
  8
0
100
AcDbLine
 62
2
  6
CONTINUOUS
 10
0.0
 20
0.0
 11
0.0
 21
-0.157480315
  0
LINE
  5
2EC
100
AcDbEntity
  8
0
100
AcDbLine
 62
2
  6
CONTINUOUS
 10
0.0
 20
-0.157480315
 11
15.8267716535
 21
-0.157480315
  0
LINE
  5
2ED
100
AcDbEntity
  8
0
100
AcDbLine
 62
2
  6
CONTINUOUS
 10
1.4566929134
 20
0.0
 11
1.4566929134
 21
-0.157480315
  0
LINE
  5
2EE
100
AcDbEntity
  8
0
100
AcDbLine
 62
2
  6
CONTINUOUS
 10
3.0708661417
 20
0.0
 11
3.0708661417
 21
-0.157480315
  0
LINE
  5
2EF
100
AcDbEntity
  8
0
100
AcDbLine
 62
2
  6
CONTINUOUS
 10
4.6850393701
 20
0.0
 11
4.6850393701
 21
-0.157480315
  0
LINE
  5
2F0
100
AcDbEntity
  8
0
100
AcDbLine
 62
2
  6
CONTINUOUS
 10
6.2992125984
 20
0.0
 11
6.2992125984
 21
-0.157480315
  0
LINE
  5
2F1
100
AcDbEntity
  8
0
100
AcDbLine
 62
2
  6
CONTINUOUS
 10
7.9133858268
 20
0.0
 11
7.9133858268
 21
-0.157480315
  0
LINE
  5
2F2
100
AcDbEntity
  8
0
100
AcDbLine
 62
2
  6
CONTINUOUS
 10
9.5275590551
 20
0.0
 11
9.5275590551
 21
-0.157480315
  0
LINE
  5
2F3
100
AcDbEntity
  8
0
100
AcDbLine
 62
2
  6
CONTINUOUS
 10
11.1417322835
 20
0.0
 11
11.1417322835
 21
-0.157480315
  0
LINE
  5
2F4
100
AcDbEntity
  8
0
100
AcDbLine
 62
2
  6
CONTINUOUS
 10
12.7559055118
 20
0.0
 11
12.7559055118
 21
-0.157480315
  0
LINE
  5
2F5
100
AcDbEntity
  8
0
100
AcDbLine
 62
2
  6
CONTINUOUS
 10
14.3700787402
 20
0.0
 11
14.3700787402
 21
-0.157480315
  0
LINE
  5
2F6
100
AcDbEntity
  8
0
100
AcDbLine
 62
2
  6
CONTINUOUS
 10
15.8267716535
 20
0.0
 11
15.8267716535
 21
-0.157480315
  0
MTEXT
  5
2F7
100
AcDbEntity
  8
0
100
AcDbMText
 62
2
  6
CONTINUOUS
  7
STANDARD
 71
2
 72
1
 10
0.7283464567
 20
-0.0196850394
 30
0.0
 11
1.0
 21
0.0
 31
0.0
 44
0.9
  1
1
 40
0.1181102362
 41
0.188976378
  0
MTEXT
  5
2F8
100
AcDbEntity
  8
0
100
AcDbMText
 62
2
  6
CONTINUOUS
  7
STANDARD
 71
2
 72
1
 10
2.2637795276
 20
-0.0196850394
 30
0.0
 11
1.0
 21
0.0
 31
0.0
 44
0.9
  1
2
 40
0.1181102362
 41
0.188976378
  0
MTEXT
  5
2F9
100
AcDbEntity
  8
0
100
AcDbMText
 62
2
  6
CONTINUOUS
  7
STANDARD
 71
2
 72
1
 10
3.8779527559
 20
-0.0196850394
 30
0.0
 11
1.0
 21
0.0
 31
0.0
 44
0.9
  1
3 
 40
0.1181102362
 41
0.3779527559
  0
MTEXT
  5
2FA
100
AcDbEntity
  8
0
100
AcDbMText
 62
2
  6
CONTINUOUS
  7
STANDARD
 71
2
 72
1
 10
5.4921259843
 20
-0.0196850394
 30
0.0
 11
1.0
 21
0.0
 31
0.0
 44
0.9
  1
4 
 40
0.1181102362
 41
0.3779527559
  0
MTEXT
  5
2FB
100
AcDbEntity
  8
0
100
AcDbMText
 62
2
  6
CONTINUOUS
  7
STANDARD
 71
2
 72
1
 10
7.1062992126
 20
-0.0196850394
 30
0.0
 11
1.0
 21
0.0
 31
0.0
 44
0.9
  1
5
 40
0.1181102362
 41
0.188976378
  0
MTEXT
  5
2FC
100
AcDbEntity
  8
0
100
AcDbMText
 62
2
  6
CONTINUOUS
  7
STANDARD
 71
2
 72
1
 10
8.7204724409
 20
-0.0196850394
 30
0.0
 11
1.0
 21
0.0
 31
0.0
 44
0.9
  1
6
 40
0.1181102362
 41
0.188976378
  0
MTEXT
  5
2FD
100
AcDbEntity
  8
0
100
AcDbMText
 62
2
  6
CONTINUOUS
  7
STANDARD
 71
2
 72
1
 10
10.3346456693
 20
-0.0196850394
 30
0.0
 11
1.0
 21
0.0
 31
0.0
 44
0.9
  1
7
 40
0.1181102362
 41
0.188976378
  0
MTEXT
  5
2FE
100
AcDbEntity
  8
0
100
AcDbMText
 62
2
  6
CONTINUOUS
  7
STANDARD
 71
2
 72
1
 10
11.9488188976
 20
-0.0196850394
 30
0.0
 11
1.0
 21
0.0
 31
0.0
 44
0.9
  1
8
 40
0.1181102362
 41
0.188976378
  0
MTEXT
  5
2FF
100
AcDbEntity
  8
0
100
AcDbMText
 62
2
  6
CONTINUOUS
  7
STANDARD
 71
2
 72
1
 10
13.562992126
 20
-0.0196850394
 30
0.0
 11
1.0
 21
0.0
 31
0.0
 44
0.9
  1
9
 40
0.1181102362
 41
0.188976378
  0
MTEXT
  5
300
100
AcDbEntity
  8
0
100
AcDbMText
 62
2
  6
CONTINUOUS
  7
STANDARD
 71
2
 72
1
 10
15.0984251969
 20
-0.0196850394
 30
0.0
 11
1.0
 21
0.0
 31
0.0
 44
0.9
  1
10
 40
0.1181102362
 41
0.3779527559
  0
ENDBLK
  5
301
100
AcDbEntity
  8
0
  6
BYBLOCK
 62
0
100
AcDbBlockEnd
  0
BLOCK
  5
302
100
AcDbEntity
  8
0
100
AcDbBlockBegin
  2
*T3
 70
1
 10
0.0
 20
0.0
  3
*T3
  1

  0
LINE
  5
303
100
AcDbEntity
  8
0
100
AcDbLine
 62
2
  6
CONTINUOUS
 10
0.0
 20
0.0
 11
0.157480315
 21
0.0
  0
LINE
  5
304
100
AcDbEntity
  8
0
100
AcDbLine
 62
2
  6
CONTINUOUS
 10
0.0
 20
0.0
 11
0.0
 21
-10.9842519685
  0
LINE
  5
305
100
AcDbEntity
  8
0
100
AcDbLine
 62
2
  6
CONTINUOUS
 10
0.0
 20
-1.0984251969
 11
0.157480315
 21
-1.0984251969
  0
LINE
  5
306
100
AcDbEntity
  8
0
100
AcDbLine
 62
2
  6
CONTINUOUS
 10
0.0
 20
-2.1968503937
 11
0.157480315
 21
-2.1968503937
  0
LINE
  5
307
100
AcDbEntity
  8
0
100
AcDbLine
 62
2
  6
CONTINUOUS
 10
0.0
 20
-3.2952755906
 11
0.157480315
 21
-3.2952755906
  0
LINE
  5
308
100
AcDbEntity
  8
0
100
AcDbLine
 62
2
  6
CONTINUOUS
 10
0.0
 20
-4.3937007874
 11
0.157480315
 21
-4.3937007874
  0
LINE
  5
309
100
AcDbEntity
  8
0
100
AcDbLine
 62
2
  6
CONTINUOUS
 10
0.0
 20
-5.4921259843
 11
0.157480315
 21
-5.4921259843
  0
LINE
  5
30A
100
AcDbEntity
  8
0
100
AcDbLine
 62
2
  6
CONTINUOUS
 10
0.0
 20
-6.5905511811
 11
0.157480315
 21
-6.5905511811
  0
LINE
  5
30B
100
AcDbEntity
  8
0
100
AcDbLine
 62
2
  6
CONTINUOUS
 10
0.0
 20
-7.688976378
 11
0.157480315
 21
-7.688976378
  0
LINE
  5
30C
100
AcDbEntity
  8
0
100
AcDbLine
 62
2
  6
CONTINUOUS
 10
0.0
 20
-8.7874015748
 11
0.157480315
 21
-8.7874015748
  0
LINE
  5
30D
100
AcDbEntity
  8
0
100
AcDbLine
 62
2
  6
CONTINUOUS
 10
0.0
 20
-9.8858267717
 11
0.157480315
 21
-9.8858267717
  0
LINE
  5
30E
100
AcDbEntity
  8
0
100
AcDbLine
 62
2
  6
CONTINUOUS
 10
0.0
 20
-10.9842519685
 11
0.157480315
 21
-10.9842519685
  0
LINE
  5
30F
100
AcDbEntity
  8
0
100
AcDbLine
 62
2
  6
CONTINUOUS
 10
0.157480315
 20
0.0
 11
0.157480315
 21
-10.9842519685
  0
MTEXT
  5
310
100
AcDbEntity
  8
0
100
AcDbMText
 62
2
  6
CONTINUOUS
  7
STANDARD
 71
2
 72
1
 10
0.0787401575
 20
-0.4901574803
 30
0.0
 11
1.0
 21
0.0
 31
0.0
 44
0.9
  1
A
 40
0.1181102362
 41
0.188976378
  0
MTEXT
  5
311
100
AcDbEntity
  8
0
100
AcDbMText
 62
2
  6
CONTINUOUS
  7
STANDARD
 71
2
 72
1
 10
0.0787401575
 20
-1.5885826772
 30
0.0
 11
1.0
 21
0.0
 31
0.0
 44
0.9
  1
B
 40
0.1181102362
 41
0.188976378
  0
MTEXT
  5
312
100
AcDbEntity
  8
0
100
AcDbMText
 62
2
  6
CONTINUOUS
  7
STANDARD
 71
2
 72
1
 10
0.0787401575
 20
-2.687007874
 30
0.0
 11
1.0
 21
0.0
 31
0.0
 44
0.9
  1
C
 40
0.1181102362
 41
0.188976378
  0
MTEXT
  5
313
100
AcDbEntity
  8
0
100
AcDbMText
 62
2
  6
CONTINUOUS
  7
STANDARD
 71
2
 72
1
 10
0.0787401575
 20
-3.7854330709
 30
0.0
 11
1.0
 21
0.0
 31
0.0
 44
0.9
  1
D
 40
0.1181102362
 41
0.188976378
  0
MTEXT
  5
314
100
AcDbEntity
  8
0
100
AcDbMText
 62
2
  6
CONTINUOUS
  7
STANDARD
 71
2
 72
1
 10
0.0787401575
 20
-4.8838582677
 30
0.0
 11
1.0
 21
0.0
 31
0.0
 44
0.9
  1
E
 40
0.1181102362
 41
0.188976378
  0
MTEXT
  5
315
100
AcDbEntity
  8
0
100
AcDbMText
 62
2
  6
CONTINUOUS
  7
STANDARD
 71
2
 72
1
 10
0.0787401575
 20
-5.9822834646
 30
0.0
 11
1.0
 21
0.0
 31
0.0
 44
0.9
  1
F
 40
0.1181102362
 41
0.188976378
  0
MTEXT
  5
316
100
AcDbEntity
  8
0
100
AcDbMText
 62
2
  6
CONTINUOUS
  7
STANDARD
 71
2
 72
1
 10
0.0787401575
 20
-7.0807086614
 30
0.0
 11
1.0
 21
0.0
 31
0.0
 44
0.9
  1
G
 40
0.1181102362
 41
0.188976378
  0
MTEXT
  5
317
100
AcDbEntity
  8
0
100
AcDbMText
 62
2
  6
CONTINUOUS
  7
STANDARD
 71
2
 72
1
 10
0.0787401575
 20
-8.1791338583
 30
0.0
 11
1.0
 21
0.0
 31
0.0
 44
0.9
  1
H
 40
0.1181102362
 41
0.188976378
  0
MTEXT
  5
318
100
AcDbEntity
  8
0
100
AcDbMText
 62
2
  6
CONTINUOUS
  7
STANDARD
 71
2
 72
1
 10
0.0787401575
 20
-9.2775590551
 30
0.0
 11
1.0
 21
0.0
 31
0.0
 44
0.9
  1
J
 40
0.1181102362
 41
0.188976378
  0
MTEXT
  5
319
100
AcDbEntity
  8
0
100
AcDbMText
 62
2
  6
CONTINUOUS
  7
STANDARD
 71
2
 72
1
 10
0.0787401575
 20
-10.375984252
 30
0.0
 11
1.0
 21
0.0
 31
0.0
 44
0.9
  1
K
 40
0.1181102362
 41
0.188976378
  0
ENDBLK
  5
31A
100
AcDbEntity
  8
0
  6
BYBLOCK
 62
0
100
AcDbBlockEnd
  0
BLOCK
  5
31B
100
AcDbEntity
  8
0
100
AcDbBlockBegin
  2
*T4
 70
1
 10
0.0
 20
0.0
  3
*T4
  1

  0
LINE
  5
31C
100
AcDbEntity
  8
0
100
AcDbLine
 62
2
  6
CONTINUOUS
 10
0.0
 20
0.0
 11
0.157480315
 21
0.0
  0
LINE
  5
31D
100
AcDbEntity
  8
0
100
AcDbLine
 62
2
  6
CONTINUOUS
 10
0.0
 20
0.0
 11
0.0
 21
-10.9842519685
  0
LINE
  5
31E
100
AcDbEntity
  8
0
100
AcDbLine
 62
2
  6
CONTINUOUS
 10
0.0
 20
-1.0984251969
 11
0.157480315
 21
-1.0984251969
  0
LINE
  5
31F
100
AcDbEntity
  8
0
100
AcDbLine
 62
2
  6
CONTINUOUS
 10
0.0
 20
-2.1968503937
 11
0.157480315
 21
-2.1968503937
  0
LINE
  5
320
100
AcDbEntity
  8
0
100
AcDbLine
 62
2
  6
CONTINUOUS
 10
0.0
 20
-3.2952755906
 11
0.157480315
 21
-3.2952755906
  0
LINE
  5
321
100
AcDbEntity
  8
0
100
AcDbLine
 62
2
  6
CONTINUOUS
 10
0.0
 20
-4.3937007874
 11
0.157480315
 21
-4.3937007874
  0
LINE
  5
322
100
AcDbEntity
  8
0
100
AcDbLine
 62
2
  6
CONTINUOUS
 10
0.0
 20
-5.4921259843
 11
0.157480315
 21
-5.4921259843
  0
LINE
  5
323
100
AcDbEntity
  8
0
100
AcDbLine
 62
2
  6
CONTINUOUS
 10
0.0
 20
-6.5905511811
 11
0.157480315
 21
-6.5905511811
  0
LINE
  5
324
100
AcDbEntity
  8
0
100
AcDbLine
 62
2
  6
CONTINUOUS
 10
0.0
 20
-7.688976378
 11
0.157480315
 21
-7.688976378
  0
LINE
  5
325
100
AcDbEntity
  8
0
100
AcDbLine
 62
2
  6
CONTINUOUS
 10
0.0
 20
-8.7874015748
 11
0.157480315
 21
-8.7874015748
  0
LINE
  5
326
100
AcDbEntity
  8
0
100
AcDbLine
 62
2
  6
CONTINUOUS
 10
0.0
 20
-9.8858267717
 11
0.157480315
 21
-9.8858267717
  0
LINE
  5
327
100
AcDbEntity
  8
0
100
AcDbLine
 62
2
  6
CONTINUOUS
 10
0.0
 20
-10.9842519685
 11
0.157480315
 21
-10.9842519685
  0
LINE
  5
328
100
AcDbEntity
  8
0
100
AcDbLine
 62
2
  6
CONTINUOUS
 10
0.157480315
 20
0.0
 11
0.157480315
 21
-10.9842519685
  0
MTEXT
  5
329
100
AcDbEntity
  8
0
100
AcDbMText
 62
2
  6
CONTINUOUS
  7
STANDARD
 71
2
 72
1
 10
0.0787401575
 20
-0.4901574803
 30
0.0
 11
1.0
 21
0.0
 31
0.0
 44
0.9
  1
A
 40
0.1181102362
 41
0.188976378
  0
MTEXT
  5
32A
100
AcDbEntity
  8
0
100
AcDbMText
 62
2
  6
CONTINUOUS
  7
STANDARD
 71
2
 72
1
 10
0.0787401575
 20
-1.5885826772
 30
0.0
 11
1.0
 21
0.0
 31
0.0
 44
0.9
  1
B
 40
0.1181102362
 41
0.188976378
  0
MTEXT
  5
32B
100
AcDbEntity
  8
0
100
AcDbMText
 62
2
  6
CONTINUOUS
  7
STANDARD
 71
2
 72
1
 10
0.0787401575
 20
-2.687007874
 30
0.0
 11
1.0
 21
0.0
 31
0.0
 44
0.9
  1
C
 40
0.1181102362
 41
0.188976378
  0
MTEXT
  5
32C
100
AcDbEntity
  8
0
100
AcDbMText
 62
2
  6
CONTINUOUS
  7
STANDARD
 71
2
 72
1
 10
0.0787401575
 20
-3.7854330709
 30
0.0
 11
1.0
 21
0.0
 31
0.0
 44
0.9
  1
D
 40
0.1181102362
 41
0.188976378
  0
MTEXT
  5
32D
100
AcDbEntity
  8
0
100
AcDbMText
 62
2
  6
CONTINUOUS
  7
STANDARD
 71
2
 72
1
 10
0.0787401575
 20
-4.8838582677
 30
0.0
 11
1.0
 21
0.0
 31
0.0
 44
0.9
  1
E
 40
0.1181102362
 41
0.188976378
  0
MTEXT
  5
32E
100
AcDbEntity
  8
0
100
AcDbMText
 62
2
  6
CONTINUOUS
  7
STANDARD
 71
2
 72
1
 10
0.0787401575
 20
-5.9822834646
 30
0.0
 11
1.0
 21
0.0
 31
0.0
 44
0.9
  1
F
 40
0.1181102362
 41
0.188976378
  0
MTEXT
  5
32F
100
AcDbEntity
  8
0
100
AcDbMText
 62
2
  6
CONTINUOUS
  7
STANDARD
 71
2
 72
1
 10
0.0787401575
 20
-7.0807086614
 30
0.0
 11
1.0
 21
0.0
 31
0.0
 44
0.9
  1
G
 40
0.1181102362
 41
0.188976378
  0
MTEXT
  5
330
100
AcDbEntity
  8
0
100
AcDbMText
 62
2
  6
CONTINUOUS
  7
STANDARD
 71
2
 72
1
 10
0.0787401575
 20
-8.1791338583
 30
0.0
 11
1.0
 21
0.0
 31
0.0
 44
0.9
  1
H
 40
0.1181102362
 41
0.188976378
  0
MTEXT
  5
331
100
AcDbEntity
  8
0
100
AcDbMText
 62
2
  6
CONTINUOUS
  7
STANDARD
 71
2
 72
1
 10
0.0787401575
 20
-9.2775590551
 30
0.0
 11
1.0
 21
0.0
 31
0.0
 44
0.9
  1
J
 40
0.1181102362
 41
0.188976378
  0
MTEXT
  5
332
100
AcDbEntity
  8
0
100
AcDbMText
 62
2
  6
CONTINUOUS
  7
STANDARD
 71
2
 72
1
 10
0.0787401575
 20
-10.375984252
 30
0.0
 11
1.0
 21
0.0
 31
0.0
 44
0.9
  1
K
 40
0.1181102362
 41
0.188976378
  0
ENDBLK
  5
333
100
AcDbEntity
  8
0
  6
BYBLOCK
 62
0
100
AcDbBlockEnd
  0
BLOCK
  5
334
100
AcDbEntity
  8
0
100
AcDbBlockBegin
  2
*T5
 70
1
 10
0.0
 20
0.0
  3
*T5
  1

  0
LINE
  5
335
100
AcDbEntity
  8
0
100
AcDbLine
 62
2
  6
CONTINUOUS
 10
0.0
 20
0.0
 11
1.7716535433
 21
0.0
  0
LINE
  5
336
100
AcDbEntity
  8
0
100
AcDbLine
 62
2
  6
CONTINUOUS
 10
0.0
 20
0.0
 11
0.0
 21
-0.4330708661
  0
LINE
  5
337
100
AcDbEntity
  8
0
100
AcDbLine
 62
2
  6
CONTINUOUS
 10
0.0
 20
-0.2952755906
 11
1.7716535433
 21
-0.2952755906
  0
LINE
  5
338
100
AcDbEntity
  8
0
100
AcDbLine
 62
2
  6
CONTINUOUS
 10
0.0
 20
-0.4330708661
 11
1.7716535433
 21
-0.4330708661
  0
LINE
  5
339
100
AcDbEntity
  8
0
100
AcDbLine
 62
2
  6
CONTINUOUS
 10
1.3779527559
 20
0.0
 11
1.3779527559
 21
-0.4330708661
  0
LINE
  5
33A
100
AcDbEntity
  8
0
100
AcDbLine
 62
2
  6
CONTINUOUS
 10
1.7716535433
 20
0.0
 11
1.7716535433
 21
-0.4330708661
  0
MTEXT
  5
33B
100
AcDbEntity
  8
0
100
AcDbMText
 62
2
  6
CONTINUOUS
  7
STANDARD
 71
2
 72
1
 10
1.5748031496
 20
-0.0738188976
 30
0.0
 11
1.0
 21
0.0
 31
0.0
 44
0.9
  1
SHEET\P1 of 1
 40
0.0590551181
 41
0.5669291339
  0
MTEXT
  5
33C
100
AcDbEntity
  8
0
100
AcDbMText
 62
2
  6
CONTINUOUS
  7
STANDARD
 71
2
 72
1
 10
0.688976378
 20
-0.3248031496
 30
0.0
 11
1.0
 21
0.0
 31
0.0
 44
0.9
  1
PART A3 DWG-01
 40
0.0787401575
 41
1.7637795276
  0
ENDBLK
  5
33D
100
AcDbEntity
  8
0
  6
BYBLOCK
 62
0
100
AcDbBlockEnd
  0
BLOCK
  5
33E
100
AcDbEntity
  8
0
100
AcDbBlockBegin
  2
*T6
 70
1
 10
0.0
 20
0.0
  3
*T6
  1

  0
LINE
  5
33F
100
AcDbEntity
  8
0
100
AcDbLine
 62
2
  6
CONTINUOUS
 10
0.0
 20
0.0
 11
15.8267716535
 21
0.0
  0
LINE
  5
340
100
AcDbEntity
  8
0
100
AcDbLine
 62
2
  6
CONTINUOUS
 10
0.0
 20
0.0
 11
0.0
 21
-1.4173228346
  0
LINE
  5
341
100
AcDbEntity
  8
0
100
AcDbLine
 62
2
  6
CONTINUOUS
 10
5.1181102362
 20
-0.2755905512
 11
11.8897637795
 21
-0.2755905512
  0
LINE
  5
342
100
AcDbEntity
  8
0
100
AcDbLine
 62
2
  6
CONTINUOUS
 10
11.8897637795
 20
-0.4133858268
 11
15.8267716535
 21
-0.4133858268
  0
LINE
  5
343
100
AcDbEntity
  8
0
100
AcDbLine
 62
2
  6
CONTINUOUS
 10
7.5590551181
 20
-0.5511811024
 11
11.8897637795
 21
-0.5511811024
  0
LINE
  5
344
100
AcDbEntity
  8
0
100
AcDbLine
 62
2
  6
CONTINUOUS
 10
0.0
 20
-0.8267716535
 11
5.1181102362
 21
-0.8267716535
  0
LINE
  5
345
100
AcDbEntity
  8
0
100
AcDbLine
 62
2
  6
CONTINUOUS
 10
10.5118110236
 20
-0.8267716535
 11
15.8267716535
 21
-0.8267716535
  0
LINE
  5
346
100
AcDbEntity
  8
0
100
AcDbLine
 62
2
  6
CONTINUOUS
 10
0.0
 20
-1.1220472441
 11
5.1181102362
 21
-1.1220472441
  0
LINE
  5
347
100
AcDbEntity
  8
0
100
AcDbLine
 62
2
  6
CONTINUOUS
 10
10.5118110236
 20
-1.1220472441
 11
15.8267716535
 21
-1.1220472441
  0
LINE
  5
348
100
AcDbEntity
  8
0
100
AcDbLine
 62
2
  6
CONTINUOUS
 10
0.0
 20
-1.4173228346
 11
15.8267716535
 21
-1.4173228346
  0
LINE
  5
349
100
AcDbEntity
  8
0
100
AcDbLine
 62
2
  6
CONTINUOUS
 10
0.3149606299
 20
0.0
 11
0.3149606299
 21
-1.1220472441
  0
LINE
  5
34A
100
AcDbEntity
  8
0
100
AcDbLine
 62
2
  6
CONTINUOUS
 10
0.7874015748
 20
0.0
 11
0.7874015748
 21
-1.1220472441
  0
LINE
  5
34B
100
AcDbEntity
  8
0
100
AcDbLine
 62
2
  6
CONTINUOUS
 10
2.7559055118
 20
0.0
 11
2.7559055118
 21
-1.1220472441
  0
LINE
  5
34C
100
AcDbEntity
  8
0
100
AcDbLine
 62
2
  6
CONTINUOUS
 10
3.3070866142
 20
0.0
 11
3.3070866142
 21
-1.1220472441
  0
LINE
  5
34D
100
AcDbEntity
  8
0
100
AcDbLine
 62
2
  6
CONTINUOUS
 10
3.8582677165
 20
0.0
 11
3.8582677165
 21
-1.1220472441
  0
LINE
  5
34E
100
AcDbEntity
  8
0
100
AcDbLine
 62
2
  6
CONTINUOUS
 10
4.4094488189
 20
0.0
 11
4.4094488189
 21
-1.1220472441
  0
LINE
  5
34F
100
AcDbEntity
  8
0
100
AcDbLine
 62
2
  6
CONTINUOUS
 10
5.1181102362
 20
0.0
 11
5.1181102362
 21
-1.4173228346
  0
LINE
  5
350
100
AcDbEntity
  8
0
100
AcDbLine
 62
2
  6
CONTINUOUS
 10
6.3385826772
 20
0.0
 11
6.3385826772
 21
-1.4173228346
  0
LINE
  5
351
100
AcDbEntity
  8
0
100
AcDbLine
 62
2
  6
CONTINUOUS
 10
7.5590551181
 20
0.0
 11
7.5590551181
 21
-1.4173228346
  0
LINE
  5
352
100
AcDbEntity
  8
0
100
AcDbLine
 62
2
  6
CONTINUOUS
 10
10.5118110236
 20
0.0
 11
10.5118110236
 21
-1.4173228346
  0
LINE
  5
353
100
AcDbEntity
  8
0
100
AcDbLine
 62
2
  6
CONTINUOUS
 10
11.2007874016
 20
0.0
 11
11.2007874016
 21
-1.4173228346
  0
LINE
  5
354
100
AcDbEntity
  8
0
100
AcDbLine
 62
2
  6
CONTINUOUS
 10
11.8897637795
 20
0.0
 11
11.8897637795
 21
-1.4173228346
  0
LINE
  5
355
100
AcDbEntity
  8
0
100
AcDbLine
 62
2
  6
CONTINUOUS
 10
14.2519685039
 20
-0.4133858268
 11
14.2519685039
 21
-0.8267716535
  0
LINE
  5
356
100
AcDbEntity
  8
0
100
AcDbLine
 62
2
  6
CONTINUOUS
 10
15.8267716535
 20
0.0
 11
15.8267716535
 21
-1.4173228346
  0
MTEXT
  5
357
100
AcDbEntity
  8
0
100
AcDbMText
 62
2
  6
CONTINUOUS
  7
STANDARD
 71
2
 72
1
 10
0.157480315
 20
-0.374015748
 30
0.0
 11
1.0
 21
0.0
 31
0.0
 44
0.9
  1
 3
 40
0.0787401575
 41
0.2519685039
  0
MTEXT
  5
358
100
AcDbEntity
  8
0
100
AcDbMText
 62
2
  6
CONTINUOUS
  7
STANDARD
 71
2
 72
1
 10
1.7716535433
 20
-0.0787401575
 30
0.0
 11
1.0
 21
0.0
 31
0.0
 44
0.9
  1
PCD OF MOUNTING HOLES CHANGED\P(G7)\P \PLOCATION HOLE DIMENSION\PCHANGED (J7)\P 
 40
0.0787401575
 41
3.6535433071
  0
MTEXT
  5
359
100
AcDbEntity
  8
0
100
AcDbMText
 62
2
  6
CONTINUOUS
  7
STANDARD
 71
2
 72
1
 10
3.031496063
 20
-0.374015748
 30
0.0
 11
1.0
 21
0.0
 31
0.0
 44
0.9
  1
HLQ 
 40
0.0787401575
 41
0.5039370079
  0
MTEXT
  5
35A
100
AcDbEntity
  8
0
100
AcDbMText
 62
2
  6
CONTINUOUS
  7
STANDARD
 71
2
 72
1
 10
4.7637795276
 20
-0.374015748
 30
0.0
 11
1.0
 21
0.0
 31
0.0
 44
0.9
  1
21.02.18 
 40
0.0787401575
 41
1.1338582677
  0
MTEXT
  5
35B
100
AcDbEntity
  8
0
100
AcDbMText
 62
2
  6
CONTINUOUS
  7
STANDARD
 71
2
 72
1
 10
5.7283464567
 20
-0.0984251969
 30
0.0
 11
1.0
 21
0.0
 31
0.0
 44
0.9
  1
UNSPECIFIED DETAIL
 40
0.0787401575
 41
2.2677165354
  0
MTEXT
  5
35C
100
AcDbEntity
  8
0
100
AcDbMText
 62
2
  6
CONTINUOUS
  7
STANDARD
 71
2
 72
1
 10
6.9488188976
 20
-0.0984251969
 30
0.0
 11
1.0
 21
0.0
 31
0.0
 44
0.9
  1
UNSPECIFIED TOL.
 40
0.0787401575
 41
2.0157480315
  0
MTEXT
  5
35D
100
AcDbEntity
  8
0
100
AcDbMText
 62
2
  6
CONTINUOUS
  7
STANDARD
 71
1
 72
1
 10
7.5984251969
 20
-0.0984251969
 30
0.0
 11
1.0
 21
0.0
 31
0.0
 44
0.9
  1
MATERIAL:  AS SUPPLIED
 40
0.0787401575
 41
2.7716535433
  0
MTEXT
  5
35E
100
AcDbEntity
  8
0
100
AcDbMText
 62
2
  6
CONTINUOUS
  7
STANDARD
 71
2
 72
1
 10
10.8562992126
 20
-0.0492125984
 30
0.0
 11
1.0
 21
0.0
 31
0.0
 44
0.9
  1
DRAWN BY\P 
 40
0.0688976378
 41
0.8818897638
  0
MTEXT
  5
35F
100
AcDbEntity
  8
0
100
AcDbMText
 62
2
  6
CONTINUOUS
  7
STANDARD
 71
2
 72
1
 10
11.5452755906
 20
-0.0492125984
 30
0.0
 11
1.0
 21
0.0
 31
0.0
 44
0.9
  1
DATE\P 
 40
0.0688976378
 41
0.4409448819
  0
MTEXT
  5
360
100
AcDbEntity
  8
0
100
AcDbMText
 62
2
  6
CONTINUOUS
  7
STANDARD
 71
1
 72
1
 10
11.9291338583
 20
-0.0295275591
 30
0.0
 11
1.0
 21
0.0
 31
0.0
 44
0.9
  1
TITLE
 40
0.0787401575
 41
0.6299212598
  0
MTEXT
  5
361
100
AcDbEntity
  8
0
100
AcDbMText
 62
2
  6
CONTINUOUS
  7
STANDARD
 71
2
 72
1
 10
13.8582677165
 20
-0.2165354331
 30
0.0
 11
1.0
 21
0.0
 31
0.0
 44
0.9
  1
HINGE
 40
0.1181102362
 41
0.9448818898
  0
MTEXT
  5
362
100
AcDbEntity
  8
0
100
AcDbMText
 62
2
  6
CONTINUOUS
  7
STANDARD
 71
1
 72
1
 10
5.157480315
 20
-0.3248031496
 30
0.0
 11
1.0
 21
0.0
 31
0.0
 44
0.9
  1
BREAK ALL\PSHARP EDGES
 40
0.0984251969
 41
1.7322834646
  0
MTEXT
  5
363
100
AcDbEntity
  8
0
100
AcDbMText
 62
2
  6
CONTINUOUS
  7
TEXTSTYLE_1
 71
1
 72
1
 10
6.3779527559
 20
-0.3248031496
 30
0.0
 11
1.0
 21
0.0
 31
0.0
 44
0.9
  1
{\Fgdt;`}\Ftxt;0.2
 40
0.0984251969
 41
0.7020997375
  0
MTEXT
  5
364
100
AcDbEntity
  8
0
100
AcDbMText
 62
2
  6
CONTINUOUS
  7
STANDARD
 71
1
 72
1
 10
7.5984251969
 20
-0.374015748
 30
0.0
 11
1.0
 21
0.0
 31
0.0
 44
0.9
  1
FINISH:  AS SUPPLIED
 40
0.0787401575
 41
2.5196850394
  0
MTEXT
  5
365
100
AcDbEntity
  8
0
100
AcDbMText
 62
2
  6
CONTINUOUS
  7
STANDARD
 71
2
 72
1
 10
10.8562992126
 20
-0.3248031496
 30
0.0
 11
1.0
 21
0.0
 31
0.0
 44
0.9
  1
CHECKED BY\P 
 40
0.0688976378
 41
1.1023622047
  0
MTEXT
  5
366
100
AcDbEntity
  8
0
100
AcDbMText
 62
2
  6
CONTINUOUS
  7
STANDARD
 71
2
 72
1
 10
11.5452755906
 20
-0.3248031496
 30
0.0
 11
1.0
 21
0.0
 31
0.0
 44
0.9
  1
DATE\P 
 40
0.0688976378
 41
0.4409448819
  0
MTEXT
  5
367
100
AcDbEntity
  8
0
100
AcDbMText
 62
2
  6
CONTINUOUS
  7
STANDARD
 71
1
 72
1
 10
11.9291338583
 20
-0.4429133858
 30
0.0
 11
1.0
 21
0.0
 31
0.0
 44
0.9
  1
DOCUMENT REFERENCE NUMBER
 40
0.0787401575
 41
3.1496062992
  0
MTEXT
  5
368
100
AcDbEntity
  8
0
100
AcDbMText
 62
2
  6
CONTINUOUS
  7
STANDARD
 71
2
 72
1
 10
15.0393700787
 20
-0.4429133858
 30
0.0
 11
1.0
 21
0.0
 31
0.0
 44
0.9
  1
PART NUMBER
 40
0.0787401575
 41
1.3858267717
  0
MTEXT
  5
369
100
AcDbEntity
  8
0
100
AcDbMText
 62
2
  6
CONTINUOUS
  7
STANDARD
 71
2
 72
1
 10
10.8562992126
 20
-0.6003937008
 30
0.0
 11
1.0
 21
0.0
 31
0.0
 44
0.9
  1
APPROVED BY\P 
 40
0.0688976378
 41
1.2125984252
  0
MTEXT
  5
36A
100
AcDbEntity
  8
0
100
AcDbMText
 62
2
  6
CONTINUOUS
  7
STANDARD
 71
2
 72
1
 10
11.5452755906
 20
-0.6003937008
 30
0.0
 11
1.0
 21
0.0
 31
0.0
 44
0.9
  1
DATE\P 
 40
0.0688976378
 41
0.4409448819
  0
MTEXT
  5
36B
100
AcDbEntity
  8
0
100
AcDbMText
 62
2
  6
CONTINUOUS
  7
STANDARD
 71
2
 72
1
 10
15.0393700787
 20
-0.6299212598
 30
0.0
 11
1.0
 21
0.0
 31
0.0
 44
0.9
  1
HSR-1004-02 
 40
0.1181102362
 41
2.2677165354
  0
MTEXT
  5
36C
100
AcDbEntity
  8
0
100
AcDbMText
 62
2
  6
CONTINUOUS
  7
STANDARD
 71
2
 72
1
 10
0.157480315
 20
-0.9251968504
 30
0.0
 11
1.0
 21
0.0
 31
0.0
 44
0.9
  1
VER
 40
0.0984251969
 41
0.4724409449
  0
MTEXT
  5
36D
100
AcDbEntity
  8
0
100
AcDbMText
 62
2
  6
CONTINUOUS
  7
STANDARD
 71
2
 72
1
 10
0.5511811024
 20
-0.9251968504
 30
0.0
 11
1.0
 21
0.0
 31
0.0
 44
0.9
  1
ECN
 40
0.0984251969
 41
0.4724409449
  0
MTEXT
  5
36E
100
AcDbEntity
  8
0
100
AcDbMText
 62
2
  6
CONTINUOUS
  7
STANDARD
 71
2
 72
1
 10
1.7716535433
 20
-0.9350393701
 30
0.0
 11
1.0
 21
0.0
 31
0.0
 44
0.9
  1
DETAILS OF MODIFICATION
 40
0.0787401575
 41
2.8976377953
  0
MTEXT
  5
36F
100
AcDbEntity
  8
0
100
AcDbMText
 62
2
  6
CONTINUOUS
  7
STANDARD
 71
2
 72
1
 10
3.031496063
 20
-0.9251968504
 30
0.0
 11
1.0
 21
0.0
 31
0.0
 44
0.9
  1
DWN
 40
0.0984251969
 41
0.4724409449
  0
MTEXT
  5
370
100
AcDbEntity
  8
0
100
AcDbMText
 62
2
  6
CONTINUOUS
  7
STANDARD
 71
2
 72
1
 10
3.5826771654
 20
-0.9251968504
 30
0.0
 11
1.0
 21
0.0
 31
0.0
 44
0.9
  1
CHKD
 40
0.0984251969
 41
0.6299212598
  0
MTEXT
  5
371
100
AcDbEntity
  8
0
100
AcDbMText
 62
2
  6
CONTINUOUS
  7
STANDARD
 71
2
 72
1
 10
4.1338582677
 20
-0.9251968504
 30
0.0
 11
1.0
 21
0.0
 31
0.0
 44
0.9
  1
APPR
 40
0.0984251969
 41
0.6299212598
  0
MTEXT
  5
372
100
AcDbEntity
  8
0
100
AcDbMText
 62
2
  6
CONTINUOUS
  7
STANDARD
 71
2
 72
1
 10
4.7637795276
 20
-0.9251968504
 30
0.0
 11
1.0
 21
0.0
 31
0.0
 44
0.9
  1
DATE
 40
0.0984251969
 41
0.6299212598
  0
MTEXT
  5
373
100
AcDbEntity
  8
0
100
AcDbMText
 62
2
  6
CONTINUOUS
  7
STANDARD
 71
2
 72
1
 10
10.8562992126
 20
-0.9399606299
 30
0.0
 11
1.0
 21
0.0
 31
0.0
 44
0.9
  1
SHEET SCALE
 40
0.0688976378
 41
1.2125984252
  0
MTEXT
  5
374
100
AcDbEntity
  8
0
100
AcDbMText
 62
2
  6
CONTINUOUS
  7
STANDARD
 71
2
 72
1
 10
11.5452755906
 20
-0.9399606299
 30
0.0
 11
1.0
 21
0.0
 31
0.0
 44
0.9
  1
0.200
 40
0.0688976378
 41
0.5511811024
  0
MTEXT
  5
375
100
AcDbEntity
  8
0
100
AcDbMText
 62
2
  6
CONTINUOUS
  7
STANDARD
 71
2
 72
1
 10
13.8582677165
 20
-0.9251968504
 30
0.0
 11
1.0
 21
0.0
 31
0.0
 44
0.9
  1
USED ON:  HSR-1000-01
 40
0.0984251969
 41
3.3070866142
  0
MTEXT
  5
376
100
AcDbEntity
  8
0
100
AcDbMText
 62
2
  6
CONTINUOUS
  7
STANDARD
 71
2
 72
1
 10
2.5590551181
 20
-1.2204724409
 30
0.0
 11
1.0
 21
0.0
 31
0.0
 44
0.9
  1
VERSIONS 
 40
0.0984251969
 41
1.4173228346
  0
MTEXT
  5
377
100
AcDbEntity
  8
0
100
AcDbMText
 62
2
  6
CONTINUOUS
  7
STANDARD
 71
2
 72
1
 10
10.8562992126
 20
-1.1835629921
 30
0.0
 11
1.0
 21
0.0
 31
0.0
 44
0.9
  1
ESTIMATED \PMASS KG. 
 40
0.0688976378
 41
1.1023622047
  0
MTEXT
  5
378
100
AcDbEntity
  8
0
100
AcDbMText
 62
2
  6
CONTINUOUS
  7
STANDARD
 71
2
 72
1
 10
13.8582677165
 20
-1.2303149606
 30
0.0
 11
1.0
 21
0.0
 31
0.0
 44
0.9
  1
HSR-1004-27 
 40
0.0787401575
 41
1.5118110236
  0
ENDBLK
  5
379
100
AcDbEntity
  8
0
  6
BYBLOCK
 62
0
100
AcDbBlockEnd
  0
ENDSEC
  0
SECTION
  2
ENTITIES
  0
IMAGE
  5
37A
100
AcDbEntity
  8
0
100
AcDbRasterImage
 62
7
  6
CONTINUOUS
 10
8.3200173861
 20
0.4811769754
 30
0.0
 11
0.0066666667
 21
0.0
 31
0.0
 12
0.0
 22
0.0066666667
 32
0.0
 13
349.0
 23
111.0
340
       4E5
 70
9
280
0
281
50
282
50
283
0
360
       4DF
 71
1
 91
2
 14
-0.5
 24
-0.5
 14
348.5
 24
110.5
  0
MTEXT
  5
37B
100
AcDbEntity
  8
0
100
AcDbMText
 62
2
  6
CONTINUOUS
  7
STANDARD
 71
2
 72
1
 10
3.4964485267
 20
11.3047167072
 30
0.0
 11
1.0
 21
0.0
 31
0.0
 44
0.9
  1
DO NOT SCALE DRAWING
 40
0.1377952756
 41
2.2047244094
  0
MTEXT
  5
37C
100
AcDbEntity
  8
0
100
AcDbMText
 62
2
  6
CONTINUOUS
  7
STANDARD
 71
2
 72
1
 10
6.500368638
 20
11.2685764172
 30
0.0
 11
1.0
 21
0.0
 31
0.0
 44
0.9
  1
IF IN DOUBT ASK
 40
0.1377952756
 41
1.6535433071
  0
MTEXT
  5
37D
100
AcDbEntity
  8
0
100
AcDbMText
 62
2
  6
CONTINUOUS
  7
STANDARD
 71
2
 72
1
 10
9.9447414158
 20
11.2803258722
 30
0.0
 11
1.0
 21
0.0
 31
0.0
 44
0.9
  1
ALL DIMENSIONS IN MILLIMETRES
 40
0.1377952756
 41
3.1968503937
  0
MTEXT
  5
37E
100
AcDbEntity
  8
0
100
AcDbMText
 62
2
  6
CONTINUOUS
  7
STANDARD
 71
2
 72
1
 10
14.3434392795
 20
11.2496136633
 30
0.0
 11
1.0
 21
0.0
 31
0.0
 44
0.9
  1
THIRD ANGLE PROJECTION
 40
0.1377952756
 41
2.4251968504
  0
MTEXT
  5
37F
100
AcDbEntity
  8
0
100
AcDbMText
 62
2
  6
CONTINUOUS
  7
STANDARD
 71
2
 72
1
 10
1.9065366808
 20
0.2122942676
 30
0.0
 11
1.0
 21
0.0
 31
0.0
 44
0.9
  1
CAD REFERENCE: HINGE
 40
0.1377952756
 41
2.2047244094
  0
MTEXT
  5
380
100
AcDbEntity
  8
0
100
AcDbMText
 62
2
  6
CONTINUOUS
  7
STANDARD
 71
2
 72
1
 10
0.0572825666
 20
5.7918269413
 30
0.0
 11
0.0
 21
1.0
 31
0.0
 44
0.9
  1
DO NOT MANUALLY UPDATE
 40
0.1377952756
 41
2.4251968504
  0
MTEXT
  5
381
100
AcDbEntity
  8
0
100
AcDbMText
 62
2
  6
CONTINUOUS
  7
STANDARD
 71
1
 72
1
 10
12.387295234
 20
0.6136810847
 30
0.0
 11
1.0
 21
0.0
 31
0.0
 44
0.9
  1
ALL CHANGES LISTED ON:
 40
0.0787401575
 41
1.3858267717
  0
DIMENSION
  5
382
100
AcDbEntity
  8
0
100
AcDbDimension
 62
2
  6
CONTINUOUS
  2
*D0
 10
1.9873427361
 20
7.0787347882
 11
2.0029677444
 21
6.606293854
 70
160
 71
2
 42
120.0
  3
DIMSTYLE_1
100
AcDbAlignedDimension
 13
3.0641113612
 23
6.1338528984
 14
3.0873517576
 24
7.0787347882
 50
90.0
100
AcDbRotatedDimension
  0
DIMENSION
  5
383
100
AcDbEntity
  8
0
100
AcDbDimension
 62
2
  6
CONTINUOUS
  2
*D1
 10
13.7377848924
 20
3.0829799462
 11
13.753410039
 21
3.5554206668
 70
160
 71
2
 42
120.0
  3
DIMSTYLE_1
100
AcDbAlignedDimension
 13
12.6576017733
 23
4.0278618359
 14
12.671137406
 24
3.0829799462
 50
270.0
100
AcDbRotatedDimension
  0
DIMENSION
  5
384
100
AcDbEntity
  8
0
100
AcDbDimension
 62
2
  6
CONTINUOUS
  2
*D2
 10
12.719835165
 20
7.8098068657
 11
7.932310606
 21
7.8098067396
 70
160
 71
2
 42
1220.0
  3
DIMSTYLE_1
100
AcDbAlignedDimension
 13
3.1135359524
 23
7.4148177285
 14
12.719835165
 24
7.1150763993
100
AcDbRotatedDimension
  0
DIMENSION
  5
385
100
AcDbEntity
  8
0
100
AcDbDimension
 62
2
  6
CONTINUOUS
  2
*D3
 10
13.1205716883
 20
4.0278618359
 11
13.1205719475
 21
3.7916414997
 70
160
 71
2
 42
60.0
  3
DIMSTYLE_1
100
AcDbAlignedDimension
 13
12.868310834
 23
3.555420891
 14
13.3653907855
 24
4.0278618359
 50
90.0
100
AcDbRotatedDimension
  0
DIMENSION
  5
386
100
AcDbEntity
  8
0
100
AcDbDimension
 62
2
  6
CONTINUOUS
  2
*D4
 10
3.1135359524
 20
7.399828065
 11
5.515110911
 21
7.3998281163
 70
160
 71
2
 42
610.0
  3
DIMSTYLE_1
100
AcDbAlignedDimension
 13
7.9166855587
 23
7.2008846955
 14
3.1135359524
 24
7.080429319
 50
180.0
100
AcDbRotatedDimension
  0
DIMENSION
  5
387
100
AcDbEntity
  8
0
100
AcDbDimension
 62
2
  6
CONTINUOUS
  2
*D5
 10
7.9992134622
 20
6.5218002161
 11
9.8398758458
 21
5.7037733025
 70
163
 71
1
 42
30.0
  1
%%c<> THRU
  3
DIMSTYLE_2
100
AcDbDiametricDimension
 15
7.8341576551
 25
6.6907874705
  0
DIMENSION
  5
388
100
AcDbEntity
  8
0
100
AcDbDimension
 62
2
  6
CONTINUOUS
  2
*D6
 10
2.6135359524
 20
6.6062938433
 11
2.6135358855
 21
6.8425141823
 70
160
 71
2
 42
60.0
  3
DIMSTYLE_1
100
AcDbAlignedDimension
 13
2.92296442
 23
7.0787347882
 14
2.9863752964
 24
6.6062938433
 50
270.0
100
AcDbRotatedDimension
  0
DIMENSION
  5
389
100
AcDbEntity
  8
0
100
AcDbDimension
 62
2
  6
CONTINUOUS
  2
*D7
 10
3.5859768973
 20
4.7738337317
 11
5.7513312392
 21
4.7738335076
 70
160
 71
2
 42
550.0
  3
DIMSTYLE_1
100
AcDbAlignedDimension
 13
7.9166855587
 23
3.555420891
 14
3.5859768973
 24
3.555420891
 50
180.0
100
AcDbRotatedDimension
  0
DIMENSION
  5
38A
100
AcDbEntity
  8
0
100
AcDbDimension
 62
2
  6
CONTINUOUS
  2
*D8
 10
3.713742208
 20
3.3567348649
 11
5.309241584
 21
2.471687
 70
163
 71
1
 42
60.0
  1
%%c<>\P{\Fgdt;x} 40 DEEP\PChamfer 1 x 45%%d
  3
DIMSTYLE_3
100
AcDbDiametricDimension
 15
3.4582115865
 25
3.7541069172
  0
DIMENSION
  5
38B
100
AcDbEntity
  8
0
100
AcDbDimension
 62
2
  6
CONTINUOUS
  2
*D9
 10
1.9036382559
 20
3.9097515997
 11
1.907544474
 21
3.7325861653
 70
160
 71
2
 42
45.0
  3
DIMSTYLE_1
100
AcDbAlignedDimension
 13
2.6865042286
 23
3.555420891
 14
3.5216714339
 24
3.9097515997
 50
90.0
100
AcDbRotatedDimension
  0
DIMENSION
  5
38C
100
AcDbEntity
  8
0
100
AcDbDimension
 62
2
  6
CONTINUOUS
  2
*D10
 10
9.5072449749
 20
3.4990897774
 11
11.4691485031
 21
2.4627425948
 70
163
 71
1
 42
20.0195
  1
%%c<> (H8)\P{\Fgdt;x} 40 DEEP\PCHAMFER 1 x 45%%d
  3
DIMSTYLE_4
100
AcDbDiametricDimension
 15
9.3969922841
 25
3.6117520046
  0
DIMENSION
  5
38D
100
AcDbEntity
  8
0
100
AcDbDimension
 62
2
  6
CONTINUOUS
  2
*D11
 10
9.4521186295
 20
4.7738337317
 11
8.7039334515
 21
4.7738335076
 70
160
 71
2
 42
195.0
  3
DIMSTYLE_1
100
AcDbAlignedDimension
 13
7.9166855587
 23
3.555420891
 14
9.4521186295
 24
3.8528336591
100
AcDbRotatedDimension
  0
DIMENSION
  5
38E
100
AcDbEntity
  8
0
100
AcDbDimension
 62
2
  6
CONTINUOUS
  2
*D12
 10
9.4679323577
 20
3.7795096398
 11
11.4597142722
 21
4.6956324808
 70
163
 71
1
 42
8.0
  1
4 x M<> EQUISPACED\P{\Fgdt;x} 25 DEEP\PON A n50 PCD
  3
DIMSTYLE_5
100
AcDbDiametricDimension
 15
9.4363049014
 25
3.7250329297
  0
DIMENSION
  5
38F
100
AcDbEntity
  8
0
100
AcDbDimension
 62
2
  6
CONTINUOUS
  2
*D13
 10
10.7285063942
 20
9.7188352788
 11
13.4458836892
 21
8.5212213974
 70
163
 71
1
 42
16.0
  1
M<>x2\P{\Fgdt;x} 42 DEEP\P2 POS
  3
DIMSTYLE_5
100
AcDbDiametricDimension
 15
10.6166757467
 25
9.7768519834
  0
DIMENSION
  5
390
100
AcDbEntity
  8
0
100
AcDbDimension
 62
2
  6
CONTINUOUS
  2
*D14
 10
10.6725910705
 20
10.758418914
 11
9.2946381817
 21
10.7584189107
 70
160
 71
2
 42
350.0
  3
DIMSTYLE_1
100
AcDbAlignedDimension
 13
7.9166855587
 23
9.9316194261
 14
10.6725910705
 24
9.9316194261
100
AcDbRotatedDimension
  0
DIMENSION
  5
391
100
AcDbEntity
  8
0
100
AcDbDimension
 62
2
  6
CONTINUOUS
  2
*D15
 10
5.1607800469
 20
10.758418914
 11
6.5387328381
 21
10.7584189107
 70
160
 71
2
 42
350.0
  3
DIMSTYLE_1
100
AcDbAlignedDimension
 13
7.9166855587
 23
9.9316194261
 14
5.1607800469
 24
9.9086072895
 50
180.0
100
AcDbRotatedDimension
  0
DIMENSION
  5
392
100
AcDbEntity
  8
0
100
AcDbDimension
 62
2
  6
CONTINUOUS
  2
*D16
 10
3.5608838697
 20
3.1820549006
 11
1.7639783624
 21
2.6197252773
 70
163
 71
3
 42
8.0
  1
2 x M<>\P{\Fgdt;x} 40 DEEP\PChamfer 0.5 x 45%%d 
  3
DIMSTYLE_5
100
AcDbDiametricDimension
 15
3.6110699248
 25
3.2201254642
  0
ACAD_TABLE
  5
393
100
AcDbEntity
  8
0
 62
2
  6
CONTINUOUS
100
AcDbBlockReference
  2
*T1
 10
0.4330708661
 20
11.5748031496
 30
0.0
100
AcDbTable
342
       4E6
343
21C
 11
1.0
 21
0.0
 31
0.0
 90
22
 91
1
 92
10
 93
16
 94
0
 95
0
 96
0
 41
0.0157480315
141
0.157480315
142
1.4566929134
142
1.6141732283
142
1.6141732283
142
1.6141732283
142
1.6141732283
142
1.6141732283
142
1.6141732283
142
1.6141732283
142
1.6141732283
142
1.4566929134
171
1
172
0
173
0
174
0
175
1
176
1
 91
33
178
0
145
0.0
301
CELL_VALUE
 90
4
  1
1
304
ACVALUE_END
170
5
140
0.1181102362
171
1
172
0
173
0
174
0
175
1
176
1
 91
33
178
0
145
0.0
301
CELL_VALUE
 90
4
  1
2
304
ACVALUE_END
170
5
140
0.1181102362
171
1
172
0
173
0
174
0
175
1
176
1
 91
33
178
0
145
0.0
301
CELL_VALUE
 90
4
  1
3 
304
ACVALUE_END
170
5
140
0.1181102362
171
1
172
0
173
0
174
0
175
1
176
1
 91
33
178
0
145
0.0
301
CELL_VALUE
 90
4
  1
4
304
ACVALUE_END
170
5
140
0.1181102362
171
1
172
0
173
0
174
0
175
1
176
1
 91
33
178
0
145
0.0
301
CELL_VALUE
 90
4
  1
5
304
ACVALUE_END
170
5
140
0.1181102362
171
1
172
0
173
0
174
0
175
1
176
1
 91
33
178
0
145
0.0
301
CELL_VALUE
 90
4
  1
6
304
ACVALUE_END
170
5
140
0.1181102362
171
1
172
0
173
0
174
0
175
1
176
1
 91
33
178
0
145
0.0
301
CELL_VALUE
 90
4
  1
7
304
ACVALUE_END
170
5
140
0.1181102362
171
1
172
0
173
0
174
0
175
1
176
1
 91
33
178
0
145
0.0
301
CELL_VALUE
 90
4
  1
8
304
ACVALUE_END
170
5
140
0.1181102362
171
1
172
0
173
0
174
0
175
1
176
1
 91
33
178
0
145
0.0
301
CELL_VALUE
 90
4
  1
9
304
ACVALUE_END
170
5
140
0.1181102362
171
1
172
0
173
0
174
0
175
1
176
1
 91
33
178
0
145
0.0
301
CELL_VALUE
 90
4
  1
10
304
ACVALUE_END
170
5
140
0.1181102362
  0
ACAD_TABLE
  5
394
100
AcDbEntity
  8
0
 62
2
  6
CONTINUOUS
100
AcDbBlockReference
  2
*T2
 10
0.4330708661
 20
0.4330708661
 30
0.0
100
AcDbTable
342
       4E6
343
21D
 11
1.0
 21
0.0
 31
0.0
 90
22
 91
1
 92
10
 93
16
 94
0
 95
0
 96
0
 41
0.0157480315
141
0.157480315
142
1.4566929134
142
1.6141732283
142
1.6141732283
142
1.6141732283
142
1.6141732283
142
1.6141732283
142
1.6141732283
142
1.6141732283
142
1.6141732283
142
1.4566929134
171
1
172
0
173
0
174
0
175
1
176
1
 91
33
178
0
145
0.0
301
CELL_VALUE
 90
4
  1
1
304
ACVALUE_END
170
5
140
0.1181102362
171
1
172
0
173
0
174
0
175
1
176
1
 91
33
178
0
145
0.0
301
CELL_VALUE
 90
4
  1
2
304
ACVALUE_END
170
5
140
0.1181102362
171
1
172
0
173
0
174
0
175
1
176
1
 91
33
178
0
145
0.0
301
CELL_VALUE
 90
4
  1
3 
304
ACVALUE_END
170
5
140
0.1181102362
171
1
172
0
173
0
174
0
175
1
176
1
 91
33
178
0
145
0.0
301
CELL_VALUE
 90
4
  1
4 
304
ACVALUE_END
170
5
140
0.1181102362
171
1
172
0
173
0
174
0
175
1
176
1
 91
33
178
0
145
0.0
301
CELL_VALUE
 90
4
  1
5
304
ACVALUE_END
170
5
140
0.1181102362
171
1
172
0
173
0
174
0
175
1
176
1
 91
33
178
0
145
0.0
301
CELL_VALUE
 90
4
  1
6
304
ACVALUE_END
170
5
140
0.1181102362
171
1
172
0
173
0
174
0
175
1
176
1
 91
33
178
0
145
0.0
301
CELL_VALUE
 90
4
  1
7
304
ACVALUE_END
170
5
140
0.1181102362
171
1
172
0
173
0
174
0
175
1
176
1
 91
33
178
0
145
0.0
301
CELL_VALUE
 90
4
  1
8
304
ACVALUE_END
170
5
140
0.1181102362
171
1
172
0
173
0
174
0
175
1
176
1
 91
33
178
0
145
0.0
301
CELL_VALUE
 90
4
  1
9
304
ACVALUE_END
170
5
140
0.1181102362
171
1
172
0
173
0
174
0
175
1
176
1
 91
33
178
0
145
0.0
301
CELL_VALUE
 90
4
  1
10
304
ACVALUE_END
170
5
140
0.1181102362
  0
ACAD_TABLE
  5
395
100
AcDbEntity
  8
0
 62
2
  6
CONTINUOUS
100
AcDbBlockReference
  2
*T3
 10
0.2755905512
 20
11.4173228346
 30
0.0
100
AcDbTable
342
       4E6
343
21E
 11
1.0
 21
0.0
 31
0.0
 90
22
 91
10
 92
1
 93
0
 94
0
 95
0
 96
0
141
1.0984251969
141
1.0984251969
141
1.0984251969
141
1.0984251969
141
1.0984251969
141
1.0984251969
141
1.0984251969
141
1.0984251969
141
1.0984251969
141
1.0984251969
142
0.157480315
171
1
172
0
173
0
174
0
175
1
176
1
 91
33
178
0
145
0.0
301
CELL_VALUE
 90
4
  1
A
304
ACVALUE_END
170
5
140
0.1181102362
171
1
172
0
173
0
174
0
175
1
176
1
 91
33
178
0
145
0.0
301
CELL_VALUE
 90
4
  1
B
304
ACVALUE_END
170
5
140
0.1181102362
171
1
172
0
173
0
174
0
175
1
176
1
 91
33
178
0
145
0.0
301
CELL_VALUE
 90
4
  1
C
304
ACVALUE_END
170
5
140
0.1181102362
171
1
172
0
173
0
174
0
175
1
176
1
 91
33
178
0
145
0.0
301
CELL_VALUE
 90
4
  1
D
304
ACVALUE_END
170
5
140
0.1181102362
171
1
172
0
173
0
174
0
175
1
176
1
 91
33
178
0
145
0.0
301
CELL_VALUE
 90
4
  1
E
304
ACVALUE_END
170
5
140
0.1181102362
171
1
172
0
173
0
174
0
175
1
176
1
 91
33
178
0
145
0.0
301
CELL_VALUE
 90
4
  1
F
304
ACVALUE_END
170
5
140
0.1181102362
171
1
172
0
173
0
174
0
175
1
176
1
 91
33
178
0
145
0.0
301
CELL_VALUE
 90
4
  1
G
304
ACVALUE_END
170
5
140
0.1181102362
171
1
172
0
173
0
174
0
175
1
176
1
 91
33
178
0
145
0.0
301
CELL_VALUE
 90
4
  1
H
304
ACVALUE_END
170
5
140
0.1181102362
171
1
172
0
173
0
174
0
175
1
176
1
 91
33
178
0
145
0.0
301
CELL_VALUE
 90
4
  1
J
304
ACVALUE_END
170
5
140
0.1181102362
171
1
172
0
173
0
174
0
175
1
176
1
 91
33
178
0
145
0.0
301
CELL_VALUE
 90
4
  1
K
304
ACVALUE_END
170
5
140
0.1181102362
  0
ACAD_TABLE
  5
396
100
AcDbEntity
  8
0
 62
2
  6
CONTINUOUS
100
AcDbBlockReference
  2
*T4
 10
16.2598425197
 20
11.4173228346
 30
0.0
100
AcDbTable
342
       4E6
343
21F
 11
1.0
 21
0.0
 31
0.0
 90
22
 91
10
 92
1
 93
0
 94
0
 95
0
 96
0
141
1.0984251969
141
1.0984251969
141
1.0984251969
141
1.0984251969
141
1.0984251969
141
1.0984251969
141
1.0984251969
141
1.0984251969
141
1.0984251969
141
1.0984251969
142
0.157480315
171
1
172
0
173
0
174
0
175
1
176
1
 91
33
178
0
145
0.0
301
CELL_VALUE
 90
4
  1
A
304
ACVALUE_END
170
5
140
0.1181102362
171
1
172
0
173
0
174
0
175
1
176
1
 91
33
178
0
145
0.0
301
CELL_VALUE
 90
4
  1
B
304
ACVALUE_END
170
5
140
0.1181102362
171
1
172
0
173
0
174
0
175
1
176
1
 91
33
178
0
145
0.0
301
CELL_VALUE
 90
4
  1
C
304
ACVALUE_END
170
5
140
0.1181102362
171
1
172
0
173
0
174
0
175
1
176
1
 91
33
178
0
145
0.0
301
CELL_VALUE
 90
4
  1
D
304
ACVALUE_END
170
5
140
0.1181102362
171
1
172
0
173
0
174
0
175
1
176
1
 91
33
178
0
145
0.0
301
CELL_VALUE
 90
4
  1
E
304
ACVALUE_END
170
5
140
0.1181102362
171
1
172
0
173
0
174
0
175
1
176
1
 91
33
178
0
145
0.0
301
CELL_VALUE
 90
4
  1
F
304
ACVALUE_END
170
5
140
0.1181102362
171
1
172
0
173
0
174
0
175
1
176
1
 91
33
178
0
145
0.0
301
CELL_VALUE
 90
4
  1
G
304
ACVALUE_END
170
5
140
0.1181102362
171
1
172
0
173
0
174
0
175
1
176
1
 91
33
178
0
145
0.0
301
CELL_VALUE
 90
4
  1
H
304
ACVALUE_END
170
5
140
0.1181102362
171
1
172
0
173
0
174
0
175
1
176
1
 91
33
178
0
145
0.0
301
CELL_VALUE
 90
4
  1
J
304
ACVALUE_END
170
5
140
0.1181102362
171
1
172
0
173
0
174
0
175
1
176
1
 91
33
178
0
145
0.0
301
CELL_VALUE
 90
4
  1
K
304
ACVALUE_END
170
5
140
0.1181102362
  0
ACAD_TABLE
  5
397
100
AcDbEntity
  8
0
 62
2
  6
CONTINUOUS
100
AcDbBlockReference
  2
*T5
 10
0.4330708661
 20
11.4173228346
 30
0.0
100
AcDbTable
342
       4E6
343
220
 11
1.0
 21
0.0
 31
0.0
 90
22
 91
2
 92
2
 93
16
 94
0
 95
0
 96
0
 41
0.0
141
0.2952755906
141
0.1377952756
142
1.3779527559
142
0.3937007874
171
1
172
0
173
0
174
0
175
1
176
1
 91
33
178
0
145
0.0
301
CELL_VALUE
 90
4
  1
 
304
ACVALUE_END
170
5
140
0.0984251969
171
1
172
0
173
0
174
0
175
1
176
1
 91
33
178
0
145
0.0
301
CELL_VALUE
 90
4
  1
SHEET\P1 of 1
304
ACVALUE_END
170
5
140
0.0590551181
171
1
172
0
173
0
174
0
175
1
176
1
 91
33
178
0
145
0.0
301
CELL_VALUE
 90
4
  1
PART A3 DWG-01
304
ACVALUE_END
170
5
140
0.0787401575
171
1
172
0
173
0
174
0
175
1
176
1
 91
33
178
0
145
0.0
301
CELL_VALUE
 90
4
  1
 
304
ACVALUE_END
170
1
140
0.0061515748
  0
ACAD_TABLE
  5
398
100
AcDbEntity
  8
0
 62
2
  6
CONTINUOUS
100
AcDbBlockReference
  2
*T6
 10
0.4330917283
 20
1.8505122202
 30
0.0
100
AcDbTable
342
       4E6
343
221
 11
1.0
 21
0.0
 31
0.0
 90
22
 91
7
 92
14
 93
16
 94
0
 95
0
 96
0
 41
0.0
141
0.1377952756
141
0.1377952756
141
0.1377952756
141
0.1377952756
141
0.2755905512
141
0.2952755906
141
0.2952755906
142
0.3149606299
142
0.4724409449
142
1.968503937
142
0.5511811024
142
0.5511811024
142
0.5511811024
142
0.7086614173
142
1.2204724409
142
1.2204724409
142
2.9527559055
142
0.688976378
142
0.688976378
142
2.3622047244
142
1.5748031496
171
1
172
0
173
0
174
0
175
1
176
5
 91
33
178
0
145
0.0
301
CELL_VALUE
 90
4
  1
 3
304
ACVALUE_END
170
5
140
0.0787401575
171
1
172
0
173
0
174
0
175
1
176
5
 91
33
178
0
145
0.0
301
CELL_VALUE
 90
4
  1
 
304
ACVALUE_END
170
5
140
0.0787401575
171
1
172
0
173
0
174
0
175
1
176
5
 91
33
178
0
145
0.0
301
CELL_VALUE
 90
4
  1
PCD OF MOUNTING HOLES CHANGED\P(G7)\P \PLOCATION HOLE DIMENSION\PCHANGED (J7)\P 
304
ACVALUE_END
170
5
140
0.0787401575
171
1
172
0
173
0
174
0
175
1
176
5
 91
33
178
0
145
0.0
301
CELL_VALUE
 90
4
  1
HLQ 
304
ACVALUE_END
170
5
140
0.0787401575
171
1
172
0
173
0
174
0
175
1
176
5
 91
33
178
0
145
0.0
301
CELL_VALUE
 90
4
  1
 
304
ACVALUE_END
170
5
140
0.0787401575
171
1
172
0
173
0
174
0
175
1
176
5
 91
33
178
0
145
0.0
301
CELL_VALUE
 90
4
  1
 
304
ACVALUE_END
170
5
140
0.0787401575
171
1
172
0
173
0
174
0
175
1
176
5
 91
33
178
0
145
0.0
301
CELL_VALUE
 90
4
  1
21.02.18 
304
ACVALUE_END
170
5
140
0.0787401575
171
1
172
0
173
0
174
0
175
1
176
2
 91
33
178
0
145
0.0
301
CELL_VALUE
 90
4
  1
UNSPECIFIED DETAIL
304
ACVALUE_END
170
5
140
0.0787401575
171
1
172
0
173
0
174
0
175
1
176
2
 91
33
178
0
145
0.0
301
CELL_VALUE
 90
4
  1
UNSPECIFIED TOL.
304
ACVALUE_END
170
5
140
0.0787401575
171
1
172
0
173
0
174
0
175
1
176
2
 91
33
178
0
145
0.0
301
CELL_VALUE
 90
4
  1
MATERIAL:  AS SUPPLIED
304
ACVALUE_END
170
4
140
0.0787401575
171
1
172
0
173
0
174
0
175
1
176
2
 91
33
178
0
145
0.0
301
CELL_VALUE
 90
4
  1
DRAWN BY\P 
304
ACVALUE_END
170
2
140
0.0688976378
171
1
172
0
173
0
174
0
175
1
176
2
 91
33
178
0
145
0.0
301
CELL_VALUE
 90
4
  1
DATE\P 
304
ACVALUE_END
170
2
140
0.0688976378
171
1
172
0
173
0
174
0
175
2
176
1
 91
33
178
0
145
0.0
301
CELL_VALUE
 90
4
  1
TITLE
304
ACVALUE_END
170
4
140
0.0787401575
171
1
172
0
173
1
174
0
175
1
176
1
 91
1
178
0
145
0.0
170
1
171
1
172
0
173
1
174
0
175
1
176
1
 91
1
178
0
145
0.0
170
1
171
1
172
0
173
1
174
0
175
1
176
1
 91
1
178
0
145
0.0
170
1
171
1
172
0
173
1
174
0
175
1
176
1
 91
1
178
0
145
0.0
170
1
171
1
172
0
173
1
174
0
175
1
176
1
 91
1
178
0
145
0.0
170
1
171
1
172
0
173
1
174
0
175
1
176
1
 91
1
178
0
145
0.0
170
1
171
1
172
0
173
1
174
0
175
1
176
1
 91
1
178
0
145
0.0
170
1
171
1
172
0
173
1
174
0
175
1
176
1
 91
1
178
0
145
0.0
170
1
171
1
172
0
173
1
174
0
175
1
176
1
 91
1
178
0
145
0.0
170
1
171
1
172
0
173
1
174
0
175
1
176
1
 91
1
178
0
145
0.0
170
1
171
1
172
0
173
1
174
0
175
1
176
1
 91
1
178
0
145
0.0
170
1
171
1
172
0
173
1
174
0
175
1
176
1
 91
1
178
0
145
0.0
170
1
171
1
172
0
173
1
174
0
175
1
176
1
 91
1
178
0
145
0.0
170
1
171
1
172
0
173
0
174
0
175
2
176
2
 91
33
178
0
145
0.0
301
CELL_VALUE
 90
4
  1
HINGE
304
ACVALUE_END
170
5
140
0.1181102362
171
1
172
0
173
1
174
0
175
1
176
1
 91
1
178
0
145
0.0
170
1
171
1
172
0
173
1
174
0
175
1
176
1
 91
1
178
0
145
0.0
170
1
171
1
172
0
173
1
174
0
175
1
176
1
 91
1
178
0
145
0.0
170
1
171
1
172
0
173
1
174
0
175
1
176
1
 91
1
178
0
145
0.0
170
1
171
1
172
0
173
1
174
0
175
1
176
1
 91
1
178
0
145
0.0
170
1
171
1
172
0
173
1
174
0
175
1
176
1
 91
1
178
0
145
0.0
170
1
171
1
172
0
173
1
174
0
175
1
176
1
 91
1
178
0
145
0.0
170
1
171
1
172
0
173
1
174
0
175
1
176
1
 91
1
178
0
145
0.0
170
1
171
1
172
0
173
0
174
0
175
1
176
5
 91
33
178
0
145
0.0
301
CELL_VALUE
 90
4
  1
BREAK ALL\PSHARP EDGES
304
ACVALUE_END
170
1
140
0.0984251969
171
1
172
0
173
0
174
0
175
1
176
5
 91
49
178
0
145
0.0
  7
TEXTSTYLE_1
301
CELL_VALUE
 90
4
  1
{\Fgdt;`}\Ftxt;0.2
304
ACVALUE_END
170
1
140
0.0984251969
171
1
172
0
173
0
174
0
175
1
176
2
 91
33
178
0
145
0.0
301
CELL_VALUE
 90
4
  1
FINISH:  AS SUPPLIED
304
ACVALUE_END
170
4
140
0.0787401575
171
1
172
0
173
0
174
0
175
1
176
2
 91
33
178
0
145
0.0
301
CELL_VALUE
 90
4
  1
CHECKED BY\P 
304
ACVALUE_END
170
2
140
0.0688976378
171
1
172
0
173
0
174
0
175
1
176
2
 91
33
178
0
145
0.0
301
CELL_VALUE
 90
4
  1
DATE\P 
304
ACVALUE_END
170
2
140
0.0688976378
171
1
172
0
173
1
174
0
175
1
176
1
 91
1
178
0
145
0.0
170
1
171
1
172
0
173
1
174
0
175
1
176
1
 91
1
178
0
145
0.0
170
1
171
1
172
0
173
1
174
0
175
1
176
1
 91
1
178
0
145
0.0
170
1
171
1
172
0
173
1
174
0
175
1
176
1
 91
1
178
0
145
0.0
170
1
171
1
172
0
173
1
174
0
175
1
176
1
 91
1
178
0
145
0.0
170
1
171
1
172
0
173
1
174
0
175
1
176
1
 91
1
178
0
145
0.0
170
1
171
1
172
0
173
1
174
0
175
1
176
1
 91
1
178
0
145
0.0
170
1
171
1
172
0
173
1
174
0
175
1
176
1
 91
1
178
0
145
0.0
170
1
171
1
172
0
173
1
174
0
175
1
176
1
 91
1
178
0
145
0.0
170
1
171
1
172
0
173
1
174
0
175
1
176
1
 91
1
178
0
145
0.0
170
1
171
1
172
0
173
1
174
0
175
1
176
1
 91
1
178
0
145
0.0
170
1
171
1
172
0
173
1
174
0
175
1
176
1
 91
1
178
0
145
0.0
170
1
171
1
172
0
173
1
174
0
175
1
176
1
 91
1
178
0
145
0.0
170
1
171
1
172
0
173
1
174
0
175
1
176
1
 91
1
178
0
145
0.0
170
1
171
1
172
0
173
0
174
0
175
1
176
1
 91
33
178
0
145
0.0
301
CELL_VALUE
 90
4
  1
DOCUMENT REFERENCE NUMBER
304
ACVALUE_END
170
4
140
0.0787401575
171
1
172
0
173
0
174
0
175
1
176
1
 91
33
178
0
145
0.0
301
CELL_VALUE
 90
4
  1
PART NUMBER
304
ACVALUE_END
170
5
140
0.0787401575
171
1
172
0
173
1
174
0
175
1
176
1
 91
1
178
0
145
0.0
170
1
171
1
172
0
173
1
174
0
175
1
176
1
 91
1
178
0
145
0.0
170
1
171
1
172
0
173
1
174
0
175
1
176
1
 91
1
178
0
145
0.0
170
1
171
1
172
0
173
1
174
0
175
1
176
1
 91
1
178
0
145
0.0
170
1
171
1
172
0
173
1
174
0
175
1
176
1
 91
1
178
0
145
0.0
170
1
171
1
172
0
173
1
174
0
175
1
176
1
 91
1
178
0
145
0.0
170
1
171
1
172
0
173
1
174
0
175
1
176
1
 91
1
178
0
145
0.0
170
1
171
1
172
0
173
1
174
0
175
1
176
1
 91
1
178
0
145
0.0
170
1
171
1
172
0
173
1
174
0
175
1
176
1
 91
1
178
0
145
0.0
170
1
171
1
172
0
173
0
174
0
175
1
176
3
 91
33
178
0
145
0.0
301
CELL_VALUE
 90
4
  1
 
304
ACVALUE_END
170
1
140
0.0492125984
171
1
172
0
173
0
174
0
175
1
176
1
 91
33
178
0
145
0.0
301
CELL_VALUE
 90
4
  1
APPROVED BY\P 
304
ACVALUE_END
170
2
140
0.0688976378
171
1
172
0
173
0
174
0
175
1
176
1
 91
33
178
0
145
0.0
301
CELL_VALUE
 90
4
  1
DATE\P 
304
ACVALUE_END
170
2
140
0.0688976378
171
1
172
0
173
0
174
0
175
1
176
1
 91
33
178
0
145
0.0
301
CELL_VALUE
 90
4
  1
 
304
ACVALUE_END
170
5
140
0.1181102362
171
1
172
0
173
0
174
0
175
1
176
1
 91
33
178
0
145
0.0
301
CELL_VALUE
 90
4
  1
HSR-1004-02 
304
ACVALUE_END
170
5
140
0.1181102362
171
1
172
0
173
0
174
0
175
1
176
1
 91
33
178
0
145
0.0
301
CELL_VALUE
 90
4
  1
VER
304
ACVALUE_END
170
5
140
0.0984251969
171
1
172
0
173
0
174
0
175
1
176
1
 91
33
178
0
145
0.0
301
CELL_VALUE
 90
4
  1
ECN
304
ACVALUE_END
170
5
140
0.0984251969
171
1
172
0
173
0
174
0
175
1
176
1
 91
33
178
0
145
0.0
301
CELL_VALUE
 90
4
  1
DETAILS OF MODIFICATION
304
ACVALUE_END
170
5
140
0.0787401575
171
1
172
0
173
0
174
0
175
1
176
1
 91
33
178
0
145
0.0
301
CELL_VALUE
 90
4
  1
DWN
304
ACVALUE_END
170
5
140
0.0984251969
171
1
172
0
173
0
174
0
175
1
176
1
 91
33
178
0
145
0.0
301
CELL_VALUE
 90
4
  1
CHKD
304
ACVALUE_END
170
5
140
0.0984251969
171
1
172
0
173
0
174
0
175
1
176
1
 91
33
178
0
145
0.0
301
CELL_VALUE
 90
4
  1
APPR
304
ACVALUE_END
170
5
140
0.0984251969
171
1
172
0
173
0
174
0
175
1
176
1
 91
33
178
0
145
0.0
301
CELL_VALUE
 90
4
  1
DATE
304
ACVALUE_END
170
5
140
0.0984251969
171
1
172
0
173
1
174
0
175
1
176
1
 91
1
178
0
145
0.0
170
1
171
1
172
0
173
1
174
0
175
1
176
1
 91
1
178
0
145
0.0
170
1
171
1
172
0
173
1
174
0
175
1
176
1
 91
1
178
0
145
0.0
170
1
171
1
172
0
173
0
174
0
175
1
176
1
 91
33
178
0
145
0.0
301
CELL_VALUE
 90
4
  1
SHEET SCALE
304
ACVALUE_END
170
5
140
0.0688976378
171
1
172
0
173
0
174
0
175
1
176
1
 91
33
178
0
145
0.0
301
CELL_VALUE
 90
4
  1
0.200
304
ACVALUE_END
170
5
140
0.0688976378
171
1
172
0
173
0
174
0
175
2
176
1
 91
33
178
0
145
0.0
301
CELL_VALUE
 90
4
  1
USED ON:  HSR-1000-01
304
ACVALUE_END
170
5
140
0.0984251969
171
1
172
0
173
1
174
0
175
1
176
1
 91
1
178
0
145
0.0
170
1
171
1
172
0
173
0
174
0
175
7
176
1
 91
33
178
0
145
0.0
301
CELL_VALUE
 90
4
  1
VERSIONS 
304
ACVALUE_END
170
5
140
0.0984251969
171
1
172
0
173
1
174
0
175
1
176
1
 91
1
178
0
145
0.0
170
1
171
1
172
0
173
1
174
0
175
1
176
1
 91
1
178
0
145
0.0
170
1
171
1
172
0
173
1
174
0
175
1
176
1
 91
1
178
0
145
0.0
170
1
171
1
172
0
173
1
174
0
175
1
176
1
 91
1
178
0
145
0.0
170
1
171
1
172
0
173
1
174
0
175
1
176
1
 91
1
178
0
145
0.0
170
1
171
1
172
0
173
1
174
0
175
1
176
1
 91
1
178
0
145
0.0
170
1
171
1
172
0
173
1
174
0
175
1
176
1
 91
1
178
0
145
0.0
170
1
171
1
172
0
173
1
174
0
175
1
176
1
 91
1
178
0
145
0.0
170
1
171
1
172
0
173
1
174
0
175
1
176
1
 91
1
178
0
145
0.0
170
1
171
1
172
0
173
0
174
0
175
1
176
1
 91
33
178
0
145
0.0
301
CELL_VALUE
 90
4
  1
ESTIMATED \PMASS KG. 
304
ACVALUE_END
170
5
140
0.0688976378
171
1
172
0
173
0
174
0
175
1
176
1
 91
33
178
0
145
0.0
301
CELL_VALUE
 90
4
  1
 
304
ACVALUE_END
170
5
140
0.0787401575
171
1
172
0
173
0
174
0
175
2
176
1
 91
33
178
0
145
0.0
301
CELL_VALUE
 90
4
  1
HSR-1004-27 
304
ACVALUE_END
170
5
140
0.0787401575
171
1
172
0
173
1
174
0
175
1
176
1
 91
1
178
0
145
0.0
170
1
  0
MTEXT
  5
399
100
AcDbEntity
  8
0
100
AcDbMText
 62
2
  6
CONTINUOUS
  7
STANDARD
 71
3
 72
1
 10
15.8525528035
 20
9.6700640538
 30
0.0
 11
1.0
 21
0.0
 31
0.0
 44
0.9
  1
SCALE  0.050
 40
0.15625
 41
1.5
  0
MTEXT
  5
39A
100
AcDbEntity
  8
0
100
AcDbMText
 62
2
  6
CONTINUOUS
  7
TEXTSTYLE_1
 71
1
 72
1
 10
7.8210050414
 20
2.7265056853
 30
0.0
 11
1.0
 21
0.0
 31
0.0
 44
0.9
  1
{\Fgdt;q}
 40
0.15625
 41
0.2473958333
  0
MTEXT
  5
39B
100
AcDbEntity
  8
0
100
AcDbMText
 62
2
  6
CONTINUOUS
  7
TEXTSTYLE_1
 71
1
 72
1
 10
2.7005622229
 20
3.6133690951
 30
0.0
 11
1.0
 21
0.0
 31
0.0
 44
0.9
  1
{\Fgdt;q}
 40
0.15625
 41
0.2473958333
  0
MTEXT
  5
39C
100
AcDbEntity
  8
0
100
AcDbMText
 62
2
  6
CONTINUOUS
  7
TEXTSTYLE_1
 71
1
 72
1
 10
7.8250135527
 20
5.9017284727
 30
0.0
 11
1.0
 21
0.0
 31
0.0
 44
0.9
  1
{\Fgdt;q}
 40
0.15625
 41
0.2473958333
  0
MTEXT
  5
39D
100
AcDbEntity
  8
0
100
AcDbMText
 62
2
  6
CONTINUOUS
  7
TEXTSTYLE_1
 71
1
 72
1
 10
7.825422122
 20
8.9472203447
 30
0.0
 11
1.0
 21
0.0
 31
0.0
 44
0.9
  1
{\Fgdt;q}
 40
0.15625
 41
0.2473958333
  0
LINE
  5
39E
100
AcDbEntity
  8
0
100
AcDbLine
 62
7
  6
CONTINUOUS
 10
0.2755905512
 20
11.4173228346
 11
0.4330708661
 21
11.5748031496
  0
LINE
  5
39F
100
AcDbEntity
  8
0
100
AcDbLine
 62
7
  6
CONTINUOUS
 10
0.2755905512
 20
11.4173228346
 11
0.2755905512
 21
11.5748031496
  0
LINE
  5
3A0
100
AcDbEntity
  8
0
100
AcDbLine
 62
7
  6
CONTINUOUS
 10
0.2755905512
 20
11.5748031496
 11
0.4330708661
 21
11.5748031496
  0
HATCH
  5
3A1
100
AcDbEntity
  8
0
100
AcDbHatch
 62
2
  6
CONTINUOUS
 10
0.0
 20
0.0
 30
0.0
210
0.0
220
0.0
230
1.0
  2
XSEC0002
 70
1
 71
1
 91
1
 92
1
 93
3
 72
1
 10
0.2755905512
 20
11.5748031496
 11
0.4330708661
 21
11.5748031496
 72
1
 10
0.2755905512
 20
11.4173228346
 11
0.2755905512
 21
11.5748031496
 72
1
 10
0.2755905512
 20
11.4173228346
 11
0.4330708661
 21
11.5748031496
 97
3
330
39E
330
39F
330
3A0
 75
0
 76
1
 98
1
 10
0.0
 20
0.0
  0
LINE
  5
3A2
100
AcDbEntity
  8
0
100
AcDbLine
 62
7
  6
CONTINUOUS
 10
0.4330708661
 20
0.2755905512
 11
0.2755905512
 21
0.4330708661
  0
LINE
  5
3A3
100
AcDbEntity
  8
0
100
AcDbLine
 62
7
  6
CONTINUOUS
 10
0.2755905512
 20
0.2755905512
 11
0.2755905512
 21
0.4330708661
  0
LINE
  5
3A4
100
AcDbEntity
  8
0
100
AcDbLine
 62
7
  6
CONTINUOUS
 10
0.2755905512
 20
0.2755905512
 11
0.4330708661
 21
0.2755905512
  0
HATCH
  5
3A5
100
AcDbEntity
  8
0
100
AcDbHatch
 62
2
  6
CONTINUOUS
 10
0.0
 20
0.0
 30
0.0
210
0.0
220
0.0
230
1.0
  2
XSEC0001
 70
1
 71
1
 91
1
 92
1
 93
3
 72
1
 10
0.2755905512
 20
0.2755905512
 11
0.2755905512
 21
0.4330708661
 72
1
 10
0.2755905512
 20
0.2755905512
 11
0.4330708661
 21
0.2755905512
 72
1
 10
0.4330708661
 20
0.2755905512
 11
0.2755905512
 21
0.4330708661
 97
3
330
3A2
330
3A3
330
3A4
 75
0
 76
1
 98
1
 10
0.0
 20
0.0
  0
LINE
  5
3A6
100
AcDbEntity
  8
0
100
AcDbLine
 62
7
  6
CONTINUOUS
 10
0.4392224409
 20
0.6631397638
 11
0.4269192913
 21
0.6754429134
  0
LINE
  5
3A7
100
AcDbEntity
  8
0
100
AcDbLine
 62
7
  6
CONTINUOUS
 10
0.2755905512
 20
0.4330708661
 11
0.2755905512
 21
11.4173228346
  0
LINE
  5
3A8
100
AcDbEntity
  8
0
100
AcDbLine
 62
7
  6
CONTINUOUS
 10
0.4330708661
 20
0.2755905512
 11
0.4330708661
 21
0.4330708661
  0
LINE
  5
3A9
100
AcDbEntity
  8
0
100
AcDbLine
 62
7
  6
CONTINUOUS
 10
0.4330708661
 20
11.4173228346
 11
0.4330708661
 21
11.5748031496
  0
LINE
  5
3AA
100
AcDbEntity
  8
0
100
AcDbLine
 62
7
  6
CONTINUOUS
 10
2.9982775591
 20
0.6631397638
 11
2.9859744094
 21
0.6754429134
  0
LINE
  5
3AB
100
AcDbEntity
  8
0
100
AcDbLine
 62
7
  6
CONTINUOUS
 10
0.4330708661
 20
0.2755905512
 11
16.2598425197
 21
0.2755905512
  0
LINE
  5
3AC
100
AcDbEntity
  8
0
100
AcDbLine
 62
7
  6
CONTINUOUS
 10
16.2598425197
 20
0.2755905512
 11
16.4173228346
 21
0.2755905512
  0
LINE
  5
3AD
100
AcDbEntity
  8
0
100
AcDbLine
 62
7
  6
CONTINUOUS
 10
16.4173228346
 20
0.2755905512
 11
16.4173228346
 21
0.4330708661
  0
LINE
  5
3AE
100
AcDbEntity
  8
0
100
AcDbLine
 62
7
  6
CONTINUOUS
 10
16.4173228346
 20
0.4330708661
 11
16.2598425197
 21
0.2755905512
  0
HATCH
  5
3AF
100
AcDbEntity
  8
0
100
AcDbHatch
 62
2
  6
CONTINUOUS
 10
0.0
 20
0.0
 30
0.0
210
0.0
220
0.0
230
1.0
  2
XSEC0004
 70
1
 71
1
 91
1
 92
1
 93
3
 72
1
 10
16.4173228346
 20
0.2755905512
 11
16.4173228346
 21
0.4330708661
 72
1
 10
16.4173228346
 20
0.4330708661
 11
16.2598425197
 21
0.2755905512
 72
1
 10
16.2598425197
 20
0.2755905512
 11
16.4173228346
 21
0.2755905512
 97
3
330
3AC
330
3AD
330
3AE
 75
0
 76
1
 98
1
 10
0.0
 20
0.0
  0
LINE
  5
3B0
100
AcDbEntity
  8
0
100
AcDbLine
 62
7
  6
CONTINUOUS
 10
0.2755905512
 20
0.4330708661
 11
0.4330708661
 21
0.4330708661
  0
LINE
  5
3B1
100
AcDbEntity
  8
0
100
AcDbLine
 62
7
  6
CONTINUOUS
 10
16.2598425197
 20
0.4330708661
 11
16.4173228346
 21
0.4330708661
  0
LINE
  5
3B2
100
AcDbEntity
  8
0
100
AcDbLine
 62
7
  6
CONTINUOUS
 10
6.7778051181
 20
0.4269192913
 11
6.7655019685
 21
0.4392224409
  0
LINE
  5
3B3
100
AcDbEntity
  8
0
100
AcDbLine
 62
7
  6
CONTINUOUS
 10
7.9982775591
 20
0.4269192913
 11
7.9859744094
 21
0.4392224409
  0
LINE
  5
3B4
100
AcDbEntity
  8
0
100
AcDbLine
 62
7
  6
CONTINUOUS
 10
0.4392224409
 20
0.6754429134
 11
0.4269192913
 21
0.6631397638
  0
LINE
  5
3B5
100
AcDbEntity
  8
0
100
AcDbLine
 62
7
  6
CONTINUOUS
 10
10.9510334646
 20
0.4269192913
 11
10.938730315
 21
0.4392224409
  0
LINE
  5
3B6
100
AcDbEntity
  8
0
100
AcDbLine
 62
7
  6
CONTINUOUS
 10
12.3289862205
 20
0.4269192913
 11
12.3166830709
 21
0.4392224409
  0
LINE
  5
3B7
100
AcDbEntity
  8
0
100
AcDbLine
 62
7
  6
CONTINUOUS
 10
2.9982775591
 20
0.6754429134
 11
2.9859744094
 21
0.6631397638
  0
LINE
  5
3B8
100
AcDbEntity
  8
0
100
AcDbLine
 62
7
  6
CONTINUOUS
 10
6.7778051181
 20
0.4392224409
 11
6.7655019685
 21
0.4269192913
  0
LINE
  5
3B9
100
AcDbEntity
  8
0
100
AcDbLine
 62
7
  6
CONTINUOUS
 10
7.9982775591
 20
0.4392224409
 11
7.9859744094
 21
0.4269192913
  0
LINE
  5
3BA
100
AcDbEntity
  8
0
100
AcDbLine
 62
7
  6
CONTINUOUS
 10
10.9510334646
 20
0.4392224409
 11
10.938730315
 21
0.4269192913
  0
LINE
  5
3BB
100
AcDbEntity
  8
0
100
AcDbLine
 62
7
  6
CONTINUOUS
 10
0.2755905512
 20
11.4173228346
 11
0.4330708661
 21
11.4173228346
  0
LINE
  5
3BC
100
AcDbEntity
  8
0
100
AcDbLine
 62
7
  6
CONTINUOUS
 10
16.2598425197
 20
11.4173228346
 11
16.4173228346
 21
11.4173228346
  0
LINE
  5
3BD
100
AcDbEntity
  8
0
100
AcDbLine
 62
7
  6
CONTINUOUS
 10
0.4330708661
 20
11.5748031496
 11
16.2598425197
 21
11.5748031496
  0
LINE
  5
3BE
100
AcDbEntity
  8
0
100
AcDbLine
 62
7
  6
CONTINUOUS
 10
16.2598425197
 20
11.5748031496
 11
16.4173228346
 21
11.5748031496
  0
LINE
  5
3BF
100
AcDbEntity
  8
0
100
AcDbLine
 62
7
  6
CONTINUOUS
 10
16.4173228346
 20
11.4173228346
 11
16.4173228346
 21
11.5748031496
  0
LINE
  5
3C0
100
AcDbEntity
  8
0
100
AcDbLine
 62
7
  6
CONTINUOUS
 10
16.2598425197
 20
11.5748031496
 11
16.4173228346
 21
11.4173228346
  0
HATCH
  5
3C1
100
AcDbEntity
  8
0
100
AcDbHatch
 62
2
  6
CONTINUOUS
 10
0.0
 20
0.0
 30
0.0
210
0.0
220
0.0
230
1.0
  2
XSEC0003
 70
1
 71
1
 91
1
 92
1
 93
3
 72
1
 10
16.4173228346
 20
11.4173228346
 11
16.4173228346
 21
11.5748031496
 72
1
 10
16.2598425197
 20
11.5748031496
 11
16.4173228346
 21
11.4173228346
 72
1
 10
16.2598425197
 20
11.5748031496
 11
16.4173228346
 21
11.5748031496
 97
3
330
3BE
330
3BF
330
3C0
 75
0
 76
1
 98
1
 10
0.0
 20
0.0
  0
LINE
  5
3C2
100
AcDbEntity
  8
0
100
AcDbLine
 62
7
  6
CONTINUOUS
 10
12.3289862205
 20
0.4392224409
 11
12.3166830709
 21
0.4269192913
  0
LINE
  5
3C3
100
AcDbEntity
  8
0
100
AcDbLine
 62
7
  6
CONTINUOUS
 10
16.2598425197
 20
0.2755905512
 11
16.2598425197
 21
0.4330708661
  0
LINE
  5
3C4
100
AcDbEntity
  8
0
100
AcDbLine
 62
7
  6
CONTINUOUS
 10
16.2598425197
 20
11.4173228346
 11
16.2598425197
 21
11.5748031496
  0
LINE
  5
3C5
100
AcDbEntity
  8
0
100
AcDbLine
 62
7
  6
CONTINUOUS
 10
16.4173228346
 20
0.4330708661
 11
16.4173228346
 21
11.4173228346
  0
LINE
  5
3C6
100
AcDbEntity
  8
0
100
AcDbLine
 62
7
  6
CONTINUOUS
 10
3.1135359524
 20
3.2404602611
 11
3.1135359524
 21
3.870381521
  0
LINE
  5
3C7
100
AcDbEntity
  8
02___PRT_ALL_AXES
100
AcDbLine
 62
7
  6
CENTER
 10
3.5859768973
 20
3.9097515997
 11
3.5859768973
 21
3.8428121147
  0
LINE
  5
3C8
100
AcDbEntity
  8
02___PRT_ALL_AXES
100
AcDbLine
 62
7
  6
CENTER
 10
3.5859768973
 20
3.555420891
 11
3.5859768973
 21
3.2843106339
  0
LINE
  5
3C9
100
AcDbEntity
  8
02___PRT_ALL_AXES
100
AcDbLine
 62
7
  6
CENTER
 10
3.5859768973
 20
3.2010901824
 11
3.5859768973
 21
3.0695941194
  0
LINE
  5
3CA
100
AcDbEntity
  8
02___PRT_ALL_AXES
100
AcDbLine
 62
7
  6
CENTER
 10
3.5859768973
 20
3.2010901824
 11
3.5859768973
 21
3.2843106339
  0
LINE
  5
3CB
100
AcDbEntity
  8
02___PRT_ALL_AXES
100
AcDbLine
 62
7
  6
CENTER
 10
3.5859768973
 20
3.555420891
 11
3.5859768973
 21
3.8265311482
  0
LINE
  5
3CC
100
AcDbEntity
  8
02___PRT_ALL_AXES
100
AcDbLine
 62
7
  6
CENTER
 10
3.5859768973
 20
3.9097515997
 11
3.5859768973
 21
3.9766910847
  0
LINE
  5
3CD
100
AcDbEntity
  8
0
100
AcDbLine
 62
7
  6
CONTINUOUS
 10
7.4442446138
 20
3.3192004186
 11
7.4442446138
 21
3.7916413635
  0
LINE
  5
3CE
100
AcDbEntity
  8
0
100
AcDbLine
 62
7
  6
CONTINUOUS
 10
8.782827291
 20
3.0042397887
 11
7.0505438264
 21
3.0042397887
  0
LINE
  5
3CF
100
AcDbEntity
  8
0
100
AcDbLine
 62
7
  6
CONTINUOUS
 10
12.56235485
 20
3.0829799462
 11
8.9911541658
 21
3.0829799462
  0
LINE
  5
3D0
100
AcDbEntity
  8
0
100
AcDbLine
 62
7
  6
CONTINUOUS
 10
6.8422169515
 20
3.0829799462
 11
3.2710162673
 21
3.0829799462
  0
LINE
  5
3D1
100
AcDbEntity
  8
02___PRT_ALL_AXES
100
AcDbLine
 62
7
  6
CENTER
 10
3.5859768973
 20
3.2010901824
 11
3.4544808343
 21
3.2010901824
  0
LINE
  5
3D2
100
AcDbEntity
  8
02___PRT_ALL_AXES
100
AcDbLine
 62
7
  6
CENTER
 10
3.5859768973
 20
3.2010901824
 11
3.7174729602
 21
3.2010901824
  0
LINE
  5
3D3
100
AcDbEntity
  8
0
100
AcDbLine
 62
7
  6
CONTINUOUS
 10
8.3103863461
 20
3.2404602611
 11
7.5229847713
 21
3.2404602611
  0
LINE
  5
3D4
100
AcDbEntity
  8
02___PRT_ALL_AXES
100
AcDbLine
 62
7
  6
CENTER
 10
7.9166855587
 20
2.9042397887
 11
7.9166855587
 21
4.2066019934
  0
LINE
  5
3D5
100
AcDbEntity
  8
02___PRT_ALL_AXES
100
AcDbLine
 62
7
  6
CENTER
 10
9.4521186295
 20
3.3585704973
 11
9.3856641055
 21
3.3585704973
  0
LINE
  5
3D6
100
AcDbEntity
  8
02___PRT_ALL_AXES
100
AcDbLine
 62
7
  6
CENTER
 10
9.4521186295
 20
3.3585704973
 11
9.5185731536
 21
3.3585704973
  0
LINE
  5
3D7
100
AcDbEntity
  8
02___PRT_ALL_AXES
100
AcDbLine
 62
7
  6
CENTER
 10
3.0135359524
 20
3.555420891
 11
12.819835165
 21
3.555420891
  0
LINE
  5
3D8
100
AcDbEntity
  8
02___PRT_ALL_AXES
100
AcDbLine
 62
7
  6
CENTER
 10
9.4521186295
 20
3.7522712847
 11
9.3923497073
 21
3.7522712847
  0
LINE
  5
3D9
100
AcDbEntity
  8
02___PRT_ALL_AXES
100
AcDbLine
 62
7
  6
CENTER
 10
9.4521186295
 20
3.7522712847
 11
9.5118875518
 21
3.7522712847
  0
LINE
  5
3DA
100
AcDbEntity
  8
0
100
AcDbLine
 62
7
  6
CONTINUOUS
 10
7.5229847713
 20
3.870381521
 11
8.3103863461
 21
3.870381521
  0
LINE
  5
3DB
100
AcDbEntity
  8
02___PRT_ALL_AXES
100
AcDbLine
 62
7
  6
CENTER
 10
3.5859768973
 20
3.9097515997
 11
3.5190374123
 21
3.9097515997
  0
LINE
  5
3DC
100
AcDbEntity
  8
02___PRT_ALL_AXES
100
AcDbLine
 62
7
  6
CENTER
 10
3.5859768973
 20
3.9097515997
 11
3.6529163822
 21
3.9097515997
  0
LINE
  5
3DD
100
AcDbEntity
  8
0
100
AcDbLine
 62
7
  6
CONTINUOUS
 10
8.3891265036
 20
3.7916413635
 11
8.3891265036
 21
3.3192004186
  0
LINE
  5
3DE
100
AcDbEntity
  8
0
100
AcDbLine
 62
7
  6
CONTINUOUS
 10
3.2710162673
 20
4.0278618359
 11
6.8422169515
 21
4.0278618359
  0
LINE
  5
3DF
100
AcDbEntity
  8
0
100
AcDbLine
 62
7
  6
CONTINUOUS
 10
8.9911541658
 20
4.0278618359
 11
12.56235485
 21
4.0278618359
  0
LINE
  5
3E0
100
AcDbEntity
  8
0
100
AcDbLine
 62
7
  6
CONTINUOUS
 10
7.0505438264
 20
4.1066019934
 11
8.782827291
 21
4.1066019934
  0
LWPOLYLINE
  5
3E1
100
AcDbEntity
  8
0
100
AcDbPolyline
 62
2
  6
CONTINUOUS
 90
5
 70
0
 10
11.0222142722
 20
4.2854762308
 10
11.6367976056
 20
4.2854762308
 10
11.6367976056
 20
4.5979762308
 10
11.0222142722
 20
4.5979762308
 10
11.0222142722
 20
4.2854762308
  0
LINE
  5
3E2
100
AcDbEntity
  8
02___PRT_ALL_AXES
100
AcDbLine
 62
7
  6
CENTER
 10
9.2552682358
 20
3.555420891
 11
9.2552682358
 21
3.4882536978
  0
LINE
  5
3E3
100
AcDbEntity
  8
02___PRT_ALL_AXES
100
AcDbLine
 62
7
  6
CENTER
 10
9.2552682358
 20
3.555420891
 11
9.2552682358
 21
3.6225880842
  0
LINE
  5
3E4
100
AcDbEntity
  8
02___PRT_ALL_AXES
100
AcDbLine
 62
7
  6
CENTER
 10
9.4521186295
 20
3.7522712847
 11
9.4521186295
 21
3.6925023625
  0
LINE
  5
3E5
100
AcDbEntity
  8
02___PRT_ALL_AXES
100
AcDbLine
 62
7
  6
CENTER
 10
9.4521186295
 20
3.555420891
 11
9.4521186295
 21
3.4405016543
  0
LINE
  5
3E6
100
AcDbEntity
  8
02___PRT_ALL_AXES
100
AcDbLine
 62
7
  6
CENTER
 10
9.4521186295
 20
3.3585704973
 11
9.4521186295
 21
3.2921159733
  0
LINE
  5
3E7
100
AcDbEntity
  8
02___PRT_ALL_AXES
100
AcDbLine
 62
7
  6
CENTER
 10
9.4521186295
 20
3.3585704973
 11
9.4521186295
 21
3.4250250214
  0
LINE
  5
3E8
100
AcDbEntity
  8
02___PRT_ALL_AXES
100
AcDbLine
 62
7
  6
CENTER
 10
9.4521186295
 20
3.555420891
 11
9.4521186295
 21
3.6703401278
  0
LINE
  5
3E9
100
AcDbEntity
  8
02___PRT_ALL_AXES
100
AcDbLine
 62
7
  6
CENTER
 10
9.4521186295
 20
3.7522712847
 11
9.4521186295
 21
3.812040207
  0
LINE
  5
3EA
100
AcDbEntity
  8
02___PRT_ALL_AXES
100
AcDbLine
 62
7
  6
CENTER
 10
9.6489690232
 20
3.555420891
 11
9.6489690232
 21
3.5027601122
  0
LINE
  5
3EB
100
AcDbEntity
  8
02___PRT_ALL_AXES
100
AcDbLine
 62
7
  6
CENTER
 10
9.6489690232
 20
3.555420891
 11
9.6489690232
 21
3.6080816699
  0
LINE
  5
3EC
100
AcDbEntity
  8
0
100
AcDbLine
 62
7
  6
CONTINUOUS
 10
12.719835165
 20
3.870381521
 11
12.719835165
 21
3.2404602611
  0
LINE
  5
3ED
100
AcDbEntity
  8
0
100
AcDbLine
 62
7
  6
CONTINUOUS
 10
3.1135359524
 20
6.1338528984
 11
3.1135359524
 21
7.0787347882
  0
LINE
  5
3EE
100
AcDbEntity
  8
0
100
AcDbLine
 62
7
  6
CONTINUOUS
 10
3.2710162673
 20
6.1338528984
 11
3.2710162673
 21
7.0787347882
  0
LINE
  5
3EF
100
AcDbEntity
  8
0
100
AcDbLine
 62
7
  6
CONTINUOUS
 10
6.8422169515
 20
6.1338528984
 11
6.8422169515
 21
7.0787347882
  0
LINE
  5
3F0
100
AcDbEntity
  8
0
100
AcDbLine
 62
7
  6
CONTINUOUS
 10
7.0505438264
 20
6.1338528984
 11
7.0505438264
 21
7.0787347882
  0
LINE
  5
3F1
100
AcDbEntity
  8
0
100
AcDbLine
 62
7
  6
CONTINUOUS
 10
3.1135359524
 20
6.1338528984
 11
12.719835165
 21
6.1338528984
  0
LINE
  5
3F2
100
AcDbEntity
  8
02___PRT_ALL_AXES
100
AcDbLine
 62
7
  6
CENTER
 10
7.9166855587
 20
7.1787347882
 11
7.9166855587
 21
6.0338528981
  0
LINE
  5
3F3
100
AcDbEntity
  8
02___PRT_ALL_AXES
100
AcDbLine
 62
7
  6
CENTER
 10
7.9166855587
 20
6.6062938433
 11
7.6985753224
 21
6.6062938433
  0
LINE
  5
3F4
100
AcDbEntity
  8
02___PRT_ALL_AXES
100
AcDbLine
 62
7
  6
CENTER
 10
7.9166855587
 20
6.6062938433
 11
8.1347957949
 21
6.6062938433
  0
LINE
  5
3F5
100
AcDbEntity
  8
0
100
AcDbLine
 62
7
  6
CONTINUOUS
 10
3.1135359524
 20
7.0787347882
 11
12.719835165
 21
7.0787347882
  0
LINE
  5
3F6
100
AcDbEntity
  8
0
100
AcDbLine
 62
7
  6
CONTINUOUS
 10
8.782827291
 20
6.1338528984
 11
8.782827291
 21
7.0787347882
  0
LINE
  5
3F7
100
AcDbEntity
  8
0
100
AcDbLine
 62
7
  6
CONTINUOUS
 10
8.9911541658
 20
6.1338528984
 11
8.9911541658
 21
7.0787347882
  0
LINE
  5
3F8
100
AcDbEntity
  8
0
100
AcDbLine
 62
7
  6
CONTINUOUS
 10
12.56235485
 20
6.1338528984
 11
12.56235485
 21
7.0787347882
  0
LINE
  5
3F9
100
AcDbEntity
  8
0
100
AcDbLine
 62
7
  6
CONTINUOUS
 10
12.719835165
 20
6.1338528984
 11
12.719835165
 21
7.0787347882
  0
LINE
  5
3FA
100
AcDbEntity
  8
0
100
AcDbLine
 62
7
  6
CONTINUOUS
 10
3.1135359524
 20
10.062804261
 11
3.1135359524
 21
9.4328830012
  0
LINE
  5
3FB
100
AcDbEntity
  8
02___PRT_ALL_AXES
100
AcDbLine
 62
7
  6
CENTER
 10
5.1607800469
 20
9.7478436311
 11
5.1607800469
 21
9.5848515051
  0
LINE
  5
3FC
100
AcDbEntity
  8
02___PRT_ALL_AXES
100
AcDbLine
 62
7
  6
CENTER
 10
5.1607800469
 20
9.7478436311
 11
5.1607800469
 21
9.9108357571
  0
LINE
  5
3FD
100
AcDbEntity
  8
0
100
AcDbLine
 62
7
  6
CONTINUOUS
 10
7.4442446138
 20
9.9840641035
 11
7.4442446138
 21
9.5116231587
  0
LINE
  5
3FE
100
AcDbEntity
  8
0
100
AcDbLine
 62
7
  6
CONTINUOUS
 10
7.0505438264
 20
9.1966625287
 11
8.782827291
 21
9.1966625287
  0
LINE
  5
3FF
100
AcDbEntity
  8
0
100
AcDbLine
 62
7
  6
CONTINUOUS
 10
3.2710162673
 20
9.2754026862
 11
6.8422169515
 21
9.2754026862
  0
LINE
  5
400
100
AcDbEntity
  8
0
100
AcDbLine
 62
7
  6
CONTINUOUS
 10
8.9911541658
 20
9.2754026862
 11
12.56235485
 21
9.2754026862
  0
LINE
  5
401
100
AcDbEntity
  8
0
100
AcDbLine
 62
7
  6
CONTINUOUS
 10
7.5229847713
 20
9.4328830012
 11
8.3103863461
 21
9.4328830012
  0
LINE
  5
402
100
AcDbEntity
  8
02___PRT_ALL_AXES
100
AcDbLine
 62
7
  6
CENTER
 10
7.9166855587
 20
10.3990247335
 11
7.9166855587
 21
9.0966625287
  0
LINE
  5
403
100
AcDbEntity
  8
02___PRT_ALL_AXES
100
AcDbLine
 62
7
  6
CENTER
 10
3.0135359524
 20
9.7478436311
 11
12.819835165
 21
9.7478436311
  0
LINE
  5
404
100
AcDbEntity
  8
0
100
AcDbLine
 62
7
  6
CONTINUOUS
 10
8.3103863461
 20
10.062804261
 11
7.5229847713
 21
10.062804261
  0
LINE
  5
405
100
AcDbEntity
  8
0
100
AcDbLine
 62
7
  6
CONTINUOUS
 10
8.3891265036
 20
9.5116231587
 11
8.3891265036
 21
9.9840641035
  0
LINE
  5
406
100
AcDbEntity
  8
0
100
AcDbLine
 62
7
  6
CONTINUOUS
 10
12.56235485
 20
10.220284576
 11
8.9911541658
 21
10.220284576
  0
LINE
  5
407
100
AcDbEntity
  8
0
100
AcDbLine
 62
7
  6
CONTINUOUS
 10
6.8422169515
 20
10.220284576
 11
3.2710162673
 21
10.220284576
  0
LINE
  5
408
100
AcDbEntity
  8
0
100
AcDbLine
 62
7
  6
CONTINUOUS
 10
8.782827291
 20
10.2990247335
 11
7.0505438264
 21
10.2990247335
  0
LINE
  5
409
100
AcDbEntity
  8
02___PRT_ALL_AXES
100
AcDbLine
 62
7
  6
CENTER
 10
10.6725910705
 20
9.7478436311
 11
10.6725910705
 21
9.5848515051
  0
LINE
  5
40A
100
AcDbEntity
  8
02___PRT_ALL_AXES
100
AcDbLine
 62
7
  6
CENTER
 10
10.6725910705
 20
9.7478436311
 11
10.6725910705
 21
9.9108357571
  0
LINE
  5
40B
100
AcDbEntity
  8
0
100
AcDbLine
 62
7
  6
CONTINUOUS
 10
12.719835165
 20
9.4328830012
 11
12.719835165
 21
10.062804261
  0
LINE
  5
40C
100
AcDbEntity
  8
0
100
AcDbLine
 62
7
  6
CONTINUOUS
 10
13.5829773186
 20
10.7083484782
 11
13.6443506126
 21
10.8263675188
  0
LINE
  5
40D
100
AcDbEntity
  8
0
100
AcDbLine
 62
7
  6
CONTINUOUS
 10
13.5802938023
 20
10.691361461
 11
13.6092574128
 21
10.5453188162
  0
LINE
  5
40E
100
AcDbEntity
  8
0
100
AcDbLine
 62
7
  6
CONTINUOUS
 10
13.6035684216
 20
10.6695155259
 11
13.6325320321
 21
10.523472881
  0
LINE
  5
40F
100
AcDbEntity
  8
0
100
AcDbLine
 62
7
  6
CONTINUOUS
 10
14.4184578783
 20
10.4579789504
 11
14.4474214888
 21
10.3119363056
  0
LINE
  5
410
100
AcDbEntity
  8
0
100
AcDbLine
 62
7
  6
CONTINUOUS
 10
14.4583229945
 20
10.4308865319
 11
14.487286605
 21
10.2848438871
  0
LINE
  5
411
100
AcDbEntity
  8
0
100
AcDbLine
 62
7
  6
CONTINUOUS
 10
14.5788457076
 20
10.4665755716
 11
14.6248756781
 21
10.555089852
  0
LINE
  5
412
100
AcDbEntity
  8
0
100
AcDbLine
 62
7
  6
CONTINUOUS
 10
14.8825652959
 20
10.1822337724
 11
14.487286605
 21
10.2848438871
  0
LINE
  5
413
100
AcDbEntity
  8
0
100
AcDbLine
 62
7
  6
CONTINUOUS
 10
15.7526631923
 20
9.9731095386
 11
14.9377737356
 21
10.184646114
  0
LINE
  5
414
100
AcDbEntity
  8
0
100
AcDbLine
 62
7
  6
CONTINUOUS
 10
14.4474214888
 20
10.3119363056
 11
13.6325320321
 21
10.523472881
  0
LINE
  5
415
100
AcDbEntity
  8
0
100
AcDbLine
 62
7
  6
CONTINUOUS
 10
14.5788457076
 20
10.4665755716
 11
14.5819152594
 21
10.4510980305
  0
LINE
  5
416
100
AcDbEntity
  8
0
100
AcDbLine
 62
7
  6
CONTINUOUS
 10
14.8536016854
 20
10.3282764172
 11
14.4583229945
 21
10.4308865319
  0
LINE
  5
417
100
AcDbEntity
  8
0
100
AcDbLine
 62
7
  6
CONTINUOUS
 10
15.7236995818
 20
10.1191521834
 11
14.9088101251
 21
10.3306887589
  0
LINE
  5
418
100
AcDbEntity
  8
0
100
AcDbLine
 62
7
  6
CONTINUOUS
 10
14.4184578783
 20
10.4579789504
 11
13.6035684216
 21
10.6695155259
  0
LINE
  5
419
100
AcDbEntity
  8
0
100
AcDbLine
 62
7
  6
CONTINUOUS
 10
14.7688133913
 20
10.4005181342
 11
14.5891412591
 21
10.4471590954
  0
LINE
  5
41A
100
AcDbEntity
  8
0
100
AcDbLine
 62
7
  6
CONTINUOUS
 10
14.6248756781
 20
10.555089852
 11
14.6493821802
 21
10.4315211975
  0
LINE
  5
41B
100
AcDbEntity
  8
0
100
AcDbLine
 62
7
  6
CONTINUOUS
 10
14.650514553
 20
10.5651781359
 11
14.678521984
 21
10.4239568165
  0
LINE
  5
41C
100
AcDbEntity
  8
0
100
AcDbLine
 62
7
  6
CONTINUOUS
 10
14.8404822367
 20
10.4991206985
 11
14.7944522663
 21
10.4106064181
  0
LINE
  5
41D
100
AcDbEntity
  8
0
100
AcDbLine
 62
7
  6
CONTINUOUS
 10
14.650514553
 20
10.5651781359
 11
14.8301866853
 21
10.5185371747
  0
LINE
  5
41E
100
AcDbEntity
  8
0
100
AcDbLine
 62
7
  6
CONTINUOUS
 10
13.6956283625
 20
10.8465440867
 11
14.5105178192
 21
10.6350075112
  0
LINE
  5
41F
100
AcDbEntity
  8
0
100
AcDbLine
 62
7
  6
CONTINUOUS
 10
15.000870066
 20
10.5077173197
 11
15.8157595228
 21
10.2961807442
  0
LINE
  5
420
100
AcDbEntity
  8
0
100
AcDbLine
 62
7
  6
CONTINUOUS
 10
14.8536016854
 20
10.3282764172
 11
14.8825652959
 21
10.1822337724
  0
LINE
  5
421
100
AcDbEntity
  8
0
100
AcDbLine
 62
7
  6
CONTINUOUS
 10
14.8301866853
 20
10.5185371747
 11
14.8358167077
 21
10.4901490232
  0
LINE
  5
422
100
AcDbEntity
  8
0
100
AcDbLine
 62
7
  6
CONTINUOUS
 10
14.9088101251
 20
10.3306887589
 11
14.9377737356
 21
10.184646114
  0
LINE
  5
423
100
AcDbEntity
  8
0
100
AcDbLine
 62
7
  6
CONTINUOUS
 10
14.5657262589
 20
10.6374198529
 11
14.9610049498
 21
10.5348097382
  0
LINE
  5
424
100
AcDbEntity
  8
0
100
AcDbLine
 62
7
  6
CONTINUOUS
 10
15.7236995818
 20
10.1191521834
 11
15.7526631923
 21
9.9731095386
  0
LINE
  5
425
100
AcDbEntity
  8
0
100
AcDbLine
 62
7
  6
CONTINUOUS
 10
15.7749773318
 20
10.1393287513
 11
15.8039409423
 21
9.9932861065
  0
LINE
  5
426
100
AcDbEntity
  8
0
100
AcDbLine
 62
7
  6
CONTINUOUS
 10
15.8363506257
 20
10.2573477919
 11
15.7749773318
 21
10.1393287513
  0
LINE
  5
427
100
AcDbEntity
  8
0
100
AcDbLine
 62
7
  6
CONTINUOUS
 10
15.8363506257
 20
10.2573477919
 11
15.8653142362
 21
10.111305147
  0
LINE
  5
428
100
AcDbEntity
  8
0
100
AcDbLine
 62
7
  6
CONTINUOUS
 10
15.839034142
 20
10.274334809
 11
15.8679977525
 21
10.1282921642
  0
LINE
  5
429
100
AcDbEntity
  8
0
100
AcDbLine
 62
7
  6
CONTINUOUS
 10
15.8653142362
 20
10.111305147
 11
15.8039409423
 21
9.9932861065
  0
ARC
  5
42A
100
AcDbEntity
  8
0
100
AcDbCircle
 62
7
  6
CONTINUOUS
 10
6.8422169515
 20
2.7680193162
 40
0.3149606299
100
AcDbArc
 50
48.5903778907
 51
90.0
  0
ARC
  5
42B
100
AcDbEntity
  8
0
100
AcDbCircle
 62
7
  6
CONTINUOUS
 10
3.2710162673
 20
3.2404602611
 40
0.157480315
100
AcDbArc
 50
180.0
 51
270.0
  0
ARC
  5
42C
100
AcDbEntity
  8
0
100
AcDbCircle
 62
7
  6
CONTINUOUS
 10
7.5229847713
 20
3.3192004186
 40
0.0787401575
100
AcDbArc
 50
180.0
 51
270.0
  0
CIRCLE
  5
42D
100
AcDbEntity
  8
0
100
AcDbCircle
 62
7
  6
CONTINUOUS
 10
3.5859768973
 20
3.2010901824
 40
0.0354330709
  0
CIRCLE
  5
42E
100
AcDbEntity
  8
0
100
AcDbCircle
 62
7
  6
CONTINUOUS
 10
3.5859768973
 20
3.2010901824
 40
0.031496063
  0
ARC
  5
42F
100
AcDbEntity
  8
0
100
AcDbCircle
 62
7
  6
CONTINUOUS
 10
6.8422169515
 20
4.3428224658
 40
0.3149606299
100
AcDbArc
 50
270.0
 51
311.4096221093
  0
CIRCLE
  5
430
100
AcDbEntity
  8
0
100
AcDbCircle
 62
7
  6
CONTINUOUS
 10
3.5859768973
 20
3.555420891
 40
0.2440944882
  0
CIRCLE
  5
431
100
AcDbEntity
  8
0
100
AcDbCircle
 62
7
  6
CONTINUOUS
 10
3.5859768973
 20
3.555420891
 40
0.2362204724
  0
CIRCLE
  5
432
100
AcDbEntity
  8
0
100
AcDbCircle
 62
7
  6
CONTINUOUS
 10
3.5859768973
 20
3.555420891
 40
0.2283464567
  0
ARC
  5
433
100
AcDbEntity
  8
0
100
AcDbCircle
 62
7
  6
CONTINUOUS
 10
3.2710162673
 20
3.870381521
 40
0.157480315
100
AcDbArc
 50
90.0
 51
180.0
  0
ARC
  5
434
100
AcDbEntity
  8
0
100
AcDbCircle
 62
7
  6
CONTINUOUS
 10
7.5229847713
 20
3.7916413635
 40
0.0787401575
100
AcDbArc
 50
90.0
 51
180.0
  0
CIRCLE
  5
435
100
AcDbEntity
  8
0
100
AcDbCircle
 62
7
  6
CONTINUOUS
 10
3.5859768973
 20
3.9097515997
 40
0.0354330709
  0
CIRCLE
  5
436
100
AcDbEntity
  8
0
100
AcDbCircle
 62
7
  6
CONTINUOUS
 10
3.5859768973
 20
3.9097515997
 40
0.031496063
  0
ARC
  5
437
100
AcDbEntity
  8
0
100
AcDbCircle
 62
7
  6
CONTINUOUS
 10
8.9911541658
 20
2.7680193162
 40
0.3149606299
100
AcDbArc
 50
90.0
 51
131.4096221093
  0
ARC
  5
438
100
AcDbEntity
  8
0
100
AcDbCircle
 62
7
  6
CONTINUOUS
 10
12.56235485
 20
3.2404602611
 40
0.157480315
100
AcDbArc
 50
270.0
 51
360.0
  0
ARC
  5
439
100
AcDbEntity
  8
0
100
AcDbCircle
 62
7
  6
CONTINUOUS
 10
8.3103863461
 20
3.3192004186
 40
0.0787401575
100
AcDbArc
 50
270.0
 51
360.0
  0
CIRCLE
  5
43A
100
AcDbEntity
  8
0
100
AcDbCircle
 62
7
  6
CONTINUOUS
 10
9.4521186295
 20
3.3585704973
 40
0.0354330709
  0
CIRCLE
  5
43B
100
AcDbEntity
  8
0
100
AcDbCircle
 62
7
  6
CONTINUOUS
 10
9.4521186295
 20
3.3585704973
 40
0.031496063
  0
ARC
  5
43C
100
AcDbEntity
  8
0
100
AcDbCircle
 62
7
  6
CONTINUOUS
 10
8.3103863461
 20
3.7916413635
 40
0.0787401575
100
AcDbArc
 50
0.0
 51
90.0
  0
CIRCLE
  5
43D
100
AcDbEntity
  8
0
100
AcDbCircle
 62
7
  6
CONTINUOUS
 10
9.4521186295
 20
3.555420891
 40
0.0866909449
  0
CIRCLE
  5
43E
100
AcDbEntity
  8
0
100
AcDbCircle
 62
7
  6
CONTINUOUS
 10
9.4521186295
 20
3.555420891
 40
0.0788169291
  0
CIRCLE
  5
43F
100
AcDbEntity
  8
0
100
AcDbCircle
 62
7
  6
CONTINUOUS
 10
9.4521186295
 20
3.555420891
 40
0.0709429134
  0
CIRCLE
  5
440
100
AcDbEntity
  8
0
100
AcDbCircle
 62
7
  6
CONTINUOUS
 10
9.6489690232
 20
3.555420891
 40
0.0354330709
  0
CIRCLE
  5
441
100
AcDbEntity
  8
0
100
AcDbCircle
 62
7
  6
CONTINUOUS
 10
9.2552682358
 20
3.555420891
 40
0.0354330709
  0
CIRCLE
  5
442
100
AcDbEntity
  8
0
100
AcDbCircle
 62
7
  6
CONTINUOUS
 10
9.2552682358
 20
3.555420891
 40
0.031496063
  0
CIRCLE
  5
443
100
AcDbEntity
  8
0
100
AcDbCircle
 62
7
  6
CONTINUOUS
 10
9.6489690232
 20
3.555420891
 40
0.031496063
  0
CIRCLE
  5
444
100
AcDbEntity
  8
0
100
AcDbCircle
 62
7
  6
CONTINUOUS
 10
9.4521186295
 20
3.7522712847
 40
0.0354330709
  0
CIRCLE
  5
445
100
AcDbEntity
  8
0
100
AcDbCircle
 62
7
  6
CONTINUOUS
 10
9.4521186295
 20
3.7522712847
 40
0.031496063
  0
ARC
  5
446
100
AcDbEntity
  8
0
100
AcDbCircle
 62
7
  6
CONTINUOUS
 10
8.9911541658
 20
4.3428224658
 40
0.3149606299
100
AcDbArc
 50
228.5903778907
 51
270.0
  0
ARC
  5
447
100
AcDbEntity
  8
0
100
AcDbCircle
 62
7
  6
CONTINUOUS
 10
12.56235485
 20
3.870381521
 40
0.157480315
100
AcDbArc
 50
0.0
 51
90.0
  0
CIRCLE
  5
448
100
AcDbEntity
  8
02___PRT_ALL_AXES
100
AcDbCircle
 62
7
  6
CONTINUOUS
 10
7.9166855587
 20
6.6062938433
 40
0.1181102362
  0
ARC
  5
449
100
AcDbEntity
  8
0
100
AcDbCircle
 62
7
  6
CONTINUOUS
 10
8.9911541658
 20
8.9604420563
 40
0.3149606299
100
AcDbArc
 50
90.0
 51
131.4096221093
  0
ARC
  5
44A
100
AcDbEntity
  8
0
100
AcDbCircle
 62
7
  6
CONTINUOUS
 10
6.8422169515
 20
8.9604420563
 40
0.3149606299
100
AcDbArc
 50
48.5903778907
 51
90.0
  0
ARC
  5
44B
100
AcDbEntity
  8
0
100
AcDbCircle
 62
7
  6
CONTINUOUS
 10
6.8422169515
 20
10.5352452059
 40
0.3149606299
100
AcDbArc
 50
270.0
 51
311.4096221093
  0
ARC
  5
44C
100
AcDbEntity
  8
0
100
AcDbCircle
 62
7
  6
CONTINUOUS
 10
8.9911541658
 20
10.5352452059
 40
0.3149606299
100
AcDbArc
 50
228.5903778907
 51
270.0
  0
ARC
  5
44D
100
AcDbEntity
  8
0
100
AcDbCircle
 62
7
  6
CONTINUOUS
 10
3.2710162673
 20
9.4328830012
 40
0.157480315
100
AcDbArc
 50
180.0
 51
270.0
  0
ARC
  5
44E
100
AcDbEntity
  8
0
100
AcDbCircle
 62
7
  6
CONTINUOUS
 10
3.2710162673
 20
10.062804261
 40
0.157480315
100
AcDbArc
 50
90.0
 51
180.0
  0
ARC
  5
44F
100
AcDbEntity
  8
0
100
AcDbCircle
 62
7
  6
CONTINUOUS
 10
12.56235485
 20
10.062804261
 40
0.157480315
100
AcDbArc
 50
0.0
 51
90.0
  0
ARC
  5
450
100
AcDbEntity
  8
0
100
AcDbCircle
 62
7
  6
CONTINUOUS
 10
12.56235485
 20
9.4328830012
 40
0.157480315
100
AcDbArc
 50
270.0
 51
360.0
  0
ARC
  5
451
100
AcDbEntity
  8
0
100
AcDbCircle
 62
7
  6
CONTINUOUS
 10
7.5229847713
 20
9.5116231587
 40
0.0787401575
100
AcDbArc
 50
180.0
 51
270.0
  0
ARC
  5
452
100
AcDbEntity
  8
0
100
AcDbCircle
 62
7
  6
CONTINUOUS
 10
7.5229847713
 20
9.9840641035
 40
0.0787401575
100
AcDbArc
 50
90.0
 51
180.0
  0
ARC
  5
453
100
AcDbEntity
  8
0
100
AcDbCircle
 62
7
  6
CONTINUOUS
 10
8.3103863461
 20
9.5116231587
 40
0.0787401575
100
AcDbArc
 50
270.0
 51
360.0
  0
ARC
  5
454
100
AcDbEntity
  8
0
100
AcDbCircle
 62
7
  6
CONTINUOUS
 10
8.3103863461
 20
9.9840641035
 40
0.0787401575
100
AcDbArc
 50
0.0
 51
90.0
  0
CIRCLE
  5
455
100
AcDbEntity
  8
0
100
AcDbCircle
 62
7
  6
CONTINUOUS
 10
10.6725910705
 20
9.7478436311
 40
0.0708661417
  0
CIRCLE
  5
456
100
AcDbEntity
  8
0
100
AcDbCircle
 62
7
  6
CONTINUOUS
 10
5.1607800469
 20
9.7478436311
 40
0.0708661417
  0
CIRCLE
  5
457
100
AcDbEntity
  8
0
100
AcDbCircle
 62
7
  6
CONTINUOUS
 10
5.1607800469
 20
9.7478436311
 40
0.062992126
  0
CIRCLE
  5
458
100
AcDbEntity
  8
0
100
AcDbCircle
 62
7
  6
CONTINUOUS
 10
10.6725910705
 20
9.7478436311
 40
0.062992126
  0
ARC
  5
459
100
AcDbEntity
  8
0
100
AcDbCircle
 62
7
  6
CONTINUOUS
 10
13.7350300851
 20
10.7468302315
 40
0.0474941217
100
AcDbArc
 50
330.7580801768
 51
332.5201773468
  0
ARC
  5
45A
100
AcDbEntity
  8
0
100
AcDbCircle
 62
7
  6
CONTINUOUS
 10
13.7170751632
 20
10.6850502758
 40
0.0451941172
100
AcDbArc
 50
152.5239319651
 51
153.2309432877
  0
ARC
  5
45B
100
AcDbEntity
  8
0
100
AcDbCircle
 62
7
  6
CONTINUOUS
 10
13.7356600533
 20
10.7449408984
 40
0.0450299116
100
AcDbArc
 50
332.5225364519
 51
334.1066323919
  0
ARC
  5
45C
100
AcDbEntity
  8
0
100
AcDbCircle
 62
7
  6
CONTINUOUS
 10
13.7178088035
 20
10.6840453398
 40
0.0437237663
100
AcDbArc
 50
152.5240915304
 51
153.0300176566
  0
ARC
  5
45D
100
AcDbEntity
  8
0
100
AcDbCircle
 62
7
  6
CONTINUOUS
 10
13.7453691274
 20
10.7441029523
 40
0.0366579818
100
AcDbArc
 50
8.6561958669
 51
9.6620077668
  0
ARC
  5
45E
100
AcDbEntity
  8
0
100
AcDbCircle
 62
7
  6
CONTINUOUS
 10
15.0645153947
 20
10.3947261698
 40
0.0172398929
100
AcDbArc
 50
327.5509287093
 51
332.4907607781
  0
ARC
  5
45F
100
AcDbEntity
  8
0
100
AcDbCircle
 62
7
  6
CONTINUOUS
 10
15.0677506639
 20
10.3921804553
 40
0.0120708406
100
AcDbArc
 50
356.0160040641
 51
11.1484423682
  0
ARC
  5
460
100
AcDbEntity
  8
0
100
AcDbCircle
 62
7
  6
CONTINUOUS
 10
15.0172274638
 20
10.4037836456
 40
0.0058470546
100
AcDbArc
 50
332.5063543825
 51
338.1566455198
  0
ARC
  5
461
100
AcDbEntity
  8
0
100
AcDbCircle
 62
7
  6
CONTINUOUS
 10
15.0429663425
 20
10.3552424552
 40
0.0058470546
100
AcDbArc
 50
332.5063543826
 51
338.1566455199
  0
ARC
  5
462
100
AcDbEntity
  8
0
100
AcDbCircle
 62
7
  6
CONTINUOUS
 10
15.1070635299
 20
10.380463165
 40
0.0058470546
100
AcDbArc
 50
332.5063543824
 51
338.15664552
  0
ARC
  5
463
100
AcDbEntity
  8
0
100
AcDbCircle
 62
7
  6
CONTINUOUS
 10
15.0813246512
 20
10.4290043555
 40
0.0058470546
100
AcDbArc
 50
332.5063543824
 51
338.15664552
  0
ARC
  5
464
100
AcDbEntity
  8
0
100
AcDbCircle
 62
7
  6
CONTINUOUS
 10
13.6890656339
 20
10.6732128561
 40
0.0058470546
100
AcDbArc
 50
332.5063543822
 51
338.1566455205
  0
ARC
  5
465
100
AcDbEntity
  8
0
100
AcDbCircle
 62
7
  6
CONTINUOUS
 10
13.7581105896
 20
10.8059842768
 40
0.0058470546
100
AcDbArc
 50
332.5063543821
 51
338.1566455203
  0
SPLINE
  5
466
100
AcDbEntity
  8
0
100
AcDbSpline
 62
7
  6
CONTINUOUS
 70
0
 71
3
 72
9
 73
5
 74
0
 42
0.0000001
 43
0.0000001
 44
0.0000000001
 40
0.0
 40
0.0
 40
0.0
 40
0.0
 40
0.5290082032
 40
1.0
 40
1.0
 40
1.0
 40
1.0
 10
15.8157595228
 20
10.2961807442
 30
0.0
 10
15.821431444
 20
10.2947083742
 30
0.0
 10
15.8318885416
 20
10.2896801557
 30
0.0
 10
15.8380196448
 20
10.2794524858
 30
0.0
 10
15.8390342927
 20
10.2743348466
 30
0.0
  0
SPLINE
  5
467
100
AcDbEntity
  8
0
100
AcDbSpline
 62
7
  6
CONTINUOUS
 70
0
 71
3
 72
9
 73
5
 74
0
 42
0.0000001
 43
0.0000001
 44
0.0000000001
 40
0.0
 40
0.0
 40
0.0
 40
0.0
 40
0.4832357352
 40
1.0
 40
1.0
 40
1.0
 40
1.0
 10
13.6443506126
 20
10.8263675188
 30
0.0
 10
13.6486610736
 20
10.8346564086
 30
0.0
 10
13.6653900462
 20
10.8476280098
 30
0.0
 10
13.6859579661
 20
10.849054418
 30
0.0
 10
13.6956283625
 20
10.8465440867
 30
0.0
  0
SPLINE
  5
468
100
AcDbEntity
  8
0
100
AcDbSpline
 62
7
  6
CONTINUOUS
 70
0
 71
3
 72
9
 73
5
 74
0
 42
0.0000001
 43
0.0000001
 44
0.0000000001
 40
0.0
 40
0.0
 40
0.0
 40
0.0
 40
0.2445998404
 40
1.0
 40
1.0
 40
1.0
 40
1.0
 10
14.5105178192
 20
10.6350075112
 30
0.0
 10
14.5149131285
 20
10.633866536
 30
0.0
 10
14.5332362274
 20
10.630635577
 30
0.0
 10
14.552438469
 20
10.6329358156
 30
0.0
 10
14.5657262589
 20
10.6374198529
 30
0.0
  0
SPLINE
  5
469
100
AcDbEntity
  8
0
100
AcDbSpline
 62
7
  6
CONTINUOUS
 70
0
 71
3
 72
9
 73
5
 74
0
 42
0.0000001
 43
0.0000001
 44
0.0000000001
 40
0.0
 40
0.0
 40
0.0
 40
0.0
 40
0.2357585726
 40
1.0
 40
1.0
 40
1.0
 40
1.0
 10
14.9610049498
 20
10.5348097382
 30
0.0
 10
14.9630608942
 20
10.5315657159
 30
0.0
 10
14.9733250234
 20
10.5187713445
 30
0.0
 10
14.9888195158
 20
10.5108455134
 30
0.0
 10
15.000870066
 20
10.5077173197
 30
0.0
  0
SPLINE
  5
46A
100
AcDbEntity
  8
0
100
AcDbSpline
 62
7
  6
CONTINUOUS
 70
0
 71
3
 72
9
 73
5
 74
0
 42
0.0000001
 43
0.0000001
 44
0.0000000001
 40
0.0
 40
0.0
 40
0.0
 40
0.0
 40
0.2780878212
 40
1.0
 40
1.0
 40
1.0
 40
1.0
 10
14.5891412591
 20
10.4471590954
 30
0.0
 10
14.5876678626
 20
10.4475415733
 30
0.0
 10
14.5825339931
 20
10.4493950145
 30
0.0
 10
14.578272396
 20
10.454205805
 30
0.0
 10
14.5775038741
 20
10.4580820442
 30
0.0
  0
SPLINE
  5
46B
100
AcDbEntity
  8
0
100
AcDbSpline
 62
7
  6
CONTINUOUS
 70
0
 71
3
 72
9
 73
5
 74
0
 42
0.0000001
 43
0.0000001
 44
0.0000000001
 40
0.0
 40
0.0
 40
0.0
 40
0.0
 40
0.4832357352
 40
1.0
 40
1.0
 40
1.0
 40
1.0
 10
14.7944522663
 20
10.4106064181
 30
0.0
 10
14.7922970358
 20
10.4064619732
 30
0.0
 10
14.7839325495
 20
10.3999761726
 30
0.0
 10
14.7736485895
 20
10.3992629685
 30
0.0
 10
14.7688133913
 20
10.4005181342
 30
0.0
  0
SPLINE
  5
46C
100
AcDbEntity
  8
0
100
AcDbSpline
 62
7
  6
CONTINUOUS
 70
0
 71
3
 72
8
 73
4
 74
0
 42
0.0000001
 43
0.0000001
 44
0.0000000001
 40
0.0
 40
0.0
 40
0.0
 40
0.0
 40
1.0
 40
1.0
 40
1.0
 40
1.0
 10
15.0229508504
 20
10.4044817516
 30
0.0
 10
15.0231383893
 20
10.403537244
 30
0.0
 10
15.0230127159
 20
10.4025020593
 30
0.0
 10
15.0226547265
 20
10.4016081303
 30
0.0
  0
SPLINE
  5
46D
100
AcDbEntity
  8
0
100
AcDbSpline
 62
7
  6
CONTINUOUS
 70
0
 71
3
 72
8
 73
4
 74
0
 42
0.0000001
 43
0.0000001
 44
0.0000000001
 40
0.0
 40
0.0
 40
0.0
 40
0.0
 40
1.0
 40
1.0
 40
1.0
 40
1.0
 10
15.0486897291
 20
10.3559405611
 30
0.0
 10
15.048877268
 20
10.3549960535
 30
0.0
 10
15.0487515946
 20
10.3539608688
 30
0.0
 10
15.0483936052
 20
10.3530669398
 30
0.0
  0
SPLINE
  5
46E
100
AcDbEntity
  8
0
100
AcDbSpline
 62
7
  6
CONTINUOUS
 70
0
 71
3
 72
9
 73
5
 74
0
 42
0.0000001
 43
0.0000001
 44
0.0000000001
 40
0.0
 40
0.0
 40
0.0
 40
0.0
 40
0.5290082032
 40
1.0
 40
1.0
 40
1.0
 40
1.0
 10
13.6325320321
 20
10.523472881
 30
0.0
 10
13.6268601109
 20
10.524945251
 30
0.0
 10
13.6164030133
 20
10.5299734696
 30
0.0
 10
13.6102719101
 20
10.5402011394
 30
0.0
 10
13.6092572622
 20
10.5453187787
 30
0.0
  0
SPLINE
  5
46F
100
AcDbEntity
  8
0
100
AcDbSpline
 62
7
  6
CONTINUOUS
 70
0
 71
3
 72
9
 73
5
 74
0
 42
0.0000001
 43
0.0000001
 44
0.0000000001
 40
0.0
 40
0.0
 40
0.0
 40
0.0
 40
0.2357585726
 40
1.0
 40
1.0
 40
1.0
 40
1.0
 10
14.487286605
 20
10.2848438871
 30
0.0
 10
14.4852306606
 20
10.2880879094
 30
0.0
 10
14.4749665314
 20
10.3008822808
 30
0.0
 10
14.459472039
 20
10.3088081118
 30
0.0
 10
14.4474214888
 20
10.3119363056
 30
0.0
  0
SPLINE
  5
470
100
AcDbEntity
  8
0
100
AcDbSpline
 62
7
  6
CONTINUOUS
 70
0
 71
3
 72
9
 73
5
 74
0
 42
0.0000001
 43
0.0000001
 44
0.0000000001
 40
0.0
 40
0.0
 40
0.0
 40
0.0
 40
0.2445998404
 40
1.0
 40
1.0
 40
1.0
 40
1.0
 10
14.9377737356
 20
10.184646114
 30
0.0
 10
14.9333784263
 20
10.1857870892
 30
0.0
 10
14.9150553275
 20
10.1890180483
 30
0.0
 10
14.8958530859
 20
10.1867178097
 30
0.0
 10
14.8825652959
 20
10.1822337724
 30
0.0
  0
SPLINE
  5
471
100
AcDbEntity
  8
0
100
AcDbSpline
 62
7
  6
CONTINUOUS
 70
0
 71
3
 72
9
 73
5
 74
0
 42
0.0000001
 43
0.0000001
 44
0.0000000001
 40
0.0
 40
0.0
 40
0.0
 40
0.0
 40
0.4832357352
 40
1.0
 40
1.0
 40
1.0
 40
1.0
 10
15.8039409423
 20
9.9932861065
 30
0.0
 10
15.7996304813
 20
9.9849972167
 30
0.0
 10
15.7829015087
 20
9.9720256155
 30
0.0
 10
15.7623335887
 20
9.9705992072
 30
0.0
 10
15.7526631923
 20
9.9731095386
 30
0.0
  0
SPLINE
  5
472
100
AcDbEntity
  8
0
100
AcDbSpline
 62
7
  6
CONTINUOUS
 70
0
 71
3
 72
8
 73
4
 74
0
 42
0.0000001
 43
0.0000001
 44
0.0000000001
 40
0.0
 40
0.0
 40
0.0
 40
0.0
 40
1.0
 40
1.0
 40
1.0
 40
1.0
 10
15.1127869165
 20
10.381161271
 30
0.0
 10
15.1129744555
 20
10.3802167634
 30
0.0
 10
15.112848782
 20
10.3791815787
 30
0.0
 10
15.1124907926
 20
10.3782876497
 30
0.0
  0
SPLINE
  5
473
100
AcDbEntity
  8
0
100
AcDbSpline
 62
7
  6
CONTINUOUS
 70
0
 71
3
 72
8
 73
4
 74
0
 42
0.0000001
 43
0.0000001
 44
0.0000000001
 40
0.0
 40
0.0
 40
0.0
 40
0.0
 40
1.0
 40
1.0
 40
1.0
 40
1.0
 10
15.0870480378
 20
10.4297024615
 30
0.0
 10
15.0872355768
 20
10.4287579539
 30
0.0
 10
15.0871099033
 20
10.4277227691
 30
0.0
 10
15.0867519139
 20
10.4268288402
 30
0.0
  0
SPLINE
  5
474
100
AcDbEntity
  8
0
100
AcDbSpline
 62
7
  6
CONTINUOUS
 70
0
 71
3
 72
8
 73
4
 74
0
 42
0.0000001
 43
0.0000001
 44
0.0000000001
 40
0.0
 40
0.0
 40
0.0
 40
0.0
 40
1.0
 40
1.0
 40
1.0
 40
1.0
 10
15.0797923353
 20
10.3913417995
 30
0.0
 10
15.0796638845
 20
10.3894970325
 30
0.0
 10
15.0791039108
 20
10.3876532468
 30
0.0
 10
15.0782507247
 20
10.386012595
 30
0.0
  0
SPLINE
  5
475
100
AcDbEntity
  8
02___PRT_ALL_AXES
100
AcDbSpline
 62
7
  6
CONTINUOUS
 70
0
 71
3
 72
10
 73
6
 74
0
 42
0.0000001
 43
0.0000001
 44
0.0000000001
 40
0.0
 40
0.0
 40
0.0
 40
0.0
 40
0.2450856727
 40
0.5552098556
 40
1.0
 40
1.0
 40
1.0
 40
1.0
 10
14.697394965
 20
10.299564008
 30
0.0
 10
14.6963868352
 20
10.3046472812
 30
0.0
 10
14.6882667733
 20
10.3146463623
 30
0.0
 10
14.6720097635
 20
10.3252695147
 30
0.0
 10
14.6485877698
 20
10.3285267574
 30
0.0
 10
14.6442469939
 20
10.3201834188
 30
0.0
  0
SPLINE
  5
476
100
AcDbEntity
  8
0
100
AcDbSpline
 62
7
  6
CONTINUOUS
 70
0
 71
3
 72
8
 73
4
 74
0
 42
0.0000001
 43
0.0000001
 44
0.0000000001
 40
0.0
 40
0.0
 40
0.0
 40
0.0
 40
1.0
 40
1.0
 40
1.0
 40
1.0
 10
13.6947890205
 20
10.6739109621
 30
0.0
 10
13.6949765595
 20
10.6729664545
 30
0.0
 10
13.694850886
 20
10.6719312698
 30
0.0
 10
13.6944928966
 20
10.6710373408
 30
0.0
  0
SPLINE
  5
477
100
AcDbEntity
  8
0
100
AcDbSpline
 62
7
  6
CONTINUOUS
 70
0
 71
3
 72
8
 73
4
 74
0
 42
0.0000001
 43
0.0000001
 44
0.0000000001
 40
0.0
 40
0.0
 40
0.0
 40
0.0
 40
1.0
 40
1.0
 40
1.0
 40
1.0
 10
13.7638339762
 20
10.8066823827
 30
0.0
 10
13.7640215152
 20
10.8057378752
 30
0.0
 10
13.7638958417
 20
10.8047026904
 30
0.0
 10
13.7635378523
 20
10.8038087614
 30
0.0
  0
SPLINE
  5
478
100
AcDbEntity
  8
02___PRT_ALL_AXES
100
AcDbSpline
 62
7
  6
CONTINUOUS
 70
0
 71
3
 72
10
 73
6
 74
0
 42
0.0000001
 43
0.0000001
 44
0.0000000001
 40
0.0
 40
0.0
 40
0.0
 40
0.0
 40
0.2450856727
 40
0.5552098556
 40
1.0
 40
1.0
 40
1.0
 40
1.0
 10
14.7817832442
 20
10.4618401887
 30
0.0
 10
14.7807751144
 20
10.466923462
 30
0.0
 10
14.7726550525
 20
10.476922543
 30
0.0
 10
14.7563980427
 20
10.4875456955
 30
0.0
 10
14.732976049
 20
10.4908029381
 30
0.0
 10
14.7286352731
 20
10.4824595995
 30
0.0
  0
SPLINE
  5
479
100
AcDbEntity
  8
0
100
AcDbSpline
 62
7
  6
CONTINUOUS
 70
0
 71
3
 72
9
 73
5
 74
0
 42
0.0000001
 43
0.0000001
 44
0.0000000001
 40
0.0
 40
0.0
 40
0.0
 40
0.0
 40
0.7395865286
 40
1.0
 40
1.0
 40
1.0
 40
1.0
 10
13.7796352225
 20
10.7496445776
 30
0.0
 10
13.7808287648
 20
10.7436342554
 30
0.0
 10
13.7802065982
 20
10.7349082641
 30
0.0
 10
13.7771114962
 20
10.7272174651
 30
0.0
 10
13.7761693371
 20
10.7252764416
 30
0.0
  0
SPLINE
  5
47A
100
AcDbEntity
  8
02___PRT_ALL_AXES
100
AcDbSpline
 62
7
  6
CONTINUOUS
 70
0
 71
3
 72
8
 73
4
 74
0
 42
0.0000001
 43
0.0000001
 44
0.0000000001
 40
0.0
 40
0.0
 40
0.0
 40
0.0
 40
1.0
 40
1.0
 40
1.0
 40
1.0
 10
14.6966412965
 20
10.2929368855
 30
0.0
 10
14.6976674296
 20
10.2949092002
 30
0.0
 10
14.6978274689
 20
10.297383202
 30
0.0
 10
14.697394965
 20
10.299564008
 30
0.0
  0
SPLINE
  5
47B
100
AcDbEntity
  8
02___PRT_ALL_AXES
100
AcDbSpline
 62
7
  6
CONTINUOUS
 70
0
 71
3
 72
8
 73
4
 74
0
 42
0.0000001
 43
0.0000001
 44
0.0000000001
 40
0.0
 40
0.0
 40
0.0
 40
0.0
 40
1.0
 40
1.0
 40
1.0
 40
1.0
 10
14.7810295757
 20
10.4552130663
 30
0.0
 10
14.7820557088
 20
10.4571853809
 30
0.0
 10
14.7822157481
 20
10.4596593828
 30
0.0
 10
14.7817832442
 20
10.4618401887
 30
0.0
  0
SPLINE
  5
47C
100
AcDbEntity
  8
0
100
AcDbSpline
 62
7
  6
CONTINUOUS
 70
0
 71
3
 72
11
 73
7
 74
0
 42
0.0000001
 43
0.0000001
 44
0.0000000001
 40
0.0
 40
0.0
 40
0.0
 40
0.0
 40
0.2507858053
 40
0.5245510776
 40
0.7804209264
 40
1.0
 40
1.0
 40
1.0
 40
1.0
 10
13.775610248
 20
10.7241641114
 30
0.0
 10
13.7703282368
 20
10.7140069592
 30
0.0
 10
13.7511694662
 20
10.6969151822
 30
0.0
 10
13.7153035761
 20
10.6888605909
 30
0.0
 10
13.6803312638
 20
10.6974481026
 30
0.0
 10
13.66573443
 20
10.7168363395
 30
0.0
 10
13.6637819942
 20
10.7266682218
 30
0.0
  0
SPLINE
  5
47D
100
AcDbEntity
  8
0
100
AcDbSpline
 62
7
  6
CONTINUOUS
 70
0
 71
3
 72
8
 73
4
 74
0
 42
0.0000001
 43
0.0000001
 44
0.0000000001
 40
0.0
 40
0.0
 40
0.0
 40
0.0
 40
1.0
 40
1.0
 40
1.0
 40
1.0
 10
13.7632972898
 20
10.8032849826
 30
0.0
 10
13.7624348747
 20
10.8016265838
 30
0.0
 10
13.7607601722
 20
10.800341631
 30
0.0
 10
13.7590204228
 20
10.7996580242
 30
0.0
  0
SPLINE
  5
47E
100
AcDbEntity
  8
0
100
AcDbSpline
 62
7
  6
CONTINUOUS
 70
0
 71
3
 72
9
 73
5
 74
0
 42
0.0000001
 43
0.0000001
 44
0.0000000001
 40
0.0
 40
0.0
 40
0.0
 40
0.0
 40
0.5460740451
 40
1.0
 40
1.0
 40
1.0
 40
1.0
 10
13.7590204228
 20
10.7996580242
 30
0.0
 10
13.7569161212
 20
10.7988311725
 30
0.0
 10
13.7523928829
 20
10.7984137937
 30
0.0
 10
13.748752856
 20
10.8017754471
 30
0.0
 10
13.7483868328
 20
10.8036188594
 30
0.0
  0
SPLINE
  5
47F
100
AcDbEntity
  8
0
100
AcDbSpline
 62
7
  6
CONTINUOUS
 70
0
 71
3
 72
8
 73
4
 74
0
 42
0.0000001
 43
0.0000001
 44
0.0000000001
 40
0.0
 40
0.0
 40
0.0
 40
0.0
 40
1.0
 40
1.0
 40
1.0
 40
1.0
 10
13.6942523341
 20
10.670513562
 30
0.0
 10
13.693389919
 20
10.6688551631
 30
0.0
 10
13.6917152165
 20
10.6675702104
 30
0.0
 10
13.6899754671
 20
10.6668866036
 30
0.0
  0
SPLINE
  5
480
100
AcDbEntity
  8
0
100
AcDbSpline
 62
7
  6
CONTINUOUS
 70
0
 71
3
 72
9
 73
5
 74
0
 42
0.0000001
 43
0.0000001
 44
0.0000000001
 40
0.0
 40
0.0
 40
0.0
 40
0.0
 40
0.5460740451
 40
1.0
 40
1.0
 40
1.0
 40
1.0
 10
13.6899754671
 20
10.6668866036
 30
0.0
 10
13.6878711655
 20
10.6660597519
 30
0.0
 10
13.6833479272
 20
10.6656423731
 30
0.0
 10
13.6797079003
 20
10.6690040265
 30
0.0
 10
13.6793418771
 20
10.6708474388
 30
0.0
  0
SPLINE
  5
481
100
AcDbEntity
  8
0
100
AcDbSpline
 62
7
  6
CONTINUOUS
 70
0
 71
3
 72
8
 73
4
 74
0
 42
0.0000001
 43
0.0000001
 44
0.0000000001
 40
0.0
 40
0.0
 40
0.0
 40
0.0
 40
1.0
 40
1.0
 40
1.0
 40
1.0
 10
15.0782507247
 20
10.386012595
 30
0.0
 10
15.0773218135
 20
10.3842263263
 30
0.0
 10
15.0760236401
 20
10.3826083249
 30
0.0
 10
15.0745416829
 20
10.3812454476
 30
0.0
  0
SPLINE
  5
482
100
AcDbEntity
  8
0
100
AcDbSpline
 62
7
  6
CONTINUOUS
 70
0
 71
3
 72
10
 73
6
 74
0
 42
0.0000001
 43
0.0000001
 44
0.0000000001
 40
0.0
 40
0.0
 40
0.0
 40
0.0
 40
0.5297766196
 40
0.7802709974
 40
1.0
 40
1.0
 40
1.0
 40
1.0
 10
15.0745416829
 20
10.3812454476
 30
0.0
 10
15.0694245659
 20
10.3765395067
 30
0.0
 10
15.0578302174
 20
10.3733865569
 30
0.0
 10
15.0452204987
 20
10.3783889843
 30
0.0
 10
15.0414991084
 20
10.3840197658
 30
0.0
 10
15.0409382647
 20
10.3868481061
 30
0.0
  0
SPLINE
  5
483
100
AcDbEntity
  8
0
100
AcDbSpline
 62
7
  6
CONTINUOUS
 70
0
 71
3
 72
8
 73
4
 74
0
 42
0.0000001
 43
0.0000001
 44
0.0000000001
 40
0.0
 40
0.0
 40
0.0
 40
0.0
 40
1.0
 40
1.0
 40
1.0
 40
1.0
 10
14.8418240702
 20
10.5076142259
 30
0.0
 10
14.8423815041
 20
10.5048026638
 30
0.0
 10
14.8418046646
 20
10.5016636885
 30
0.0
 10
14.8404822367
 20
10.4991206985
 30
0.0
  0
SPLINE
  5
484
100
AcDbEntity
  8
0
100
AcDbSpline
 62
7
  6
CONTINUOUS
 70
0
 71
3
 72
8
 73
4
 74
0
 42
0.0000001
 43
0.0000001
 44
0.0000000001
 40
0.0
 40
0.0
 40
0.0
 40
0.0
 40
1.0
 40
1.0
 40
1.0
 40
1.0
 10
13.5802936517
 20
10.6913614235
 30
0.0
 10
13.5791787839
 20
10.6969845476
 30
0.0
 10
13.5803324628
 20
10.7032624982
 30
0.0
 10
13.5829773186
 20
10.7083484782
 30
0.0
  0
SPLINE
  5
485
100
AcDbEntity
  8
0
100
AcDbSpline
 62
7
  6
CONTINUOUS
 70
0
 71
3
 72
8
 73
4
 74
0
 42
0.0000001
 43
0.0000001
 44
0.0000000001
 40
0.0
 40
0.0
 40
0.0
 40
0.0
 40
1.0
 40
1.0
 40
1.0
 40
1.0
 10
15.8679979032
 20
10.1282922017
 30
0.0
 10
15.869112771
 20
10.1226690776
 30
0.0
 10
15.8679590921
 20
10.116391127
 30
0.0
 10
15.8653142362
 20
10.111305147
 30
0.0
  0
SPLINE
  5
486
100
AcDbEntity
  8
0
100
AcDbSpline
 62
7
  6
CONTINUOUS
 70
0
 71
3
 72
8
 73
4
 74
0
 42
0.0000001
 43
0.0000001
 44
0.0000000001
 40
0.0
 40
0.0
 40
0.0
 40
0.0
 40
1.0
 40
1.0
 40
1.0
 40
1.0
 10
15.0865113514
 20
10.4263050614
 30
0.0
 10
15.0856489363
 20
10.4246466625
 30
0.0
 10
15.0839742338
 20
10.4233617098
 30
0.0
 10
15.0822344843
 20
10.422678103
 30
0.0
  0
SPLINE
  5
487
100
AcDbEntity
  8
0
100
AcDbSpline
 62
7
  6
CONTINUOUS
 70
0
 71
3
 72
9
 73
5
 74
0
 42
0.0000001
 43
0.0000001
 44
0.0000000001
 40
0.0
 40
0.0
 40
0.0
 40
0.0
 40
0.5460740451
 40
1.0
 40
1.0
 40
1.0
 40
1.0
 10
15.0822344843
 20
10.422678103
 30
0.0
 10
15.0801301828
 20
10.4218512512
 30
0.0
 10
15.0756069445
 20
10.4214338724
 30
0.0
 10
15.0719669176
 20
10.4247955258
 30
0.0
 10
15.0716008944
 20
10.4266389382
 30
0.0
  0
SPLINE
  5
488
100
AcDbEntity
  8
0
100
AcDbSpline
 62
7
  6
CONTINUOUS
 70
0
 71
3
 72
8
 73
4
 74
0
 42
0.0000001
 43
0.0000001
 44
0.0000000001
 40
0.0
 40
0.0
 40
0.0
 40
0.0
 40
1.0
 40
1.0
 40
1.0
 40
1.0
 10
15.1122502301
 20
10.3777638709
 30
0.0
 10
15.111387815
 20
10.376105472
 30
0.0
 10
15.1097131125
 20
10.3748205193
 30
0.0
 10
15.107973363
 20
10.3741369125
 30
0.0
  0
SPLINE
  5
489
100
AcDbEntity
  8
0
100
AcDbSpline
 62
7
  6
CONTINUOUS
 70
0
 71
3
 72
9
 73
5
 74
0
 42
0.0000001
 43
0.0000001
 44
0.0000000001
 40
0.0
 40
0.0
 40
0.0
 40
0.0
 40
0.5460740451
 40
1.0
 40
1.0
 40
1.0
 40
1.0
 10
15.107973363
 20
10.3741369125
 30
0.0
 10
15.1058690615
 20
10.3733100608
 30
0.0
 10
15.1013458232
 20
10.3728926819
 30
0.0
 10
15.0977057963
 20
10.3762543353
 30
0.0
 10
15.0973397731
 20
10.3780977477
 30
0.0
  0
SPLINE
  5
48A
100
AcDbEntity
  8
0
100
AcDbSpline
 62
7
  6
CONTINUOUS
 70
0
 71
3
 72
8
 73
4
 74
0
 42
0.0000001
 43
0.0000001
 44
0.0000000001
 40
0.0
 40
0.0
 40
0.0
 40
0.0
 40
1.0
 40
1.0
 40
1.0
 40
1.0
 10
15.0481530426
 20
10.352543161
 30
0.0
 10
15.0472906276
 20
10.3508847622
 30
0.0
 10
15.0456159251
 20
10.3495998094
 30
0.0
 10
15.0438761756
 20
10.3489162026
 30
0.0
  0
SPLINE
  5
48B
100
AcDbEntity
  8
0
100
AcDbSpline
 62
7
  6
CONTINUOUS
 70
0
 71
3
 72
9
 73
5
 74
0
 42
0.0000001
 43
0.0000001
 44
0.0000000001
 40
0.0
 40
0.0
 40
0.0
 40
0.0
 40
0.5460740451
 40
1.0
 40
1.0
 40
1.0
 40
1.0
 10
15.0438761756
 20
10.3489162026
 30
0.0
 10
15.0417718741
 20
10.3480893509
 30
0.0
 10
15.0372486357
 20
10.3476719721
 30
0.0
 10
15.0336086088
 20
10.3510336255
 30
0.0
 10
15.0332425856
 20
10.3528770378
 30
0.0
  0
SPLINE
  5
48C
100
AcDbEntity
  8
0
100
AcDbSpline
 62
7
  6
CONTINUOUS
 70
0
 71
3
 72
8
 73
4
 74
0
 42
0.0000001
 43
0.0000001
 44
0.0000000001
 40
0.0
 40
0.0
 40
0.0
 40
0.0
 40
1.0
 40
1.0
 40
1.0
 40
1.0
 10
15.0224141639
 20
10.4010843515
 30
0.0
 10
15.0215517489
 20
10.3994259526
 30
0.0
 10
15.0198770464
 20
10.3981409999
 30
0.0
 10
15.0181372969
 20
10.3974573931
 30
0.0
  0
SPLINE
  5
48D
100
AcDbEntity
  8
0
100
AcDbSpline
 62
7
  6
CONTINUOUS
 70
0
 71
3
 72
9
 73
5
 74
0
 42
0.0000001
 43
0.0000001
 44
0.0000000001
 40
0.0
 40
0.0
 40
0.0
 40
0.0
 40
0.5460740451
 40
1.0
 40
1.0
 40
1.0
 40
1.0
 10
15.0181372969
 20
10.3974573931
 30
0.0
 10
15.0160329954
 20
10.3966305414
 30
0.0
 10
15.0115097571
 20
10.3962131626
 30
0.0
 10
15.0078697301
 20
10.399574816
 30
0.0
 10
15.007503707
 20
10.4014182283
 30
0.0
  0
SPLINE
  5
48E
100
AcDbEntity
  8
0
100
AcDbSpline
 62
7
  6
CONTINUOUS
 70
0
 71
3
 72
8
 73
4
 74
0
 42
0.0000001
 43
0.0000001
 44
0.0000000001
 40
0.0
 40
0.0
 40
0.0
 40
0.0
 40
1.0
 40
1.0
 40
1.0
 40
1.0
 10
15.0973397731
 20
10.3780977477
 30
0.0
 10
15.0971164841
 20
10.3792223038
 30
0.0
 10
15.0973474911
 20
10.3804779571
 30
0.0
 10
15.0978764595
 20
10.3814951478
 30
0.0
  0
SPLINE
  5
48F
100
AcDbEntity
  8
0
100
AcDbSpline
 62
7
  6
CONTINUOUS
 70
0
 71
3
 72
11
 73
7
 74
0
 42
0.0000001
 43
0.0000001
 44
0.0000000001
 40
0.0
 40
0.0
 40
0.0
 40
0.0
 40
0.2513447313
 40
0.5244011759
 40
0.7800400875
 40
1.0
 40
1.0
 40
1.0
 40
1.0
 10
13.7764717889
 20
10.7236294389
 30
0.0
 10
13.7707927492
 20
10.7134837545
 30
0.0
 10
13.7511864084
 20
10.6965661244
 30
0.0
 10
13.7148606746
 20
10.6885521543
 30
0.0
 10
13.6795264675
 20
10.6970735349
 30
0.0
 10
13.6642923435
 20
10.7161938007
 30
0.0
 10
13.6619195526
 20
10.726088409
 30
0.0
  0
SPLINE
  5
490
100
AcDbEntity
  8
0
100
AcDbSpline
 62
7
  6
CONTINUOUS
 70
0
 71
3
 72
9
 73
5
 74
0
 42
0.0000001
 43
0.0000001
 44
0.0000000001
 40
0.0
 40
0.0
 40
0.0
 40
0.0
 40
0.7383691622
 40
1.0
 40
1.0
 40
1.0
 40
1.0
 10
13.6619195526
 20
10.726088409
 30
0.0
 10
13.6602926217
 20
10.7328727592
 30
0.0
 10
13.6609069955
 20
10.7429462202
 30
0.0
 10
13.6646283259
 20
10.7516388608
 30
0.0
 10
13.6657688839
 20
10.7538321198
 30
0.0
  0
SPLINE
  5
491
100
AcDbEntity
  8
0
100
AcDbSpline
 62
7
  6
CONTINUOUS
 70
0
 71
3
 72
8
 73
4
 74
0
 42
0.0000001
 43
0.0000001
 44
0.0000000001
 40
0.0
 40
0.0
 40
0.0
 40
0.0
 40
1.0
 40
1.0
 40
1.0
 40
1.0
 10
15.0716008944
 20
10.4266389382
 30
0.0
 10
15.0713776054
 20
10.4277634943
 30
0.0
 10
15.0716086124
 20
10.4290191476
 30
0.0
 10
15.0721375808
 20
10.4300363383
 30
0.0
  0
SPLINE
  5
492
100
AcDbEntity
  8
0
100
AcDbSpline
 62
7
  6
CONTINUOUS
 70
0
 71
3
 72
11
 73
7
 74
0
 42
0.0000001
 43
0.0000001
 44
0.0000000001
 40
0.0
 40
0.0
 40
0.0
 40
0.0
 40
0.2512616139
 40
0.5254124086
 40
0.7808831301
 40
1.0
 40
1.0
 40
1.0
 40
1.0
 10
13.6657688839
 20
10.7538321198
 30
0.0
 10
13.6712735937
 20
10.7644175144
 30
0.0
 10
13.6913065625
 20
10.7821845085
 30
0.0
 10
13.7286915693
 20
10.7903538069
 30
0.0
 10
13.7650265624
 20
10.7810493977
 30
0.0
 10
13.7797608364
 20
10.7605126422
 30
0.0
 10
13.7815071149
 20
10.7502554715
 30
0.0
  0
SPLINE
  5
493
100
AcDbEntity
  8
0
100
AcDbSpline
 62
7
  6
CONTINUOUS
 70
0
 71
3
 72
9
 73
5
 74
0
 42
0.0000001
 43
0.0000001
 44
0.0000000001
 40
0.0
 40
0.0
 40
0.0
 40
0.0
 40
0.7393657553
 40
1.0
 40
1.0
 40
1.0
 40
1.0
 10
13.781609547
 20
10.7496201635
 30
0.0
 10
13.782549286
 20
10.7434473365
 30
0.0
 10
13.7815629897
 20
10.7346098728
 30
0.0
 10
13.7781811145
 20
10.7268675164
 30
0.0
 10
13.7771656059
 20
10.7249147238
 30
0.0
  0
SPLINE
  5
494
100
AcDbEntity
  8
0
100
AcDbSpline
 62
7
  6
CONTINUOUS
 70
0
 71
3
 72
9
 73
5
 74
0
 42
0.0000001
 43
0.0000001
 44
0.0000000001
 40
0.0
 40
0.0
 40
0.0
 40
0.0
 40
0.5168980955
 40
1.0
 40
1.0
 40
1.0
 40
1.0
 10
13.7479044768
 20
10.8078579753
 30
0.0
 10
13.7493660149
 20
10.8106684701
 30
0.0
 10
13.7556533891
 20
10.8142368917
 30
0.0
 10
13.7627590334
 20
10.8115849975
 30
0.0
 10
13.7641474998
 20
10.8089700775
 30
0.0
  0
SPLINE
  5
495
100
AcDbEntity
  8
0
100
AcDbSpline
 62
7
  6
CONTINUOUS
 70
0
 71
3
 72
8
 73
4
 74
0
 42
0.0000001
 43
0.0000001
 44
0.0000000001
 40
0.0
 40
0.0
 40
0.0
 40
0.0
 40
1.0
 40
1.0
 40
1.0
 40
1.0
 10
13.7641474998
 20
10.8089700775
 30
0.0
 10
13.764567334
 20
10.8081793973
 30
0.0
 10
13.7647937336
 20
10.8072552164
 30
0.0
 10
13.764780628
 20
10.8063600828
 30
0.0
  0
SPLINE
  5
496
100
AcDbEntity
  8
0
100
AcDbSpline
 62
7
  6
CONTINUOUS
 70
0
 71
3
 72
8
 73
4
 74
0
 42
0.0000001
 43
0.0000001
 44
0.0000000001
 40
0.0
 40
0.0
 40
0.0
 40
0.0
 40
1.0
 40
1.0
 40
1.0
 40
1.0
 10
13.764780628
 20
10.8063600828
 30
0.0
 10
13.7647670109
 20
10.8054300187
 30
0.0
 10
13.764504121
 20
10.8044855361
 30
0.0
 10
13.7640749687
 20
10.8036602888
 30
0.0
  0
SPLINE
  5
497
100
AcDbEntity
  8
0
100
AcDbSpline
 62
7
  6
CONTINUOUS
 70
0
 71
3
 72
8
 73
4
 74
0
 42
0.0000001
 43
0.0000001
 44
0.0000000001
 40
0.0
 40
0.0
 40
0.0
 40
0.0
 40
1.0
 40
1.0
 40
1.0
 40
1.0
 10
13.7640749687
 20
10.8036602888
 30
0.0
 10
13.7636028671
 20
10.8027524512
 30
0.0
 10
13.762917731
 20
10.8019412981
 30
0.0
 10
13.7621377188
 20
10.8012790065
 30
0.0
  0
SPLINE
  5
498
100
AcDbEntity
  8
0
100
AcDbSpline
 62
7
  6
CONTINUOUS
 70
0
 71
3
 72
8
 73
4
 74
0
 42
0.0000001
 43
0.0000001
 44
0.0000000001
 40
0.0
 40
0.0
 40
0.0
 40
0.0
 40
1.0
 40
1.0
 40
1.0
 40
1.0
 10
13.7621377188
 20
10.8012790065
 30
0.0
 10
13.7612892982
 20
10.8005586309
 30
0.0
 10
13.7602992665
 20
10.7999869365
 30
0.0
 10
13.7592633666
 20
10.7995799108
 30
0.0
  0
SPLINE
  5
499
100
AcDbEntity
  8
0
100
AcDbSpline
 62
7
  6
CONTINUOUS
 70
0
 71
3
 72
8
 73
4
 74
0
 42
0.0000001
 43
0.0000001
 44
0.0000000001
 40
0.0
 40
0.0
 40
0.0
 40
0.0
 40
1.0
 40
1.0
 40
1.0
 40
1.0
 10
13.7592633666
 20
10.7995799108
 30
0.0
 10
13.7571719066
 20
10.7987581345
 30
0.0
 10
13.7547127351
 20
10.7985559422
 30
0.0
 10
13.7525376968
 20
10.7991205035
 30
0.0
  0
SPLINE
  5
49A
100
AcDbEntity
  8
0
100
AcDbSpline
 62
7
  6
CONTINUOUS
 70
0
 71
3
 72
9
 73
5
 74
0
 42
0.0000001
 43
0.0000001
 44
0.0000000001
 40
0.0
 40
0.0
 40
0.0
 40
0.0
 40
0.5230441223
 40
1.0
 40
1.0
 40
1.0
 40
1.0
 10
13.7525376968
 20
10.7991205035
 30
0.0
 10
13.7506590926
 20
10.7996081212
 30
0.0
 10
13.7469500619
 20
10.8018397791
 30
0.0
 10
13.747087922
 20
10.8062877644
 30
0.0
 10
13.7479044768
 20
10.8078579753
 30
0.0
  0
SPLINE
  5
49B
100
AcDbEntity
  8
0
100
AcDbSpline
 62
7
  6
CONTINUOUS
 70
0
 71
3
 72
8
 73
4
 74
0
 42
0.0000001
 43
0.0000001
 44
0.0000000001
 40
0.0
 40
0.0
 40
0.0
 40
0.0
 40
1.0
 40
1.0
 40
1.0
 40
1.0
 10
15.0409382647
 20
10.3868481061
 30
0.0
 10
15.0403802111
 20
10.3896623758
 30
0.0
 10
15.0409575533
 20
10.3928044289
 30
0.0
 10
15.0422812622
 20
10.3953498822
 30
0.0
  0
SPLINE
  5
49C
100
AcDbEntity
  8
0
100
AcDbSpline
 62
7
  6
CONTINUOUS
 70
0
 71
3
 72
9
 73
5
 74
0
 42
0.0000001
 43
0.0000001
 44
0.0000000001
 40
0.0
 40
0.0
 40
0.0
 40
0.0
 40
0.5168980955
 40
1.0
 40
1.0
 40
1.0
 40
1.0
 10
13.6788595211
 20
10.6750865547
 30
0.0
 10
13.6803210592
 20
10.6778970495
 30
0.0
 10
13.6866084334
 20
10.6814654711
 30
0.0
 10
13.6937140777
 20
10.6788135768
 30
0.0
 10
13.6951025441
 20
10.6761986568
 30
0.0
  0
SPLINE
  5
49D
100
AcDbEntity
  8
0
100
AcDbSpline
 62
7
  6
CONTINUOUS
 70
0
 71
3
 72
8
 73
4
 74
0
 42
0.0000001
 43
0.0000001
 44
0.0000000001
 40
0.0
 40
0.0
 40
0.0
 40
0.0
 40
1.0
 40
1.0
 40
1.0
 40
1.0
 10
13.6951025441
 20
10.6761986568
 30
0.0
 10
13.6955223783
 20
10.6754079766
 30
0.0
 10
13.6957487779
 20
10.6744837958
 30
0.0
 10
13.6957356723
 20
10.6735886622
 30
0.0
  0
SPLINE
  5
49E
100
AcDbEntity
  8
0
100
AcDbSpline
 62
7
  6
CONTINUOUS
 70
0
 71
3
 72
8
 73
4
 74
0
 42
0.0000001
 43
0.0000001
 44
0.0000000001
 40
0.0
 40
0.0
 40
0.0
 40
0.0
 40
1.0
 40
1.0
 40
1.0
 40
1.0
 10
13.6957356723
 20
10.6735886622
 30
0.0
 10
13.6957220552
 20
10.672658598
 30
0.0
 10
13.6954591653
 20
10.6717141155
 30
0.0
 10
13.695030013
 20
10.6708888682
 30
0.0
  0
SPLINE
  5
49F
100
AcDbEntity
  8
0
100
AcDbSpline
 62
7
  6
CONTINUOUS
 70
0
 71
3
 72
8
 73
4
 74
0
 42
0.0000001
 43
0.0000001
 44
0.0000000001
 40
0.0
 40
0.0
 40
0.0
 40
0.0
 40
1.0
 40
1.0
 40
1.0
 40
1.0
 10
13.6793418771
 20
10.6708474388
 30
0.0
 10
13.6791185881
 20
10.6719719949
 30
0.0
 10
13.6793495951
 20
10.6732276482
 30
0.0
 10
13.6798785635
 20
10.6742448389
 30
0.0
  0
SPLINE
  5
4A0
100
AcDbEntity
  8
02___PRT_ALL_AXES
100
AcDbSpline
 62
7
  6
CONTINUOUS
 70
0
 71
3
 72
10
 73
6
 74
0
 42
0.0000001
 43
0.0000001
 44
0.0000000001
 40
0.0
 40
0.0
 40
0.0
 40
0.0
 40
0.2450856727
 40
0.5552098556
 40
1.0
 40
1.0
 40
1.0
 40
1.0
 10
14.6434933254
 20
10.3135562963
 30
0.0
 10
14.6445014552
 20
10.308473023
 30
0.0
 10
14.6526215171
 20
10.298473942
 30
0.0
 10
14.6688785269
 20
10.2878507896
 30
0.0
 10
14.6923005206
 20
10.2845935469
 30
0.0
 10
14.6966412965
 20
10.2929368855
 30
0.0
  0
SPLINE
  5
4A1
100
AcDbEntity
  8
0
100
AcDbSpline
 62
7
  6
CONTINUOUS
 70
0
 71
3
 72
8
 73
4
 74
0
 42
0.0000001
 43
0.0000001
 44
0.0000000001
 40
0.0
 40
0.0
 40
0.0
 40
0.0
 40
1.0
 40
1.0
 40
1.0
 40
1.0
 10
13.695030013
 20
10.6708888682
 30
0.0
 10
13.6945579114
 20
10.6699810306
 30
0.0
 10
13.6938727753
 20
10.6691698775
 30
0.0
 10
13.6930927631
 20
10.6685075859
 30
0.0
  0
SPLINE
  5
4A2
100
AcDbEntity
  8
0
100
AcDbSpline
 62
7
  6
CONTINUOUS
 70
0
 71
3
 72
8
 73
4
 74
0
 42
0.0000001
 43
0.0000001
 44
0.0000000001
 40
0.0
 40
0.0
 40
0.0
 40
0.0
 40
1.0
 40
1.0
 40
1.0
 40
1.0
 10
13.6930927631
 20
10.6685075859
 30
0.0
 10
13.6922443425
 20
10.6677872103
 30
0.0
 10
13.6912543108
 20
10.6672155159
 30
0.0
 10
13.6902184109
 20
10.6668084902
 30
0.0
  0
SPLINE
  5
4A3
100
AcDbEntity
  8
0
100
AcDbSpline
 62
7
  6
CONTINUOUS
 70
0
 71
3
 72
8
 73
4
 74
0
 42
0.0000001
 43
0.0000001
 44
0.0000000001
 40
0.0
 40
0.0
 40
0.0
 40
0.0
 40
1.0
 40
1.0
 40
1.0
 40
1.0
 10
13.6902184109
 20
10.6668084902
 30
0.0
 10
13.6881269509
 20
10.6659867139
 30
0.0
 10
13.6856677794
 20
10.6657845216
 30
0.0
 10
13.6834927411
 20
10.6663490829
 30
0.0
  0
SPLINE
  5
4A4
100
AcDbEntity
  8
0
100
AcDbSpline
 62
7
  6
CONTINUOUS
 70
0
 71
3
 72
9
 73
5
 74
0
 42
0.0000001
 43
0.0000001
 44
0.0000000001
 40
0.0
 40
0.0
 40
0.0
 40
0.0
 40
0.5230441223
 40
1.0
 40
1.0
 40
1.0
 40
1.0
 10
13.6834927411
 20
10.6663490829
 30
0.0
 10
13.6816141369
 20
10.6668367006
 30
0.0
 10
13.6779051062
 20
10.6690683585
 30
0.0
 10
13.6780429663
 20
10.6735163438
 30
0.0
 10
13.6788595211
 20
10.6750865547
 30
0.0
  0
SPLINE
  5
4A5
100
AcDbEntity
  8
0
100
AcDbSpline
 62
7
  6
CONTINUOUS
 70
0
 71
3
 72
9
 73
5
 74
0
 42
0.0000001
 43
0.0000001
 44
0.0000000001
 40
0.0
 40
0.0
 40
0.0
 40
0.0
 40
0.5168980955
 40
1.0
 40
1.0
 40
1.0
 40
1.0
 10
15.0711185384
 20
10.4308780541
 30
0.0
 10
15.0725800765
 20
10.4336885488
 30
0.0
 10
15.0788674507
 20
10.4372569704
 30
0.0
 10
15.085973095
 20
10.4346050762
 30
0.0
 10
15.0873615614
 20
10.4319901562
 30
0.0
  0
SPLINE
  5
4A6
100
AcDbEntity
  8
0
100
AcDbSpline
 62
7
  6
CONTINUOUS
 70
0
 71
3
 72
8
 73
4
 74
0
 42
0.0000001
 43
0.0000001
 44
0.0000000001
 40
0.0
 40
0.0
 40
0.0
 40
0.0
 40
1.0
 40
1.0
 40
1.0
 40
1.0
 10
15.0873615614
 20
10.4319901562
 30
0.0
 10
15.0877813956
 20
10.431199476
 30
0.0
 10
15.0880077952
 20
10.4302752951
 30
0.0
 10
15.0879946895
 20
10.4293801615
 30
0.0
  0
SPLINE
  5
4A7
100
AcDbEntity
  8
0
100
AcDbSpline
 62
7
  6
CONTINUOUS
 70
0
 71
3
 72
8
 73
4
 74
0
 42
0.0000001
 43
0.0000001
 44
0.0000000001
 40
0.0
 40
0.0
 40
0.0
 40
0.0
 40
1.0
 40
1.0
 40
1.0
 40
1.0
 10
15.0879946895
 20
10.4293801615
 30
0.0
 10
15.0879810725
 20
10.4284500974
 30
0.0
 10
15.0877181826
 20
10.4275056148
 30
0.0
 10
15.0872890303
 20
10.4266803676
 30
0.0
  0
SPLINE
  5
4A8
100
AcDbEntity
  8
0
100
AcDbSpline
 62
7
  6
CONTINUOUS
 70
0
 71
3
 72
8
 73
4
 74
0
 42
0.0000001
 43
0.0000001
 44
0.0000000001
 40
0.0
 40
0.0
 40
0.0
 40
0.0
 40
1.0
 40
1.0
 40
1.0
 40
1.0
 10
13.7483868328
 20
10.8036188594
 30
0.0
 10
13.7481635438
 20
10.8047434155
 30
0.0
 10
13.7483945508
 20
10.8059990689
 30
0.0
 10
13.7489235192
 20
10.8070162595
 30
0.0
  0
SPLINE
  5
4A9
100
AcDbEntity
  8
0
100
AcDbSpline
 62
7
  6
CONTINUOUS
 70
0
 71
3
 72
8
 73
4
 74
0
 42
0.0000001
 43
0.0000001
 44
0.0000000001
 40
0.0
 40
0.0
 40
0.0
 40
0.0
 40
1.0
 40
1.0
 40
1.0
 40
1.0
 10
15.0872890303
 20
10.4266803676
 30
0.0
 10
15.0868169286
 20
10.4257725299
 30
0.0
 10
15.0861317926
 20
10.4249613768
 30
0.0
 10
15.0853517804
 20
10.4242990853
 30
0.0
  0
SPLINE
  5
4AA
100
AcDbEntity
  8
0
100
AcDbSpline
 62
7
  6
CONTINUOUS
 70
0
 71
3
 72
8
 73
4
 74
0
 42
0.0000001
 43
0.0000001
 44
0.0000000001
 40
0.0
 40
0.0
 40
0.0
 40
0.0
 40
1.0
 40
1.0
 40
1.0
 40
1.0
 10
15.0853517804
 20
10.4242990853
 30
0.0
 10
15.0845033598
 20
10.4235787096
 30
0.0
 10
15.0835133281
 20
10.4230070153
 30
0.0
 10
15.0824774281
 20
10.4225999895
 30
0.0
  0
SPLINE
  5
4AB
100
AcDbEntity
  8
0
100
AcDbSpline
 62
7
  6
CONTINUOUS
 70
0
 71
3
 72
8
 73
4
 74
0
 42
0.0000001
 43
0.0000001
 44
0.0000000001
 40
0.0
 40
0.0
 40
0.0
 40
0.0
 40
1.0
 40
1.0
 40
1.0
 40
1.0
 10
15.0824774281
 20
10.4225999895
 30
0.0
 10
15.0803859682
 20
10.4217782132
 30
0.0
 10
15.0779267967
 20
10.4215760209
 30
0.0
 10
15.0757517584
 20
10.4221405822
 30
0.0
  0
SPLINE
  5
4AC
100
AcDbEntity
  8
0
100
AcDbSpline
 62
7
  6
CONTINUOUS
 70
0
 71
3
 72
9
 73
5
 74
0
 42
0.0000001
 43
0.0000001
 44
0.0000000001
 40
0.0
 40
0.0
 40
0.0
 40
0.0
 40
0.5230441223
 40
1.0
 40
1.0
 40
1.0
 40
1.0
 10
15.0757517584
 20
10.4221405822
 30
0.0
 10
15.0738731542
 20
10.4226281999
 30
0.0
 10
15.0701641234
 20
10.4248598579
 30
0.0
 10
15.0703019836
 20
10.4293078431
 30
0.0
 10
15.0711185384
 20
10.4308780541
 30
0.0
  0
SPLINE
  5
4AD
100
AcDbEntity
  8
0
100
AcDbSpline
 62
7
  6
CONTINUOUS
 70
0
 71
3
 72
9
 73
5
 74
0
 42
0.0000001
 43
0.0000001
 44
0.0000000001
 40
0.0
 40
0.0
 40
0.0
 40
0.0
 40
0.5168980955
 40
1.0
 40
1.0
 40
1.0
 40
1.0
 10
15.0968574171
 20
10.3823368636
 30
0.0
 10
15.0983189552
 20
10.3851473584
 30
0.0
 10
15.1046063294
 20
10.3887157799
 30
0.0
 10
15.1117119737
 20
10.3860638857
 30
0.0
 10
15.1131004401
 20
10.3834489657
 30
0.0
  0
SPLINE
  5
4AE
100
AcDbEntity
  8
0
100
AcDbSpline
 62
7
  6
CONTINUOUS
 70
0
 71
3
 72
8
 73
4
 74
0
 42
0.0000001
 43
0.0000001
 44
0.0000000001
 40
0.0
 40
0.0
 40
0.0
 40
0.0
 40
1.0
 40
1.0
 40
1.0
 40
1.0
 10
15.1131004401
 20
10.3834489657
 30
0.0
 10
15.1135202743
 20
10.3826582855
 30
0.0
 10
15.1137466739
 20
10.3817341047
 30
0.0
 10
15.1137335682
 20
10.3808389711
 30
0.0
  0
SPLINE
  5
4AF
100
AcDbEntity
  8
0
100
AcDbSpline
 62
7
  6
CONTINUOUS
 70
0
 71
3
 72
8
 73
4
 74
0
 42
0.0000001
 43
0.0000001
 44
0.0000000001
 40
0.0
 40
0.0
 40
0.0
 40
0.0
 40
1.0
 40
1.0
 40
1.0
 40
1.0
 10
15.1137335682
 20
10.3808389711
 30
0.0
 10
15.1137199512
 20
10.3799089069
 30
0.0
 10
15.1134570613
 20
10.3789644243
 30
0.0
 10
15.113027909
 20
10.3781391771
 30
0.0
  0
SPLINE
  5
4B0
100
AcDbEntity
  8
0
100
AcDbSpline
 62
7
  6
CONTINUOUS
 70
0
 71
3
 72
9
 73
5
 74
0
 42
0.0000001
 43
0.0000001
 44
0.0000000001
 40
0.0
 40
0.0
 40
0.0
 40
0.0
 40
0.7388166519
 40
1.0
 40
1.0
 40
1.0
 40
1.0
 10
13.6637819942
 20
10.7266682218
 30
0.0
 10
13.6625313412
 20
10.7329661364
 30
0.0
 10
13.6633105168
 20
10.7421524273
 30
0.0
 10
13.6667597047
 20
10.75013483
 30
0.0
 10
13.6678069687
 20
10.7521486881
 30
0.0
  0
SPLINE
  5
4B1
100
AcDbEntity
  8
02___PRT_ALL_AXES
100
AcDbSpline
 62
7
  6
CONTINUOUS
 70
0
 71
3
 72
10
 73
6
 74
0
 42
0.0000001
 43
0.0000001
 44
0.0000000001
 40
0.0
 40
0.0
 40
0.0
 40
0.0
 40
0.2450856727
 40
0.5552098556
 40
1.0
 40
1.0
 40
1.0
 40
1.0
 10
14.7278816046
 20
10.4758324771
 30
0.0
 10
14.7288897344
 20
10.4707492038
 30
0.0
 10
14.7370097963
 20
10.4607501228
 30
0.0
 10
14.7532668061
 20
10.4501269703
 30
0.0
 10
14.7766887998
 20
10.4468697277
 30
0.0
 10
14.7810295757
 20
10.4552130663
 30
0.0
  0
SPLINE
  5
4B2
100
AcDbEntity
  8
0
100
AcDbSpline
 62
7
  6
CONTINUOUS
 70
0
 71
3
 72
8
 73
4
 74
0
 42
0.0000001
 43
0.0000001
 44
0.0000000001
 40
0.0
 40
0.0
 40
0.0
 40
0.0
 40
1.0
 40
1.0
 40
1.0
 40
1.0
 10
15.113027909
 20
10.3781391771
 30
0.0
 10
15.1125558073
 20
10.3772313394
 30
0.0
 10
15.1118706713
 20
10.3764201863
 30
0.0
 10
15.1110906591
 20
10.3757578948
 30
0.0
  0
SPLINE
  5
4B3
100
AcDbEntity
  8
0
100
AcDbSpline
 62
7
  6
CONTINUOUS
 70
0
 71
3
 72
8
 73
4
 74
0
 42
0.0000001
 43
0.0000001
 44
0.0000000001
 40
0.0
 40
0.0
 40
0.0
 40
0.0
 40
1.0
 40
1.0
 40
1.0
 40
1.0
 10
15.1110906591
 20
10.3757578948
 30
0.0
 10
15.1102422385
 20
10.3750375192
 30
0.0
 10
15.1092522067
 20
10.3744658248
 30
0.0
 10
15.1082163068
 20
10.3740587991
 30
0.0
  0
SPLINE
  5
4B4
100
AcDbEntity
  8
0
100
AcDbSpline
 62
7
  6
CONTINUOUS
 70
0
 71
3
 72
8
 73
4
 74
0
 42
0.0000001
 43
0.0000001
 44
0.0000000001
 40
0.0
 40
0.0
 40
0.0
 40
0.0
 40
1.0
 40
1.0
 40
1.0
 40
1.0
 10
15.1082163068
 20
10.3740587991
 30
0.0
 10
15.1061248469
 20
10.3732370228
 30
0.0
 10
15.1036656754
 20
10.3730348305
 30
0.0
 10
15.1014906371
 20
10.3735993917
 30
0.0
  0
SPLINE
  5
4B5
100
AcDbEntity
  8
0
100
AcDbSpline
 62
7
  6
CONTINUOUS
 70
0
 71
3
 72
9
 73
5
 74
0
 42
0.0000001
 43
0.0000001
 44
0.0000000001
 40
0.0
 40
0.0
 40
0.0
 40
0.0
 40
0.5230441223
 40
1.0
 40
1.0
 40
1.0
 40
1.0
 10
15.1014906371
 20
10.3735993917
 30
0.0
 10
15.0996120329
 20
10.3740870094
 30
0.0
 10
15.0959030021
 20
10.3763186674
 30
0.0
 10
15.0960408623
 20
10.3807666527
 30
0.0
 10
15.0968574171
 20
10.3823368636
 30
0.0
  0
SPLINE
  5
4B6
100
AcDbEntity
  8
0
100
AcDbSpline
 62
7
  6
CONTINUOUS
 70
0
 71
3
 72
8
 73
4
 74
0
 42
0.0000001
 43
0.0000001
 44
0.0000000001
 40
0.0
 40
0.0
 40
0.0
 40
0.0
 40
1.0
 40
1.0
 40
1.0
 40
1.0
 10
15.0231918429
 20
10.4014596577
 30
0.0
 10
15.0227197412
 20
10.40055182
 30
0.0
 10
15.0220346052
 20
10.399740667
 30
0.0
 10
15.0212545929
 20
10.3990783754
 30
0.0
  0
SPLINE
  5
4B7
100
AcDbEntity
  8
0
100
AcDbSpline
 62
7
  6
CONTINUOUS
 70
0
 71
3
 72
8
 73
4
 74
0
 42
0.0000001
 43
0.0000001
 44
0.0000000001
 40
0.0
 40
0.0
 40
0.0
 40
0.0
 40
1.0
 40
1.0
 40
1.0
 40
1.0
 10
15.0212545929
 20
10.3990783754
 30
0.0
 10
15.0204061723
 20
10.3983579998
 30
0.0
 10
15.0194161406
 20
10.3977863054
 30
0.0
 10
15.0183802407
 20
10.3973792797
 30
0.0
  0
SPLINE
  5
4B8
100
AcDbEntity
  8
0
100
AcDbSpline
 62
7
  6
CONTINUOUS
 70
0
 71
3
 72
8
 73
4
 74
0
 42
0.0000001
 43
0.0000001
 44
0.0000000001
 40
0.0
 40
0.0
 40
0.0
 40
0.0
 40
1.0
 40
1.0
 40
1.0
 40
1.0
 10
15.0183802407
 20
10.3973792797
 30
0.0
 10
15.0162887808
 20
10.3965575034
 30
0.0
 10
15.0138296093
 20
10.3963553111
 30
0.0
 10
15.011654571
 20
10.3969198723
 30
0.0
  0
SPLINE
  5
4B9
100
AcDbEntity
  8
0
100
AcDbSpline
 62
7
  6
CONTINUOUS
 70
0
 71
3
 72
9
 73
5
 74
0
 42
0.0000001
 43
0.0000001
 44
0.0000000001
 40
0.0
 40
0.0
 40
0.0
 40
0.0
 40
0.5230441223
 40
1.0
 40
1.0
 40
1.0
 40
1.0
 10
15.011654571
 20
10.3969198723
 30
0.0
 10
15.0097759668
 20
10.3974074901
 30
0.0
 10
15.006066936
 20
10.399639148
 30
0.0
 10
15.0062047962
 20
10.4040871333
 30
0.0
 10
15.007021351
 20
10.4056573442
 30
0.0
  0
SPLINE
  5
4BA
100
AcDbEntity
  8
02___PRT_ALL_AXES
100
AcDbSpline
 62
7
  6
CONTINUOUS
 70
0
 71
3
 72
8
 73
4
 74
0
 42
0.0000001
 43
0.0000001
 44
0.0000000001
 40
0.0
 40
0.0
 40
0.0
 40
0.0
 40
1.0
 40
1.0
 40
1.0
 40
1.0
 10
14.6442469939
 20
10.3201834188
 30
0.0
 10
14.6432208608
 20
10.3182111041
 30
0.0
 10
14.6430608215
 20
10.3157371023
 30
0.0
 10
14.6434933254
 20
10.3135562963
 30
0.0
  0
SPLINE
  5
4BB
100
AcDbEntity
  8
0
100
AcDbSpline
 62
7
  6
CONTINUOUS
 70
0
 71
3
 72
9
 73
5
 74
0
 42
0.0000001
 43
0.0000001
 44
0.0000000001
 40
0.0
 40
0.0
 40
0.0
 40
0.0
 40
0.5168980955
 40
1.0
 40
1.0
 40
1.0
 40
1.0
 10
15.007021351
 20
10.4056573442
 30
0.0
 10
15.0084828891
 20
10.408467839
 30
0.0
 10
15.0147702633
 20
10.4120362606
 30
0.0
 10
15.0218759076
 20
10.4093843663
 30
0.0
 10
15.023264374
 20
10.4067694463
 30
0.0
  0
SPLINE
  5
4BC
100
AcDbEntity
  8
0
100
AcDbSpline
 62
7
  6
CONTINUOUS
 70
0
 71
3
 72
8
 73
4
 74
0
 42
0.0000001
 43
0.0000001
 44
0.0000000001
 40
0.0
 40
0.0
 40
0.0
 40
0.0
 40
1.0
 40
1.0
 40
1.0
 40
1.0
 10
15.023264374
 20
10.4067694463
 30
0.0
 10
15.0236842082
 20
10.4059787661
 30
0.0
 10
15.0239106078
 20
10.4050545853
 30
0.0
 10
15.0238975021
 20
10.4041594517
 30
0.0
  0
SPLINE
  5
4BD
100
AcDbEntity
  8
0
100
AcDbSpline
 62
7
  6
CONTINUOUS
 70
0
 71
3
 72
8
 73
4
 74
0
 42
0.0000001
 43
0.0000001
 44
0.0000000001
 40
0.0
 40
0.0
 40
0.0
 40
0.0
 40
1.0
 40
1.0
 40
1.0
 40
1.0
 10
15.0238975021
 20
10.4041594517
 30
0.0
 10
15.023883885
 20
10.4032293875
 30
0.0
 10
15.0236209952
 20
10.402284905
 30
0.0
 10
15.0231918429
 20
10.4014596577
 30
0.0
  0
SPLINE
  5
4BE
100
AcDbEntity
  8
0
100
AcDbSpline
 62
7
  6
CONTINUOUS
 70
0
 71
3
 72
9
 73
5
 74
0
 42
0.0000001
 43
0.0000001
 44
0.0000000001
 40
0.0
 40
0.0
 40
0.0
 40
0.0
 40
0.5168980955
 40
1.0
 40
1.0
 40
1.0
 40
1.0
 10
15.0327602297
 20
10.3571161537
 30
0.0
 10
15.0342217677
 20
10.3599266485
 30
0.0
 10
15.040509142
 20
10.3634950701
 30
0.0
 10
15.0476147863
 20
10.3608431759
 30
0.0
 10
15.0490032527
 20
10.3582282559
 30
0.0
  0
SPLINE
  5
4BF
100
AcDbEntity
  8
0
100
AcDbSpline
 62
7
  6
CONTINUOUS
 70
0
 71
3
 72
8
 73
4
 74
0
 42
0.0000001
 43
0.0000001
 44
0.0000000001
 40
0.0
 40
0.0
 40
0.0
 40
0.0
 40
1.0
 40
1.0
 40
1.0
 40
1.0
 10
15.0490032527
 20
10.3582282559
 30
0.0
 10
15.0494230869
 20
10.3574375757
 30
0.0
 10
15.0496494865
 20
10.3565133948
 30
0.0
 10
15.0496363808
 20
10.3556182612
 30
0.0
  0
SPLINE
  5
4C0
100
AcDbEntity
  8
0
100
AcDbSpline
 62
7
  6
CONTINUOUS
 70
0
 71
3
 72
8
 73
4
 74
0
 42
0.0000001
 43
0.0000001
 44
0.0000000001
 40
0.0
 40
0.0
 40
0.0
 40
0.0
 40
1.0
 40
1.0
 40
1.0
 40
1.0
 10
15.0496363808
 20
10.3556182612
 30
0.0
 10
15.0496227637
 20
10.3546881971
 30
0.0
 10
15.0493598739
 20
10.3537437145
 30
0.0
 10
15.0489307216
 20
10.3529184672
 30
0.0
  0
SPLINE
  5
4C1
100
AcDbEntity
  8
02___PRT_ALL_AXES
100
AcDbSpline
 62
7
  6
CONTINUOUS
 70
0
 71
3
 72
8
 73
4
 74
0
 42
0.0000001
 43
0.0000001
 44
0.0000000001
 40
0.0
 40
0.0
 40
0.0
 40
0.0
 40
1.0
 40
1.0
 40
1.0
 40
1.0
 10
14.7286352731
 20
10.4824595995
 30
0.0
 10
14.72760914
 20
10.4804872849
 30
0.0
 10
14.7274491007
 20
10.478013283
 30
0.0
 10
14.7278816046
 20
10.4758324771
 30
0.0
  0
SPLINE
  5
4C2
100
AcDbEntity
  8
0
100
AcDbSpline
 62
7
  6
CONTINUOUS
 70
0
 71
3
 72
8
 73
4
 74
0
 42
0.0000001
 43
0.0000001
 44
0.0000000001
 40
0.0
 40
0.0
 40
0.0
 40
0.0
 40
1.0
 40
1.0
 40
1.0
 40
1.0
 10
15.0489307216
 20
10.3529184672
 30
0.0
 10
15.0484586199
 20
10.3520106296
 30
0.0
 10
15.0477734839
 20
10.3511994765
 30
0.0
 10
15.0469934716
 20
10.3505371849
 30
0.0
  0
SPLINE
  5
4C3
100
AcDbEntity
  8
0
100
AcDbSpline
 62
7
  6
CONTINUOUS
 70
0
 71
3
 72
8
 73
4
 74
0
 42
0.0000001
 43
0.0000001
 44
0.0000000001
 40
0.0
 40
0.0
 40
0.0
 40
0.0
 40
1.0
 40
1.0
 40
1.0
 40
1.0
 10
15.0469934716
 20
10.3505371849
 30
0.0
 10
15.046145051
 20
10.3498168093
 30
0.0
 10
15.0451550193
 20
10.3492451149
 30
0.0
 10
15.0441191194
 20
10.3488380892
 30
0.0
  0
SPLINE
  5
4C4
100
AcDbEntity
  8
0
100
AcDbSpline
 62
7
  6
CONTINUOUS
 70
0
 71
3
 72
8
 73
4
 74
0
 42
0.0000001
 43
0.0000001
 44
0.0000000001
 40
0.0
 40
0.0
 40
0.0
 40
0.0
 40
1.0
 40
1.0
 40
1.0
 40
1.0
 10
15.0441191194
 20
10.3488380892
 30
0.0
 10
15.0420276595
 20
10.3480163129
 30
0.0
 10
15.039568488
 20
10.3478141206
 30
0.0
 10
15.0373934497
 20
10.3483786819
 30
0.0
  0
SPLINE
  5
4C5
100
AcDbEntity
  8
0
100
AcDbSpline
 62
7
  6
CONTINUOUS
 70
0
 71
3
 72
9
 73
5
 74
0
 42
0.0000001
 43
0.0000001
 44
0.0000000001
 40
0.0
 40
0.0
 40
0.0
 40
0.0
 40
0.5230441223
 40
1.0
 40
1.0
 40
1.0
 40
1.0
 10
15.0373934497
 20
10.3483786819
 30
0.0
 10
15.0355148455
 20
10.3488662996
 30
0.0
 10
15.0318058147
 20
10.3510979575
 30
0.0
 10
15.0319436749
 20
10.3555459428
 30
0.0
 10
15.0327602297
 20
10.3571161537
 30
0.0
  0
SPLINE
  5
4C6
100
AcDbEntity
  8
0
100
AcDbSpline
 62
7
  6
CONTINUOUS
 70
0
 71
3
 72
9
 73
5
 74
0
 42
0.0000001
 43
0.0000001
 44
0.0000000001
 40
0.0
 40
0.0
 40
0.0
 40
0.0
 40
0.2445998404
 40
1.0
 40
1.0
 40
1.0
 40
1.0
 10
14.9088101251
 20
10.3306887589
 30
0.0
 10
14.9044148158
 20
10.3318297341
 30
0.0
 10
14.886091717
 20
10.3350606931
 30
0.0
 10
14.8668894754
 20
10.3327604545
 30
0.0
 10
14.8536016854
 20
10.3282764172
 30
0.0
  0
SPLINE
  5
4C7
100
AcDbEntity
  8
0
100
AcDbSpline
 62
7
  6
CONTINUOUS
 70
0
 71
3
 72
9
 73
5
 74
0
 42
0.0000001
 43
0.0000001
 44
0.0000000001
 40
0.0
 40
0.0
 40
0.0
 40
0.0
 40
0.5006383627
 40
1.0
 40
1.0
 40
1.0
 40
1.0
 10
13.6790168634
 20
10.7042184189
 30
0.0
 10
13.6871916062
 20
10.7199382084
 30
0.0
 10
13.7214393155
 20
10.7413770925
 30
0.0
 10
13.7612677799
 20
10.734232243
 30
0.0
 10
13.7746195585
 20
10.7226534243
 30
0.0
  0
SPLINE
  5
4C8
100
AcDbEntity
  8
0
100
AcDbSpline
 62
7
  6
CONTINUOUS
 70
0
 71
3
 72
11
 73
7
 74
0
 42
0.0000001
 43
0.0000001
 44
0.0000000001
 40
0.0
 40
0.0
 40
0.0
 40
0.0
 40
0.2507858052
 40
0.5245510776
 40
0.7804209263
 40
1.0
 40
1.0
 40
1.0
 40
1.0
 10
13.6678069687
 20
10.7521486881
 30
0.0
 10
13.6730889797
 20
10.7623058403
 30
0.0
 10
13.6922477505
 20
10.7793976172
 30
0.0
 10
13.7281136406
 20
10.7874522086
 30
0.0
 10
13.7630859529
 20
10.7788646969
 30
0.0
 10
13.7776827867
 20
10.75947646
 30
0.0
 10
13.7796352225
 20
10.7496445776
 30
0.0
  0
SPLINE
  5
4C9
100
AcDbEntity
  8
0
100
AcDbSpline
 62
7
  6
CONTINUOUS
 70
0
 71
3
 72
9
 73
5
 74
0
 42
0.0000001
 43
0.0000001
 44
0.0000000001
 40
0.0
 40
0.0
 40
0.0
 40
0.0
 40
0.5009657095
 40
1.0
 40
1.0
 40
1.0
 40
1.0
 10
13.6769787787
 20
10.7059018506
 30
0.0
 10
13.685464327
 20
10.7222193108
 30
0.0
 10
13.7210403683
 20
10.7444301292
 30
0.0
 10
13.7623884992
 20
10.736854039
 30
0.0
 10
13.7761378703
 20
10.724745547
 30
0.0
  0
SPLINE
  5
4CA
100
AcDbEntity
  8
0
100
AcDbSpline
 62
7
  6
CONTINUOUS
 70
0
 71
3
 72
8
 73
4
 74
0
 42
0.0000001
 43
0.0000001
 44
0.0000000001
 40
0.0
 40
0.0
 40
0.0
 40
0.0
 40
1.0
 40
1.0
 40
1.0
 40
1.0
 10
15.007503707
 20
10.4014182283
 30
0.0
 10
15.007280418
 20
10.4025427844
 30
0.0
 10
15.007511425
 20
10.4037984377
 30
0.0
 10
15.0080403934
 20
10.4048156284
 30
0.0
  0
SPLINE
  5
4CB
100
AcDbEntity
  8
0
100
AcDbSpline
 62
7
  6
CONTINUOUS
 70
0
 71
3
 72
9
 73
5
 74
0
 42
0.0000001
 43
0.0000001
 44
0.0000000001
 40
0.0
 40
0.0
 40
0.0
 40
0.0
 40
0.529866742
 40
1.0
 40
1.0
 40
1.0
 40
1.0
 10
13.7489235192
 20
10.8070162595
 30
0.0
 10
13.7503441143
 20
10.8097480222
 30
0.0
 10
13.7565780712
 20
10.8131544685
 30
0.0
 10
13.7633019143
 20
10.8093620202
 30
0.0
 10
13.7638339762
 20
10.8066823827
 30
0.0
  0
SPLINE
  5
4CC
100
AcDbEntity
  8
0
100
AcDbSpline
 62
7
  6
CONTINUOUS
 70
0
 71
3
 72
9
 73
5
 74
0
 42
0.0000001
 43
0.0000001
 44
0.0000000001
 40
0.0
 40
0.0
 40
0.0
 40
0.0
 40
0.529866742
 40
1.0
 40
1.0
 40
1.0
 40
1.0
 10
13.6798785635
 20
10.6742448389
 30
0.0
 10
13.6812991586
 20
10.6769766015
 30
0.0
 10
13.6875331155
 20
10.6803830479
 30
0.0
 10
13.6942569586
 20
10.6765905995
 30
0.0
 10
13.6947890205
 20
10.6739109621
 30
0.0
  0
SPLINE
  5
4CD
100
AcDbEntity
  8
0
100
AcDbSpline
 62
7
  6
CONTINUOUS
 70
0
 71
3
 72
8
 73
4
 74
0
 42
0.0000001
 43
0.0000001
 44
0.0000000001
 40
0.0
 40
0.0
 40
0.0
 40
0.0
 40
1.0
 40
1.0
 40
1.0
 40
1.0
 10
15.0332425856
 20
10.3528770378
 30
0.0
 10
15.0330192967
 20
10.3540015939
 30
0.0
 10
15.0332503037
 20
10.3552572472
 30
0.0
 10
15.0337792721
 20
10.3562744379
 30
0.0
  0
SPLINE
  5
4CE
100
AcDbEntity
  8
0
100
AcDbSpline
 62
7
  6
CONTINUOUS
 70
0
 71
3
 72
10
 73
6
 74
0
 42
0.0000001
 43
0.0000001
 44
0.0000000001
 40
0.0
 40
0.0
 40
0.0
 40
0.0
 40
0.515508118
 40
0.7762518518
 40
1.0
 40
1.0
 40
1.0
 40
1.0
 10
15.0422812622
 20
10.3953498822
 30
0.0
 10
15.0458362062
 20
10.4021859356
 30
0.0
 10
15.0591028367
 20
10.408197988
 30
0.0
 10
15.0740180636
 20
10.4042321781
 30
0.0
 10
15.0789432329
 20
10.397794795
 30
0.0
 10
15.0795937222
 20
10.3945143711
 30
0.0
  0
SPLINE
  5
4CF
100
AcDbEntity
  8
0
100
AcDbSpline
 62
7
  6
CONTINUOUS
 70
0
 71
3
 72
9
 73
5
 74
0
 42
0.0000001
 43
0.0000001
 44
0.0000000001
 40
0.0
 40
0.0
 40
0.0
 40
0.0
 40
0.2357585726
 40
1.0
 40
1.0
 40
1.0
 40
1.0
 10
14.4583229945
 20
10.4308865319
 30
0.0
 10
14.4562670501
 20
10.4341305542
 30
0.0
 10
14.4460029209
 20
10.4469249256
 30
0.0
 10
14.4305084285
 20
10.4548507566
 30
0.0
 10
14.4184578783
 20
10.4579789504
 30
0.0
  0
SPLINE
  5
4D0
100
AcDbEntity
  8
0
100
AcDbSpline
 62
7
  6
CONTINUOUS
 70
0
 71
3
 72
8
 73
4
 74
0
 42
0.0000001
 43
0.0000001
 44
0.0000000001
 40
0.0
 40
0.0
 40
0.0
 40
0.0
 40
1.0
 40
1.0
 40
1.0
 40
1.0
 10
14.5775038741
 20
10.4580820442
 30
0.0
 10
14.5769464402
 20
10.4608936063
 30
0.0
 10
14.5775232797
 20
10.4640325816
 30
0.0
 10
14.5788457076
 20
10.4665755716
 30
0.0
  0
SPLINE
  5
4D1
100
AcDbEntity
  8
0
100
AcDbSpline
 62
7
  6
CONTINUOUS
 70
0
 71
3
 72
9
 73
5
 74
0
 42
0.0000001
 43
0.0000001
 44
0.0000000001
 40
0.0
 40
0.0
 40
0.0
 40
0.0
 40
0.4832357352
 40
1.0
 40
1.0
 40
1.0
 40
1.0
 10
14.6248756781
 20
10.555089852
 30
0.0
 10
14.6270309086
 20
10.5592342969
 30
0.0
 10
14.6353953949
 20
10.5657200975
 30
0.0
 10
14.6456793548
 20
10.5664333016
 30
0.0
 10
14.650514553
 20
10.5651781359
 30
0.0
  0
SPLINE
  5
4D2
100
AcDbEntity
  8
0
100
AcDbSpline
 62
7
  6
CONTINUOUS
 70
0
 71
3
 72
9
 73
5
 74
0
 42
0.0000001
 43
0.0000001
 44
0.0000000001
 40
0.0
 40
0.0
 40
0.0
 40
0.0
 40
0.529866742
 40
1.0
 40
1.0
 40
1.0
 40
1.0
 10
15.0721375808
 20
10.4300363383
 30
0.0
 10
15.0735581759
 20
10.4327681009
 30
0.0
 10
15.0797921328
 20
10.4361745472
 30
0.0
 10
15.0865159759
 20
10.4323820989
 30
0.0
 10
15.0870480378
 20
10.4297024615
 30
0.0
  0
SPLINE
  5
4D3
100
AcDbEntity
  8
0
100
AcDbSpline
 62
7
  6
CONTINUOUS
 70
0
 71
3
 72
9
 73
5
 74
0
 42
0.0000001
 43
0.0000001
 44
0.0000000001
 40
0.0
 40
0.0
 40
0.0
 40
0.0
 40
0.5290082032
 40
1.0
 40
1.0
 40
1.0
 40
1.0
 10
13.6035684216
 20
10.6695155259
 30
0.0
 10
13.5978965004
 20
10.6709878959
 30
0.0
 10
13.5874394028
 20
10.6760161144
 30
0.0
 10
13.5813082996
 20
10.6862437843
 30
0.0
 10
13.5802936517
 20
10.6913614235
 30
0.0
  0
SPLINE
  5
4D4
100
AcDbEntity
  8
0
100
AcDbSpline
 62
7
  6
CONTINUOUS
 70
0
 71
3
 72
9
 73
5
 74
0
 42
0.0000001
 43
0.0000001
 44
0.0000000001
 40
0.0
 40
0.0
 40
0.0
 40
0.0
 40
0.529866742
 40
1.0
 40
1.0
 40
1.0
 40
1.0
 10
15.0978764595
 20
10.3814951478
 30
0.0
 10
15.0992970546
 20
10.3842269104
 30
0.0
 10
15.1055310114
 20
10.3876333567
 30
0.0
 10
15.1122548546
 20
10.3838409084
 30
0.0
 10
15.1127869165
 20
10.381161271
 30
0.0
  0
SPLINE
  5
4D5
100
AcDbEntity
  8
0
100
AcDbSpline
 62
7
  6
CONTINUOUS
 70
0
 71
3
 72
9
 73
5
 74
0
 42
0.0000001
 43
0.0000001
 44
0.0000000001
 40
0.0
 40
0.0
 40
0.0
 40
0.0
 40
0.529866742
 40
1.0
 40
1.0
 40
1.0
 40
1.0
 10
15.0337792721
 20
10.3562744379
 30
0.0
 10
15.0351998672
 20
10.3590062005
 30
0.0
 10
15.041433824
 20
10.3624126469
 30
0.0
 10
15.0481576672
 20
10.3586201986
 30
0.0
 10
15.0486897291
 20
10.3559405611
 30
0.0
  0
SPLINE
  5
4D6
100
AcDbEntity
  8
0
100
AcDbSpline
 62
7
  6
CONTINUOUS
 70
0
 71
3
 72
9
 73
5
 74
0
 42
0.0000001
 43
0.0000001
 44
0.0000000001
 40
0.0
 40
0.0
 40
0.0
 40
0.0
 40
0.4832357352
 40
1.0
 40
1.0
 40
1.0
 40
1.0
 10
15.7749773318
 20
10.1393287513
 30
0.0
 10
15.7706668708
 20
10.1310398615
 30
0.0
 10
15.7539378982
 20
10.1180682603
 30
0.0
 10
15.7333699782
 20
10.1166418521
 30
0.0
 10
15.7236995818
 20
10.1191521834
 30
0.0
  0
SPLINE
  5
4D7
100
AcDbEntity
  8
0
100
AcDbSpline
 62
7
  6
CONTINUOUS
 70
0
 71
3
 72
9
 73
5
 74
0
 42
0.0000001
 43
0.0000001
 44
0.0000000001
 40
0.0
 40
0.0
 40
0.0
 40
0.0
 40
0.529866742
 40
1.0
 40
1.0
 40
1.0
 40
1.0
 10
15.0080403934
 20
10.4048156284
 30
0.0
 10
15.0094609885
 20
10.407547391
 30
0.0
 10
15.0156949453
 20
10.4109538373
 30
0.0
 10
15.0224187885
 20
10.407161389
 30
0.0
 10
15.0229508504
 20
10.4044817516
 30
0.0
  0
SPLINE
  5
4D8
100
AcDbEntity
  8
0
100
AcDbSpline
 62
7
  6
CONTINUOUS
 70
0
 71
3
 72
9
 73
5
 74
0
 42
0.0000001
 43
0.0000001
 44
0.0000000001
 40
0.0
 40
0.0
 40
0.0
 40
0.0
 40
0.2780878212
 40
1.0
 40
1.0
 40
1.0
 40
1.0
 10
14.8301866853
 20
10.5185371747
 30
0.0
 10
14.8316600817
 20
10.5181546968
 30
0.0
 10
14.8367939512
 20
10.5163012556
 30
0.0
 10
14.8410555483
 20
10.511490465
 30
0.0
 10
14.8418240702
 20
10.5076142259
 30
0.0
  0
SPLINE
  5
4D9
100
AcDbEntity
  8
0
100
AcDbSpline
 62
7
  6
CONTINUOUS
 70
0
 71
3
 72
8
 73
4
 74
0
 42
0.0000001
 43
0.0000001
 44
0.0000000001
 40
0.0
 40
0.0
 40
0.0
 40
0.0
 40
1.0
 40
1.0
 40
1.0
 40
1.0
 10
15.8390342927
 20
10.2743348466
 30
0.0
 10
15.8401491604
 20
10.2687117225
 30
0.0
 10
15.8389954815
 20
10.2624337719
 30
0.0
 10
15.8363506257
 20
10.2573477919
 30
0.0
  0
SPLINE
  5
4DA
100
AcDbEntity
  8
0
100
AcDbSpline
 62
7
  6
CONTINUOUS
 70
0
 71
3
 72
8
 73
4
 74
0
 42
0.0000001
 43
0.0000001
 44
0.0000000001
 40
0.0
 40
0.0
 40
0.0
 40
0.0
 40
1.0
 40
1.0
 40
1.0
 40
1.0
 10
15.0790636008
 20
10.38547611
 30
0.0
 10
15.078261585
 20
10.3842131686
 30
0.0
 10
15.0772970388
 20
10.3830438685
 30
0.0
 10
15.0762288154
 20
10.3819964197
 30
0.0
  0
SPLINE
  5
4DB
100
AcDbEntity
  8
0
100
AcDbSpline
 62
7
  6
CONTINUOUS
 70
0
 71
3
 72
9
 73
5
 74
0
 42
0.0000001
 43
0.0000001
 44
0.0000000001
 40
0.0
 40
0.0
 40
0.0
 40
0.0
 40
0.5207107296
 40
1.0
 40
1.0
 40
1.0
 40
1.0
 10
15.0762288154
 20
10.3819964197
 30
0.0
 10
15.0715932719
 20
10.377451027
 30
0.0
 10
15.058846263
 20
10.3724469738
 30
0.0
 10
15.045312598
 20
10.3771231149
 30
0.0
 10
15.0415639105
 20
10.3817768451
 30
0.0
  0
SPLINE
  5
4DC
100
AcDbEntity
  8
0
100
AcDbSpline
 62
7
  6
CONTINUOUS
 70
0
 71
3
 72
9
 73
5
 74
0
 42
0.0000001
 43
0.0000001
 44
0.0000000001
 40
0.0
 40
0.0
 40
0.0
 40
0.0
 40
0.4938618897
 40
1.0
 40
1.0
 40
1.0
 40
1.0
 10
15.0415639105
 20
10.3817768451
 30
0.0
 10
15.0399092901
 20
10.3838309391
 30
0.0
 10
15.0376654076
 20
10.3890982891
 30
0.0
 10
15.0389959986
 20
10.3946350256
 30
0.0
 10
15.0402431774
 20
10.3970333139
 30
0.0
  0
SPLINE
  5
4DD
100
AcDbEntity
  8
0
100
AcDbSpline
 62
7
  6
CONTINUOUS
 70
0
 71
3
 72
11
 73
7
 74
0
 42
0.0000001
 43
0.0000001
 44
0.0000000001
 40
0.0
 40
0.0
 40
0.0
 40
0.0
 40
0.2558809361
 40
0.5332679606
 40
0.7836851292
 40
1.0
 40
1.0
 40
1.0
 40
1.0
 10
15.0402431774
 20
10.3970333139
 30
0.0
 10
15.0423707553
 20
10.4011245828
 30
0.0
 10
15.0503745488
 20
10.4077977637
 30
0.0
 10
15.0647985916
 20
10.410089085
 30
0.0
 10
15.0783861558
 20
10.4049911275
 30
0.0
 10
15.0818866457
 20
10.3959047516
 30
0.0
 10
15.0814476907
 20
10.3920311845
 30
0.0
  0
SPLINE
  5
4DE
100
AcDbEntity
  8
0
100
AcDbSpline
 62
7
  6
CONTINUOUS
 70
0
 71
3
 72
8
 73
4
 74
0
 42
0.0000001
 43
0.0000001
 44
0.0000000001
 40
0.0
 40
0.0
 40
0.0
 40
0.0
 40
1.0
 40
1.0
 40
1.0
 40
1.0
 10
15.0814476907
 20
10.3920311845
 30
0.0
 10
15.0812405883
 20
10.3902036045
 30
0.0
 10
15.080654675
 20
10.3883950257
 30
0.0
 10
15.0798060826
 20
10.3867632074
 30
0.0
  0
ENDSEC
  0
SECTION
  2
OBJECTS
  0
DICTIONARY
  5
C
100
AcDbDictionary
280
0
281
1
  3
ACAD_GROUP
350
D
  3
ACAD_MLINESTYLE
350
17
  3
ACAD_LAYOUT
350
1A
  3
ACAD_PLOTSETTINGS
350
19
  3
ACAD_PLOTSTYLENAME
350
E
  3
ACAD_IMAGE_DICT
350
       4E0
  3
ACAD_IMAGE_VARS
350
       4E1
  3
ACAD_TABLESTYLE
350
       4E2
  0
IMAGEDEF_REACTOR
  5
4DF
100
AcDbRasterImageDefReactor
 90
2
330
37A
  0
DICTIONARY
  5
D
102
{ACAD_REACTORS
330
C
102
}
100
AcDbDictionary
280
0
281
1
  0
ACDBDICTIONARYWDFLT
  5
E
102
{ACAD_REACTORS
330
C
102
}
100
AcDbDictionary
281
1
  3
Normal
350
F
100
AcDbDictionaryWithDefault
340
F
  0
DICTIONARY
  5
4E0
330
C
100
AcDbDictionary
281
1
  3
hinge_v3_img_1
350
       4E5
  0
RASTERVARIABLES
  5
4E1
330
C
100
AcDbRasterVariables
 90
0
 70
0
 71
1
 72
5
  0
DICTIONARY
  5
17
102
{ACAD_REACTORS
330
C
102
}
100
AcDbDictionary
280
0
281
1
  3
Standard
350
18
  0
DICTIONARY
  5
4E2
330
C
100
AcDbDictionary
281
1
  3
Standard
350
       4E6
  3
Standard1
350
       4E7
  0
DICTIONARY
  5
19
102
{ACAD_REACTORS
330
C
102
}
100
AcDbDictionary
281
1
  0
DICTIONARY
  5
1A
102
{ACAD_REACTORS
330
C
102
}
100
AcDbDictionary
281
1
  3
Model
350
4E3
  3
Layout1
350
4E4
  0
ACDBPLACEHOLDER
  5
F
102
{ACAD_REACTORS
330
E
102
}
  0
MLINESTYLE
  5
18
102
{ACAD_REACTORS
330
17
102
}
100
AcDbMlineStyle
  2
STANDARD
 70
0
  3

 62
256
 51
90.0
 52
90.0
 71
2
 49
0.5
 62
256
  6
BYLAYER
 49
-0.5
 62
256
  6
BYLAYER
  0
LAYOUT
  5
4E3
102
{ACAD_REACTORS
330
1A
102
}
100
AcDbPlotSettings
  1

  2
none_device
  4
ISO_A3_(420.00_x_297.00_MM)
  6

 40
0.0
 41
0.0
 42
0.0
 43
0.0
 44
420.0
 45
297.0
 46
0.0
 47
0.0
 48
0.0
 49
0.0
140
0.0
141
0.0
142
1.0
143
1.0
 70
1024
 72
0
 73
0
 74
0
  7

 75
0
147
1.0
148
0.0
149
0.0
100
AcDbLayout
  1
Model
 70
0
 71
0
 10
0.0
 20
0.0
 11
16.5354330709
 21
11.6929133858
 12
0.0
 22
0.0
 32
0.0
 14
0.0
 24
0.0
 34
0.0
 15
0.0
 25
0.0
 35
0.0
146
0.0
 13
0.0
 23
0.0
 33
0.0
 16
1.0
 26
0.0
 36
0.0
 17
0.0
 27
1.0
 37
0.0
 76
0
330
208
345
0
346
0
  0
LAYOUT
  5
4E4
102
{ACAD_REACTORS
330
1A
102
}
100
AcDbPlotSettings
  1

  2
none_device
  4
ISO_A3_(420.00_x_297.00_MM)
  6

 40
0.0
 41
0.0
 42
0.0
 43
0.0
 44
420.0
 45
297.0
 46
0.0
 47
0.0
 48
0.0
 49
0.0
140
0.0
141
0.0
142
1.0
143
1.0
 70
0
 72
0
 73
0
 74
0
  7

 75
0
147
1.0
148
0.0
149
0.0
100
AcDbLayout
  1
Layout1
 70
0
 71
1
 10
0.0
 20
0.0
 11
16.5354330709
 21
11.6929133858
 12
0.0
 22
0.0
 32
0.0
 14
0.0
 24
0.0
 34
0.0
 15
0.0
 25
0.0
 35
0.0
146
0.0
 13
0.0
 23
0.0
 33
0.0
 16
1.0
 26
0.0
 36
0.0
 17
0.0
 27
1.0
 37
0.0
 76
0
330
209
345
0
346
0
  0
IMAGEDEF
  5
4E5
102
{ACAD_REACTORS
330
4E0
330
4DF
102
}
100
AcDbRasterImageDef
 90
0
  1
hinge_v3_img_1.png
 10
349.0
 20
111.0
 11
0.0066666667
 21
0.0066666667
280
1
281
0
  0
TABLESTYLE
  5
4E6
102
{ACAD_REACTORS
330
4E2
330
393
330
394
330
395
330
396
330
397
330
398
102
}
330
4E2
100
AcDbTableStyle
  3
Standard
 70
0
 71
0
 40
0.06
 41
0.06
280
1
281
1
  7
Standard
140
0.18
170
1
 62
0
 63
7
283
0
  7
Standard
140
0.18
170
1
 62
0
 63
7
283
0
  7
Standard
140
0.18
170
1
 62
0
 63
7
283
0
  0
TABLESTYLE
  5
4E7
102
{ACAD_REACTORS
330
4E2
102
}
330
4E2
100
AcDbTableStyle
  3
Standard1
 70
1
 71
0
 40
0.06
 41
0.06
280
1
281
1
  7
Standard
140
0.18
170
1
 62
0
 63
7
283
0
  7
Standard
140
0.18
170
1
 62
0
 63
7
283
0
  7
Standard
140
0.18
170
1
 62
0
 63
7
283
0
  0
ENDSEC
  0
EOF
