999
DXF file: C:\Users\Harry\OneDrive - Loughborough University\3rd Year Notes\17MMD550 - Individual Project\5. CAD Models\Creo Rig Design\v_new\Drawings\DXF\bracket-holder_short.dxf
999
Pro/ENGINEER 2014440 by Parametric Technology Corporation
  0
SECTION
  2
HEADER
  9
$ACADVER
  1
AC1027
  9
$DWGCODEPAGE
  3
ANSI_1252
  9
$EXTMAX
 10
16.5354330709
 20
11.6929133858
 30
0.0
  9
$EXTMIN
 10
0.0
 20
0.0
 30
0.0
  9
$LIMMIN
 10
0.0
 20
0.0
  9
$LIMMAX
 10
16.5354330709
 20
11.6929133858
  9
$VIEWCTR
 10
8.2677165354
 20
5.8464566929
  9
$VIEWSIZE
 40
11.6929133858
  9
$CLAYER
  8
0
  9
$LTSCALE
 40
0.9094488189
  9
$CELTYPE
  6
BYLAYER
  9
$DIMSCALE
 40
1.0
  9
$DIMASZ
 40
0.1875
  9
$DIMEXO
 40
0.0625
  9
$DIMDLI
 40
0.6283464567
  9
$DIMEXE
 40
0.125
  9
$DIMCEN
 40
0.1488188976
  9
$DIMLFAC
 40
1.0
  9
$DIMBLK
  1
_CLOSED
  9
$DIMALT
 70
0
  9
$DIMALTF
 40
25.4
  9
$DIMTXT
 40
0.15625
  9
$DIMTOL
 70
1
  9
$DIMLIM
 70
0
  9
$DIMTFAC
 40
1.0
  9
$DIMTP
 40
0.01
  9
$DIMTM
 40
0.01
  9
$DIMGAP
 40
0.09
  9
$DIMDSEP
 70
46
  9
$AUNITS
 70
0
  9
$PDMODE
 70
3
  9
$PDSIZE
 40
0.3125
  9
$HANDSEED
  5
594
  9
$TILEMODE
 70
1
  9
$MEASUREMENT
 70
0
  9
$INSUNITS
 70
1
  0
ENDSEC
  0
SECTION
  2
CLASSES
  0
CLASS
  1
ACDBDICTIONARYWDFLT
  2
AcDbDictionaryWithDefault
  3
AutoCAD 2000
 90
0
 91
1
280
0
281
0
  0
CLASS
  1
ACDBPLACEHOLDER
  2
AcDbPlaceHolder
  3
AutoCAD 2000
 90
0
 91
1
280
0
281
0
  0
CLASS
  1
LAYOUT
  2
AcDbLayout
  3
AutoCAD 2000
 90
0
 91
0
280
0
281
0
  0
CLASS
  1
TABLESTYLE
  2
AcDbTableStyle
  3
ObjectDBX Classes
 90
2047
 91
1
280
0
281
0
  0
CLASS
  1
ACAD_TABLE
  2
AcDbTable
  3
ObjectDBX Classes
 90
1025
 91
6
280
0
281
1
  0
ENDSEC
  0
SECTION
  2
TABLES
  0
TABLE
  2
VPORT
  5
8
100
AcDbSymbolTable
 70
2
  0
VPORT
  5
1F4
100
AcDbSymbolTableRecord
100
AcDbViewportTableRecord
  2
*ACTIVE
 70
0
 10
0.0
 20
0.0
 11
1.0
 21
1.0
 12
8.2677165354
 22
5.8464566929
 13
0.0
 23
0.0
 14
1.0
 24
1.0
 15
0.0
 25
0.0
 16
0.0
 26
0.0
 36
1.0
 17
0.0
 27
0.0
 37
0.0
 40
11.6929133858
 41
1.4141414141
 42
50.0
 43
0.0
 44
0.0
 50
0.0
 51
0.0
 71
0
 72
100
 73
1
 74
1
 75
0
 76
0
 77
0
 78
0
  0
ENDTAB
  0
TABLE
  2
LTYPE
  5
5
100
AcDbSymbolTable
 70
6
  0
LTYPE
  5
14
100
AcDbSymbolTableRecord
100
AcDbLinetypeTableRecord
  2
BYBLOCK
 70
0
  3

 72
65
 73
0
 40
0.0
  0
LTYPE
  5
15
100
AcDbSymbolTableRecord
100
AcDbLinetypeTableRecord
  2
BYLAYER
 70
0
  3

 72
65
 73
0
 40
0.0
  0
LTYPE
  5
16
100
AcDbSymbolTableRecord
100
AcDbLinetypeTableRecord
  2
CONTINUOUS
 70
64
  3
Solid line
 72
65
 73
0
 40
0.0
  0
LTYPE
  5
1F5
100
AcDbSymbolTableRecord
100
AcDbLinetypeTableRecord
  2
CENTER
 70
64
  3
____ _ ____ _ ____ _ ____ _ ____ _ ____ _ ____
 72
65
 73
4
 40
0.6
 49
0.375
 74
0
 49
-0.075
 74
0
 49
0.075
 74
0
 49
-0.075
 74
0
  0
LTYPE
  5
1F6
100
AcDbSymbolTableRecord
100
AcDbLinetypeTableRecord
  2
HIDDEN
 70
64
  3
- - - - - - - - - - - - - - - - - - - -
 72
65
 73
2
 40
0.2
 49
0.1
 74
0
 49
-0.1
 74
0
  0
LTYPE
  5
1F7
100
AcDbSymbolTableRecord
100
AcDbLinetypeTableRecord
  2
PHANTOM
 70
64
  3
_____ _ _ _____ _ _ _____ _ _ _____
 72
65
 73
6
 40
0.8
 49
0.45
 74
0
 49
-0.05
 74
0
 49
0.1
 74
0
 49
-0.05
 74
0
 49
0.1
 74
0
 49
-0.05
 74
0
  0
LTYPE
  5
1F8
100
AcDbSymbolTableRecord
100
AcDbLinetypeTableRecord
  2
DOT
 70
64
  3
. . . . . . . . . . . . . . . . . . . .
 72
65
 73
2
 40
0.2
 49
0.1
 74
0
 49
-0.1
 74
0
  0
LTYPE
  5
1F9
100
AcDbSymbolTableRecord
100
AcDbLinetypeTableRecord
  2
DASHED
 70
64
  3
- - - - - - - - - - - - - - - - - - - -
 72
65
 73
2
 40
0.2
 49
0.1
 74
0
 49
-0.1
 74
0
  0
ENDTAB
  0
TABLE
  2
LAYER
  5
2
100
AcDbSymbolTable
 70
36
  0
LAYER
  5
10
100
AcDbSymbolTableRecord
100
AcDbLayerTableRecord
  2
0
 70
0
 62
7
  6
CONTINUOUS
370
-3
390
F
  0
LAYER
  5
1FA
100
AcDbSymbolTableRecord
100
AcDbLayerTableRecord
  2
DEFAULT_1
 70
0
 62
7
  6
CENTER
370
-3
390
F
  0
LAYER
  5
1FB
100
AcDbSymbolTableRecord
100
AcDbLayerTableRecord
  2
DEFAULT_2
 70
0
 62
8
  6
HIDDEN
370
-3
390
F
  0
LAYER
  5
1FC
100
AcDbSymbolTableRecord
100
AcDbLayerTableRecord
  2
DEFAULT_3
 70
0
 62
7
  6
PHANTOM
370
-3
390
F
  0
LAYER
  5
1FD
100
AcDbSymbolTableRecord
100
AcDbLayerTableRecord
  2
01___PRT_ALL_DTM_PLN
 70
0
 62
7
  6
CONTINUOUS
370
-3
390
F
  0
LAYER
  5
1FE
100
AcDbSymbolTableRecord
100
AcDbLayerTableRecord
  2
01___PRT_DEF_DTM_PLN
 70
0
 62
7
  6
CONTINUOUS
370
-3
390
F
  0
LAYER
  5
1FF
100
AcDbSymbolTableRecord
100
AcDbLayerTableRecord
  2
02___PRT_ALL_AXES
 70
0
 62
7
  6
CONTINUOUS
370
-3
390
F
  0
LAYER
  5
200
100
AcDbSymbolTableRecord
100
AcDbLayerTableRecord
  2
03___PRT_ALL_CURVES
 70
0
 62
7
  6
CONTINUOUS
370
-3
390
F
  0
LAYER
  5
201
100
AcDbSymbolTableRecord
100
AcDbLayerTableRecord
  2
04___PRT_ALL_DTM_PNT
 70
0
 62
7
  6
CONTINUOUS
370
-3
390
F
  0
LAYER
  5
202
100
AcDbSymbolTableRecord
100
AcDbLayerTableRecord
  2
05___PRT_ALL_DTM_CSYS
 70
0
 62
7
  6
CONTINUOUS
370
-3
390
F
  0
LAYER
  5
203
100
AcDbSymbolTableRecord
100
AcDbLayerTableRecord
  2
05___PRT_DEF_DTM_CSYS
 70
0
 62
7
  6
CONTINUOUS
370
-3
390
F
  0
LAYER
  5
204
100
AcDbSymbolTableRecord
100
AcDbLayerTableRecord
  2
06___PRT_ALL_SURFS
 70
0
 62
7
  6
CONTINUOUS
370
-3
390
F
  0
LAYER
  5
205
100
AcDbSymbolTableRecord
100
AcDbLayerTableRecord
  2
3_ALL_SYMBOLS
 70
0
 62
7
  6
CONTINUOUS
370
-3
390
F
  0
ENDTAB
  0
TABLE
  2
STYLE
  5
3
100
AcDbSymbolTable
 70
1
  0
STYLE
  5
11
100
AcDbSymbolTableRecord
100
AcDbTextStyleTableRecord
  2
STANDARD
 70
0
 40
0.0
 41
0.8
 50
0.0
 71
0
 42
0.2
  3
txt
  4

  0
STYLE
  5
206
100
AcDbSymbolTableRecord
100
AcDbTextStyleTableRecord
  2
TEXTSTYLE_1
 70
0
 40
0.0
 41
0.8
 50
0.0
 71
0
 42
0.2
  3
gdt
  4

  0
ENDTAB
  0
TABLE
  2
VIEW
  5
6
100
AcDbSymbolTable
 70
0
  0
ENDTAB
  0
TABLE
  2
UCS
  5
7
100
AcDbSymbolTable
 70
0
  0
ENDTAB
  0
TABLE
  2
APPID
  5
9
100
AcDbSymbolTable
 70
1
  0
APPID
  5
207
100
AcDbSymbolTableRecord
100
AcDbRegAppTableRecord
  2
ACAD
 70
0
  0
ENDTAB
  0
TABLE
  2
BLOCK_RECORD
  5
1
100
AcDbSymbolTable
 70
0
  0
BLOCK_RECORD
  5
208
100
AcDbSymbolTableRecord
100
AcDbBlockTableRecord
  2
*Model_Space
  0
BLOCK_RECORD
  5
209
100
AcDbSymbolTableRecord
100
AcDbBlockTableRecord
  2
*Paper_Space
  0
BLOCK_RECORD
  5
20A
100
AcDbSymbolTableRecord
100
AcDbBlockTableRecord
  2
_CLOSED
  0
BLOCK_RECORD
  5
20B
100
AcDbSymbolTableRecord
100
AcDbBlockTableRecord
  2
*D0
  0
BLOCK_RECORD
  5
20C
100
AcDbSymbolTableRecord
100
AcDbBlockTableRecord
  2
*D1
  0
BLOCK_RECORD
  5
20D
100
AcDbSymbolTableRecord
100
AcDbBlockTableRecord
  2
*D2
  0
BLOCK_RECORD
  5
20E
100
AcDbSymbolTableRecord
100
AcDbBlockTableRecord
  2
*D3
  0
BLOCK_RECORD
  5
20F
100
AcDbSymbolTableRecord
100
AcDbBlockTableRecord
  2
*D4
  0
BLOCK_RECORD
  5
210
100
AcDbSymbolTableRecord
100
AcDbBlockTableRecord
  2
*D5
  0
BLOCK_RECORD
  5
211
100
AcDbSymbolTableRecord
100
AcDbBlockTableRecord
  2
*D6
  0
BLOCK_RECORD
  5
212
100
AcDbSymbolTableRecord
100
AcDbBlockTableRecord
  2
*D7
  0
BLOCK_RECORD
  5
213
100
AcDbSymbolTableRecord
100
AcDbBlockTableRecord
  2
*D8
  0
BLOCK_RECORD
  5
214
100
AcDbSymbolTableRecord
100
AcDbBlockTableRecord
  2
*D9
  0
BLOCK_RECORD
  5
215
100
AcDbSymbolTableRecord
100
AcDbBlockTableRecord
  2
*D10
  0
BLOCK_RECORD
  5
216
100
AcDbSymbolTableRecord
100
AcDbBlockTableRecord
  2
*D11
  0
BLOCK_RECORD
  5
217
100
AcDbSymbolTableRecord
100
AcDbBlockTableRecord
  2
*D12
  0
BLOCK_RECORD
  5
218
100
AcDbSymbolTableRecord
100
AcDbBlockTableRecord
  2
*D13
  0
BLOCK_RECORD
  5
219
100
AcDbSymbolTableRecord
100
AcDbBlockTableRecord
  2
*D14
  0
BLOCK_RECORD
  5
21A
100
AcDbSymbolTableRecord
100
AcDbBlockTableRecord
  2
*D15
  0
BLOCK_RECORD
  5
21B
100
AcDbSymbolTableRecord
100
AcDbBlockTableRecord
  2
*D16
  0
BLOCK_RECORD
  5
21C
100
AcDbSymbolTableRecord
100
AcDbBlockTableRecord
  2
*D17
  0
BLOCK_RECORD
  5
21D
100
AcDbSymbolTableRecord
100
AcDbBlockTableRecord
  2
*D18
  0
BLOCK_RECORD
  5
21E
100
AcDbSymbolTableRecord
100
AcDbBlockTableRecord
  2
*D19
  0
BLOCK_RECORD
  5
21F
100
AcDbSymbolTableRecord
100
AcDbBlockTableRecord
  2
*D20
  0
BLOCK_RECORD
  5
220
100
AcDbSymbolTableRecord
100
AcDbBlockTableRecord
  2
*D21
  0
BLOCK_RECORD
  5
221
100
AcDbSymbolTableRecord
100
AcDbBlockTableRecord
  2
*D22
  0
BLOCK_RECORD
  5
222
100
AcDbSymbolTableRecord
100
AcDbBlockTableRecord
  2
*D23
  0
BLOCK_RECORD
  5
223
100
AcDbSymbolTableRecord
100
AcDbBlockTableRecord
  2
*D24
  0
BLOCK_RECORD
  5
224
100
AcDbSymbolTableRecord
100
AcDbBlockTableRecord
  2
*D25
  0
BLOCK_RECORD
  5
225
100
AcDbSymbolTableRecord
100
AcDbBlockTableRecord
  2
*D26
  0
BLOCK_RECORD
  5
226
100
AcDbSymbolTableRecord
100
AcDbBlockTableRecord
  2
*D27
  0
BLOCK_RECORD
  5
227
100
AcDbSymbolTableRecord
100
AcDbBlockTableRecord
  2
*T1
  0
BLOCK_RECORD
  5
228
100
AcDbSymbolTableRecord
100
AcDbBlockTableRecord
  2
*T2
  0
BLOCK_RECORD
  5
229
100
AcDbSymbolTableRecord
100
AcDbBlockTableRecord
  2
*T3
  0
BLOCK_RECORD
  5
22A
100
AcDbSymbolTableRecord
100
AcDbBlockTableRecord
  2
*T4
  0
BLOCK_RECORD
  5
22B
100
AcDbSymbolTableRecord
100
AcDbBlockTableRecord
  2
*T5
  0
BLOCK_RECORD
  5
22C
100
AcDbSymbolTableRecord
100
AcDbBlockTableRecord
  2
*T6
  0
ENDTAB
  0
TABLE
  2
DIMSTYLE
  5
A
100
AcDbSymbolTable
 70
1
100
AcDbDimStyleTable
 71
0
  0
DIMSTYLE
105
22D
100
AcDbSymbolTableRecord
100
AcDbDimStyleTableRecord
  2
STANDARD
 70
0
  3

  4

 40
1.0
 41
0.1875
 42
0.0625
 43
0.38
 44
0.125
 45
0.0
 46
0.0
 47
0.01
 48
0.01
140
0.15625
141
0.09
142
0.0
143
25.4
144
1.0
145
0.0
146
1.0
147
0.09
 71
1.0
 72
0.0
 73
1
 74
1
 75
0
 76
0
 77
0
 78
4
170
0
171
2
172
0
173
0
174
0
175
0
176
0
177
0
178
0
270
2
271
2
272
2
273
2
274
2
275
0
280
0
281
0
282
0
283
1
284
4
285
0
286
0
287
3
288
0
340
11
278
46
341
20A
342
20A
343
20A
344
20A
  0
DIMSTYLE
105
22E
100
AcDbSymbolTableRecord
100
AcDbDimStyleTableRecord
  2
DIMSTYLE_1
 70
0
  3

  4

 40
1.0
 41
0.1875
 42
0.0625
 43
0.38
 44
0.125
 45
0.0
 46
0.0
 47
0.01
 48
0.01
140
0.15625
141
0.09
142
0.0
143
25.4
144
5.0
145
0.0
146
1.0
147
0.078125
 71
0.0
 72
0.0
 73
1
 74
1
 75
0
 76
0
 77
0
 78
4
170
0
171
2
172
0
173
0
174
0
175
0
176
0
177
0
178
0
270
2
271
2
272
2
273
2
274
2
275
0
280
0
281
0
282
0
283
1
284
4
285
0
286
0
287
3
288
0
340
11
278
46
341
20A
342
20A
343
20A
344
20A
  0
DIMSTYLE
105
22F
100
AcDbSymbolTableRecord
100
AcDbDimStyleTableRecord
  2
DIMSTYLE_2
 70
0
  3

  4

 40
1.0
 41
0.1875
 42
0.0625
 43
0.38
 44
0.125
 45
0.0
 46
0.0
 47
0.01
 48
0.01
140
0.15625
141
0.09
142
0.0
143
25.4
144
5.0
145
0.0
146
1.0
147
0.078125
 71
1.0
 72
0.0
 73
1
 74
1
 75
0
 76
0
 77
0
 78
4
170
0
171
2
172
0
173
0
174
0
175
0
176
0
177
0
178
0
270
2
271
2
272
2
273
2
274
2
275
0
280
0
281
0
282
0
283
1
284
4
285
0
286
0
287
3
288
0
340
11
278
46
341
20A
342
20A
343
20A
344
20A
  0
DIMSTYLE
105
230
100
AcDbSymbolTableRecord
100
AcDbDimStyleTableRecord
  2
DIMSTYLE_3
 70
0
  3
<>
  4

 40
1.0
 41
0.1875
 42
0.0625
 43
0.38
 44
0.125
 45
0.0
 46
0.0
 47
0.01
 48
0.01
140
0.15625
141
0.09
142
0.0
143
25.4
144
5.0
145
0.0
146
1.0
147
0.09
 71
0.0
 72
0.0
 73
1
 74
1
 75
0
 76
0
 77
0
 78
4
170
0
171
2
172
0
173
0
174
0
175
0
176
0
177
0
178
0
270
2
271
2
272
2
273
2
274
2
275
0
280
0
281
0
282
0
283
1
284
4
285
0
286
0
287
3
288
1
340
11
278
46
289
2
341
20A
342
20A
343
20A
344
20A
  0
DIMSTYLE
105
231
100
AcDbSymbolTableRecord
100
AcDbDimStyleTableRecord
  2
DIMSTYLE_4
 70
0
  3

  4

 40
1.0
 41
0.1875
 42
0.0625
 43
0.38
 44
0.125
 45
0.0
 46
0.0
 47
0.5
 48
0.5
140
0.15625
141
0.09
142
0.0
143
25.4
144
5.0
145
0.0
146
1.0
147
0.078125
 71
0.0
 72
0.0
 73
1
 74
1
 75
0
 76
0
 77
0
 78
4
170
0
171
2
172
0
173
0
174
0
175
0
176
0
177
0
178
0
270
2
271
1
272
1
273
2
274
2
275
0
280
0
281
0
282
0
283
1
284
4
285
0
286
0
287
3
288
0
340
11
278
46
341
20A
342
20A
343
20A
344
20A
  0
DIMSTYLE
105
232
100
AcDbSymbolTableRecord
100
AcDbDimStyleTableRecord
  2
DIMSTYLE_5
 70
0
  3

  4

 40
1.0
 41
0.1875
 42
0.0625
 43
0.38
 44
0.125
 45
0.0
 46
0.0
 47
0.01
 48
0.01
140
0.15625
141
0.09
142
0.0
143
25.4
144
5.0
145
0.0
146
1.0
147
0.0390625
 71
0.0
 72
0.0
 73
1
 74
1
 75
0
 76
0
 77
0
 78
4
170
0
171
2
172
0
173
0
174
0
175
0
176
0
177
0
178
0
270
2
271
2
272
2
273
2
274
2
275
0
280
0
281
0
282
0
283
1
284
4
285
0
286
0
287
3
288
0
340
11
278
46
341
20A
342
20A
343
20A
344
20A
  0
DIMSTYLE
105
233
100
AcDbSymbolTableRecord
100
AcDbDimStyleTableRecord
  2
DIMSTYLE_6
 70
0
  3
<>
  4

 40
1.0
 41
0.1875
 42
0.0625
 43
0.38
 44
0.125
 45
0.0
 46
0.0
 47
0.02
 48
0.0
140
0.15625
141
0.09
142
0.0
143
25.4
144
5.0
145
0.0
146
1.0
147
0.09
 71
0.0
 72
1.0
 73
1
 74
1
 75
0
 76
0
 77
0
 78
4
170
0
171
2
172
0
173
0
174
0
175
0
176
0
177
0
178
0
270
2
271
2
272
2
273
2
274
2
275
0
280
0
281
0
282
0
283
1
284
4
285
0
286
0
287
3
288
1
340
11
278
46
289
2
341
20A
342
20A
343
20A
344
20A
  0
ENDTAB
  0
ENDSEC
  0
SECTION
  2
BLOCKS
  0
BLOCK
  5
20
100
AcDbEntity
  8
0
100
AcDbBlockBegin
  2
*Model_Space
 70
0
 10
0.0
 20
0.0
 30
0.0
  3
*Model_Space
  1

  0
ENDBLK
  5
21
100
AcDbEntity
  8
0
100
AcDbBlockEnd
  0
BLOCK
  5
1C
100
AcDbEntity
  8
0
100
AcDbBlockBegin
  2
*Paper_Space
 70
0
 10
0.0
 20
0.0
 30
0.0
  3
*Paper_Space
  1

  0
ENDBLK
  5
1D
100
AcDbEntity
  8
0
100
AcDbBlockEnd
  0
BLOCK
  5
234
100
AcDbEntity
  8
0
100
AcDbBlockBegin
  2
_CLOSED
 70
64
 10
0.0
 20
0.0
  3
_CLOSED
  1

  0
LINE
  5
235
100
AcDbEntity
  8
0
  6
BYBLOCK
 62
0
100
AcDbLine
 10
0.0
 20
0.0
 11
-1.0
 21
0.1666666667
  0
LINE
  5
236
100
AcDbEntity
  8
0
  6
BYBLOCK
 62
0
100
AcDbLine
 10
-1.0
 20
0.1666666667
 11
-1.0
 21
-0.1666666667
  0
LINE
  5
237
100
AcDbEntity
  8
0
  6
BYBLOCK
 62
0
100
AcDbLine
 10
-1.0
 20
-0.1666666667
 11
0.0
 21
0.0
  0
LINE
  5
238
100
AcDbEntity
  8
0
  6
BYBLOCK
 62
0
100
AcDbLine
 10
-1.0
 20
0.0
 11
0.0
 21
0.0
  0
ENDBLK
  5
239
100
AcDbEntity
  8
0
  6
BYBLOCK
 62
0
100
AcDbBlockEnd
  0
BLOCK
  5
23A
100
AcDbEntity
  8
0
100
AcDbBlockBegin
 62
2
  6
CONTINUOUS
  2
*D0
 70
65
 10
0.0
 20
0.0
  3
*D0
  1

  0
MTEXT
  5
23B
100
AcDbEntity
  8
0
100
AcDbMText
 62
2
  6
CONTINUOUS
  7
STANDARD
 71
3
 72
1
 10
12.474768029
 20
10.3330411625
 30
0.0
 11
1.0
 21
0.0
 31
0.0
 44
0.9
  1
20
 40
0.15625
 41
0.25
  0
LINE
  5
23C
100
AcDbEntity
  8
0
100
AcDbLine
 62
2
  6
CONTINUOUS
 10
12.9588837674
 20
7.414749644
 11
12.9588837674
 21
10.3799161625
  0
LINE
  5
23D
100
AcDbEntity
  8
0
100
AcDbLine
 62
2
  6
CONTINUOUS
 10
12.8014034525
 20
9.9825483011
 11
12.8014034525
 21
10.3799161625
  0
LINE
  5
23E
100
AcDbEntity
  8
0
100
AcDbLine
 62
2
  6
CONTINUOUS
 10
12.9588837674
 20
10.2549161625
 11
13.4588837674
 21
10.2549161625
  0
LINE
  5
23F
100
AcDbEntity
  8
0
100
AcDbLine
 62
2
  6
CONTINUOUS
 10
12.8014034525
 20
10.2549161625
 11
12.552893029
 21
10.2549161625
  0
INSERT
  5
240
100
AcDbEntity
  8
0
100
AcDbBlockReference
 62
2
  6
CONTINUOUS
  2
_CLOSED
 10
12.9588837674
 20
10.2549161625
 41
0.1875
 42
0.1875
 43
0.1875
 50
180.0
  0
INSERT
  5
241
100
AcDbEntity
  8
0
100
AcDbBlockReference
 62
2
  6
CONTINUOUS
  2
_CLOSED
 10
12.8014034525
 20
10.2549161625
 41
0.1875
 42
0.1875
 43
0.1875
  0
ENDBLK
  5
242
100
AcDbEntity
  8
0
  6
BYBLOCK
 62
0
100
AcDbBlockEnd
  0
BLOCK
  5
243
100
AcDbEntity
  8
0
100
AcDbBlockBegin
 62
2
  6
CONTINUOUS
  2
*D1
 70
65
 10
0.0
 20
0.0
  3
*D1
  1

  0
TEXT
  5
244
100
AcDbEntity
  8
0
100
AcDbText
 62
2
  6
CONTINUOUS
 10
6.4999981565
 20
7.7395610964
  7
STANDARD
 40
0.15625
  1
178
 41
0.8
 72
1
 11
6.6874981565
 21
7.7395610964
100
AcDbText
  0
TEXT
  5
245
100
AcDbEntity
  8
0
100
AcDbText
 62
2
  6
CONTINUOUS
 10
6.8749981565
 20
7.8567485964
  7
STANDARD
 40
0.15625
  1
+0.01
 41
0.8
 72
1
 11
7.1874981565
 21
7.8567485964
100
AcDbText
  0
TEXT
  5
246
100
AcDbEntity
  8
0
100
AcDbText
 62
2
  6
CONTINUOUS
 10
6.8749981565
 20
7.6223735964
  7
STANDARD
 40
0.15625
  1
-0.01
 41
0.8
 72
1
 11
7.1874981565
 21
7.6223735964
100
AcDbText
  0
LINE
  5
247
100
AcDbEntity
  8
0
100
AcDbLine
 62
2
  6
CONTINUOUS
 10
6.3934511744
 20
7.1168986948
 11
7.1249981565
 21
7.1168986948
  0
LINE
  5
248
100
AcDbEntity
  8
0
100
AcDbLine
 62
2
  6
CONTINUOUS
 10
6.4006871147
 20
8.5184734979
 11
7.1249981565
 21
8.5184734979
  0
LINE
  5
249
100
AcDbEntity
  8
0
100
AcDbLine
 62
2
  6
CONTINUOUS
 10
6.9999981565
 20
7.1168986948
 11
6.9999981565
 21
7.5442485964
  0
LINE
  5
24A
100
AcDbEntity
  8
0
100
AcDbLine
 62
2
  6
CONTINUOUS
 10
6.9999981565
 20
8.5184734979
 11
6.9999981565
 21
8.0911235964
  0
INSERT
  5
24B
100
AcDbEntity
  8
0
100
AcDbBlockReference
 62
2
  6
CONTINUOUS
  2
_CLOSED
 10
6.9999981565
 20
7.1168986948
 41
0.1875
 42
0.1875
 43
0.1875
 50
270.0
  0
INSERT
  5
24C
100
AcDbEntity
  8
0
100
AcDbBlockReference
 62
2
  6
CONTINUOUS
  2
_CLOSED
 10
6.9999981565
 20
8.5184734979
 41
0.1875
 42
0.1875
 43
0.1875
 50
90.0
  0
ENDBLK
  5
24D
100
AcDbEntity
  8
0
  6
BYBLOCK
 62
0
100
AcDbBlockEnd
  0
BLOCK
  5
24E
100
AcDbEntity
  8
0
100
AcDbBlockBegin
 62
2
  6
CONTINUOUS
  2
*D2
 70
65
 10
0.0
 20
0.0
  3
*D2
  1

  0
TEXT
  5
24F
100
AcDbEntity
  8
0
100
AcDbText
 62
2
  6
CONTINUOUS
 10
6.7542391994
 20
9.8008904363
  7
STANDARD
 40
0.15625
  1
M
 41
0.8
 72
0
100
AcDbText
  0
TEXT
  5
250
100
AcDbEntity
  8
0
100
AcDbText
 62
2
  6
CONTINUOUS
 10
6.8792391994
 20
9.8008904363
  7
STANDARD
 40
0.15625
  1
16
 41
0.8
 72
0
100
AcDbText
  0
TEXT
  5
251
100
AcDbEntity
  8
0
100
AcDbText
 62
2
  6
CONTINUOUS
 10
7.1292391994
 20
9.8008904363
  7
STANDARD
 40
0.15625
  1
x2 THRU
 41
0.8
 72
0
100
AcDbText
  0
TEXT
  5
252
100
AcDbEntity
  8
0
100
AcDbText
 62
2
  6
CONTINUOUS
 10
6.7542391994
 20
9.5665154363
  7
STANDARD
 40
0.15625
  1
4 POS EQUISPACED
 41
0.8
 72
0
100
AcDbText
  0
TEXT
  5
253
100
AcDbEntity
  8
0
100
AcDbText
 62
2
  6
CONTINUOUS
 10
6.7542391994
 20
9.2930779363
  7
STANDARD
 40
0.15625
  1
ON A 
 41
0.8
 72
0
100
AcDbText
  0
TEXT
  5
254
100
AcDbEntity
  8
0
100
AcDbText
 62
2
  6
CONTINUOUS
 10
7.4573641994
 20
9.2930779363
  7
TEXTSTYLE_1
 40
0.15625
  1
n
 41
1.0
 72
0
100
AcDbText
  0
TEXT
  5
255
100
AcDbEntity
  8
0
100
AcDbText
 62
2
  6
CONTINUOUS
 10
7.6656975327
 20
9.2930779363
  7
STANDARD
 40
0.15625
  1
320
 41
0.8
 72
0
100
AcDbText
  0
TEXT
  5
256
100
AcDbEntity
  8
0
100
AcDbText
 62
2
  6
CONTINUOUS
 10
8.1188225327
 20
9.2930779363
  7
STANDARD
 40
0.15625
  1
 PCD
 41
0.8
 72
0
100
AcDbText
  0
LINE
  5
257
100
AcDbEntity
  8
0
100
AcDbLine
 62
2
  6
CONTINUOUS
 10
5.6301439872
 20
9.4377067079
 11
6.5042391994
 21
9.8790154363
  0
LINE
  5
258
100
AcDbEntity
  8
0
100
AcDbLine
 62
2
  6
CONTINUOUS
 10
6.5042391994
 20
9.8790154363
 11
6.6761141994
 21
9.8790154363
  0
INSERT
  5
259
100
AcDbEntity
  8
0
100
AcDbBlockReference
 62
2
  6
CONTINUOUS
  2
_CLOSED
 10
5.6301439872
 20
9.4377067079
 41
0.1875
 42
0.1875
 43
0.1875
 50
206.7880639084
  0
ENDBLK
  5
25A
100
AcDbEntity
  8
0
  6
BYBLOCK
 62
0
100
AcDbBlockEnd
  0
BLOCK
  5
25B
100
AcDbEntity
  8
0
100
AcDbBlockBegin
 62
2
  6
CONTINUOUS
  2
*D3
 70
65
 10
0.0
 20
0.0
  3
*D3
  1

  0
MTEXT
  5
25C
100
AcDbEntity
  8
0
100
AcDbMText
 62
2
  6
CONTINUOUS
  7
STANDARD
 71
2
 72
1
 10
5.5067258282
 20
10.5850819726
 30
0.0
 11
1.0
 21
0.0
 31
0.0
 44
0.9
  1
45\Fgdt;{\Fgdt;~}
 40
0.15625
 41
0.3541666667
  0
LINE
  5
25D
100
AcDbEntity
  8
0
100
AcDbLine
 62
2
  6
CONTINUOUS
 10
4.6830690045
 20
10.0825483011
 11
4.6830690045
 21
10.7957925013
  0
ARC
  5
25E
100
AcDbEntity
  8
0
100
AcDbCircle
 62
2
  6
CONTINUOUS
 10
4.6830690045
 20
8.5184734979
 40
2.1523190034
100
AcDbArc
 50
45.0
 51
59.9167967878
  0
ARC
  5
25F
100
AcDbEntity
  8
0
100
AcDbCircle
 62
2
  6
CONTINUOUS
 10
4.6830690045
 20
8.5184734979
 40
2.1523190034
100
AcDbArc
 50
74.6859377235
 51
90.0
  0
LWPOLYLINE
  5
260
100
AcDbEntity
  8
0
100
AcDbPolyline
 62
2
  6
CONTINUOUS
 90
4
 70
0
 10
6.0456445035
 20
10.1440381482
 10
6.204988367
 20
10.0403928605
 10
6.0878723733
 20
10.1901147911
 10
6.0456445035
 20
10.1440381482
  0
LWPOLYLINE
  5
261
100
AcDbEntity
  8
0
100
AcDbPolyline
 62
2
  6
CONTINUOUS
 90
4
 70
0
 10
4.8717519103
 20
10.6938483804
 10
4.6830690045
 20
10.6707925013
 10
4.8690304167
 20
10.6314076607
 10
4.8717519103
 20
10.6938483804
  0
ENDBLK
  5
262
100
AcDbEntity
  8
0
  6
BYBLOCK
 62
0
100
AcDbBlockEnd
  0
BLOCK
  5
263
100
AcDbEntity
  8
0
100
AcDbBlockBegin
 62
2
  6
CONTINUOUS
  2
*D4
 70
65
 10
0.0
 20
0.0
  3
*D4
  1

  0
TEXT
  5
264
100
AcDbEntity
  8
0
100
AcDbText
 62
2
  6
CONTINUOUS
 10
13.1579421013
 20
4.1795775163
  7
STANDARD
 40
0.15625
  1
187.5
 41
0.8
 72
1
 11
13.4704421013
 21
4.1795775163
100
AcDbText
  0
TEXT
  5
265
100
AcDbEntity
  8
0
100
AcDbText
 62
2
  6
CONTINUOUS
 10
13.7829421013
 20
4.2967650163
  7
STANDARD
 40
0.15625
  1
+0.01
 41
0.8
 72
1
 11
14.0954421013
 21
4.2967650163
100
AcDbText
  0
TEXT
  5
266
100
AcDbEntity
  8
0
100
AcDbText
 62
2
  6
CONTINUOUS
 10
13.7829421013
 20
4.0623900163
  7
STANDARD
 40
0.15625
  1
-0.01
 41
0.8
 72
1
 11
14.0954421013
 21
4.0623900163
100
AcDbText
  0
LINE
  5
267
100
AcDbEntity
  8
0
100
AcDbLine
 62
2
  6
CONTINUOUS
 10
13.0671330709
 20
4.9958914927
 11
13.9079421013
 21
4.9958914927
  0
LINE
  5
268
100
AcDbEntity
  8
0
100
AcDbLine
 62
2
  6
CONTINUOUS
 10
13.0369898849
 20
3.5195135399
 11
13.9079421013
 21
3.5195135399
  0
LINE
  5
269
100
AcDbEntity
  8
0
100
AcDbLine
 62
2
  6
CONTINUOUS
 10
13.7829421013
 20
4.9958914927
 11
13.7829421013
 21
4.5311400163
  0
LINE
  5
26A
100
AcDbEntity
  8
0
100
AcDbLine
 62
2
  6
CONTINUOUS
 10
13.7829421013
 20
3.5195135399
 11
13.7829421013
 21
3.9842650163
  0
INSERT
  5
26B
100
AcDbEntity
  8
0
100
AcDbBlockReference
 62
2
  6
CONTINUOUS
  2
_CLOSED
 10
13.7829421013
 20
4.9958914927
 41
0.1875
 42
0.1875
 43
0.1875
 50
90.0
  0
INSERT
  5
26C
100
AcDbEntity
  8
0
100
AcDbBlockReference
 62
2
  6
CONTINUOUS
  2
_CLOSED
 10
13.7829421013
 20
3.5195135399
 41
0.1875
 42
0.1875
 43
0.1875
 50
270.0
  0
ENDBLK
  5
26D
100
AcDbEntity
  8
0
  6
BYBLOCK
 62
0
100
AcDbBlockEnd
  0
BLOCK
  5
26E
100
AcDbEntity
  8
0
100
AcDbBlockBegin
 62
2
  6
CONTINUOUS
  2
*D5
 70
65
 10
0.0
 20
0.0
  3
*D5
  1

  0
MTEXT
  5
26F
100
AcDbEntity
  8
0
100
AcDbMText
 62
2
  6
CONTINUOUS
  7
STANDARD
 71
3
 72
1
 10
11.4975500644
 20
3.40490555
 30
0.0
 11
0.0
 21
1.0
 31
0.0
 44
0.9
  1
25
 40
0.15625
 41
0.25
  0
LINE
  5
270
100
AcDbEntity
  8
0
100
AcDbLine
 62
2
  6
CONTINUOUS
 10
12.0302420351
 20
3.5195135399
 11
11.5678625644
 21
3.5195135399
  0
LINE
  5
271
100
AcDbEntity
  8
0
100
AcDbLine
 62
2
  6
CONTINUOUS
 10
12.0302420351
 20
3.7163639336
 11
11.5678625644
 21
3.7163639336
  0
LINE
  5
272
100
AcDbEntity
  8
0
100
AcDbLine
 62
2
  6
CONTINUOUS
 10
11.6928625644
 20
3.5195135399
 11
11.6928625644
 21
3.15490555
  0
LINE
  5
273
100
AcDbEntity
  8
0
100
AcDbLine
 62
2
  6
CONTINUOUS
 10
11.6928625644
 20
3.15490555
 11
11.6928625644
 21
3.6179387368
  0
LINE
  5
274
100
AcDbEntity
  8
0
100
AcDbLine
 62
2
  6
CONTINUOUS
 10
11.6928625644
 20
3.7163639336
 11
11.6928625644
 21
4.2163639336
  0
LINE
  5
275
100
AcDbEntity
  8
0
100
AcDbLine
 62
2
  6
CONTINUOUS
 10
11.6928625644
 20
4.2163639336
 11
11.6928625644
 21
3.6179387368
  0
INSERT
  5
276
100
AcDbEntity
  8
0
100
AcDbBlockReference
 62
2
  6
CONTINUOUS
  2
_CLOSED
 10
11.6928625644
 20
3.5195135399
 41
0.1875
 42
0.1875
 43
0.1875
 50
90.0
  0
INSERT
  5
277
100
AcDbEntity
  8
0
100
AcDbBlockReference
 62
2
  6
CONTINUOUS
  2
_CLOSED
 10
11.6928625644
 20
3.7163639336
 41
0.1875
 42
0.1875
 43
0.1875
 50
270.0
  0
ENDBLK
  5
278
100
AcDbEntity
  8
0
  6
BYBLOCK
 62
0
100
AcDbBlockEnd
  0
BLOCK
  5
279
100
AcDbEntity
  8
0
100
AcDbBlockBegin
 62
2
  6
CONTINUOUS
  2
*D6
 70
65
 10
0.0
 20
0.0
  3
*D6
  1

  0
MTEXT
  5
27A
100
AcDbEntity
  8
0
100
AcDbMText
 62
2
  6
CONTINUOUS
  7
STANDARD
 71
2
 72
1
 10
11.2186893776
 20
3.7163639336
 30
0.0
 11
0.0
 21
1.0
 31
0.0
 44
0.9
  1
50
 40
0.15625
 41
0.25
  0
LINE
  5
27B
100
AcDbEntity
  8
0
100
AcDbLine
 62
2
  6
CONTINUOUS
 10
12.0302420351
 20
3.5195135399
 11
11.2890018776
 21
3.5195135399
  0
LINE
  5
27C
100
AcDbEntity
  8
0
100
AcDbLine
 62
2
  6
CONTINUOUS
 10
12.0302420351
 20
3.9132143273
 11
11.2890018776
 21
3.9132143273
  0
LINE
  5
27D
100
AcDbEntity
  8
0
100
AcDbLine
 62
2
  6
CONTINUOUS
 10
11.4140018776
 20
3.5195135399
 11
11.4140018776
 21
3.0195135399
  0
LINE
  5
27E
100
AcDbEntity
  8
0
100
AcDbLine
 62
2
  6
CONTINUOUS
 10
11.4140018776
 20
3.0195135399
 11
11.4140018776
 21
3.7163639336
  0
LINE
  5
27F
100
AcDbEntity
  8
0
100
AcDbLine
 62
2
  6
CONTINUOUS
 10
11.4140018776
 20
3.9132143273
 11
11.4140018776
 21
4.4132143273
  0
LINE
  5
280
100
AcDbEntity
  8
0
100
AcDbLine
 62
2
  6
CONTINUOUS
 10
11.4140018776
 20
4.4132143273
 11
11.4140018776
 21
3.7163639336
  0
INSERT
  5
281
100
AcDbEntity
  8
0
100
AcDbBlockReference
 62
2
  6
CONTINUOUS
  2
_CLOSED
 10
11.4140018776
 20
3.5195135399
 41
0.1875
 42
0.1875
 43
0.1875
 50
90.0
  0
INSERT
  5
282
100
AcDbEntity
  8
0
100
AcDbBlockReference
 62
2
  6
CONTINUOUS
  2
_CLOSED
 10
11.4140018776
 20
3.9132143273
 41
0.1875
 42
0.1875
 43
0.1875
 50
270.0
  0
ENDBLK
  5
283
100
AcDbEntity
  8
0
  6
BYBLOCK
 62
0
100
AcDbBlockEnd
  0
BLOCK
  5
284
100
AcDbEntity
  8
0
100
AcDbBlockBegin
 62
2
  6
CONTINUOUS
  2
*D7
 70
65
 10
0.0
 20
0.0
  3
*D7
  1

  0
MTEXT
  5
285
100
AcDbEntity
  8
0
100
AcDbMText
 62
2
  6
CONTINUOUS
  7
STANDARD
 71
2
 72
1
 10
10.9186893776
 20
3.8147891305
 30
0.0
 11
0.0
 21
1.0
 31
0.0
 44
0.9
  1
75
 40
0.15625
 41
0.25
  0
LINE
  5
286
100
AcDbEntity
  8
0
100
AcDbLine
 62
2
  6
CONTINUOUS
 10
12.0302420351
 20
3.5195135399
 11
10.9890018776
 21
3.5195135399
  0
LINE
  5
287
100
AcDbEntity
  8
0
100
AcDbLine
 62
2
  6
CONTINUOUS
 10
12.0302420351
 20
4.110064721
 11
10.9890018776
 21
4.110064721
  0
LINE
  5
288
100
AcDbEntity
  8
0
100
AcDbLine
 62
2
  6
CONTINUOUS
 10
11.1140018776
 20
3.5195135399
 11
11.1140018776
 21
3.8147891305
  0
LINE
  5
289
100
AcDbEntity
  8
0
100
AcDbLine
 62
2
  6
CONTINUOUS
 10
11.1140018776
 20
4.110064721
 11
11.1140018776
 21
3.8147891305
  0
INSERT
  5
28A
100
AcDbEntity
  8
0
100
AcDbBlockReference
 62
2
  6
CONTINUOUS
  2
_CLOSED
 10
11.1140018776
 20
3.5195135399
 41
0.1875
 42
0.1875
 43
0.1875
 50
270.0
  0
INSERT
  5
28B
100
AcDbEntity
  8
0
100
AcDbBlockReference
 62
2
  6
CONTINUOUS
  2
_CLOSED
 10
11.1140018776
 20
4.110064721
 41
0.1875
 42
0.1875
 43
0.1875
 50
90.0
  0
ENDBLK
  5
28C
100
AcDbEntity
  8
0
  6
BYBLOCK
 62
0
100
AcDbBlockEnd
  0
BLOCK
  5
28D
100
AcDbEntity
  8
0
100
AcDbBlockBegin
 62
2
  6
CONTINUOUS
  2
*D8
 70
65
 10
0.0
 20
0.0
  3
*D8
  1

  0
MTEXT
  5
28E
100
AcDbEntity
  8
0
100
AcDbMText
 62
2
  6
CONTINUOUS
  7
STANDARD
 71
2
 72
1
 10
10.6186893776
 20
3.9132143273
 30
0.0
 11
0.0
 21
1.0
 31
0.0
 44
0.9
  1
100
 40
0.15625
 41
0.375
  0
LINE
  5
28F
100
AcDbEntity
  8
0
100
AcDbLine
 62
2
  6
CONTINUOUS
 10
12.0302420351
 20
3.5195135399
 11
10.6890018776
 21
3.5195135399
  0
LINE
  5
290
100
AcDbEntity
  8
0
100
AcDbLine
 62
2
  6
CONTINUOUS
 10
12.0302420351
 20
4.3069151147
 11
10.6890018776
 21
4.3069151147
  0
LINE
  5
291
100
AcDbEntity
  8
0
100
AcDbLine
 62
2
  6
CONTINUOUS
 10
10.8140018776
 20
3.5195135399
 11
10.8140018776
 21
3.9132143273
  0
LINE
  5
292
100
AcDbEntity
  8
0
100
AcDbLine
 62
2
  6
CONTINUOUS
 10
10.8140018776
 20
4.3069151147
 11
10.8140018776
 21
3.9132143273
  0
INSERT
  5
293
100
AcDbEntity
  8
0
100
AcDbBlockReference
 62
2
  6
CONTINUOUS
  2
_CLOSED
 10
10.8140018776
 20
3.5195135399
 41
0.1875
 42
0.1875
 43
0.1875
 50
270.0
  0
INSERT
  5
294
100
AcDbEntity
  8
0
100
AcDbBlockReference
 62
2
  6
CONTINUOUS
  2
_CLOSED
 10
10.8140018776
 20
4.3069151147
 41
0.1875
 42
0.1875
 43
0.1875
 50
90.0
  0
ENDBLK
  5
295
100
AcDbEntity
  8
0
  6
BYBLOCK
 62
0
100
AcDbBlockEnd
  0
BLOCK
  5
296
100
AcDbEntity
  8
0
100
AcDbBlockBegin
 62
2
  6
CONTINUOUS
  2
*D9
 70
65
 10
0.0
 20
0.0
  3
*D9
  1

  0
MTEXT
  5
297
100
AcDbEntity
  8
0
100
AcDbMText
 62
2
  6
CONTINUOUS
  7
STANDARD
 71
2
 72
1
 10
10.3186893776
 20
4.0116395242
 30
0.0
 11
0.0
 21
1.0
 31
0.0
 44
0.9
  1
125
 40
0.15625
 41
0.375
  0
LINE
  5
298
100
AcDbEntity
  8
0
100
AcDbLine
 62
2
  6
CONTINUOUS
 10
12.0302420351
 20
3.5195135399
 11
10.3890018776
 21
3.5195135399
  0
LINE
  5
299
100
AcDbEntity
  8
0
100
AcDbLine
 62
2
  6
CONTINUOUS
 10
12.0302420351
 20
4.5037655084
 11
10.3890018776
 21
4.5037655084
  0
LINE
  5
29A
100
AcDbEntity
  8
0
100
AcDbLine
 62
2
  6
CONTINUOUS
 10
10.5140018776
 20
3.5195135399
 11
10.5140018776
 21
4.0116395242
  0
LINE
  5
29B
100
AcDbEntity
  8
0
100
AcDbLine
 62
2
  6
CONTINUOUS
 10
10.5140018776
 20
4.5037655084
 11
10.5140018776
 21
4.0116395242
  0
INSERT
  5
29C
100
AcDbEntity
  8
0
100
AcDbBlockReference
 62
2
  6
CONTINUOUS
  2
_CLOSED
 10
10.5140018776
 20
3.5195135399
 41
0.1875
 42
0.1875
 43
0.1875
 50
270.0
  0
INSERT
  5
29D
100
AcDbEntity
  8
0
100
AcDbBlockReference
 62
2
  6
CONTINUOUS
  2
_CLOSED
 10
10.5140018776
 20
4.5037655084
 41
0.1875
 42
0.1875
 43
0.1875
 50
90.0
  0
ENDBLK
  5
29E
100
AcDbEntity
  8
0
  6
BYBLOCK
 62
0
100
AcDbBlockEnd
  0
BLOCK
  5
29F
100
AcDbEntity
  8
0
100
AcDbBlockBegin
 62
2
  6
CONTINUOUS
  2
*D10
 70
65
 10
0.0
 20
0.0
  3
*D10
  1

  0
MTEXT
  5
2A0
100
AcDbEntity
  8
0
100
AcDbMText
 62
2
  6
CONTINUOUS
  7
STANDARD
 71
2
 72
1
 10
10.0186893776
 20
4.110064721
 30
0.0
 11
0.0
 21
1.0
 31
0.0
 44
0.9
  1
150
 40
0.15625
 41
0.375
  0
LINE
  5
2A1
100
AcDbEntity
  8
0
100
AcDbLine
 62
2
  6
CONTINUOUS
 10
12.0302420351
 20
4.7006159021
 11
10.0890018776
 21
4.7006159021
  0
LINE
  5
2A2
100
AcDbEntity
  8
0
100
AcDbLine
 62
2
  6
CONTINUOUS
 10
12.0302420351
 20
3.5195135399
 11
10.0890018776
 21
3.5195135399
  0
LINE
  5
2A3
100
AcDbEntity
  8
0
100
AcDbLine
 62
2
  6
CONTINUOUS
 10
10.2140018776
 20
4.7006159021
 11
10.2140018776
 21
4.110064721
  0
LINE
  5
2A4
100
AcDbEntity
  8
0
100
AcDbLine
 62
2
  6
CONTINUOUS
 10
10.2140018776
 20
3.5195135399
 11
10.2140018776
 21
4.110064721
  0
INSERT
  5
2A5
100
AcDbEntity
  8
0
100
AcDbBlockReference
 62
2
  6
CONTINUOUS
  2
_CLOSED
 10
10.2140018776
 20
4.7006159021
 41
0.1875
 42
0.1875
 43
0.1875
 50
90.0
  0
INSERT
  5
2A6
100
AcDbEntity
  8
0
100
AcDbBlockReference
 62
2
  6
CONTINUOUS
  2
_CLOSED
 10
10.2140018776
 20
3.5195135399
 41
0.1875
 42
0.1875
 43
0.1875
 50
270.0
  0
ENDBLK
  5
2A7
100
AcDbEntity
  8
0
  6
BYBLOCK
 62
0
100
AcDbBlockEnd
  0
BLOCK
  5
2A8
100
AcDbEntity
  8
0
100
AcDbBlockBegin
 62
2
  6
CONTINUOUS
  2
*D11
 70
65
 10
0.0
 20
0.0
  3
*D11
  1

  0
MTEXT
  5
2A9
100
AcDbEntity
  8
0
100
AcDbMText
 62
2
  6
CONTINUOUS
  7
STANDARD
 71
2
 72
1
 10
9.7186893776
 20
4.2084899179
 30
0.0
 11
0.0
 21
1.0
 31
0.0
 44
0.9
  1
175
 40
0.15625
 41
0.375
  0
LINE
  5
2AA
100
AcDbEntity
  8
0
100
AcDbLine
 62
2
  6
CONTINUOUS
 10
12.0302420351
 20
3.5195135399
 11
9.7890018776
 21
3.5195135399
  0
LINE
  5
2AB
100
AcDbEntity
  8
0
100
AcDbLine
 62
2
  6
CONTINUOUS
 10
12.0302420351
 20
4.8974662958
 11
9.7890018776
 21
4.8974662958
  0
LINE
  5
2AC
100
AcDbEntity
  8
0
100
AcDbLine
 62
2
  6
CONTINUOUS
 10
9.9140018776
 20
3.5195135399
 11
9.9140018776
 21
4.2084899179
  0
LINE
  5
2AD
100
AcDbEntity
  8
0
100
AcDbLine
 62
2
  6
CONTINUOUS
 10
9.9140018776
 20
4.8974662958
 11
9.9140018776
 21
4.2084899179
  0
INSERT
  5
2AE
100
AcDbEntity
  8
0
100
AcDbBlockReference
 62
2
  6
CONTINUOUS
  2
_CLOSED
 10
9.9140018776
 20
3.5195135399
 41
0.1875
 42
0.1875
 43
0.1875
 50
270.0
  0
INSERT
  5
2AF
100
AcDbEntity
  8
0
100
AcDbBlockReference
 62
2
  6
CONTINUOUS
  2
_CLOSED
 10
9.9140018776
 20
4.8974662958
 41
0.1875
 42
0.1875
 43
0.1875
 50
90.0
  0
ENDBLK
  5
2B0
100
AcDbEntity
  8
0
  6
BYBLOCK
 62
0
100
AcDbBlockEnd
  0
BLOCK
  5
2B1
100
AcDbEntity
  8
0
100
AcDbBlockBegin
 62
2
  6
CONTINUOUS
  2
*D12
 70
65
 10
0.0
 20
0.0
  3
*D12
  1

  0
MTEXT
  5
2B2
100
AcDbEntity
  8
0
100
AcDbMText
 62
2
  6
CONTINUOUS
  7
STANDARD
 71
2
 72
1
 10
9.4186893776
 20
4.3069151147
 30
0.0
 11
0.0
 21
1.0
 31
0.0
 44
0.9
  1
200
 40
0.15625
 41
0.375
  0
LINE
  5
2B3
100
AcDbEntity
  8
0
100
AcDbLine
 62
2
  6
CONTINUOUS
 10
12.0302420351
 20
5.0943166895
 11
9.4890018776
 21
5.0943166895
  0
LINE
  5
2B4
100
AcDbEntity
  8
0
100
AcDbLine
 62
2
  6
CONTINUOUS
 10
12.0302420351
 20
3.5195135399
 11
9.4890018776
 21
3.5195135399
  0
LINE
  5
2B5
100
AcDbEntity
  8
0
100
AcDbLine
 62
2
  6
CONTINUOUS
 10
9.6140018776
 20
5.0943166895
 11
9.6140018776
 21
4.3069151147
  0
LINE
  5
2B6
100
AcDbEntity
  8
0
100
AcDbLine
 62
2
  6
CONTINUOUS
 10
9.6140018776
 20
3.5195135399
 11
9.6140018776
 21
4.3069151147
  0
INSERT
  5
2B7
100
AcDbEntity
  8
0
100
AcDbBlockReference
 62
2
  6
CONTINUOUS
  2
_CLOSED
 10
9.6140018776
 20
5.0943166895
 41
0.1875
 42
0.1875
 43
0.1875
 50
90.0
  0
INSERT
  5
2B8
100
AcDbEntity
  8
0
100
AcDbBlockReference
 62
2
  6
CONTINUOUS
  2
_CLOSED
 10
9.6140018776
 20
3.5195135399
 41
0.1875
 42
0.1875
 43
0.1875
 50
270.0
  0
ENDBLK
  5
2B9
100
AcDbEntity
  8
0
  6
BYBLOCK
 62
0
100
AcDbBlockEnd
  0
BLOCK
  5
2BA
100
AcDbEntity
  8
0
100
AcDbBlockBegin
 62
2
  6
CONTINUOUS
  2
*D13
 70
65
 10
0.0
 20
0.0
  3
*D13
  1

  0
MTEXT
  5
2BB
100
AcDbEntity
  8
0
100
AcDbMText
 62
2
  6
CONTINUOUS
  7
STANDARD
 71
2
 72
1
 10
9.1186893776
 20
4.4053403116
 30
0.0
 11
0.0
 21
1.0
 31
0.0
 44
0.9
  1
225
 40
0.15625
 41
0.375
  0
LINE
  5
2BC
100
AcDbEntity
  8
0
100
AcDbLine
 62
2
  6
CONTINUOUS
 10
12.0302420351
 20
3.5195135399
 11
9.1890018776
 21
3.5195135399
  0
LINE
  5
2BD
100
AcDbEntity
  8
0
100
AcDbLine
 62
2
  6
CONTINUOUS
 10
12.0302420351
 20
5.2911670832
 11
9.1890018776
 21
5.2911670832
  0
LINE
  5
2BE
100
AcDbEntity
  8
0
100
AcDbLine
 62
2
  6
CONTINUOUS
 10
9.3140018776
 20
3.5195135399
 11
9.3140018776
 21
4.4053403116
  0
LINE
  5
2BF
100
AcDbEntity
  8
0
100
AcDbLine
 62
2
  6
CONTINUOUS
 10
9.3140018776
 20
5.2911670832
 11
9.3140018776
 21
4.4053403116
  0
INSERT
  5
2C0
100
AcDbEntity
  8
0
100
AcDbBlockReference
 62
2
  6
CONTINUOUS
  2
_CLOSED
 10
9.3140018776
 20
3.5195135399
 41
0.1875
 42
0.1875
 43
0.1875
 50
270.0
  0
INSERT
  5
2C1
100
AcDbEntity
  8
0
100
AcDbBlockReference
 62
2
  6
CONTINUOUS
  2
_CLOSED
 10
9.3140018776
 20
5.2911670832
 41
0.1875
 42
0.1875
 43
0.1875
 50
90.0
  0
ENDBLK
  5
2C2
100
AcDbEntity
  8
0
  6
BYBLOCK
 62
0
100
AcDbBlockEnd
  0
BLOCK
  5
2C3
100
AcDbEntity
  8
0
100
AcDbBlockBegin
 62
2
  6
CONTINUOUS
  2
*D14
 70
65
 10
0.0
 20
0.0
  3
*D14
  1

  0
MTEXT
  5
2C4
100
AcDbEntity
  8
0
100
AcDbMText
 62
2
  6
CONTINUOUS
  7
STANDARD
 71
2
 72
1
 10
8.8186893776
 20
4.5037655084
 30
0.0
 11
0.0
 21
1.0
 31
0.0
 44
0.9
  1
250
 40
0.15625
 41
0.375
  0
LINE
  5
2C5
100
AcDbEntity
  8
0
100
AcDbLine
 62
2
  6
CONTINUOUS
 10
12.0302420351
 20
3.5195135399
 11
8.8890018776
 21
3.5195135399
  0
LINE
  5
2C6
100
AcDbEntity
  8
0
100
AcDbLine
 62
2
  6
CONTINUOUS
 10
12.0302420351
 20
5.4880174769
 11
8.8890018776
 21
5.4880174769
  0
LINE
  5
2C7
100
AcDbEntity
  8
0
100
AcDbLine
 62
2
  6
CONTINUOUS
 10
9.0140018776
 20
3.5195135399
 11
9.0140018776
 21
4.5037655084
  0
LINE
  5
2C8
100
AcDbEntity
  8
0
100
AcDbLine
 62
2
  6
CONTINUOUS
 10
9.0140018776
 20
5.4880174769
 11
9.0140018776
 21
4.5037655084
  0
INSERT
  5
2C9
100
AcDbEntity
  8
0
100
AcDbBlockReference
 62
2
  6
CONTINUOUS
  2
_CLOSED
 10
9.0140018776
 20
3.5195135399
 41
0.1875
 42
0.1875
 43
0.1875
 50
270.0
  0
INSERT
  5
2CA
100
AcDbEntity
  8
0
100
AcDbBlockReference
 62
2
  6
CONTINUOUS
  2
_CLOSED
 10
9.0140018776
 20
5.4880174769
 41
0.1875
 42
0.1875
 43
0.1875
 50
90.0
  0
ENDBLK
  5
2CB
100
AcDbEntity
  8
0
  6
BYBLOCK
 62
0
100
AcDbBlockEnd
  0
BLOCK
  5
2CC
100
AcDbEntity
  8
0
100
AcDbBlockBegin
 62
2
  6
CONTINUOUS
  2
*D15
 70
65
 10
0.0
 20
0.0
  3
*D15
  1

  0
MTEXT
  5
2CD
100
AcDbEntity
  8
0
100
AcDbMText
 62
2
  6
CONTINUOUS
  7
STANDARD
 71
2
 72
1
 10
8.5186893776
 20
4.6021907053
 30
0.0
 11
0.0
 21
1.0
 31
0.0
 44
0.9
  1
275
 40
0.15625
 41
0.375
  0
LINE
  5
2CE
100
AcDbEntity
  8
0
100
AcDbLine
 62
2
  6
CONTINUOUS
 10
12.0302420351
 20
3.5195135399
 11
8.5890018776
 21
3.5195135399
  0
LINE
  5
2CF
100
AcDbEntity
  8
0
100
AcDbLine
 62
2
  6
CONTINUOUS
 10
12.0302420351
 20
5.6848678706
 11
8.5890018776
 21
5.6848678706
  0
LINE
  5
2D0
100
AcDbEntity
  8
0
100
AcDbLine
 62
2
  6
CONTINUOUS
 10
8.7140018776
 20
3.5195135399
 11
8.7140018776
 21
4.6021907053
  0
LINE
  5
2D1
100
AcDbEntity
  8
0
100
AcDbLine
 62
2
  6
CONTINUOUS
 10
8.7140018776
 20
5.6848678706
 11
8.7140018776
 21
4.6021907053
  0
INSERT
  5
2D2
100
AcDbEntity
  8
0
100
AcDbBlockReference
 62
2
  6
CONTINUOUS
  2
_CLOSED
 10
8.7140018776
 20
3.5195135399
 41
0.1875
 42
0.1875
 43
0.1875
 50
270.0
  0
INSERT
  5
2D3
100
AcDbEntity
  8
0
100
AcDbBlockReference
 62
2
  6
CONTINUOUS
  2
_CLOSED
 10
8.7140018776
 20
5.6848678706
 41
0.1875
 42
0.1875
 43
0.1875
 50
90.0
  0
ENDBLK
  5
2D4
100
AcDbEntity
  8
0
  6
BYBLOCK
 62
0
100
AcDbBlockEnd
  0
BLOCK
  5
2D5
100
AcDbEntity
  8
0
100
AcDbBlockBegin
 62
2
  6
CONTINUOUS
  2
*D16
 70
65
 10
0.0
 20
0.0
  3
*D16
  1

  0
MTEXT
  5
2D6
100
AcDbEntity
  8
0
100
AcDbMText
 62
2
  6
CONTINUOUS
  7
STANDARD
 71
2
 72
1
 10
8.2186893776
 20
4.7006159021
 30
0.0
 11
0.0
 21
1.0
 31
0.0
 44
0.9
  1
300
 40
0.15625
 41
0.375
  0
LINE
  5
2D7
100
AcDbEntity
  8
0
100
AcDbLine
 62
2
  6
CONTINUOUS
 10
12.0302420351
 20
3.5195135399
 11
8.2890018776
 21
3.5195135399
  0
LINE
  5
2D8
100
AcDbEntity
  8
0
100
AcDbLine
 62
2
  6
CONTINUOUS
 10
12.0302420351
 20
5.8817182643
 11
8.2890018776
 21
5.8817182643
  0
LINE
  5
2D9
100
AcDbEntity
  8
0
100
AcDbLine
 62
2
  6
CONTINUOUS
 10
8.4140018776
 20
3.5195135399
 11
8.4140018776
 21
4.7006159021
  0
LINE
  5
2DA
100
AcDbEntity
  8
0
100
AcDbLine
 62
2
  6
CONTINUOUS
 10
8.4140018776
 20
5.8817182643
 11
8.4140018776
 21
4.7006159021
  0
INSERT
  5
2DB
100
AcDbEntity
  8
0
100
AcDbBlockReference
 62
2
  6
CONTINUOUS
  2
_CLOSED
 10
8.4140018776
 20
3.5195135399
 41
0.1875
 42
0.1875
 43
0.1875
 50
270.0
  0
INSERT
  5
2DC
100
AcDbEntity
  8
0
100
AcDbBlockReference
 62
2
  6
CONTINUOUS
  2
_CLOSED
 10
8.4140018776
 20
5.8817182643
 41
0.1875
 42
0.1875
 43
0.1875
 50
90.0
  0
ENDBLK
  5
2DD
100
AcDbEntity
  8
0
  6
BYBLOCK
 62
0
100
AcDbBlockEnd
  0
BLOCK
  5
2DE
100
AcDbEntity
  8
0
100
AcDbBlockBegin
 62
2
  6
CONTINUOUS
  2
*D17
 70
65
 10
0.0
 20
0.0
  3
*D17
  1

  0
MTEXT
  5
2DF
100
AcDbEntity
  8
0
100
AcDbMText
 62
2
  6
CONTINUOUS
  7
STANDARD
 71
2
 72
1
 10
7.9186893776
 20
4.799041099
 30
0.0
 11
0.0
 21
1.0
 31
0.0
 44
0.9
  1
325
 40
0.15625
 41
0.375
  0
LINE
  5
2E0
100
AcDbEntity
  8
0
100
AcDbLine
 62
2
  6
CONTINUOUS
 10
12.0302420351
 20
6.078568658
 11
7.9890018776
 21
6.078568658
  0
LINE
  5
2E1
100
AcDbEntity
  8
0
100
AcDbLine
 62
2
  6
CONTINUOUS
 10
12.0302420351
 20
3.5195135399
 11
7.9890018776
 21
3.5195135399
  0
LINE
  5
2E2
100
AcDbEntity
  8
0
100
AcDbLine
 62
2
  6
CONTINUOUS
 10
8.1140018776
 20
6.078568658
 11
8.1140018776
 21
4.799041099
  0
LINE
  5
2E3
100
AcDbEntity
  8
0
100
AcDbLine
 62
2
  6
CONTINUOUS
 10
8.1140018776
 20
3.5195135399
 11
8.1140018776
 21
4.799041099
  0
INSERT
  5
2E4
100
AcDbEntity
  8
0
100
AcDbBlockReference
 62
2
  6
CONTINUOUS
  2
_CLOSED
 10
8.1140018776
 20
6.078568658
 41
0.1875
 42
0.1875
 43
0.1875
 50
90.0
  0
INSERT
  5
2E5
100
AcDbEntity
  8
0
100
AcDbBlockReference
 62
2
  6
CONTINUOUS
  2
_CLOSED
 10
8.1140018776
 20
3.5195135399
 41
0.1875
 42
0.1875
 43
0.1875
 50
270.0
  0
ENDBLK
  5
2E6
100
AcDbEntity
  8
0
  6
BYBLOCK
 62
0
100
AcDbBlockEnd
  0
BLOCK
  5
2E7
100
AcDbEntity
  8
0
100
AcDbBlockBegin
 62
2
  6
CONTINUOUS
  2
*D18
 70
65
 10
0.0
 20
0.0
  3
*D18
  1

  0
MTEXT
  5
2E8
100
AcDbEntity
  8
0
100
AcDbMText
 62
2
  6
CONTINUOUS
  7
STANDARD
 71
2
 72
1
 10
7.6186893776
 20
4.8974662958
 30
0.0
 11
0.0
 21
1.0
 31
0.0
 44
0.9
  1
350
 40
0.15625
 41
0.375
  0
LINE
  5
2E9
100
AcDbEntity
  8
0
100
AcDbLine
 62
2
  6
CONTINUOUS
 10
12.0302420351
 20
3.5195135399
 11
7.6890018776
 21
3.5195135399
  0
LINE
  5
2EA
100
AcDbEntity
  8
0
100
AcDbLine
 62
2
  6
CONTINUOUS
 10
12.0302420351
 20
6.2754190517
 11
7.6890018776
 21
6.2754190517
  0
LINE
  5
2EB
100
AcDbEntity
  8
0
100
AcDbLine
 62
2
  6
CONTINUOUS
 10
7.8140018776
 20
3.5195135399
 11
7.8140018776
 21
4.8974662958
  0
LINE
  5
2EC
100
AcDbEntity
  8
0
100
AcDbLine
 62
2
  6
CONTINUOUS
 10
7.8140018776
 20
6.2754190517
 11
7.8140018776
 21
4.8974662958
  0
INSERT
  5
2ED
100
AcDbEntity
  8
0
100
AcDbBlockReference
 62
2
  6
CONTINUOUS
  2
_CLOSED
 10
7.8140018776
 20
3.5195135399
 41
0.1875
 42
0.1875
 43
0.1875
 50
270.0
  0
INSERT
  5
2EE
100
AcDbEntity
  8
0
100
AcDbBlockReference
 62
2
  6
CONTINUOUS
  2
_CLOSED
 10
7.8140018776
 20
6.2754190517
 41
0.1875
 42
0.1875
 43
0.1875
 50
90.0
  0
ENDBLK
  5
2EF
100
AcDbEntity
  8
0
  6
BYBLOCK
 62
0
100
AcDbBlockEnd
  0
BLOCK
  5
2F0
100
AcDbEntity
  8
0
100
AcDbBlockBegin
 62
2
  6
CONTINUOUS
  2
*D19
 70
65
 10
0.0
 20
0.0
  3
*D19
  1

  0
MTEXT
  5
2F1
100
AcDbEntity
  8
0
100
AcDbMText
 62
2
  6
CONTINUOUS
  7
STANDARD
 71
2
 72
1
 10
7.3186893776
 20
4.9958914927
 30
0.0
 11
0.0
 21
1.0
 31
0.0
 44
0.9
  1
375
 40
0.15625
 41
0.375
  0
LINE
  5
2F2
100
AcDbEntity
  8
0
100
AcDbLine
 62
2
  6
CONTINUOUS
 10
12.0302420351
 20
3.5195135399
 11
7.3890018776
 21
3.5195135399
  0
LINE
  5
2F3
100
AcDbEntity
  8
0
100
AcDbLine
 62
2
  6
CONTINUOUS
 10
12.0302420351
 20
6.4722694454
 11
7.3890018776
 21
6.4722694454
  0
LINE
  5
2F4
100
AcDbEntity
  8
0
100
AcDbLine
 62
2
  6
CONTINUOUS
 10
7.5140018776
 20
3.5195135399
 11
7.5140018776
 21
4.9958914927
  0
LINE
  5
2F5
100
AcDbEntity
  8
0
100
AcDbLine
 62
2
  6
CONTINUOUS
 10
7.5140018776
 20
6.4722694454
 11
7.5140018776
 21
4.9958914927
  0
INSERT
  5
2F6
100
AcDbEntity
  8
0
100
AcDbBlockReference
 62
2
  6
CONTINUOUS
  2
_CLOSED
 10
7.5140018776
 20
3.5195135399
 41
0.1875
 42
0.1875
 43
0.1875
 50
270.0
  0
INSERT
  5
2F7
100
AcDbEntity
  8
0
100
AcDbBlockReference
 62
2
  6
CONTINUOUS
  2
_CLOSED
 10
7.5140018776
 20
6.4722694454
 41
0.1875
 42
0.1875
 43
0.1875
 50
90.0
  0
ENDBLK
  5
2F8
100
AcDbEntity
  8
0
  6
BYBLOCK
 62
0
100
AcDbBlockEnd
  0
BLOCK
  5
2F9
100
AcDbEntity
  8
0
100
AcDbBlockBegin
 62
2
  6
CONTINUOUS
  2
*D20
 70
65
 10
0.0
 20
0.0
  3
*D20
  1

  0
MTEXT
  5
2FA
100
AcDbEntity
  8
0
100
AcDbMText
 62
2
  6
CONTINUOUS
  7
STANDARD
 71
3
 72
1
 10
11.734667546
 20
2.7980129581
 30
0.0
 11
1.0
 21
0.0
 31
0.0
 44
0.9
  1
25
 40
0.15625
 41
0.25
  0
LINE
  5
2FB
100
AcDbEntity
  8
0
100
AcDbLine
 62
2
  6
CONTINUOUS
 10
12.0927420351
 20
3.4570135399
 11
12.0927420351
 21
2.5948879581
  0
LINE
  5
2FC
100
AcDbEntity
  8
0
100
AcDbLine
 62
2
  6
CONTINUOUS
 10
12.2895924288
 20
3.4570135399
 11
12.2895924288
 21
2.5948879581
  0
LINE
  5
2FD
100
AcDbEntity
  8
0
100
AcDbLine
 62
2
  6
CONTINUOUS
 10
12.0927420351
 20
2.7198879581
 11
11.812792546
 21
2.7198879581
  0
LINE
  5
2FE
100
AcDbEntity
  8
0
100
AcDbLine
 62
2
  6
CONTINUOUS
 10
12.2895924288
 20
2.7198879581
 11
12.7895924288
 21
2.7198879581
  0
INSERT
  5
2FF
100
AcDbEntity
  8
0
100
AcDbBlockReference
 62
2
  6
CONTINUOUS
  2
_CLOSED
 10
12.0927420351
 20
2.7198879581
 41
0.1875
 42
0.1875
 43
0.1875
  0
INSERT
  5
300
100
AcDbEntity
  8
0
100
AcDbBlockReference
 62
2
  6
CONTINUOUS
  2
_CLOSED
 10
12.2895924288
 20
2.7198879581
 41
0.1875
 42
0.1875
 43
0.1875
 50
180.0
  0
ENDBLK
  5
301
100
AcDbEntity
  8
0
  6
BYBLOCK
 62
0
100
AcDbBlockEnd
  0
BLOCK
  5
302
100
AcDbEntity
  8
0
100
AcDbBlockBegin
 62
2
  6
CONTINUOUS
  2
*D21
 70
65
 10
0.0
 20
0.0
  3
*D21
  1

  0
MTEXT
  5
303
100
AcDbEntity
  8
0
100
AcDbMText
 62
2
  6
CONTINUOUS
  7
STANDARD
 71
2
 72
1
 10
12.2895924288
 20
2.5726357879
 30
0.0
 11
1.0
 21
0.0
 31
0.0
 44
0.9
  1
50
 40
0.15625
 41
0.25
  0
LINE
  5
304
100
AcDbEntity
  8
0
100
AcDbLine
 62
2
  6
CONTINUOUS
 10
12.0927420351
 20
3.4570135399
 11
12.0927420351
 21
2.3695107879
  0
LINE
  5
305
100
AcDbEntity
  8
0
100
AcDbLine
 62
2
  6
CONTINUOUS
 10
12.4864428225
 20
3.4570135399
 11
12.4864428225
 21
2.3695107879
  0
LINE
  5
306
100
AcDbEntity
  8
0
100
AcDbLine
 62
2
  6
CONTINUOUS
 10
12.0927420351
 20
2.4945107879
 11
11.5927420351
 21
2.4945107879
  0
LINE
  5
307
100
AcDbEntity
  8
0
100
AcDbLine
 62
2
  6
CONTINUOUS
 10
12.4864428225
 20
2.4945107879
 11
12.9864428225
 21
2.4945107879
  0
INSERT
  5
308
100
AcDbEntity
  8
0
100
AcDbBlockReference
 62
2
  6
CONTINUOUS
  2
_CLOSED
 10
12.0927420351
 20
2.4945107879
 41
0.1875
 42
0.1875
 43
0.1875
  0
INSERT
  5
309
100
AcDbEntity
  8
0
100
AcDbBlockReference
 62
2
  6
CONTINUOUS
  2
_CLOSED
 10
12.4864428225
 20
2.4945107879
 41
0.1875
 42
0.1875
 43
0.1875
 50
180.0
  0
ENDBLK
  5
30A
100
AcDbEntity
  8
0
  6
BYBLOCK
 62
0
100
AcDbBlockEnd
  0
BLOCK
  5
30B
100
AcDbEntity
  8
0
100
AcDbBlockBegin
 62
2
  6
CONTINUOUS
  2
*D22
 70
65
 10
0.0
 20
0.0
  3
*D22
  1

  0
MTEXT
  5
30C
100
AcDbEntity
  8
0
100
AcDbMText
 62
2
  6
CONTINUOUS
  7
STANDARD
 71
2
 72
1
 10
12.3880176257
 20
2.3287797387
 30
0.0
 11
1.0
 21
0.0
 31
0.0
 44
0.9
  1
75
 40
0.15625
 41
0.25
  0
LINE
  5
30D
100
AcDbEntity
  8
0
100
AcDbLine
 62
2
  6
CONTINUOUS
 10
12.0927420351
 20
3.4570135399
 11
12.0927420351
 21
2.1256547387
  0
LINE
  5
30E
100
AcDbEntity
  8
0
100
AcDbLine
 62
2
  6
CONTINUOUS
 10
12.6832932162
 20
3.4570135399
 11
12.6832932162
 21
2.1256547387
  0
LINE
  5
30F
100
AcDbEntity
  8
0
100
AcDbLine
 62
2
  6
CONTINUOUS
 10
12.0927420351
 20
2.2506547387
 11
11.5927420351
 21
2.2506547387
  0
LINE
  5
310
100
AcDbEntity
  8
0
100
AcDbLine
 62
2
  6
CONTINUOUS
 10
12.6832932162
 20
2.2506547387
 11
13.1832932162
 21
2.2506547387
  0
INSERT
  5
311
100
AcDbEntity
  8
0
100
AcDbBlockReference
 62
2
  6
CONTINUOUS
  2
_CLOSED
 10
12.0927420351
 20
2.2506547387
 41
0.1875
 42
0.1875
 43
0.1875
  0
INSERT
  5
312
100
AcDbEntity
  8
0
100
AcDbBlockReference
 62
2
  6
CONTINUOUS
  2
_CLOSED
 10
12.6832932162
 20
2.2506547387
 41
0.1875
 42
0.1875
 43
0.1875
 50
180.0
  0
ENDBLK
  5
313
100
AcDbEntity
  8
0
  6
BYBLOCK
 62
0
100
AcDbBlockEnd
  0
BLOCK
  5
314
100
AcDbEntity
  8
0
100
AcDbBlockBegin
 62
2
  6
CONTINUOUS
  2
*D23
 70
65
 10
0.0
 20
0.0
  3
*D23
  1

  0
MTEXT
  5
315
100
AcDbEntity
  8
0
100
AcDbMText
 62
2
  6
CONTINUOUS
  7
STANDARD
 71
2
 72
1
 10
12.4864428225
 20
2.0888709308
 30
0.0
 11
1.0
 21
0.0
 31
0.0
 44
0.9
  1
100
 40
0.15625
 41
0.375
  0
LINE
  5
316
100
AcDbEntity
  8
0
100
AcDbLine
 62
2
  6
CONTINUOUS
 10
12.0927420351
 20
3.4570135399
 11
12.0927420351
 21
1.8857459308
  0
LINE
  5
317
100
AcDbEntity
  8
0
100
AcDbLine
 62
2
  6
CONTINUOUS
 10
12.8801436099
 20
3.4570135399
 11
12.8801436099
 21
1.8857459308
  0
LINE
  5
318
100
AcDbEntity
  8
0
100
AcDbLine
 62
2
  6
CONTINUOUS
 10
12.0927420351
 20
2.0107459308
 11
11.5927420351
 21
2.0107459308
  0
LINE
  5
319
100
AcDbEntity
  8
0
100
AcDbLine
 62
2
  6
CONTINUOUS
 10
12.8801436099
 20
2.0107459308
 11
13.3801436099
 21
2.0107459308
  0
INSERT
  5
31A
100
AcDbEntity
  8
0
100
AcDbBlockReference
 62
2
  6
CONTINUOUS
  2
_CLOSED
 10
12.0927420351
 20
2.0107459308
 41
0.1875
 42
0.1875
 43
0.1875
  0
INSERT
  5
31B
100
AcDbEntity
  8
0
100
AcDbBlockReference
 62
2
  6
CONTINUOUS
  2
_CLOSED
 10
12.8801436099
 20
2.0107459308
 41
0.1875
 42
0.1875
 43
0.1875
 50
180.0
  0
ENDBLK
  5
31C
100
AcDbEntity
  8
0
  6
BYBLOCK
 62
0
100
AcDbBlockEnd
  0
BLOCK
  5
31D
100
AcDbEntity
  8
0
100
AcDbBlockBegin
 62
2
  6
CONTINUOUS
  2
*D24
 70
65
 10
0.0
 20
0.0
  3
*D24
  1

  0
MTEXT
  5
31E
100
AcDbEntity
  8
0
100
AcDbMText
 62
2
  6
CONTINUOUS
  7
STANDARD
 71
2
 72
1
 10
1.5536005932
 20
8.6048781491
 30
0.0
 11
1.0
 21
0.0
 31
0.0
 44
0.9
  1
356
 40
0.15625
 41
0.375
  0
LINE
  5
31F
100
AcDbEntity
  8
0
100
AcDbLine
 62
2
  6
CONTINUOUS
 10
3.104820973
 20
7.1168986948
 11
1.4286005932
 21
7.1168986948
  0
LINE
  5
320
100
AcDbEntity
  8
0
100
AcDbLine
 62
2
  6
CONTINUOUS
 10
3.3277812164
 20
9.9200483011
 11
1.4286005932
 21
9.9200483011
  0
LINE
  5
321
100
AcDbEntity
  8
0
100
AcDbLine
 62
2
  6
CONTINUOUS
 10
1.5536005932
 20
7.1168986948
 11
1.5536005932
 21
8.3705031491
  0
LINE
  5
322
100
AcDbEntity
  8
0
100
AcDbLine
 62
2
  6
CONTINUOUS
 10
1.5536005932
 20
9.9200483011
 11
1.5536005932
 21
8.6830031491
  0
INSERT
  5
323
100
AcDbEntity
  8
0
100
AcDbBlockReference
 62
2
  6
CONTINUOUS
  2
_CLOSED
 10
1.5536005932
 20
7.1168986948
 41
0.1875
 42
0.1875
 43
0.1875
 50
270.0
  0
INSERT
  5
324
100
AcDbEntity
  8
0
100
AcDbBlockReference
 62
2
  6
CONTINUOUS
  2
_CLOSED
 10
1.5536005932
 20
9.9200483011
 41
0.1875
 42
0.1875
 43
0.1875
 50
90.0
  0
ENDBLK
  5
325
100
AcDbEntity
  8
0
  6
BYBLOCK
 62
0
100
AcDbBlockEnd
  0
BLOCK
  5
326
100
AcDbEntity
  8
0
100
AcDbBlockBegin
 62
2
  6
CONTINUOUS
  2
*D25
 70
65
 10
0.0
 20
0.0
  3
*D25
  1

  0
MTEXT
  5
327
100
AcDbEntity
  8
0
100
AcDbMText
 62
2
  6
CONTINUOUS
  7
STANDARD
 71
2
 72
1
 10
4.7529607478
 20
5.8376826391
 30
0.0
 11
1.0
 21
0.0
 31
0.0
 44
0.9
  1
395
 40
0.15625
 41
0.375
  0
LINE
  5
328
100
AcDbEntity
  8
0
100
AcDbLine
 62
2
  6
CONTINUOUS
 10
3.1279508942
 20
7.0543986948
 11
3.1279508942
 21
5.6345576391
  0
LINE
  5
329
100
AcDbEntity
  8
0
100
AcDbLine
 62
2
  6
CONTINUOUS
 10
6.2381871147
 20
7.0543986948
 11
6.2381871147
 21
5.6345576391
  0
LINE
  5
32A
100
AcDbEntity
  8
0
100
AcDbLine
 62
2
  6
CONTINUOUS
 10
3.1279508942
 20
5.7595576391
 11
4.4873357478
 21
5.7595576391
  0
LINE
  5
32B
100
AcDbEntity
  8
0
100
AcDbLine
 62
2
  6
CONTINUOUS
 10
6.2381871147
 20
5.7595576391
 11
5.0185857478
 21
5.7595576391
  0
INSERT
  5
32C
100
AcDbEntity
  8
0
100
AcDbBlockReference
 62
2
  6
CONTINUOUS
  2
_CLOSED
 10
3.1279508942
 20
5.7595576391
 41
0.1875
 42
0.1875
 43
0.1875
 50
180.0
  0
INSERT
  5
32D
100
AcDbEntity
  8
0
100
AcDbBlockReference
 62
2
  6
CONTINUOUS
  2
_CLOSED
 10
6.2381871147
 20
5.7595576391
 41
0.1875
 42
0.1875
 43
0.1875
  0
ENDBLK
  5
32E
100
AcDbEntity
  8
0
  6
BYBLOCK
 62
0
100
AcDbBlockEnd
  0
BLOCK
  5
32F
100
AcDbEntity
  8
0
100
AcDbBlockBegin
 62
2
  6
CONTINUOUS
  2
*D26
 70
65
 10
0.0
 20
0.0
  3
*D26
  1

  0
TEXT
  5
330
100
AcDbEntity
  8
0
100
AcDbText
 62
2
  6
CONTINUOUS
 10
13.866884682
 20
2.7682363253
  7
STANDARD
 40
0.15625
  1
38 x 
 41
0.8
 72
0
100
AcDbText
  0
TEXT
  5
331
100
AcDbEntity
  8
0
100
AcDbText
 62
2
  6
CONTINUOUS
 10
14.491884682
 20
2.7682363253
  7
TEXTSTYLE_1
 40
0.15625
  1
n
 41
1.0
 72
0
100
AcDbText
  0
TEXT
  5
332
100
AcDbEntity
  8
0
100
AcDbText
 62
2
  6
CONTINUOUS
 10
14.7002180153
 20
2.8854238253
  7
STANDARD
 40
0.15625
  1
6.22
 41
0.8
 72
0
100
AcDbText
  0
TEXT
  5
333
100
AcDbEntity
  8
0
100
AcDbText
 62
2
  6
CONTINUOUS
 10
14.7002180153
 20
2.6510488253
  7
STANDARD
 40
0.15625
  1
6.20
 41
0.8
 72
0
100
AcDbText
  0
TEXT
  5
334
100
AcDbEntity
  8
0
100
AcDbText
 62
2
  6
CONTINUOUS
 10
15.2002180153
 20
2.7682363253
  7
STANDARD
 40
0.15625
  1
 THRU
 41
0.8
 72
0
100
AcDbText
  0
TEXT
  5
335
100
AcDbEntity
  8
0
100
AcDbText
 62
2
  6
CONTINUOUS
 10
13.866884682
 20
2.4166738253
  7
STANDARD
 40
0.15625
  1
0.5 x 45
 41
0.8
 72
0
100
AcDbText
  0
TEXT
  5
336
100
AcDbEntity
  8
0
100
AcDbText
 62
2
  6
CONTINUOUS
 10
14.866884682
 20
2.4166738253
  7
TEXTSTYLE_1
 40
0.15625
  1
~
 41
1.0
 72
0
100
AcDbText
  0
TEXT
  5
337
100
AcDbEntity
  8
0
100
AcDbText
 62
2
  6
CONTINUOUS
 10
14.9710513486
 20
2.4166738253
  7
STANDARD
 40
0.15625
  1
 CHAMFER
 41
0.8
 72
0
100
AcDbText
  0
LINE
  5
338
100
AcDbEntity
  8
0
100
AcDbLine
 62
2
  6
CONTINUOUS
 10
12.8981638404
 20
3.5030486535
 11
13.616884682
 21
2.8463613253
  0
LINE
  5
339
100
AcDbEntity
  8
0
100
AcDbLine
 62
2
  6
CONTINUOUS
 10
13.616884682
 20
2.8463613253
 11
13.788759682
 21
2.8463613253
  0
INSERT
  5
33A
100
AcDbEntity
  8
0
100
AcDbBlockReference
 62
2
  6
CONTINUOUS
  2
_CLOSED
 10
12.8981638404
 20
3.5030486535
 41
0.1875
 42
0.1875
 43
0.1875
 50
137.5823980945
  0
ENDBLK
  5
33B
100
AcDbEntity
  8
0
  6
BYBLOCK
 62
0
100
AcDbBlockEnd
  0
BLOCK
  5
33C
100
AcDbEntity
  8
0
100
AcDbBlockBegin
 62
2
  6
CONTINUOUS
  2
*D27
 70
65
 10
0.0
 20
0.0
  3
*D27
  1

  0
MTEXT
  5
33D
100
AcDbEntity
  8
0
100
AcDbMText
 62
2
  6
CONTINUOUS
  7
STANDARD
 71
3
 72
1
 10
11.7229965505
 20
3.0126251932
 30
0.0
 11
1.0
 21
0.0
 31
0.0
 44
0.9
  1
10
 40
0.15625
 41
0.25
  0
LINE
  5
33E
100
AcDbEntity
  8
0
100
AcDbLine
 62
2
  6
CONTINUOUS
 10
12.0140018776
 20
3.4176434612
 11
12.0140018776
 21
2.8095001932
  0
LINE
  5
33F
100
AcDbEntity
  8
0
100
AcDbLine
 62
2
  6
CONTINUOUS
 10
12.0927420351
 20
3.4570135399
 11
12.0927420351
 21
2.8095001932
  0
LINE
  5
340
100
AcDbEntity
  8
0
100
AcDbLine
 62
2
  6
CONTINUOUS
 10
12.0140018776
 20
2.9345001932
 11
11.8011215505
 21
2.9345001932
  0
LINE
  5
341
100
AcDbEntity
  8
0
100
AcDbLine
 62
2
  6
CONTINUOUS
 10
12.0927420351
 20
2.9345001932
 11
12.5927420351
 21
2.9345001932
  0
INSERT
  5
342
100
AcDbEntity
  8
0
100
AcDbBlockReference
 62
2
  6
CONTINUOUS
  2
_CLOSED
 10
12.0140018776
 20
2.9345001932
 41
0.1875
 42
0.1875
 43
0.1875
  0
INSERT
  5
343
100
AcDbEntity
  8
0
100
AcDbBlockReference
 62
2
  6
CONTINUOUS
  2
_CLOSED
 10
12.0927420351
 20
2.9345001932
 41
0.1875
 42
0.1875
 43
0.1875
 50
180.0
  0
ENDBLK
  5
344
100
AcDbEntity
  8
0
  6
BYBLOCK
 62
0
100
AcDbBlockEnd
  0
BLOCK
  5
345
100
AcDbEntity
  8
0
100
AcDbBlockBegin
  2
*T1
 70
1
 10
0.0
 20
0.0
  3
*T1
  1

  0
LINE
  5
346
100
AcDbEntity
  8
0
100
AcDbLine
 62
2
  6
CONTINUOUS
 10
0.0
 20
0.0
 11
15.8267716535
 21
0.0
  0
LINE
  5
347
100
AcDbEntity
  8
0
100
AcDbLine
 62
2
  6
CONTINUOUS
 10
0.0
 20
0.0
 11
0.0
 21
-0.157480315
  0
LINE
  5
348
100
AcDbEntity
  8
0
100
AcDbLine
 62
2
  6
CONTINUOUS
 10
0.0
 20
-0.157480315
 11
15.8267716535
 21
-0.157480315
  0
LINE
  5
349
100
AcDbEntity
  8
0
100
AcDbLine
 62
2
  6
CONTINUOUS
 10
1.4566929134
 20
0.0
 11
1.4566929134
 21
-0.157480315
  0
LINE
  5
34A
100
AcDbEntity
  8
0
100
AcDbLine
 62
2
  6
CONTINUOUS
 10
3.0708661417
 20
0.0
 11
3.0708661417
 21
-0.157480315
  0
LINE
  5
34B
100
AcDbEntity
  8
0
100
AcDbLine
 62
2
  6
CONTINUOUS
 10
4.6850393701
 20
0.0
 11
4.6850393701
 21
-0.157480315
  0
LINE
  5
34C
100
AcDbEntity
  8
0
100
AcDbLine
 62
2
  6
CONTINUOUS
 10
6.2992125984
 20
0.0
 11
6.2992125984
 21
-0.157480315
  0
LINE
  5
34D
100
AcDbEntity
  8
0
100
AcDbLine
 62
2
  6
CONTINUOUS
 10
7.9133858268
 20
0.0
 11
7.9133858268
 21
-0.157480315
  0
LINE
  5
34E
100
AcDbEntity
  8
0
100
AcDbLine
 62
2
  6
CONTINUOUS
 10
9.5275590551
 20
0.0
 11
9.5275590551
 21
-0.157480315
  0
LINE
  5
34F
100
AcDbEntity
  8
0
100
AcDbLine
 62
2
  6
CONTINUOUS
 10
11.1417322835
 20
0.0
 11
11.1417322835
 21
-0.157480315
  0
LINE
  5
350
100
AcDbEntity
  8
0
100
AcDbLine
 62
2
  6
CONTINUOUS
 10
12.7559055118
 20
0.0
 11
12.7559055118
 21
-0.157480315
  0
LINE
  5
351
100
AcDbEntity
  8
0
100
AcDbLine
 62
2
  6
CONTINUOUS
 10
14.3700787402
 20
0.0
 11
14.3700787402
 21
-0.157480315
  0
LINE
  5
352
100
AcDbEntity
  8
0
100
AcDbLine
 62
2
  6
CONTINUOUS
 10
15.8267716535
 20
0.0
 11
15.8267716535
 21
-0.157480315
  0
MTEXT
  5
353
100
AcDbEntity
  8
0
100
AcDbMText
 62
2
  6
CONTINUOUS
  7
STANDARD
 71
2
 72
1
 10
0.7283464567
 20
-0.0196850394
 30
0.0
 11
1.0
 21
0.0
 31
0.0
 44
0.9
  1
1
 40
0.1181102362
 41
0.188976378
  0
MTEXT
  5
354
100
AcDbEntity
  8
0
100
AcDbMText
 62
2
  6
CONTINUOUS
  7
STANDARD
 71
2
 72
1
 10
2.2637795276
 20
-0.0196850394
 30
0.0
 11
1.0
 21
0.0
 31
0.0
 44
0.9
  1
2
 40
0.1181102362
 41
0.188976378
  0
MTEXT
  5
355
100
AcDbEntity
  8
0
100
AcDbMText
 62
2
  6
CONTINUOUS
  7
STANDARD
 71
2
 72
1
 10
3.8779527559
 20
-0.0196850394
 30
0.0
 11
1.0
 21
0.0
 31
0.0
 44
0.9
  1
3 
 40
0.1181102362
 41
0.3779527559
  0
MTEXT
  5
356
100
AcDbEntity
  8
0
100
AcDbMText
 62
2
  6
CONTINUOUS
  7
STANDARD
 71
2
 72
1
 10
5.4921259843
 20
-0.0196850394
 30
0.0
 11
1.0
 21
0.0
 31
0.0
 44
0.9
  1
4
 40
0.1181102362
 41
0.188976378
  0
MTEXT
  5
357
100
AcDbEntity
  8
0
100
AcDbMText
 62
2
  6
CONTINUOUS
  7
STANDARD
 71
2
 72
1
 10
7.1062992126
 20
-0.0196850394
 30
0.0
 11
1.0
 21
0.0
 31
0.0
 44
0.9
  1
5
 40
0.1181102362
 41
0.188976378
  0
MTEXT
  5
358
100
AcDbEntity
  8
0
100
AcDbMText
 62
2
  6
CONTINUOUS
  7
STANDARD
 71
2
 72
1
 10
8.7204724409
 20
-0.0196850394
 30
0.0
 11
1.0
 21
0.0
 31
0.0
 44
0.9
  1
6
 40
0.1181102362
 41
0.188976378
  0
MTEXT
  5
359
100
AcDbEntity
  8
0
100
AcDbMText
 62
2
  6
CONTINUOUS
  7
STANDARD
 71
2
 72
1
 10
10.3346456693
 20
-0.0196850394
 30
0.0
 11
1.0
 21
0.0
 31
0.0
 44
0.9
  1
7
 40
0.1181102362
 41
0.188976378
  0
MTEXT
  5
35A
100
AcDbEntity
  8
0
100
AcDbMText
 62
2
  6
CONTINUOUS
  7
STANDARD
 71
2
 72
1
 10
11.9488188976
 20
-0.0196850394
 30
0.0
 11
1.0
 21
0.0
 31
0.0
 44
0.9
  1
8
 40
0.1181102362
 41
0.188976378
  0
MTEXT
  5
35B
100
AcDbEntity
  8
0
100
AcDbMText
 62
2
  6
CONTINUOUS
  7
STANDARD
 71
2
 72
1
 10
13.562992126
 20
-0.0196850394
 30
0.0
 11
1.0
 21
0.0
 31
0.0
 44
0.9
  1
9
 40
0.1181102362
 41
0.188976378
  0
MTEXT
  5
35C
100
AcDbEntity
  8
0
100
AcDbMText
 62
2
  6
CONTINUOUS
  7
STANDARD
 71
2
 72
1
 10
15.0984251969
 20
-0.0196850394
 30
0.0
 11
1.0
 21
0.0
 31
0.0
 44
0.9
  1
10
 40
0.1181102362
 41
0.3779527559
  0
ENDBLK
  5
35D
100
AcDbEntity
  8
0
  6
BYBLOCK
 62
0
100
AcDbBlockEnd
  0
BLOCK
  5
35E
100
AcDbEntity
  8
0
100
AcDbBlockBegin
  2
*T2
 70
1
 10
0.0
 20
0.0
  3
*T2
  1

  0
LINE
  5
35F
100
AcDbEntity
  8
0
100
AcDbLine
 62
2
  6
CONTINUOUS
 10
0.0
 20
0.0
 11
15.8267716535
 21
0.0
  0
LINE
  5
360
100
AcDbEntity
  8
0
100
AcDbLine
 62
2
  6
CONTINUOUS
 10
0.0
 20
0.0
 11
0.0
 21
-0.157480315
  0
LINE
  5
361
100
AcDbEntity
  8
0
100
AcDbLine
 62
2
  6
CONTINUOUS
 10
0.0
 20
-0.157480315
 11
15.8267716535
 21
-0.157480315
  0
LINE
  5
362
100
AcDbEntity
  8
0
100
AcDbLine
 62
2
  6
CONTINUOUS
 10
1.4566929134
 20
0.0
 11
1.4566929134
 21
-0.157480315
  0
LINE
  5
363
100
AcDbEntity
  8
0
100
AcDbLine
 62
2
  6
CONTINUOUS
 10
3.0708661417
 20
0.0
 11
3.0708661417
 21
-0.157480315
  0
LINE
  5
364
100
AcDbEntity
  8
0
100
AcDbLine
 62
2
  6
CONTINUOUS
 10
4.6850393701
 20
0.0
 11
4.6850393701
 21
-0.157480315
  0
LINE
  5
365
100
AcDbEntity
  8
0
100
AcDbLine
 62
2
  6
CONTINUOUS
 10
6.2992125984
 20
0.0
 11
6.2992125984
 21
-0.157480315
  0
LINE
  5
366
100
AcDbEntity
  8
0
100
AcDbLine
 62
2
  6
CONTINUOUS
 10
7.9133858268
 20
0.0
 11
7.9133858268
 21
-0.157480315
  0
LINE
  5
367
100
AcDbEntity
  8
0
100
AcDbLine
 62
2
  6
CONTINUOUS
 10
9.5275590551
 20
0.0
 11
9.5275590551
 21
-0.157480315
  0
LINE
  5
368
100
AcDbEntity
  8
0
100
AcDbLine
 62
2
  6
CONTINUOUS
 10
11.1417322835
 20
0.0
 11
11.1417322835
 21
-0.157480315
  0
LINE
  5
369
100
AcDbEntity
  8
0
100
AcDbLine
 62
2
  6
CONTINUOUS
 10
12.7559055118
 20
0.0
 11
12.7559055118
 21
-0.157480315
  0
LINE
  5
36A
100
AcDbEntity
  8
0
100
AcDbLine
 62
2
  6
CONTINUOUS
 10
14.3700787402
 20
0.0
 11
14.3700787402
 21
-0.157480315
  0
LINE
  5
36B
100
AcDbEntity
  8
0
100
AcDbLine
 62
2
  6
CONTINUOUS
 10
15.8267716535
 20
0.0
 11
15.8267716535
 21
-0.157480315
  0
MTEXT
  5
36C
100
AcDbEntity
  8
0
100
AcDbMText
 62
2
  6
CONTINUOUS
  7
STANDARD
 71
2
 72
1
 10
0.7283464567
 20
-0.0196850394
 30
0.0
 11
1.0
 21
0.0
 31
0.0
 44
0.9
  1
1
 40
0.1181102362
 41
0.188976378
  0
MTEXT
  5
36D
100
AcDbEntity
  8
0
100
AcDbMText
 62
2
  6
CONTINUOUS
  7
STANDARD
 71
2
 72
1
 10
2.2637795276
 20
-0.0196850394
 30
0.0
 11
1.0
 21
0.0
 31
0.0
 44
0.9
  1
2
 40
0.1181102362
 41
0.188976378
  0
MTEXT
  5
36E
100
AcDbEntity
  8
0
100
AcDbMText
 62
2
  6
CONTINUOUS
  7
STANDARD
 71
2
 72
1
 10
3.8779527559
 20
-0.0196850394
 30
0.0
 11
1.0
 21
0.0
 31
0.0
 44
0.9
  1
3 
 40
0.1181102362
 41
0.3779527559
  0
MTEXT
  5
36F
100
AcDbEntity
  8
0
100
AcDbMText
 62
2
  6
CONTINUOUS
  7
STANDARD
 71
2
 72
1
 10
5.4921259843
 20
-0.0196850394
 30
0.0
 11
1.0
 21
0.0
 31
0.0
 44
0.9
  1
4 
 40
0.1181102362
 41
0.3779527559
  0
MTEXT
  5
370
100
AcDbEntity
  8
0
100
AcDbMText
 62
2
  6
CONTINUOUS
  7
STANDARD
 71
2
 72
1
 10
7.1062992126
 20
-0.0196850394
 30
0.0
 11
1.0
 21
0.0
 31
0.0
 44
0.9
  1
5
 40
0.1181102362
 41
0.188976378
  0
MTEXT
  5
371
100
AcDbEntity
  8
0
100
AcDbMText
 62
2
  6
CONTINUOUS
  7
STANDARD
 71
2
 72
1
 10
8.7204724409
 20
-0.0196850394
 30
0.0
 11
1.0
 21
0.0
 31
0.0
 44
0.9
  1
6
 40
0.1181102362
 41
0.188976378
  0
MTEXT
  5
372
100
AcDbEntity
  8
0
100
AcDbMText
 62
2
  6
CONTINUOUS
  7
STANDARD
 71
2
 72
1
 10
10.3346456693
 20
-0.0196850394
 30
0.0
 11
1.0
 21
0.0
 31
0.0
 44
0.9
  1
7
 40
0.1181102362
 41
0.188976378
  0
MTEXT
  5
373
100
AcDbEntity
  8
0
100
AcDbMText
 62
2
  6
CONTINUOUS
  7
STANDARD
 71
2
 72
1
 10
11.9488188976
 20
-0.0196850394
 30
0.0
 11
1.0
 21
0.0
 31
0.0
 44
0.9
  1
8
 40
0.1181102362
 41
0.188976378
  0
MTEXT
  5
374
100
AcDbEntity
  8
0
100
AcDbMText
 62
2
  6
CONTINUOUS
  7
STANDARD
 71
2
 72
1
 10
13.562992126
 20
-0.0196850394
 30
0.0
 11
1.0
 21
0.0
 31
0.0
 44
0.9
  1
9
 40
0.1181102362
 41
0.188976378
  0
MTEXT
  5
375
100
AcDbEntity
  8
0
100
AcDbMText
 62
2
  6
CONTINUOUS
  7
STANDARD
 71
2
 72
1
 10
15.0984251969
 20
-0.0196850394
 30
0.0
 11
1.0
 21
0.0
 31
0.0
 44
0.9
  1
10
 40
0.1181102362
 41
0.3779527559
  0
ENDBLK
  5
376
100
AcDbEntity
  8
0
  6
BYBLOCK
 62
0
100
AcDbBlockEnd
  0
BLOCK
  5
377
100
AcDbEntity
  8
0
100
AcDbBlockBegin
  2
*T3
 70
1
 10
0.0
 20
0.0
  3
*T3
  1

  0
LINE
  5
378
100
AcDbEntity
  8
0
100
AcDbLine
 62
2
  6
CONTINUOUS
 10
0.0
 20
0.0
 11
0.157480315
 21
0.0
  0
LINE
  5
379
100
AcDbEntity
  8
0
100
AcDbLine
 62
2
  6
CONTINUOUS
 10
0.0
 20
0.0
 11
0.0
 21
-10.9842519685
  0
LINE
  5
37A
100
AcDbEntity
  8
0
100
AcDbLine
 62
2
  6
CONTINUOUS
 10
0.0
 20
-1.0984251969
 11
0.157480315
 21
-1.0984251969
  0
LINE
  5
37B
100
AcDbEntity
  8
0
100
AcDbLine
 62
2
  6
CONTINUOUS
 10
0.0
 20
-2.1968503937
 11
0.157480315
 21
-2.1968503937
  0
LINE
  5
37C
100
AcDbEntity
  8
0
100
AcDbLine
 62
2
  6
CONTINUOUS
 10
0.0
 20
-3.2952755906
 11
0.157480315
 21
-3.2952755906
  0
LINE
  5
37D
100
AcDbEntity
  8
0
100
AcDbLine
 62
2
  6
CONTINUOUS
 10
0.0
 20
-4.3937007874
 11
0.157480315
 21
-4.3937007874
  0
LINE
  5
37E
100
AcDbEntity
  8
0
100
AcDbLine
 62
2
  6
CONTINUOUS
 10
0.0
 20
-5.4921259843
 11
0.157480315
 21
-5.4921259843
  0
LINE
  5
37F
100
AcDbEntity
  8
0
100
AcDbLine
 62
2
  6
CONTINUOUS
 10
0.0
 20
-6.5905511811
 11
0.157480315
 21
-6.5905511811
  0
LINE
  5
380
100
AcDbEntity
  8
0
100
AcDbLine
 62
2
  6
CONTINUOUS
 10
0.0
 20
-7.688976378
 11
0.157480315
 21
-7.688976378
  0
LINE
  5
381
100
AcDbEntity
  8
0
100
AcDbLine
 62
2
  6
CONTINUOUS
 10
0.0
 20
-8.7874015748
 11
0.157480315
 21
-8.7874015748
  0
LINE
  5
382
100
AcDbEntity
  8
0
100
AcDbLine
 62
2
  6
CONTINUOUS
 10
0.0
 20
-9.8858267717
 11
0.157480315
 21
-9.8858267717
  0
LINE
  5
383
100
AcDbEntity
  8
0
100
AcDbLine
 62
2
  6
CONTINUOUS
 10
0.0
 20
-10.9842519685
 11
0.157480315
 21
-10.9842519685
  0
LINE
  5
384
100
AcDbEntity
  8
0
100
AcDbLine
 62
2
  6
CONTINUOUS
 10
0.157480315
 20
0.0
 11
0.157480315
 21
-10.9842519685
  0
MTEXT
  5
385
100
AcDbEntity
  8
0
100
AcDbMText
 62
2
  6
CONTINUOUS
  7
STANDARD
 71
2
 72
1
 10
0.0787401575
 20
-0.4901574803
 30
0.0
 11
1.0
 21
0.0
 31
0.0
 44
0.9
  1
A
 40
0.1181102362
 41
0.188976378
  0
MTEXT
  5
386
100
AcDbEntity
  8
0
100
AcDbMText
 62
2
  6
CONTINUOUS
  7
STANDARD
 71
2
 72
1
 10
0.0787401575
 20
-1.5885826772
 30
0.0
 11
1.0
 21
0.0
 31
0.0
 44
0.9
  1
B
 40
0.1181102362
 41
0.188976378
  0
MTEXT
  5
387
100
AcDbEntity
  8
0
100
AcDbMText
 62
2
  6
CONTINUOUS
  7
STANDARD
 71
2
 72
1
 10
0.0787401575
 20
-2.687007874
 30
0.0
 11
1.0
 21
0.0
 31
0.0
 44
0.9
  1
C
 40
0.1181102362
 41
0.188976378
  0
MTEXT
  5
388
100
AcDbEntity
  8
0
100
AcDbMText
 62
2
  6
CONTINUOUS
  7
STANDARD
 71
2
 72
1
 10
0.0787401575
 20
-3.7854330709
 30
0.0
 11
1.0
 21
0.0
 31
0.0
 44
0.9
  1
D
 40
0.1181102362
 41
0.188976378
  0
MTEXT
  5
389
100
AcDbEntity
  8
0
100
AcDbMText
 62
2
  6
CONTINUOUS
  7
STANDARD
 71
2
 72
1
 10
0.0787401575
 20
-4.8838582677
 30
0.0
 11
1.0
 21
0.0
 31
0.0
 44
0.9
  1
E
 40
0.1181102362
 41
0.188976378
  0
MTEXT
  5
38A
100
AcDbEntity
  8
0
100
AcDbMText
 62
2
  6
CONTINUOUS
  7
STANDARD
 71
2
 72
1
 10
0.0787401575
 20
-5.9822834646
 30
0.0
 11
1.0
 21
0.0
 31
0.0
 44
0.9
  1
F
 40
0.1181102362
 41
0.188976378
  0
MTEXT
  5
38B
100
AcDbEntity
  8
0
100
AcDbMText
 62
2
  6
CONTINUOUS
  7
STANDARD
 71
2
 72
1
 10
0.0787401575
 20
-7.0807086614
 30
0.0
 11
1.0
 21
0.0
 31
0.0
 44
0.9
  1
G
 40
0.1181102362
 41
0.188976378
  0
MTEXT
  5
38C
100
AcDbEntity
  8
0
100
AcDbMText
 62
2
  6
CONTINUOUS
  7
STANDARD
 71
2
 72
1
 10
0.0787401575
 20
-8.1791338583
 30
0.0
 11
1.0
 21
0.0
 31
0.0
 44
0.9
  1
H
 40
0.1181102362
 41
0.188976378
  0
MTEXT
  5
38D
100
AcDbEntity
  8
0
100
AcDbMText
 62
2
  6
CONTINUOUS
  7
STANDARD
 71
2
 72
1
 10
0.0787401575
 20
-9.2775590551
 30
0.0
 11
1.0
 21
0.0
 31
0.0
 44
0.9
  1
J
 40
0.1181102362
 41
0.188976378
  0
MTEXT
  5
38E
100
AcDbEntity
  8
0
100
AcDbMText
 62
2
  6
CONTINUOUS
  7
STANDARD
 71
2
 72
1
 10
0.0787401575
 20
-10.375984252
 30
0.0
 11
1.0
 21
0.0
 31
0.0
 44
0.9
  1
K
 40
0.1181102362
 41
0.188976378
  0
ENDBLK
  5
38F
100
AcDbEntity
  8
0
  6
BYBLOCK
 62
0
100
AcDbBlockEnd
  0
BLOCK
  5
390
100
AcDbEntity
  8
0
100
AcDbBlockBegin
  2
*T4
 70
1
 10
0.0
 20
0.0
  3
*T4
  1

  0
LINE
  5
391
100
AcDbEntity
  8
0
100
AcDbLine
 62
2
  6
CONTINUOUS
 10
0.0
 20
0.0
 11
0.157480315
 21
0.0
  0
LINE
  5
392
100
AcDbEntity
  8
0
100
AcDbLine
 62
2
  6
CONTINUOUS
 10
0.0
 20
0.0
 11
0.0
 21
-10.9842519685
  0
LINE
  5
393
100
AcDbEntity
  8
0
100
AcDbLine
 62
2
  6
CONTINUOUS
 10
0.0
 20
-1.0984251969
 11
0.157480315
 21
-1.0984251969
  0
LINE
  5
394
100
AcDbEntity
  8
0
100
AcDbLine
 62
2
  6
CONTINUOUS
 10
0.0
 20
-2.1968503937
 11
0.157480315
 21
-2.1968503937
  0
LINE
  5
395
100
AcDbEntity
  8
0
100
AcDbLine
 62
2
  6
CONTINUOUS
 10
0.0
 20
-3.2952755906
 11
0.157480315
 21
-3.2952755906
  0
LINE
  5
396
100
AcDbEntity
  8
0
100
AcDbLine
 62
2
  6
CONTINUOUS
 10
0.0
 20
-4.3937007874
 11
0.157480315
 21
-4.3937007874
  0
LINE
  5
397
100
AcDbEntity
  8
0
100
AcDbLine
 62
2
  6
CONTINUOUS
 10
0.0
 20
-5.4921259843
 11
0.157480315
 21
-5.4921259843
  0
LINE
  5
398
100
AcDbEntity
  8
0
100
AcDbLine
 62
2
  6
CONTINUOUS
 10
0.0
 20
-6.5905511811
 11
0.157480315
 21
-6.5905511811
  0
LINE
  5
399
100
AcDbEntity
  8
0
100
AcDbLine
 62
2
  6
CONTINUOUS
 10
0.0
 20
-7.688976378
 11
0.157480315
 21
-7.688976378
  0
LINE
  5
39A
100
AcDbEntity
  8
0
100
AcDbLine
 62
2
  6
CONTINUOUS
 10
0.0
 20
-8.7874015748
 11
0.157480315
 21
-8.7874015748
  0
LINE
  5
39B
100
AcDbEntity
  8
0
100
AcDbLine
 62
2
  6
CONTINUOUS
 10
0.0
 20
-9.8858267717
 11
0.157480315
 21
-9.8858267717
  0
LINE
  5
39C
100
AcDbEntity
  8
0
100
AcDbLine
 62
2
  6
CONTINUOUS
 10
0.0
 20
-10.9842519685
 11
0.157480315
 21
-10.9842519685
  0
LINE
  5
39D
100
AcDbEntity
  8
0
100
AcDbLine
 62
2
  6
CONTINUOUS
 10
0.157480315
 20
0.0
 11
0.157480315
 21
-10.9842519685
  0
MTEXT
  5
39E
100
AcDbEntity
  8
0
100
AcDbMText
 62
2
  6
CONTINUOUS
  7
STANDARD
 71
2
 72
1
 10
0.0787401575
 20
-0.4901574803
 30
0.0
 11
1.0
 21
0.0
 31
0.0
 44
0.9
  1
A
 40
0.1181102362
 41
0.188976378
  0
MTEXT
  5
39F
100
AcDbEntity
  8
0
100
AcDbMText
 62
2
  6
CONTINUOUS
  7
STANDARD
 71
2
 72
1
 10
0.0787401575
 20
-1.5885826772
 30
0.0
 11
1.0
 21
0.0
 31
0.0
 44
0.9
  1
B
 40
0.1181102362
 41
0.188976378
  0
MTEXT
  5
3A0
100
AcDbEntity
  8
0
100
AcDbMText
 62
2
  6
CONTINUOUS
  7
STANDARD
 71
2
 72
1
 10
0.0787401575
 20
-2.687007874
 30
0.0
 11
1.0
 21
0.0
 31
0.0
 44
0.9
  1
C
 40
0.1181102362
 41
0.188976378
  0
MTEXT
  5
3A1
100
AcDbEntity
  8
0
100
AcDbMText
 62
2
  6
CONTINUOUS
  7
STANDARD
 71
2
 72
1
 10
0.0787401575
 20
-3.7854330709
 30
0.0
 11
1.0
 21
0.0
 31
0.0
 44
0.9
  1
D
 40
0.1181102362
 41
0.188976378
  0
MTEXT
  5
3A2
100
AcDbEntity
  8
0
100
AcDbMText
 62
2
  6
CONTINUOUS
  7
STANDARD
 71
2
 72
1
 10
0.0787401575
 20
-4.8838582677
 30
0.0
 11
1.0
 21
0.0
 31
0.0
 44
0.9
  1
E
 40
0.1181102362
 41
0.188976378
  0
MTEXT
  5
3A3
100
AcDbEntity
  8
0
100
AcDbMText
 62
2
  6
CONTINUOUS
  7
STANDARD
 71
2
 72
1
 10
0.0787401575
 20
-5.9822834646
 30
0.0
 11
1.0
 21
0.0
 31
0.0
 44
0.9
  1
F
 40
0.1181102362
 41
0.188976378
  0
MTEXT
  5
3A4
100
AcDbEntity
  8
0
100
AcDbMText
 62
2
  6
CONTINUOUS
  7
STANDARD
 71
2
 72
1
 10
0.0787401575
 20
-7.0807086614
 30
0.0
 11
1.0
 21
0.0
 31
0.0
 44
0.9
  1
G
 40
0.1181102362
 41
0.188976378
  0
MTEXT
  5
3A5
100
AcDbEntity
  8
0
100
AcDbMText
 62
2
  6
CONTINUOUS
  7
STANDARD
 71
2
 72
1
 10
0.0787401575
 20
-8.1791338583
 30
0.0
 11
1.0
 21
0.0
 31
0.0
 44
0.9
  1
H
 40
0.1181102362
 41
0.188976378
  0
MTEXT
  5
3A6
100
AcDbEntity
  8
0
100
AcDbMText
 62
2
  6
CONTINUOUS
  7
STANDARD
 71
2
 72
1
 10
0.0787401575
 20
-9.2775590551
 30
0.0
 11
1.0
 21
0.0
 31
0.0
 44
0.9
  1
J
 40
0.1181102362
 41
0.188976378
  0
MTEXT
  5
3A7
100
AcDbEntity
  8
0
100
AcDbMText
 62
2
  6
CONTINUOUS
  7
STANDARD
 71
2
 72
1
 10
0.0787401575
 20
-10.375984252
 30
0.0
 11
1.0
 21
0.0
 31
0.0
 44
0.9
  1
K
 40
0.1181102362
 41
0.188976378
  0
ENDBLK
  5
3A8
100
AcDbEntity
  8
0
  6
BYBLOCK
 62
0
100
AcDbBlockEnd
  0
BLOCK
  5
3A9
100
AcDbEntity
  8
0
100
AcDbBlockBegin
  2
*T5
 70
1
 10
0.0
 20
0.0
  3
*T5
  1

  0
LINE
  5
3AA
100
AcDbEntity
  8
0
100
AcDbLine
 62
2
  6
CONTINUOUS
 10
0.0
 20
0.0
 11
1.7716535433
 21
0.0
  0
LINE
  5
3AB
100
AcDbEntity
  8
0
100
AcDbLine
 62
2
  6
CONTINUOUS
 10
0.0
 20
0.0
 11
0.0
 21
-0.4330708661
  0
LINE
  5
3AC
100
AcDbEntity
  8
0
100
AcDbLine
 62
2
  6
CONTINUOUS
 10
0.0
 20
-0.2952755906
 11
1.7716535433
 21
-0.2952755906
  0
LINE
  5
3AD
100
AcDbEntity
  8
0
100
AcDbLine
 62
2
  6
CONTINUOUS
 10
0.0
 20
-0.4330708661
 11
1.7716535433
 21
-0.4330708661
  0
LINE
  5
3AE
100
AcDbEntity
  8
0
100
AcDbLine
 62
2
  6
CONTINUOUS
 10
1.3779527559
 20
0.0
 11
1.3779527559
 21
-0.4330708661
  0
LINE
  5
3AF
100
AcDbEntity
  8
0
100
AcDbLine
 62
2
  6
CONTINUOUS
 10
1.7716535433
 20
0.0
 11
1.7716535433
 21
-0.4330708661
  0
MTEXT
  5
3B0
100
AcDbEntity
  8
0
100
AcDbMText
 62
2
  6
CONTINUOUS
  7
STANDARD
 71
2
 72
1
 10
1.5748031496
 20
-0.0738188976
 30
0.0
 11
1.0
 21
0.0
 31
0.0
 44
0.9
  1
SHEET\P1 of 1
 40
0.0590551181
 41
0.5669291339
  0
MTEXT
  5
3B1
100
AcDbEntity
  8
0
100
AcDbMText
 62
2
  6
CONTINUOUS
  7
STANDARD
 71
2
 72
1
 10
0.688976378
 20
-0.3248031496
 30
0.0
 11
1.0
 21
0.0
 31
0.0
 44
0.9
  1
PART A3 DWG-01
 40
0.0787401575
 41
1.7637795276
  0
ENDBLK
  5
3B2
100
AcDbEntity
  8
0
  6
BYBLOCK
 62
0
100
AcDbBlockEnd
  0
BLOCK
  5
3B3
100
AcDbEntity
  8
0
100
AcDbBlockBegin
  2
*T6
 70
1
 10
0.0
 20
0.0
  3
*T6
  1

  0
LINE
  5
3B4
100
AcDbEntity
  8
0
100
AcDbLine
 62
2
  6
CONTINUOUS
 10
0.0
 20
0.0
 11
15.8267716535
 21
0.0
  0
LINE
  5
3B5
100
AcDbEntity
  8
0
100
AcDbLine
 62
2
  6
CONTINUOUS
 10
0.0
 20
0.0
 11
0.0
 21
-1.4173228346
  0
LINE
  5
3B6
100
AcDbEntity
  8
0
100
AcDbLine
 62
2
  6
CONTINUOUS
 10
5.1181102362
 20
-0.2755905512
 11
11.8897637795
 21
-0.2755905512
  0
LINE
  5
3B7
100
AcDbEntity
  8
0
100
AcDbLine
 62
2
  6
CONTINUOUS
 10
11.8897637795
 20
-0.4133858268
 11
15.8267716535
 21
-0.4133858268
  0
LINE
  5
3B8
100
AcDbEntity
  8
0
100
AcDbLine
 62
2
  6
CONTINUOUS
 10
7.5590551181
 20
-0.5511811024
 11
11.8897637795
 21
-0.5511811024
  0
LINE
  5
3B9
100
AcDbEntity
  8
0
100
AcDbLine
 62
2
  6
CONTINUOUS
 10
0.0
 20
-0.8267716535
 11
5.1181102362
 21
-0.8267716535
  0
LINE
  5
3BA
100
AcDbEntity
  8
0
100
AcDbLine
 62
2
  6
CONTINUOUS
 10
10.5118110236
 20
-0.8267716535
 11
15.8267716535
 21
-0.8267716535
  0
LINE
  5
3BB
100
AcDbEntity
  8
0
100
AcDbLine
 62
2
  6
CONTINUOUS
 10
0.0
 20
-1.1220472441
 11
5.1181102362
 21
-1.1220472441
  0
LINE
  5
3BC
100
AcDbEntity
  8
0
100
AcDbLine
 62
2
  6
CONTINUOUS
 10
10.5118110236
 20
-1.1220472441
 11
15.8267716535
 21
-1.1220472441
  0
LINE
  5
3BD
100
AcDbEntity
  8
0
100
AcDbLine
 62
2
  6
CONTINUOUS
 10
0.0
 20
-1.4173228346
 11
15.8267716535
 21
-1.4173228346
  0
LINE
  5
3BE
100
AcDbEntity
  8
0
100
AcDbLine
 62
2
  6
CONTINUOUS
 10
0.3149606299
 20
0.0
 11
0.3149606299
 21
-1.1220472441
  0
LINE
  5
3BF
100
AcDbEntity
  8
0
100
AcDbLine
 62
2
  6
CONTINUOUS
 10
0.7874015748
 20
0.0
 11
0.7874015748
 21
-1.1220472441
  0
LINE
  5
3C0
100
AcDbEntity
  8
0
100
AcDbLine
 62
2
  6
CONTINUOUS
 10
2.7559055118
 20
0.0
 11
2.7559055118
 21
-1.1220472441
  0
LINE
  5
3C1
100
AcDbEntity
  8
0
100
AcDbLine
 62
2
  6
CONTINUOUS
 10
3.3070866142
 20
0.0
 11
3.3070866142
 21
-1.1220472441
  0
LINE
  5
3C2
100
AcDbEntity
  8
0
100
AcDbLine
 62
2
  6
CONTINUOUS
 10
3.8582677165
 20
0.0
 11
3.8582677165
 21
-1.1220472441
  0
LINE
  5
3C3
100
AcDbEntity
  8
0
100
AcDbLine
 62
2
  6
CONTINUOUS
 10
4.4094488189
 20
0.0
 11
4.4094488189
 21
-1.1220472441
  0
LINE
  5
3C4
100
AcDbEntity
  8
0
100
AcDbLine
 62
2
  6
CONTINUOUS
 10
5.1181102362
 20
0.0
 11
5.1181102362
 21
-1.4173228346
  0
LINE
  5
3C5
100
AcDbEntity
  8
0
100
AcDbLine
 62
2
  6
CONTINUOUS
 10
6.3385826772
 20
0.0
 11
6.3385826772
 21
-1.4173228346
  0
LINE
  5
3C6
100
AcDbEntity
  8
0
100
AcDbLine
 62
2
  6
CONTINUOUS
 10
7.5590551181
 20
0.0
 11
7.5590551181
 21
-1.4173228346
  0
LINE
  5
3C7
100
AcDbEntity
  8
0
100
AcDbLine
 62
2
  6
CONTINUOUS
 10
10.5118110236
 20
0.0
 11
10.5118110236
 21
-1.4173228346
  0
LINE
  5
3C8
100
AcDbEntity
  8
0
100
AcDbLine
 62
2
  6
CONTINUOUS
 10
11.2007874016
 20
0.0
 11
11.2007874016
 21
-1.4173228346
  0
LINE
  5
3C9
100
AcDbEntity
  8
0
100
AcDbLine
 62
2
  6
CONTINUOUS
 10
11.8897637795
 20
0.0
 11
11.8897637795
 21
-1.4173228346
  0
LINE
  5
3CA
100
AcDbEntity
  8
0
100
AcDbLine
 62
2
  6
CONTINUOUS
 10
14.2519685039
 20
-0.4133858268
 11
14.2519685039
 21
-0.8267716535
  0
LINE
  5
3CB
100
AcDbEntity
  8
0
100
AcDbLine
 62
2
  6
CONTINUOUS
 10
15.8267716535
 20
0.0
 11
15.8267716535
 21
-1.4173228346
  0
MTEXT
  5
3CC
100
AcDbEntity
  8
0
100
AcDbMText
 62
2
  6
CONTINUOUS
  7
STANDARD
 71
2
 72
1
 10
0.157480315
 20
-0.374015748
 30
0.0
 11
1.0
 21
0.0
 31
0.0
 44
0.9
  1
1
 40
0.0787401575
 41
0.125984252
  0
MTEXT
  5
3CD
100
AcDbEntity
  8
0
100
AcDbMText
 62
2
  6
CONTINUOUS
  7
STANDARD
 71
2
 72
1
 10
1.7716535433
 20
-0.374015748
 30
0.0
 11
1.0
 21
0.0
 31
0.0
 44
0.9
  1
FIRST ISSUE
 40
0.0787401575
 41
1.3858267717
  0
MTEXT
  5
3CE
100
AcDbEntity
  8
0
100
AcDbMText
 62
2
  6
CONTINUOUS
  7
STANDARD
 71
2
 72
1
 10
3.031496063
 20
-0.374015748
 30
0.0
 11
1.0
 21
0.0
 31
0.0
 44
0.9
  1
 HLQ
 40
0.0787401575
 41
0.5039370079
  0
MTEXT
  5
3CF
100
AcDbEntity
  8
0
100
AcDbMText
 62
2
  6
CONTINUOUS
  7
STANDARD
 71
2
 72
1
 10
4.7637795276
 20
-0.374015748
 30
0.0
 11
1.0
 21
0.0
 31
0.0
 44
0.9
  1
 08.02.18
 40
0.0787401575
 41
1.1338582677
  0
MTEXT
  5
3D0
100
AcDbEntity
  8
0
100
AcDbMText
 62
2
  6
CONTINUOUS
  7
STANDARD
 71
2
 72
1
 10
5.7283464567
 20
-0.0984251969
 30
0.0
 11
1.0
 21
0.0
 31
0.0
 44
0.9
  1
UNSPECIFIED DETAIL
 40
0.0787401575
 41
2.2677165354
  0
MTEXT
  5
3D1
100
AcDbEntity
  8
0
100
AcDbMText
 62
2
  6
CONTINUOUS
  7
STANDARD
 71
2
 72
1
 10
6.9488188976
 20
-0.0984251969
 30
0.0
 11
1.0
 21
0.0
 31
0.0
 44
0.9
  1
UNSPECIFIED TOL.
 40
0.0787401575
 41
2.0157480315
  0
MTEXT
  5
3D2
100
AcDbEntity
  8
0
100
AcDbMText
 62
2
  6
CONTINUOUS
  7
STANDARD
 71
1
 72
1
 10
7.5984251969
 20
-0.0984251969
 30
0.0
 11
1.0
 21
0.0
 31
0.0
 44
0.9
  1
 MATERIAL: AS SUPPLIED
 40
0.0787401575
 41
2.7716535433
  0
MTEXT
  5
3D3
100
AcDbEntity
  8
0
100
AcDbMText
 62
2
  6
CONTINUOUS
  7
STANDARD
 71
2
 72
1
 10
10.8562992126
 20
-0.0492125984
 30
0.0
 11
1.0
 21
0.0
 31
0.0
 44
0.9
  1
 DRAWN BY\PHLQ
 40
0.0688976378
 41
0.9921259843
  0
MTEXT
  5
3D4
100
AcDbEntity
  8
0
100
AcDbMText
 62
2
  6
CONTINUOUS
  7
STANDARD
 71
2
 72
1
 10
11.5452755906
 20
-0.0492125984
 30
0.0
 11
1.0
 21
0.0
 31
0.0
 44
0.9
  1
DATE\P08.02.18
 40
0.0688976378
 41
0.8818897638
  0
MTEXT
  5
3D5
100
AcDbEntity
  8
0
100
AcDbMText
 62
2
  6
CONTINUOUS
  7
STANDARD
 71
1
 72
1
 10
11.9291338583
 20
-0.0295275591
 30
0.0
 11
1.0
 21
0.0
 31
0.0
 44
0.9
  1
TITLE
 40
0.0787401575
 41
0.6299212598
  0
MTEXT
  5
3D6
100
AcDbEntity
  8
0
100
AcDbMText
 62
2
  6
CONTINUOUS
  7
STANDARD
 71
2
 72
1
 10
13.8582677165
 20
-0.2165354331
 30
0.0
 11
1.0
 21
0.0
 31
0.0
 44
0.9
  1
BRACKET HOLDER SHORT 
 40
0.1181102362
 41
3.968503937
  0
MTEXT
  5
3D7
100
AcDbEntity
  8
0
100
AcDbMText
 62
2
  6
CONTINUOUS
  7
STANDARD
 71
1
 72
1
 10
5.157480315
 20
-0.3248031496
 30
0.0
 11
1.0
 21
0.0
 31
0.0
 44
0.9
  1
BREAK ALL\PSHARP EDGES
 40
0.0984251969
 41
1.7322834646
  0
MTEXT
  5
3D8
100
AcDbEntity
  8
0
100
AcDbMText
 62
2
  6
CONTINUOUS
  7
TEXTSTYLE_1
 71
1
 72
1
 10
6.3779527559
 20
-0.3248031496
 30
0.0
 11
1.0
 21
0.0
 31
0.0
 44
0.9
  1
{\Fgdt;`}\Ftxt;0.2
 40
0.0984251969
 41
0.7020997375
  0
MTEXT
  5
3D9
100
AcDbEntity
  8
0
100
AcDbMText
 62
2
  6
CONTINUOUS
  7
STANDARD
 71
1
 72
1
 10
7.5984251969
 20
-0.374015748
 30
0.0
 11
1.0
 21
0.0
 31
0.0
 44
0.9
  1
 FINISH: AS SUPPLIED
 40
0.0787401575
 41
2.5196850394
  0
MTEXT
  5
3DA
100
AcDbEntity
  8
0
100
AcDbMText
 62
2
  6
CONTINUOUS
  7
STANDARD
 71
2
 72
1
 10
10.8562992126
 20
-0.3248031496
 30
0.0
 11
1.0
 21
0.0
 31
0.0
 44
0.9
  1
CHECKED BY\P 
 40
0.0688976378
 41
1.1023622047
  0
MTEXT
  5
3DB
100
AcDbEntity
  8
0
100
AcDbMText
 62
2
  6
CONTINUOUS
  7
STANDARD
 71
2
 72
1
 10
11.5452755906
 20
-0.3248031496
 30
0.0
 11
1.0
 21
0.0
 31
0.0
 44
0.9
  1
DATE\P 
 40
0.0688976378
 41
0.4409448819
  0
MTEXT
  5
3DC
100
AcDbEntity
  8
0
100
AcDbMText
 62
2
  6
CONTINUOUS
  7
STANDARD
 71
1
 72
1
 10
11.9291338583
 20
-0.4429133858
 30
0.0
 11
1.0
 21
0.0
 31
0.0
 44
0.9
  1
DOCUMENT REFERENCE NUMBER
 40
0.0787401575
 41
3.1496062992
  0
MTEXT
  5
3DD
100
AcDbEntity
  8
0
100
AcDbMText
 62
2
  6
CONTINUOUS
  7
STANDARD
 71
2
 72
1
 10
15.0393700787
 20
-0.4429133858
 30
0.0
 11
1.0
 21
0.0
 31
0.0
 44
0.9
  1
PART NUMBER
 40
0.0787401575
 41
1.3858267717
  0
MTEXT
  5
3DE
100
AcDbEntity
  8
0
100
AcDbMText
 62
2
  6
CONTINUOUS
  7
STANDARD
 71
2
 72
1
 10
10.8562992126
 20
-0.6003937008
 30
0.0
 11
1.0
 21
0.0
 31
0.0
 44
0.9
  1
APPROVED BY\P 
 40
0.0688976378
 41
1.2125984252
  0
MTEXT
  5
3DF
100
AcDbEntity
  8
0
100
AcDbMText
 62
2
  6
CONTINUOUS
  7
STANDARD
 71
2
 72
1
 10
11.5452755906
 20
-0.6003937008
 30
0.0
 11
1.0
 21
0.0
 31
0.0
 44
0.9
  1
DATE\P 
 40
0.0688976378
 41
0.4409448819
  0
MTEXT
  5
3E0
100
AcDbEntity
  8
0
100
AcDbMText
 62
2
  6
CONTINUOUS
  7
STANDARD
 71
2
 72
1
 10
15.0393700787
 20
-0.6299212598
 30
0.0
 11
1.0
 21
0.0
 31
0.0
 44
0.9
  1
 HSR-1006-02
 40
0.1181102362
 41
2.2677165354
  0
MTEXT
  5
3E1
100
AcDbEntity
  8
0
100
AcDbMText
 62
2
  6
CONTINUOUS
  7
STANDARD
 71
2
 72
1
 10
0.157480315
 20
-0.9251968504
 30
0.0
 11
1.0
 21
0.0
 31
0.0
 44
0.9
  1
VER
 40
0.0984251969
 41
0.4724409449
  0
MTEXT
  5
3E2
100
AcDbEntity
  8
0
100
AcDbMText
 62
2
  6
CONTINUOUS
  7
STANDARD
 71
2
 72
1
 10
0.5511811024
 20
-0.9251968504
 30
0.0
 11
1.0
 21
0.0
 31
0.0
 44
0.9
  1
ECN
 40
0.0984251969
 41
0.4724409449
  0
MTEXT
  5
3E3
100
AcDbEntity
  8
0
100
AcDbMText
 62
2
  6
CONTINUOUS
  7
STANDARD
 71
2
 72
1
 10
1.7716535433
 20
-0.9350393701
 30
0.0
 11
1.0
 21
0.0
 31
0.0
 44
0.9
  1
DETAILS OF MODIFICATION
 40
0.0787401575
 41
2.8976377953
  0
MTEXT
  5
3E4
100
AcDbEntity
  8
0
100
AcDbMText
 62
2
  6
CONTINUOUS
  7
STANDARD
 71
2
 72
1
 10
3.031496063
 20
-0.9251968504
 30
0.0
 11
1.0
 21
0.0
 31
0.0
 44
0.9
  1
DWN
 40
0.0984251969
 41
0.4724409449
  0
MTEXT
  5
3E5
100
AcDbEntity
  8
0
100
AcDbMText
 62
2
  6
CONTINUOUS
  7
STANDARD
 71
2
 72
1
 10
3.5826771654
 20
-0.9251968504
 30
0.0
 11
1.0
 21
0.0
 31
0.0
 44
0.9
  1
CHKD
 40
0.0984251969
 41
0.6299212598
  0
MTEXT
  5
3E6
100
AcDbEntity
  8
0
100
AcDbMText
 62
2
  6
CONTINUOUS
  7
STANDARD
 71
2
 72
1
 10
4.1338582677
 20
-0.9251968504
 30
0.0
 11
1.0
 21
0.0
 31
0.0
 44
0.9
  1
APPR
 40
0.0984251969
 41
0.6299212598
  0
MTEXT
  5
3E7
100
AcDbEntity
  8
0
100
AcDbMText
 62
2
  6
CONTINUOUS
  7
STANDARD
 71
2
 72
1
 10
4.7637795276
 20
-0.9251968504
 30
0.0
 11
1.0
 21
0.0
 31
0.0
 44
0.9
  1
DATE
 40
0.0984251969
 41
0.6299212598
  0
MTEXT
  5
3E8
100
AcDbEntity
  8
0
100
AcDbMText
 62
2
  6
CONTINUOUS
  7
STANDARD
 71
2
 72
1
 10
10.8562992126
 20
-0.9399606299
 30
0.0
 11
1.0
 21
0.0
 31
0.0
 44
0.9
  1
SHEET SCALE
 40
0.0688976378
 41
1.2125984252
  0
MTEXT
  5
3E9
100
AcDbEntity
  8
0
100
AcDbMText
 62
2
  6
CONTINUOUS
  7
STANDARD
 71
2
 72
1
 10
11.5452755906
 20
-0.9399606299
 30
0.0
 11
1.0
 21
0.0
 31
0.0
 44
0.9
  1
0.200
 40
0.0688976378
 41
0.5511811024
  0
MTEXT
  5
3EA
100
AcDbEntity
  8
0
100
AcDbMText
 62
2
  6
CONTINUOUS
  7
STANDARD
 71
2
 72
1
 10
13.8582677165
 20
-0.9251968504
 30
0.0
 11
1.0
 21
0.0
 31
0.0
 44
0.9
  1
 USED ON: HSR-1000-01
 40
0.0984251969
 41
3.3070866142
  0
MTEXT
  5
3EB
100
AcDbEntity
  8
0
100
AcDbMText
 62
2
  6
CONTINUOUS
  7
STANDARD
 71
2
 72
1
 10
2.5590551181
 20
-1.2204724409
 30
0.0
 11
1.0
 21
0.0
 31
0.0
 44
0.9
  1
VERSIONS 
 40
0.0984251969
 41
1.4173228346
  0
MTEXT
  5
3EC
100
AcDbEntity
  8
0
100
AcDbMText
 62
2
  6
CONTINUOUS
  7
STANDARD
 71
2
 72
1
 10
10.8562992126
 20
-1.1835629921
 30
0.0
 11
1.0
 21
0.0
 31
0.0
 44
0.9
  1
ESTIMATED \PMASS KG. 
 40
0.0688976378
 41
1.1023622047
  0
MTEXT
  5
3ED
100
AcDbEntity
  8
0
100
AcDbMText
 62
2
  6
CONTINUOUS
  7
STANDARD
 71
2
 72
1
 10
13.8582677165
 20
-1.2303149606
 30
0.0
 11
1.0
 21
0.0
 31
0.0
 44
0.9
  1
 ALL CHANGES LISTED ON: HSR-1006-27
 40
0.0787401575
 41
4.4094488189
  0
ENDBLK
  5
3EE
100
AcDbEntity
  8
0
  6
BYBLOCK
 62
0
100
AcDbBlockEnd
  0
ENDSEC
  0
SECTION
  2
ENTITIES
  0
DIMENSION
  5
3EF
100
AcDbEntity
  8
0
100
AcDbDimension
 62
2
  6
CONTINUOUS
  2
*D0
 10
12.8014034525
 20
10.2549161625
 11
12.3497678501
 21
10.2549162857
 70
160
 71
3
 42
20.0
  3
DIMSTYLE_1
100
AcDbAlignedDimension
 13
12.9588837674
 23
7.352249644
 14
12.8014034525
 24
9.9200483011
 50
180.0
100
AcDbRotatedDimension
  0
DIMENSION
  5
3F0
100
AcDbEntity
  8
0
100
AcDbDimension
 62
2
  6
CONTINUOUS
  2
*D1
 10
6.9999981565
 20
8.5184734979
 11
6.9999981565
 21
7.8176860964
 70
160
 71
2
 42
178.0
  3
DIMSTYLE_2
100
AcDbAlignedDimension
 13
6.3309511744
 23
7.1168986948
 14
6.3381871147
 24
8.5184734979
 50
90.0
100
AcDbRotatedDimension
  0
TEXT
  5
3F1
100
AcDbEntity
  8
0
100
AcDbText
 62
2
  6
CONTINUOUS
 10
6.8323641994
 20
8.9415154363
  7
TEXTSTYLE_1
 40
0.15625
  1
j
 41
1.0
 72
0
100
AcDbText
  0
TEXT
  5
3F2
100
AcDbEntity
  8
0
100
AcDbText
 62
2
  6
CONTINUOUS
 10
7.2360100327
 20
8.9415154363
  7
STANDARD
 40
0.15625
  1
0.2
 41
0.8
 72
0
100
AcDbText
  0
TEXT
  5
3F3
100
AcDbEntity
  8
0
100
AcDbText
 62
2
  6
CONTINUOUS
 10
7.7281975327
 20
8.9415154363
  7
STANDARD
 40
0.15625
  1
A
 41
0.8
 72
0
100
AcDbText
  0
DIMENSION
  5
3F4
100
AcDbEntity
  8
0
100
AcDbDimension
 62
2
  6
CONTINUOUS
  2
*D2
 10
5.6301439872
 20
9.4377067079
 11
7.7542391994
 21
9.6251091863
 70
163
 71
1
 42
16.0
  1
M<>x2 THRU\P4 POS EQUISPACED\PON A n320 PCD
  3
DIMSTYLE_3
100
AcDbDiametricDimension
 15
5.5176803995
 25
9.3809266658
  0
DIMENSION
  5
3F5
100
AcDbEntity
  8
0
100
AcDbDimension
 62
2
  6
CONTINUOUS
  2
*D3
 10
4.6830690045
 20
10.0200483011
 11
5.5067258282
 21
10.5069569726
 70
162
 71
2
 42
0.7853981634
  3
DIMSTYLE_4
100
AcDb2LineAngularDimension
 13
6.1455749996
 23
9.980979493
 14
6.1607941932
 24
9.9961986867
 15
4.6830690045
 25
9.9985251111
 16
5.5067258282
 26
10.5069569726
  0
DIMENSION
  5
3F6
100
AcDbEntity
  8
0
100
AcDbDimension
 62
2
  6
CONTINUOUS
  2
*D4
 10
13.7829421013
 20
3.5195135399
 11
13.7829421013
 21
4.2577025163
 70
160
 71
2
 42
187.5
  3
DIMSTYLE_2
100
AcDbAlignedDimension
 13
13.0046330709
 23
4.9958914927
 14
12.9744898849
 24
3.5195135399
 50
270.0
100
AcDbRotatedDimension
  0
DIMENSION
  5
3F7
100
AcDbEntity
  8
0
100
AcDbDimension
 62
2
  6
CONTINUOUS
  2
*D5
 10
11.6928625644
 20
3.7163639336
 11
11.6928625644
 21
3.2838116306
 70
160
 71
3
 42
25.0
  3
DIMSTYLE_5
100
AcDbAlignedDimension
 13
12.0927420351
 23
3.5195135399
 14
12.0927420351
 24
3.7163639336
 50
90.0
100
AcDbRotatedDimension
1001
ACAD
1000
DSTYLE
1002
{
1070
73
1070
0
1070
74
1070
0
1070
77
1070
1
1002
}
  0
DIMENSION
  5
3F8
100
AcDbEntity
  8
0
100
AcDbDimension
 62
2
  6
CONTINUOUS
  2
*D6
 10
11.4140018776
 20
3.9132143273
 11
11.4140018776
 21
3.7163635929
 70
160
 71
2
 42
50.0
  3
DIMSTYLE_5
100
AcDbAlignedDimension
 13
12.0927420351
 23
3.5195135399
 14
12.0927420351
 24
3.9132143273
 50
90.0
100
AcDbRotatedDimension
1001
ACAD
1000
DSTYLE
1002
{
1070
73
1070
0
1070
74
1070
0
1070
77
1070
1
1002
}
  0
DIMENSION
  5
3F9
100
AcDbEntity
  8
0
100
AcDbDimension
 62
2
  6
CONTINUOUS
  2
*D7
 10
11.1140018776
 20
4.110064721
 11
11.1140018776
 21
3.8186956405
 70
160
 71
2
 42
75.0
  3
DIMSTYLE_5
100
AcDbAlignedDimension
 13
12.0927420351
 23
3.5195135399
 14
12.0927420351
 24
4.110064721
 50
90.0
100
AcDbRotatedDimension
1001
ACAD
1000
DSTYLE
1002
{
1070
73
1070
0
1070
74
1070
0
1070
77
1070
1
1002
}
  0
DIMENSION
  5
3FA
100
AcDbEntity
  8
0
100
AcDbDimension
 62
2
  6
CONTINUOUS
  2
*D8
 10
10.8140018776
 20
4.3069151147
 11
10.8140018776
 21
3.9288391067
 70
160
 71
2
 42
100.0
  3
DIMSTYLE_5
100
AcDbAlignedDimension
 13
12.0927420351
 23
3.5195135399
 14
12.0927420351
 24
4.3069151147
 50
90.0
100
AcDbRotatedDimension
1001
ACAD
1000
DSTYLE
1002
{
1070
73
1070
0
1070
74
1070
0
1070
77
1070
1
1002
}
  0
DIMENSION
  5
3FB
100
AcDbEntity
  8
0
100
AcDbDimension
 62
2
  6
CONTINUOUS
  2
*D9
 10
10.5140018776
 20
4.5037655084
 11
10.5140018776
 21
4.0311711543
 70
160
 71
2
 42
125.0
  3
DIMSTYLE_5
100
AcDbAlignedDimension
 13
12.0927420351
 23
3.5195135399
 14
12.0927420351
 24
4.5037655084
 50
90.0
100
AcDbRotatedDimension
1001
ACAD
1000
DSTYLE
1002
{
1070
73
1070
0
1070
74
1070
0
1070
77
1070
1
1002
}
  0
DIMENSION
  5
3FC
100
AcDbEntity
  8
0
100
AcDbDimension
 62
2
  6
CONTINUOUS
  2
*D10
 10
10.2140018776
 20
3.5195135399
 11
10.2140018776
 21
4.1256896446
 70
160
 71
2
 42
150.0
  3
DIMSTYLE_5
100
AcDbAlignedDimension
 13
12.0927420351
 23
4.7006159021
 14
12.0927420351
 24
3.5195135399
 50
270.0
100
AcDbRotatedDimension
1001
ACAD
1000
DSTYLE
1002
{
1070
73
1070
0
1070
74
1070
0
1070
77
1070
1
1002
}
  0
DIMENSION
  5
3FD
100
AcDbEntity
  8
0
100
AcDbDimension
 62
2
  6
CONTINUOUS
  2
*D11
 10
9.9140018776
 20
4.8974662958
 11
9.9140018776
 21
4.2280211876
 70
160
 71
2
 42
175.0
  3
DIMSTYLE_5
100
AcDbAlignedDimension
 13
12.0927420351
 23
3.5195135399
 14
12.0927420351
 24
4.8974662958
 50
90.0
100
AcDbRotatedDimension
1001
ACAD
1000
DSTYLE
1002
{
1070
73
1070
0
1070
74
1070
0
1070
77
1070
1
1002
}
  0
DIMENSION
  5
3FE
100
AcDbEntity
  8
0
100
AcDbDimension
 62
2
  6
CONTINUOUS
  2
*D12
 10
9.6140018776
 20
3.5195135399
 11
9.6140018776
 21
4.3069150864
 70
160
 71
2
 42
200.0
  3
DIMSTYLE_5
100
AcDbAlignedDimension
 13
12.0927420351
 23
5.0943166895
 14
12.0927420351
 24
3.5195135399
 50
270.0
100
AcDbRotatedDimension
1001
ACAD
1000
DSTYLE
1002
{
1070
73
1070
0
1070
74
1070
0
1070
77
1070
1
1002
}
  0
DIMENSION
  5
3FF
100
AcDbEntity
  8
0
100
AcDbDimension
 62
2
  6
CONTINUOUS
  2
*D13
 10
9.3140018776
 20
5.2911670832
 11
9.3140018776
 21
4.4092461247
 70
160
 71
2
 42
225.0
  3
DIMSTYLE_5
100
AcDbAlignedDimension
 13
12.0927420351
 23
3.5195135399
 14
12.0927420351
 24
5.2911670832
 50
90.0
100
AcDbRotatedDimension
1001
ACAD
1000
DSTYLE
1002
{
1070
73
1070
0
1070
74
1070
0
1070
77
1070
1
1002
}
  0
DIMENSION
  5
400
100
AcDbEntity
  8
0
100
AcDbDimension
 62
2
  6
CONTINUOUS
  2
*D14
 10
9.0140018776
 20
5.4880174769
 11
9.0140018776
 21
4.5037656243
 70
160
 71
2
 42
250.0
  3
DIMSTYLE_5
100
AcDbAlignedDimension
 13
12.0927420351
 23
3.5195135399
 14
12.0927420351
 24
5.4880174769
 50
90.0
100
AcDbRotatedDimension
1001
ACAD
1000
DSTYLE
1002
{
1070
73
1070
0
1070
74
1070
0
1070
77
1070
1
1002
}
  0
DIMENSION
  5
401
100
AcDbEntity
  8
0
100
AcDbDimension
 62
2
  6
CONTINUOUS
  2
*D15
 10
8.7140018776
 20
5.6848678706
 11
8.7140018776
 21
4.6060966626
 70
160
 71
2
 42
275.0
  3
DIMSTYLE_5
100
AcDbAlignedDimension
 13
12.0927420351
 23
3.5195135399
 14
12.0927420351
 24
5.6848678706
 50
90.0
100
AcDbRotatedDimension
1001
ACAD
1000
DSTYLE
1002
{
1070
73
1070
0
1070
74
1070
0
1070
77
1070
1
1002
}
  0
DIMENSION
  5
402
100
AcDbEntity
  8
0
100
AcDbDimension
 62
2
  6
CONTINUOUS
  2
*D16
 10
8.4140018776
 20
5.8817182643
 11
8.4140018776
 21
4.7006159098
 70
160
 71
2
 42
300.0
  3
DIMSTYLE_5
100
AcDbAlignedDimension
 13
12.0927420351
 23
3.5195135399
 14
12.0927420351
 24
5.8817182643
 50
90.0
100
AcDbRotatedDimension
1001
ACAD
1000
DSTYLE
1002
{
1070
73
1070
0
1070
74
1070
0
1070
77
1070
1
1002
}
  0
DIMENSION
  5
403
100
AcDbEntity
  8
0
100
AcDbDimension
 62
2
  6
CONTINUOUS
  2
*D17
 10
8.1140018776
 20
3.5195135399
 11
8.1140018776
 21
4.8029472005
 70
160
 71
2
 42
325.0
  3
DIMSTYLE_5
100
AcDbAlignedDimension
 13
12.0927420351
 23
6.078568658
 14
12.0927420351
 24
3.5195135399
 50
270.0
100
AcDbRotatedDimension
1001
ACAD
1000
DSTYLE
1002
{
1070
73
1070
0
1070
74
1070
0
1070
77
1070
1
1002
}
  0
DIMENSION
  5
404
100
AcDbEntity
  8
0
100
AcDbDimension
 62
2
  6
CONTINUOUS
  2
*D18
 10
7.8140018776
 20
6.2754190517
 11
7.8140018776
 21
4.8974661954
 70
160
 71
2
 42
350.0
  3
DIMSTYLE_5
100
AcDbAlignedDimension
 13
12.0927420351
 23
3.5195135399
 14
12.0927420351
 24
6.2754190517
 50
90.0
100
AcDbRotatedDimension
1001
ACAD
1000
DSTYLE
1002
{
1070
73
1070
0
1070
74
1070
0
1070
77
1070
1
1002
}
  0
DIMENSION
  5
405
100
AcDbEntity
  8
0
100
AcDbDimension
 62
2
  6
CONTINUOUS
  2
*D19
 10
7.5140018776
 20
6.4722694454
 11
7.5140018776
 21
4.9997977384
 70
160
 71
2
 42
375.0
  3
DIMSTYLE_5
100
AcDbAlignedDimension
 13
12.0927420351
 23
3.5195135399
 14
12.0927420351
 24
6.4722694454
 50
90.0
100
AcDbRotatedDimension
1001
ACAD
1000
DSTYLE
1002
{
1070
73
1070
0
1070
74
1070
0
1070
77
1070
1
1002
}
  0
DIMENSION
  5
406
100
AcDbEntity
  8
0
100
AcDbDimension
 62
2
  6
CONTINUOUS
  2
*D20
 10
12.2895924288
 20
2.7198879581
 11
11.6135737141
 21
2.7198880293
 70
160
 71
3
 42
25.0
  3
DIMSTYLE_1
100
AcDbAlignedDimension
 13
12.0927420351
 23
3.5195135399
 14
12.2895924288
 24
3.5195135399
100
AcDbRotatedDimension
  0
DIMENSION
  5
407
100
AcDbEntity
  8
0
100
AcDbDimension
 62
2
  6
CONTINUOUS
  2
*D21
 10
12.4864428225
 20
2.4945107879
 11
12.2895927609
 21
2.4945107528
 70
160
 71
2
 42
50.0
  3
DIMSTYLE_1
100
AcDbAlignedDimension
 13
12.0927420351
 23
3.5195135399
 14
12.4864428225
 24
3.5195135399
100
AcDbRotatedDimension
  0
DIMENSION
  5
408
100
AcDbEntity
  8
0
100
AcDbDimension
 62
2
  6
CONTINUOUS
  2
*D22
 10
12.6832932162
 20
2.2506547387
 11
12.3919239194
 21
2.2506547462
 70
160
 71
2
 42
75.0
  3
DIMSTYLE_1
100
AcDbAlignedDimension
 13
12.0927420351
 23
3.5195135399
 14
12.6832932162
 24
3.5195135399
100
AcDbRotatedDimension
  0
DIMENSION
  5
409
100
AcDbEntity
  8
0
100
AcDbDimension
 62
2
  6
CONTINUOUS
  2
*D23
 10
12.8801436099
 20
2.0107459308
 11
12.5020681306
 21
2.0107458881
 70
160
 71
2
 42
100.0
  3
DIMSTYLE_1
100
AcDbAlignedDimension
 13
12.0927420351
 23
3.5195135399
 14
12.8801436099
 24
3.5195135399
100
AcDbRotatedDimension
  0
DIMENSION
  5
40A
100
AcDbEntity
  8
0
100
AcDbDimension
 62
2
  6
CONTINUOUS
  2
*D24
 10
1.5536005932
 20
9.9200483011
 11
1.5536005846
 21
8.5267536073
 70
160
 71
2
 42
356.0
  3
DIMSTYLE_1
100
AcDbAlignedDimension
 13
3.167320973
 23
7.1168986948
 14
3.3902812164
 24
9.9200483011
 50
90.0
100
AcDbRotatedDimension
  0
DIMENSION
  5
40B
100
AcDbEntity
  8
0
100
AcDbDimension
 62
2
  6
CONTINUOUS
  2
*D25
 10
6.2381871147
 20
5.7595576391
 11
4.7568668396
 21
5.7595578652
 70
160
 71
2
 42
395.0
  3
DIMSTYLE_1
100
AcDbAlignedDimension
 13
3.1279508942
 23
7.1168986948
 14
6.2381871147
 24
7.1168986948
100
AcDbRotatedDimension
  0
DIMENSION
  5
40C
100
AcDbEntity
  8
0
100
AcDbDimension
 62
2
  6
CONTINUOUS
  2
*D26
 10
12.8981638404
 20
3.5030486535
 11
14.9189680153
 21
2.7291738253
 70
163
 71
1
 42
6.2
  1
38 x %%c<> THRU\P0.5 x 45%%d CHAMFER
  3
DIMSTYLE_6
100
AcDbDiametricDimension
 15
12.8621233794
 25
3.5359784263
  0
TEXT
  5
40D
100
AcDbEntity
  8
0
100
AcDbText
 62
2
  6
CONTINUOUS
 10
13.8744936715
 20
10.2031089974
  7
TEXTSTYLE_1
 40
0.15625
  1
b
 41
1.0
 72
0
100
AcDbText
  0
TEXT
  5
40E
100
AcDbEntity
  8
0
100
AcDbText
 62
2
  6
CONTINUOUS
 10
14.3692853382
 20
10.2031089974
  7
STANDARD
 40
0.15625
  1
0.01
 41
0.8
 72
0
100
AcDbText
  0
TEXT
  5
40F
100
AcDbEntity
  8
0
100
AcDbText
 62
2
  6
CONTINUOUS
 10
14.9864728382
 20
10.2031089974
  7
STANDARD
 40
0.15625
  1
C
 41
0.8
 72
0
100
AcDbText
  0
SOLID
  5
410
100
AcDbEntity
  8
0
100
AcDbTrace
 62
2
  6
CONTINUOUS
 10
12.1714821926
 20
10.683944977
 11
12.1714821926
 21
10.5035230179
 12
12.0152321926
 22
10.5937339974
 13
12.0152321926
 23
10.5937339974
  0
MTEXT
  5
411
100
AcDbEntity
  8
0
100
AcDbMText
 62
2
  6
CONTINUOUS
  7
STANDARD
 71
1
 72
1
 10
11.5933571926
 20
10.6718589974
 30
0.0
 11
1.0
 21
0.0
 31
0.0
 44
0.9
  1
B
 40
0.15625
 41
0.125
  0
MTEXT
  5
412
100
AcDbEntity
  8
0
100
AcDbMText
 62
2
  6
CONTINUOUS
  7
STANDARD
 71
1
 72
1
 10
13.7963686715
 20
10.6718589974
 30
0.0
 11
1.0
 21
0.0
 31
0.0
 44
0.9
  1
80
 40
0.15625
 41
0.25
  0
LWPOLYLINE
  5
413
100
AcDbEntity
  8
0
100
AcDbPolyline
 62
2
  6
CONTINUOUS
 90
4
 70
0
 10
12.8014034525
 20
10.5937339974
 10
12.9889034525
 20
10.6249839974
 10
12.9889034525
 20
10.5624839974
 10
12.8014034525
 20
10.5937339974
  0
DIMENSION
  5
414
100
AcDbEntity
  8
0
100
AcDbDimension
 62
2
  6
CONTINUOUS
  2
*D27
 10
12.0927420351
 20
2.9345001932
 11
11.6136211485
 21
2.9345002182
 70
160
 71
3
 42
10.0
  3
DIMSTYLE_1
100
AcDbAlignedDimension
 13
12.0140018776
 23
3.4801434612
 14
12.0927420351
 24
3.5195135399
100
AcDbRotatedDimension
  0
SOLID
  5
415
100
AcDbEntity
  8
02___PRT_ALL_AXES
100
AcDbTrace
 62
2
  6
CONTINUOUS
 10
13.4082083162
 20
8.5184734979
 11
13.5886302753
 21
8.5184734979
 12
13.4984192958
 22
8.3622234979
 13
13.4984192958
 23
8.3622234979
  0
MTEXT
  5
416
100
AcDbEntity
  8
02___PRT_ALL_AXES
100
AcDbMText
 62
2
  6
CONTINUOUS
  7
STANDARD
 71
1
 72
1
 10
13.4359192958
 20
8.1288706918
 30
0.0
 11
1.0
 21
0.0
 31
0.0
 44
0.9
  1
A
 40
0.15625
 41
0.125
  0
SOLID
  5
417
100
AcDbEntity
  8
02___PRT_ALL_AXES
100
AcDbTrace
 62
2
  6
CONTINUOUS
 10
14.1895174746
 20
4.9958914927
 11
14.3699394337
 21
4.9958914927
 12
14.2797284541
 22
5.1521414927
 13
14.2797284541
 23
5.1521414927
  0
MTEXT
  5
418
100
AcDbEntity
  8
02___PRT_ALL_AXES
100
AcDbMText
 62
2
  6
CONTINUOUS
  7
STANDARD
 71
1
 72
1
 10
14.2172284541
 20
5.9136353848
 30
0.0
 11
1.0
 21
0.0
 31
0.0
 44
0.9
  1
A
 40
0.15625
 41
0.125
  0
ACAD_TABLE
  5
419
100
AcDbEntity
  8
0
 62
2
  6
CONTINUOUS
100
AcDbBlockReference
  2
*T1
 10
0.4330708661
 20
11.5748031496
 30
0.0
100
AcDbTable
342
       592
343
227
 11
1.0
 21
0.0
 31
0.0
 90
22
 91
1
 92
10
 93
16
 94
0
 95
0
 96
0
 41
0.0157480315
141
0.157480315
142
1.4566929134
142
1.6141732283
142
1.6141732283
142
1.6141732283
142
1.6141732283
142
1.6141732283
142
1.6141732283
142
1.6141732283
142
1.6141732283
142
1.4566929134
171
1
172
0
173
0
174
0
175
1
176
1
 91
33
178
0
145
0.0
301
CELL_VALUE
 90
4
  1
1
304
ACVALUE_END
170
5
140
0.1181102362
171
1
172
0
173
0
174
0
175
1
176
1
 91
33
178
0
145
0.0
301
CELL_VALUE
 90
4
  1
2
304
ACVALUE_END
170
5
140
0.1181102362
171
1
172
0
173
0
174
0
175
1
176
1
 91
33
178
0
145
0.0
301
CELL_VALUE
 90
4
  1
3 
304
ACVALUE_END
170
5
140
0.1181102362
171
1
172
0
173
0
174
0
175
1
176
1
 91
33
178
0
145
0.0
301
CELL_VALUE
 90
4
  1
4
304
ACVALUE_END
170
5
140
0.1181102362
171
1
172
0
173
0
174
0
175
1
176
1
 91
33
178
0
145
0.0
301
CELL_VALUE
 90
4
  1
5
304
ACVALUE_END
170
5
140
0.1181102362
171
1
172
0
173
0
174
0
175
1
176
1
 91
33
178
0
145
0.0
301
CELL_VALUE
 90
4
  1
6
304
ACVALUE_END
170
5
140
0.1181102362
171
1
172
0
173
0
174
0
175
1
176
1
 91
33
178
0
145
0.0
301
CELL_VALUE
 90
4
  1
7
304
ACVALUE_END
170
5
140
0.1181102362
171
1
172
0
173
0
174
0
175
1
176
1
 91
33
178
0
145
0.0
301
CELL_VALUE
 90
4
  1
8
304
ACVALUE_END
170
5
140
0.1181102362
171
1
172
0
173
0
174
0
175
1
176
1
 91
33
178
0
145
0.0
301
CELL_VALUE
 90
4
  1
9
304
ACVALUE_END
170
5
140
0.1181102362
171
1
172
0
173
0
174
0
175
1
176
1
 91
33
178
0
145
0.0
301
CELL_VALUE
 90
4
  1
10
304
ACVALUE_END
170
5
140
0.1181102362
  0
ACAD_TABLE
  5
41A
100
AcDbEntity
  8
0
 62
2
  6
CONTINUOUS
100
AcDbBlockReference
  2
*T2
 10
0.4330708661
 20
0.4330708661
 30
0.0
100
AcDbTable
342
       592
343
228
 11
1.0
 21
0.0
 31
0.0
 90
22
 91
1
 92
10
 93
16
 94
0
 95
0
 96
0
 41
0.0157480315
141
0.157480315
142
1.4566929134
142
1.6141732283
142
1.6141732283
142
1.6141732283
142
1.6141732283
142
1.6141732283
142
1.6141732283
142
1.6141732283
142
1.6141732283
142
1.4566929134
171
1
172
0
173
0
174
0
175
1
176
1
 91
33
178
0
145
0.0
301
CELL_VALUE
 90
4
  1
1
304
ACVALUE_END
170
5
140
0.1181102362
171
1
172
0
173
0
174
0
175
1
176
1
 91
33
178
0
145
0.0
301
CELL_VALUE
 90
4
  1
2
304
ACVALUE_END
170
5
140
0.1181102362
171
1
172
0
173
0
174
0
175
1
176
1
 91
33
178
0
145
0.0
301
CELL_VALUE
 90
4
  1
3 
304
ACVALUE_END
170
5
140
0.1181102362
171
1
172
0
173
0
174
0
175
1
176
1
 91
33
178
0
145
0.0
301
CELL_VALUE
 90
4
  1
4 
304
ACVALUE_END
170
5
140
0.1181102362
171
1
172
0
173
0
174
0
175
1
176
1
 91
33
178
0
145
0.0
301
CELL_VALUE
 90
4
  1
5
304
ACVALUE_END
170
5
140
0.1181102362
171
1
172
0
173
0
174
0
175
1
176
1
 91
33
178
0
145
0.0
301
CELL_VALUE
 90
4
  1
6
304
ACVALUE_END
170
5
140
0.1181102362
171
1
172
0
173
0
174
0
175
1
176
1
 91
33
178
0
145
0.0
301
CELL_VALUE
 90
4
  1
7
304
ACVALUE_END
170
5
140
0.1181102362
171
1
172
0
173
0
174
0
175
1
176
1
 91
33
178
0
145
0.0
301
CELL_VALUE
 90
4
  1
8
304
ACVALUE_END
170
5
140
0.1181102362
171
1
172
0
173
0
174
0
175
1
176
1
 91
33
178
0
145
0.0
301
CELL_VALUE
 90
4
  1
9
304
ACVALUE_END
170
5
140
0.1181102362
171
1
172
0
173
0
174
0
175
1
176
1
 91
33
178
0
145
0.0
301
CELL_VALUE
 90
4
  1
10
304
ACVALUE_END
170
5
140
0.1181102362
  0
ACAD_TABLE
  5
41B
100
AcDbEntity
  8
0
 62
2
  6
CONTINUOUS
100
AcDbBlockReference
  2
*T3
 10
0.2755905512
 20
11.4173228346
 30
0.0
100
AcDbTable
342
       592
343
229
 11
1.0
 21
0.0
 31
0.0
 90
22
 91
10
 92
1
 93
0
 94
0
 95
0
 96
0
141
1.0984251969
141
1.0984251969
141
1.0984251969
141
1.0984251969
141
1.0984251969
141
1.0984251969
141
1.0984251969
141
1.0984251969
141
1.0984251969
141
1.0984251969
142
0.157480315
171
1
172
0
173
0
174
0
175
1
176
1
 91
33
178
0
145
0.0
301
CELL_VALUE
 90
4
  1
A
304
ACVALUE_END
170
5
140
0.1181102362
171
1
172
0
173
0
174
0
175
1
176
1
 91
33
178
0
145
0.0
301
CELL_VALUE
 90
4
  1
B
304
ACVALUE_END
170
5
140
0.1181102362
171
1
172
0
173
0
174
0
175
1
176
1
 91
33
178
0
145
0.0
301
CELL_VALUE
 90
4
  1
C
304
ACVALUE_END
170
5
140
0.1181102362
171
1
172
0
173
0
174
0
175
1
176
1
 91
33
178
0
145
0.0
301
CELL_VALUE
 90
4
  1
D
304
ACVALUE_END
170
5
140
0.1181102362
171
1
172
0
173
0
174
0
175
1
176
1
 91
33
178
0
145
0.0
301
CELL_VALUE
 90
4
  1
E
304
ACVALUE_END
170
5
140
0.1181102362
171
1
172
0
173
0
174
0
175
1
176
1
 91
33
178
0
145
0.0
301
CELL_VALUE
 90
4
  1
F
304
ACVALUE_END
170
5
140
0.1181102362
171
1
172
0
173
0
174
0
175
1
176
1
 91
33
178
0
145
0.0
301
CELL_VALUE
 90
4
  1
G
304
ACVALUE_END
170
5
140
0.1181102362
171
1
172
0
173
0
174
0
175
1
176
1
 91
33
178
0
145
0.0
301
CELL_VALUE
 90
4
  1
H
304
ACVALUE_END
170
5
140
0.1181102362
171
1
172
0
173
0
174
0
175
1
176
1
 91
33
178
0
145
0.0
301
CELL_VALUE
 90
4
  1
J
304
ACVALUE_END
170
5
140
0.1181102362
171
1
172
0
173
0
174
0
175
1
176
1
 91
33
178
0
145
0.0
301
CELL_VALUE
 90
4
  1
K
304
ACVALUE_END
170
5
140
0.1181102362
  0
ACAD_TABLE
  5
41C
100
AcDbEntity
  8
0
 62
2
  6
CONTINUOUS
100
AcDbBlockReference
  2
*T4
 10
16.2598425197
 20
11.4173228346
 30
0.0
100
AcDbTable
342
       592
343
22A
 11
1.0
 21
0.0
 31
0.0
 90
22
 91
10
 92
1
 93
0
 94
0
 95
0
 96
0
141
1.0984251969
141
1.0984251969
141
1.0984251969
141
1.0984251969
141
1.0984251969
141
1.0984251969
141
1.0984251969
141
1.0984251969
141
1.0984251969
141
1.0984251969
142
0.157480315
171
1
172
0
173
0
174
0
175
1
176
1
 91
33
178
0
145
0.0
301
CELL_VALUE
 90
4
  1
A
304
ACVALUE_END
170
5
140
0.1181102362
171
1
172
0
173
0
174
0
175
1
176
1
 91
33
178
0
145
0.0
301
CELL_VALUE
 90
4
  1
B
304
ACVALUE_END
170
5
140
0.1181102362
171
1
172
0
173
0
174
0
175
1
176
1
 91
33
178
0
145
0.0
301
CELL_VALUE
 90
4
  1
C
304
ACVALUE_END
170
5
140
0.1181102362
171
1
172
0
173
0
174
0
175
1
176
1
 91
33
178
0
145
0.0
301
CELL_VALUE
 90
4
  1
D
304
ACVALUE_END
170
5
140
0.1181102362
171
1
172
0
173
0
174
0
175
1
176
1
 91
33
178
0
145
0.0
301
CELL_VALUE
 90
4
  1
E
304
ACVALUE_END
170
5
140
0.1181102362
171
1
172
0
173
0
174
0
175
1
176
1
 91
33
178
0
145
0.0
301
CELL_VALUE
 90
4
  1
F
304
ACVALUE_END
170
5
140
0.1181102362
171
1
172
0
173
0
174
0
175
1
176
1
 91
33
178
0
145
0.0
301
CELL_VALUE
 90
4
  1
G
304
ACVALUE_END
170
5
140
0.1181102362
171
1
172
0
173
0
174
0
175
1
176
1
 91
33
178
0
145
0.0
301
CELL_VALUE
 90
4
  1
H
304
ACVALUE_END
170
5
140
0.1181102362
171
1
172
0
173
0
174
0
175
1
176
1
 91
33
178
0
145
0.0
301
CELL_VALUE
 90
4
  1
J
304
ACVALUE_END
170
5
140
0.1181102362
171
1
172
0
173
0
174
0
175
1
176
1
 91
33
178
0
145
0.0
301
CELL_VALUE
 90
4
  1
K
304
ACVALUE_END
170
5
140
0.1181102362
  0
ACAD_TABLE
  5
41D
100
AcDbEntity
  8
0
 62
2
  6
CONTINUOUS
100
AcDbBlockReference
  2
*T5
 10
0.4330708661
 20
11.4173228346
 30
0.0
100
AcDbTable
342
       592
343
22B
 11
1.0
 21
0.0
 31
0.0
 90
22
 91
2
 92
2
 93
16
 94
0
 95
0
 96
0
 41
0.0
141
0.2952755906
141
0.1377952756
142
1.3779527559
142
0.3937007874
171
1
172
0
173
0
174
0
175
1
176
1
 91
33
178
0
145
0.0
301
CELL_VALUE
 90
4
  1
 
304
ACVALUE_END
170
5
140
0.0984251969
171
1
172
0
173
0
174
0
175
1
176
1
 91
33
178
0
145
0.0
301
CELL_VALUE
 90
4
  1
SHEET\P1 of 1
304
ACVALUE_END
170
5
140
0.0590551181
171
1
172
0
173
0
174
0
175
1
176
1
 91
33
178
0
145
0.0
301
CELL_VALUE
 90
4
  1
PART A3 DWG-01
304
ACVALUE_END
170
5
140
0.0787401575
171
1
172
0
173
0
174
0
175
1
176
1
 91
33
178
0
145
0.0
301
CELL_VALUE
 90
4
  1
 
304
ACVALUE_END
170
1
140
0.0061515748
  0
ACAD_TABLE
  5
41E
100
AcDbEntity
  8
0
 62
2
  6
CONTINUOUS
100
AcDbBlockReference
  2
*T6
 10
0.4330917283
 20
1.8505122202
 30
0.0
100
AcDbTable
342
       592
343
22C
 11
1.0
 21
0.0
 31
0.0
 90
22
 91
7
 92
14
 93
16
 94
0
 95
0
 96
0
 41
0.0
141
0.1377952756
141
0.1377952756
141
0.1377952756
141
0.1377952756
141
0.2755905512
141
0.2952755906
141
0.2952755906
142
0.3149606299
142
0.4724409449
142
1.968503937
142
0.5511811024
142
0.5511811024
142
0.5511811024
142
0.7086614173
142
1.2204724409
142
1.2204724409
142
2.9527559055
142
0.688976378
142
0.688976378
142
2.3622047244
142
1.5748031496
171
1
172
0
173
0
174
0
175
1
176
5
 91
33
178
0
145
0.0
301
CELL_VALUE
 90
4
  1
1
304
ACVALUE_END
170
5
140
0.0787401575
171
1
172
0
173
0
174
0
175
1
176
5
 91
33
178
0
145
0.0
301
CELL_VALUE
 90
4
  1
 
304
ACVALUE_END
170
5
140
0.0787401575
171
1
172
0
173
0
174
0
175
1
176
5
 91
33
178
0
145
0.0
301
CELL_VALUE
 90
4
  1
FIRST ISSUE
304
ACVALUE_END
170
5
140
0.0787401575
171
1
172
0
173
0
174
0
175
1
176
5
 91
33
178
0
145
0.0
301
CELL_VALUE
 90
4
  1
 HLQ
304
ACVALUE_END
170
5
140
0.0787401575
171
1
172
0
173
0
174
0
175
1
176
5
 91
33
178
0
145
0.0
301
CELL_VALUE
 90
4
  1
 
304
ACVALUE_END
170
5
140
0.0787401575
171
1
172
0
173
0
174
0
175
1
176
5
 91
33
178
0
145
0.0
301
CELL_VALUE
 90
4
  1
 
304
ACVALUE_END
170
5
140
0.0787401575
171
1
172
0
173
0
174
0
175
1
176
5
 91
33
178
0
145
0.0
301
CELL_VALUE
 90
4
  1
 08.02.18
304
ACVALUE_END
170
5
140
0.0787401575
171
1
172
0
173
0
174
0
175
1
176
2
 91
33
178
0
145
0.0
301
CELL_VALUE
 90
4
  1
UNSPECIFIED DETAIL
304
ACVALUE_END
170
5
140
0.0787401575
171
1
172
0
173
0
174
0
175
1
176
2
 91
33
178
0
145
0.0
301
CELL_VALUE
 90
4
  1
UNSPECIFIED TOL.
304
ACVALUE_END
170
5
140
0.0787401575
171
1
172
0
173
0
174
0
175
1
176
2
 91
33
178
0
145
0.0
301
CELL_VALUE
 90
4
  1
 MATERIAL: AS SUPPLIED
304
ACVALUE_END
170
4
140
0.0787401575
171
1
172
0
173
0
174
0
175
1
176
2
 91
33
178
0
145
0.0
301
CELL_VALUE
 90
4
  1
 DRAWN BY\PHLQ
304
ACVALUE_END
170
2
140
0.0688976378
171
1
172
0
173
0
174
0
175
1
176
2
 91
33
178
0
145
0.0
301
CELL_VALUE
 90
4
  1
DATE\P08.02.18
304
ACVALUE_END
170
2
140
0.0688976378
171
1
172
0
173
0
174
0
175
2
176
1
 91
33
178
0
145
0.0
301
CELL_VALUE
 90
4
  1
TITLE
304
ACVALUE_END
170
4
140
0.0787401575
171
1
172
0
173
1
174
0
175
1
176
1
 91
1
178
0
145
0.0
170
1
171
1
172
0
173
1
174
0
175
1
176
1
 91
1
178
0
145
0.0
170
1
171
1
172
0
173
1
174
0
175
1
176
1
 91
1
178
0
145
0.0
170
1
171
1
172
0
173
1
174
0
175
1
176
1
 91
1
178
0
145
0.0
170
1
171
1
172
0
173
1
174
0
175
1
176
1
 91
1
178
0
145
0.0
170
1
171
1
172
0
173
1
174
0
175
1
176
1
 91
1
178
0
145
0.0
170
1
171
1
172
0
173
1
174
0
175
1
176
1
 91
1
178
0
145
0.0
170
1
171
1
172
0
173
1
174
0
175
1
176
1
 91
1
178
0
145
0.0
170
1
171
1
172
0
173
1
174
0
175
1
176
1
 91
1
178
0
145
0.0
170
1
171
1
172
0
173
1
174
0
175
1
176
1
 91
1
178
0
145
0.0
170
1
171
1
172
0
173
1
174
0
175
1
176
1
 91
1
178
0
145
0.0
170
1
171
1
172
0
173
1
174
0
175
1
176
1
 91
1
178
0
145
0.0
170
1
171
1
172
0
173
1
174
0
175
1
176
1
 91
1
178
0
145
0.0
170
1
171
1
172
0
173
0
174
0
175
2
176
2
 91
33
178
0
145
0.0
301
CELL_VALUE
 90
4
  1
BRACKET HOLDER SHORT 
304
ACVALUE_END
170
5
140
0.1181102362
171
1
172
0
173
1
174
0
175
1
176
1
 91
1
178
0
145
0.0
170
1
171
1
172
0
173
1
174
0
175
1
176
1
 91
1
178
0
145
0.0
170
1
171
1
172
0
173
1
174
0
175
1
176
1
 91
1
178
0
145
0.0
170
1
171
1
172
0
173
1
174
0
175
1
176
1
 91
1
178
0
145
0.0
170
1
171
1
172
0
173
1
174
0
175
1
176
1
 91
1
178
0
145
0.0
170
1
171
1
172
0
173
1
174
0
175
1
176
1
 91
1
178
0
145
0.0
170
1
171
1
172
0
173
1
174
0
175
1
176
1
 91
1
178
0
145
0.0
170
1
171
1
172
0
173
1
174
0
175
1
176
1
 91
1
178
0
145
0.0
170
1
171
1
172
0
173
0
174
0
175
1
176
5
 91
33
178
0
145
0.0
301
CELL_VALUE
 90
4
  1
BREAK ALL\PSHARP EDGES
304
ACVALUE_END
170
1
140
0.0984251969
171
1
172
0
173
0
174
0
175
1
176
5
 91
49
178
0
145
0.0
  7
TEXTSTYLE_1
301
CELL_VALUE
 90
4
  1
{\Fgdt;`}\Ftxt;0.2
304
ACVALUE_END
170
1
140
0.0984251969
171
1
172
0
173
0
174
0
175
1
176
2
 91
33
178
0
145
0.0
301
CELL_VALUE
 90
4
  1
 FINISH: AS SUPPLIED
304
ACVALUE_END
170
4
140
0.0787401575
171
1
172
0
173
0
174
0
175
1
176
2
 91
33
178
0
145
0.0
301
CELL_VALUE
 90
4
  1
CHECKED BY\P 
304
ACVALUE_END
170
2
140
0.0688976378
171
1
172
0
173
0
174
0
175
1
176
2
 91
33
178
0
145
0.0
301
CELL_VALUE
 90
4
  1
DATE\P 
304
ACVALUE_END
170
2
140
0.0688976378
171
1
172
0
173
1
174
0
175
1
176
1
 91
1
178
0
145
0.0
170
1
171
1
172
0
173
1
174
0
175
1
176
1
 91
1
178
0
145
0.0
170
1
171
1
172
0
173
1
174
0
175
1
176
1
 91
1
178
0
145
0.0
170
1
171
1
172
0
173
1
174
0
175
1
176
1
 91
1
178
0
145
0.0
170
1
171
1
172
0
173
1
174
0
175
1
176
1
 91
1
178
0
145
0.0
170
1
171
1
172
0
173
1
174
0
175
1
176
1
 91
1
178
0
145
0.0
170
1
171
1
172
0
173
1
174
0
175
1
176
1
 91
1
178
0
145
0.0
170
1
171
1
172
0
173
1
174
0
175
1
176
1
 91
1
178
0
145
0.0
170
1
171
1
172
0
173
1
174
0
175
1
176
1
 91
1
178
0
145
0.0
170
1
171
1
172
0
173
1
174
0
175
1
176
1
 91
1
178
0
145
0.0
170
1
171
1
172
0
173
1
174
0
175
1
176
1
 91
1
178
0
145
0.0
170
1
171
1
172
0
173
1
174
0
175
1
176
1
 91
1
178
0
145
0.0
170
1
171
1
172
0
173
1
174
0
175
1
176
1
 91
1
178
0
145
0.0
170
1
171
1
172
0
173
1
174
0
175
1
176
1
 91
1
178
0
145
0.0
170
1
171
1
172
0
173
0
174
0
175
1
176
1
 91
33
178
0
145
0.0
301
CELL_VALUE
 90
4
  1
DOCUMENT REFERENCE NUMBER
304
ACVALUE_END
170
4
140
0.0787401575
171
1
172
0
173
0
174
0
175
1
176
1
 91
33
178
0
145
0.0
301
CELL_VALUE
 90
4
  1
PART NUMBER
304
ACVALUE_END
170
5
140
0.0787401575
171
1
172
0
173
1
174
0
175
1
176
1
 91
1
178
0
145
0.0
170
1
171
1
172
0
173
1
174
0
175
1
176
1
 91
1
178
0
145
0.0
170
1
171
1
172
0
173
1
174
0
175
1
176
1
 91
1
178
0
145
0.0
170
1
171
1
172
0
173
1
174
0
175
1
176
1
 91
1
178
0
145
0.0
170
1
171
1
172
0
173
1
174
0
175
1
176
1
 91
1
178
0
145
0.0
170
1
171
1
172
0
173
1
174
0
175
1
176
1
 91
1
178
0
145
0.0
170
1
171
1
172
0
173
1
174
0
175
1
176
1
 91
1
178
0
145
0.0
170
1
171
1
172
0
173
1
174
0
175
1
176
1
 91
1
178
0
145
0.0
170
1
171
1
172
0
173
1
174
0
175
1
176
1
 91
1
178
0
145
0.0
170
1
171
1
172
0
173
0
174
0
175
1
176
3
 91
33
178
0
145
0.0
301
CELL_VALUE
 90
4
  1
 
304
ACVALUE_END
170
1
140
0.0492125984
171
1
172
0
173
0
174
0
175
1
176
1
 91
33
178
0
145
0.0
301
CELL_VALUE
 90
4
  1
APPROVED BY\P 
304
ACVALUE_END
170
2
140
0.0688976378
171
1
172
0
173
0
174
0
175
1
176
1
 91
33
178
0
145
0.0
301
CELL_VALUE
 90
4
  1
DATE\P 
304
ACVALUE_END
170
2
140
0.0688976378
171
1
172
0
173
0
174
0
175
1
176
1
 91
33
178
0
145
0.0
301
CELL_VALUE
 90
4
  1
 
304
ACVALUE_END
170
5
140
0.1181102362
171
1
172
0
173
0
174
0
175
1
176
1
 91
33
178
0
145
0.0
301
CELL_VALUE
 90
4
  1
 HSR-1006-02
304
ACVALUE_END
170
5
140
0.1181102362
171
1
172
0
173
0
174
0
175
1
176
1
 91
33
178
0
145
0.0
301
CELL_VALUE
 90
4
  1
VER
304
ACVALUE_END
170
5
140
0.0984251969
171
1
172
0
173
0
174
0
175
1
176
1
 91
33
178
0
145
0.0
301
CELL_VALUE
 90
4
  1
ECN
304
ACVALUE_END
170
5
140
0.0984251969
171
1
172
0
173
0
174
0
175
1
176
1
 91
33
178
0
145
0.0
301
CELL_VALUE
 90
4
  1
DETAILS OF MODIFICATION
304
ACVALUE_END
170
5
140
0.0787401575
171
1
172
0
173
0
174
0
175
1
176
1
 91
33
178
0
145
0.0
301
CELL_VALUE
 90
4
  1
DWN
304
ACVALUE_END
170
5
140
0.0984251969
171
1
172
0
173
0
174
0
175
1
176
1
 91
33
178
0
145
0.0
301
CELL_VALUE
 90
4
  1
CHKD
304
ACVALUE_END
170
5
140
0.0984251969
171
1
172
0
173
0
174
0
175
1
176
1
 91
33
178
0
145
0.0
301
CELL_VALUE
 90
4
  1
APPR
304
ACVALUE_END
170
5
140
0.0984251969
171
1
172
0
173
0
174
0
175
1
176
1
 91
33
178
0
145
0.0
301
CELL_VALUE
 90
4
  1
DATE
304
ACVALUE_END
170
5
140
0.0984251969
171
1
172
0
173
1
174
0
175
1
176
1
 91
1
178
0
145
0.0
170
1
171
1
172
0
173
1
174
0
175
1
176
1
 91
1
178
0
145
0.0
170
1
171
1
172
0
173
1
174
0
175
1
176
1
 91
1
178
0
145
0.0
170
1
171
1
172
0
173
0
174
0
175
1
176
1
 91
33
178
0
145
0.0
301
CELL_VALUE
 90
4
  1
SHEET SCALE
304
ACVALUE_END
170
5
140
0.0688976378
171
1
172
0
173
0
174
0
175
1
176
1
 91
33
178
0
145
0.0
301
CELL_VALUE
 90
4
  1
0.200
304
ACVALUE_END
170
5
140
0.0688976378
171
1
172
0
173
0
174
0
175
2
176
1
 91
33
178
0
145
0.0
301
CELL_VALUE
 90
4
  1
 USED ON: HSR-1000-01
304
ACVALUE_END
170
5
140
0.0984251969
171
1
172
0
173
1
174
0
175
1
176
1
 91
1
178
0
145
0.0
170
1
171
1
172
0
173
0
174
0
175
7
176
1
 91
33
178
0
145
0.0
301
CELL_VALUE
 90
4
  1
VERSIONS 
304
ACVALUE_END
170
5
140
0.0984251969
171
1
172
0
173
1
174
0
175
1
176
1
 91
1
178
0
145
0.0
170
1
171
1
172
0
173
1
174
0
175
1
176
1
 91
1
178
0
145
0.0
170
1
171
1
172
0
173
1
174
0
175
1
176
1
 91
1
178
0
145
0.0
170
1
171
1
172
0
173
1
174
0
175
1
176
1
 91
1
178
0
145
0.0
170
1
171
1
172
0
173
1
174
0
175
1
176
1
 91
1
178
0
145
0.0
170
1
171
1
172
0
173
1
174
0
175
1
176
1
 91
1
178
0
145
0.0
170
1
171
1
172
0
173
1
174
0
175
1
176
1
 91
1
178
0
145
0.0
170
1
171
1
172
0
173
1
174
0
175
1
176
1
 91
1
178
0
145
0.0
170
1
171
1
172
0
173
1
174
0
175
1
176
1
 91
1
178
0
145
0.0
170
1
171
1
172
0
173
0
174
0
175
1
176
1
 91
33
178
0
145
0.0
301
CELL_VALUE
 90
4
  1
ESTIMATED \PMASS KG. 
304
ACVALUE_END
170
5
140
0.0688976378
171
1
172
0
173
0
174
0
175
1
176
1
 91
33
178
0
145
0.0
301
CELL_VALUE
 90
4
  1
 
304
ACVALUE_END
170
5
140
0.0787401575
171
1
172
0
173
0
174
0
175
2
176
1
 91
33
178
0
145
0.0
301
CELL_VALUE
 90
4
  1
 ALL CHANGES LISTED ON: HSR-1006-27
304
ACVALUE_END
170
5
140
0.0787401575
171
1
172
0
173
1
174
0
175
1
176
1
 91
1
178
0
145
0.0
170
1
  0
MTEXT
  5
41F
100
AcDbEntity
  8
0
100
AcDbMText
 62
2
  6
CONTINUOUS
  7
TEXTSTYLE_1
 71
1
 72
1
 10
4.6237411729
 20
6.4104551594
 30
0.0
 11
1.0
 21
0.0
 31
0.0
 44
0.9
  1
{\Fgdt;q}
 40
0.15625
 41
0.2473958333
  0
MTEXT
  5
420
100
AcDbEntity
  8
0
100
AcDbMText
 62
2
  6
CONTINUOUS
  7
TEXTSTYLE_1
 71
1
 72
1
 10
2.7546512671
 20
8.7756546817
 30
0.0
 11
1.0
 21
0.0
 31
0.0
 44
0.9
  1
{\Fgdt;q}
 40
0.15625
 41
0.2473958333
  0
MTEXT
  5
421
100
AcDbEntity
  8
0
100
AcDbMText
 62
2
  6
CONTINUOUS
  7
TEXTSTYLE_1
 71
1
 72
1
 10
12.3915068958
 20
6.9869135032
 30
0.0
 11
1.0
 21
0.0
 31
0.0
 44
0.9
  1
{\Fgdt;q}
 40
0.15625
 41
0.2473958333
  0
LEADER
  5
422
100
AcDbEntity
  8
0
100
AcDbLeader
 62
2
  6
CONTINUOUS
  3
STANDARD
 71
1
 72
0
 73
0
 75
0
 40
0.15625
 41
0.75
 76
3
 10
3.7710547227
 20
9.4769353822
 30
0.0
 10
3.3138855316
 20
10.4780443666
 30
0.0
 10
3.0638855316
 20
10.4780443666
 30
0.0
340
423
1001
ACAD
1000
DSTYLE
1002
{
1070
77
1070
0
1002
}
  0
MTEXT
  5
423
102
{ACAD_REACTORS
330
422
102
}
100
AcDbEntity
  8
0
100
AcDbMText
 62
2
  6
CONTINUOUS
  7
STANDARD
 71
3
 72
1
 10
3.0638855316
 20
10.5561693666
 30
0.0
 11
1.0
 21
0.0
 31
0.0
 44
0.9
  1
1 X 45\Fgdt;{\Fgdt;~}\Ftxt; CHAMFER
 40
0.15625
 41
1.8541666667
  0
SOLID
  5
424
100
AcDbEntity
  8
0
100
AcDbTrace
 62
2
  6
CONTINUOUS
 10
6.5485686677
 20
7.1168986948
 11
6.7289906269
 21
7.1168986948
 12
6.6387796473
 22
6.9606486948
 13
6.6387796473
 23
6.9606486948
  0
MTEXT
  5
425
100
AcDbEntity
  8
0
100
AcDbMText
 62
2
  6
CONTINUOUS
  7
STANDARD
 71
1
 72
1
 10
6.5762796473
 20
6.6366410126
 30
0.0
 11
1.0
 21
0.0
 31
0.0
 44
0.9
  1
C
 40
0.15625
 41
0.125
  0
SOLID
  5
426
100
AcDbEntity
  8
0
100
AcDbTrace
 62
2
  6
CONTINUOUS
 10
13.3952696484
 20
7.1168986948
 11
13.5756916075
 21
7.1168986948
 12
13.4854806279
 22
6.9606486948
 13
13.4854806279
 23
6.9606486948
  0
MTEXT
  5
427
100
AcDbEntity
  8
0
100
AcDbMText
 62
2
  6
CONTINUOUS
  7
STANDARD
 71
1
 72
1
 10
13.4229806279
 20
6.7212486644
 30
0.0
 11
1.0
 21
0.0
 31
0.0
 44
0.9
  1
C
 40
0.15625
 41
0.125
  0
LINE
  5
428
100
AcDbEntity
  8
0
100
AcDbLine
 62
7
  6
CONTINUOUS
 10
3.1279508942
 20
7.3531191672
 11
3.1279508942
 21
7.1168986948
  0
LINE
  5
429
100
AcDbEntity
  8
0
100
AcDbLine
 62
7
  6
CONTINUOUS
 10
3.167320973
 20
7.3531191672
 11
3.167320973
 21
7.1168986948
  0
LINE
  5
42A
100
AcDbEntity
  8
0
100
AcDbLine
 62
7
  6
CONTINUOUS
 10
3.2814942013
 20
9.7625679861
 11
3.2814942013
 21
7.3531191672
  0
LINE
  5
42B
100
AcDbEntity
  8
0
100
AcDbLine
 62
7
  6
CONTINUOUS
 10
3.1279508942
 20
7.1168986948
 11
6.2381871147
 21
7.1168986948
  0
LINE
  5
42C
100
AcDbEntity
  8
0
100
AcDbLine
 62
7
  6
CONTINUOUS
 10
3.1279508942
 20
7.3531191672
 11
6.2381871147
 21
7.3531191672
  0
LINE
  5
42D
100
AcDbEntity
  8
0
100
AcDbLine
 62
7
  6
CONTINUOUS
 10
3.6003918391
 20
7.8784734979
 11
3.6003918391
 21
9.1584734979
  0
LINE
  5
42E
100
AcDbEntity
  8
0
100
AcDbLine
 62
7
  6
CONTINUOUS
 10
5.3230690045
 20
7.4357963326
 11
4.0430690045
 21
7.4357963326
  0
LINE
  5
42F
100
AcDbEntity
  8
02___PRT_ALL_AXES
100
AcDbLine
 62
7
  6
CENTER
 10
3.7922258156
 20
9.4093166868
 11
3.7922258156
 21
9.2463245608
  0
LINE
  5
430
100
AcDbEntity
  8
02___PRT_ALL_AXES
100
AcDbLine
 62
7
  6
CENTER
 10
3.7922258156
 20
7.627630309
 11
3.7922258156
 21
7.4646381831
  0
LINE
  5
431
100
AcDbEntity
  8
02___PRT_ALL_AXES
100
AcDbLine
 62
7
  6
CENTER
 10
3.7922258156
 20
7.627630309
 11
3.7922258156
 21
7.790622435
  0
LINE
  5
432
100
AcDbEntity
  8
02___PRT_ALL_AXES
100
AcDbLine
 62
7
  6
CENTER
 10
3.7922258156
 20
9.4093166868
 11
3.7922258156
 21
9.5723088128
  0
LINE
  5
433
100
AcDbEntity
  8
02___PRT_ALL_AXES
100
AcDbLine
 62
7
  6
CENTER
 10
5.5739121934
 20
7.627630309
 11
5.4109200674
 21
7.627630309
  0
LINE
  5
434
100
AcDbEntity
  8
02___PRT_ALL_AXES
100
AcDbLine
 62
7
  6
CENTER
 10
3.7922258156
 20
7.627630309
 11
3.6292336896
 21
7.627630309
  0
LINE
  5
435
100
AcDbEntity
  8
02___PRT_ALL_AXES
100
AcDbLine
 62
7
  6
CENTER
 10
3.7922258156
 20
7.627630309
 11
3.9552179416
 21
7.627630309
  0
LINE
  5
436
100
AcDbEntity
  8
02___PRT_ALL_AXES
100
AcDbLine
 62
7
  6
CENTER
 10
5.5739121934
 20
7.627630309
 11
5.7369043194
 21
7.627630309
  0
LINE
  5
437
100
AcDbEntity
  8
0
100
AcDbLine
 62
7
  6
CONTINUOUS
 10
3.964328847
 20
7.5145364901
 11
3.964328847
 21
7.720993183
  0
LINE
  5
438
100
AcDbEntity
  8
0
100
AcDbLine
 62
7
  6
CONTINUOUS
 10
3.964328847
 20
9.3159538129
 11
3.964328847
 21
9.5224105058
  0
LINE
  5
439
100
AcDbEntity
  8
0
100
AcDbLine
 62
7
  6
CONTINUOUS
 10
5.6870060123
 20
7.7997333405
 11
5.4805493194
 21
7.7997333405
  0
LINE
  5
43A
100
AcDbEntity
  8
0
100
AcDbLine
 62
7
  6
CONTINUOUS
 10
3.8855886895
 20
7.7997333405
 11
3.6791319966
 21
7.7997333405
  0
LINE
  5
43B
100
AcDbEntity
  8
02___PRT_ALL_AXES
100
AcDbLine
 62
7
  6
CENTER
 10
4.6830690045
 20
6.4885631709
 11
4.6830690045
 21
10.0200483011
  0
LINE
  5
43C
100
AcDbEntity
  8
02___PRT_ALL_AXES
100
AcDbLine
 62
7
  6
CENTER
 10
6.2321261393
 20
10.0675306327
 11
3.1340118696
 21
6.9694163631
  0
LINE
  5
43D
100
AcDbEntity
  8
02___PRT_ALL_AXES
100
AcDbLine
 62
7
  6
CENTER
 10
6.3381871147
 20
8.5184734979
 11
3.0279508942
 21
8.5184734979
  0
LINE
  5
43E
100
AcDbEntity
  8
02___PRT_ALL_AXES
100
AcDbLine
 62
7
  6
CENTER
 10
6.2321261393
 20
6.9694163631
 11
3.1340118697
 21
10.0675306327
  0
LINE
  5
43F
100
AcDbEntity
  8
0
100
AcDbLine
 62
2
  6
CONTINUOUS
 10
6.7542391994
 20
8.8633904363
 11
7.9313225327
 21
8.8633904363
  0
LINE
  5
440
100
AcDbEntity
  8
0
100
AcDbLine
 62
2
  6
CONTINUOUS
 10
5.2515174949
 20
10.3507069726
 11
5.2515174949
 21
10.6632069726
  0
LINE
  5
441
100
AcDbEntity
  8
0
100
AcDbLine
 62
2
  6
CONTINUOUS
 10
7.9313225327
 20
9.1758904363
 11
6.7542391994
 21
9.1758904363
  0
LWPOLYLINE
  5
442
100
AcDbEntity
  8
0
100
AcDbPolyline
 62
2
  6
CONTINUOUS
 90
5
 70
0
 10
7.3792391994
 20
9.2149529363
 10
8.1188225327
 20
9.2149529363
 10
8.1188225327
 20
9.5274529363
 10
7.3792391994
 20
9.5274529363
 10
7.3792391994
 20
9.2149529363
  0
LINE
  5
443
100
AcDbEntity
  8
0
100
AcDbLine
 62
7
  6
CONTINUOUS
 10
5.401809162
 20
9.5224105058
 11
5.401809162
 21
9.3159538129
  0
LINE
  5
444
100
AcDbEntity
  8
0
100
AcDbLine
 62
7
  6
CONTINUOUS
 10
5.401809162
 20
7.720993183
 11
5.401809162
 21
7.5145364901
  0
LINE
  5
445
100
AcDbEntity
  8
0
100
AcDbLine
 62
7
  6
CONTINUOUS
 10
3.6791319966
 20
9.2372136554
 11
3.8855886895
 21
9.2372136554
  0
LINE
  5
446
100
AcDbEntity
  8
0
100
AcDbLine
 62
7
  6
CONTINUOUS
 10
5.4805493194
 20
9.2372136554
 11
5.6870060123
 21
9.2372136554
  0
LINE
  5
447
100
AcDbEntity
  8
02___PRT_ALL_AXES
100
AcDbLine
 62
7
  6
CENTER
 10
5.5739121934
 20
9.4093166868
 11
5.5739121934
 21
9.2463245608
  0
LINE
  5
448
100
AcDbEntity
  8
02___PRT_ALL_AXES
100
AcDbLine
 62
7
  6
CENTER
 10
5.5739121934
 20
7.627630309
 11
5.5739121934
 21
7.4646381831
  0
LINE
  5
449
100
AcDbEntity
  8
02___PRT_ALL_AXES
100
AcDbLine
 62
7
  6
CENTER
 10
5.5739121934
 20
7.627630309
 11
5.5739121934
 21
7.790622435
  0
LINE
  5
44A
100
AcDbEntity
  8
02___PRT_ALL_AXES
100
AcDbLine
 62
7
  6
CENTER
 10
5.5739121934
 20
9.4093166868
 11
5.5739121934
 21
9.5723088128
  0
LINE
  5
44B
100
AcDbEntity
  8
02___PRT_ALL_AXES
100
AcDbLine
 62
7
  6
CENTER
 10
5.5739121934
 20
9.4093166868
 11
5.4109200674
 21
9.4093166868
  0
LINE
  5
44C
100
AcDbEntity
  8
02___PRT_ALL_AXES
100
AcDbLine
 62
7
  6
CENTER
 10
3.7922258156
 20
9.4093166868
 11
3.6292336896
 21
9.4093166868
  0
LINE
  5
44D
100
AcDbEntity
  8
02___PRT_ALL_AXES
100
AcDbLine
 62
7
  6
CENTER
 10
3.7922258156
 20
9.4093166868
 11
3.9552179416
 21
9.4093166868
  0
LINE
  5
44E
100
AcDbEntity
  8
02___PRT_ALL_AXES
100
AcDbLine
 62
7
  6
CENTER
 10
5.5739121934
 20
9.4093166868
 11
5.7369043194
 21
9.4093166868
  0
LINE
  5
44F
100
AcDbEntity
  8
0
100
AcDbLine
 62
2
  6
CONTINUOUS
 10
5.7619341616
 20
10.6632069726
 11
5.7619341616
 21
10.3507069726
  0
LINE
  5
450
100
AcDbEntity
  8
0
100
AcDbLine
 62
7
  6
CONTINUOUS
 10
5.7657461698
 20
9.1584734979
 11
5.7657461698
 21
7.8784734979
  0
LINE
  5
451
100
AcDbEntity
  8
0
100
AcDbLine
 62
7
  6
CONTINUOUS
 10
4.0430690045
 20
9.6011506633
 11
5.3230690045
 21
9.6011506633
  0
LINE
  5
452
100
AcDbEntity
  8
0
100
AcDbLine
 62
7
  6
CONTINUOUS
 10
6.0846438076
 20
7.3531191672
 11
6.0846438076
 21
9.7625679861
  0
LINE
  5
453
100
AcDbEntity
  8
0
100
AcDbLine
 62
7
  6
CONTINUOUS
 10
5.9271634927
 20
9.9200483011
 11
3.4389745163
 21
9.9200483011
  0
LINE
  5
454
100
AcDbEntity
  8
0
100
AcDbLine
 62
7
  6
CONTINUOUS
 10
6.198817036
 20
7.1168986948
 11
6.198817036
 21
7.3531191672
  0
LINE
  5
455
100
AcDbEntity
  8
0
100
AcDbLine
 62
7
  6
CONTINUOUS
 10
6.2381871147
 20
7.1168986948
 11
6.2381871147
 21
7.3531191672
  0
LINE
  5
456
100
AcDbEntity
  8
0
100
AcDbLine
 62
2
  6
CONTINUOUS
 10
5.7619341616
 20
10.3507069726
 11
5.2515174949
 21
10.3507069726
  0
LINE
  5
457
100
AcDbEntity
  8
0
100
AcDbLine
 62
2
  6
CONTINUOUS
 10
6.7542391994
 20
9.1758904363
 11
6.7542391994
 21
8.8633904363
  0
LINE
  5
458
100
AcDbEntity
  8
0
100
AcDbLine
 62
2
  6
CONTINUOUS
 10
7.1774162827
 20
8.8633904363
 11
7.1774162827
 21
9.1758904363
  0
LINE
  5
459
100
AcDbEntity
  8
0
100
AcDbLine
 62
2
  6
CONTINUOUS
 10
7.6696037827
 20
8.8633904363
 11
7.6696037827
 21
9.1758904363
  0
LINE
  5
45A
100
AcDbEntity
  8
0
100
AcDbLine
 62
2
  6
CONTINUOUS
 10
7.9313225327
 20
8.8633904363
 11
7.9313225327
 21
9.1758904363
  0
LINE
  5
45B
100
AcDbEntity
  8
0
100
AcDbLine
 62
2
  6
CONTINUOUS
 10
5.2515174949
 20
10.6632069726
 11
5.7619341616
 21
10.6632069726
  0
LINE
  5
45C
100
AcDbEntity
  8
0
100
AcDbLine
 62
2
  6
CONTINUOUS
 10
6.4981546473
 20
6.4022660126
 11
6.4981546473
 21
6.7147660126
  0
LINE
  5
45D
100
AcDbEntity
  8
0
100
AcDbLine
 62
2
  6
CONTINUOUS
 10
6.6387796473
 20
6.9606486948
 11
6.6387796473
 21
6.7147660126
  0
LINE
  5
45E
100
AcDbEntity
  8
0
100
AcDbLine
 62
2
  6
CONTINUOUS
 10
6.7794046473
 20
6.7147660126
 11
6.7794046473
 21
6.4022660126
  0
LINE
  5
45F
100
AcDbEntity
  8
0
100
AcDbLine
 62
2
  6
CONTINUOUS
 10
6.7794046473
 20
6.4022660126
 11
6.4981546473
 21
6.4022660126
  0
LINE
  5
460
100
AcDbEntity
  8
0
100
AcDbLine
 62
2
  6
CONTINUOUS
 10
13.6261056279
 20
6.4868736644
 11
13.3448556279
 21
6.4868736644
  0
LINE
  5
461
100
AcDbEntity
  8
0
100
AcDbLine
 62
2
  6
CONTINUOUS
 10
6.4981546473
 20
6.7147660126
 11
6.7794046473
 21
6.7147660126
  0
LINE
  5
462
100
AcDbEntity
  8
0
100
AcDbLine
 62
2
  6
CONTINUOUS
 10
13.3448556279
 20
6.7993736644
 11
13.6261056279
 21
6.7993736644
  0
LINE
  5
463
100
AcDbEntity
  8
0
100
AcDbLine
 62
7
  6
CONTINUOUS
 10
12.9588837674
 20
7.1168986948
 11
12.0140018776
 21
7.1168986948
  0
LINE
  5
464
100
AcDbEntity
  8
0
100
AcDbLine
 62
2
  6
DASHED
 10
6.2381871147
 20
7.1168986948
 11
6.6387796473
 21
7.1168986948
  0
LINE
  5
465
100
AcDbEntity
  8
0
100
AcDbLine
 62
2
  6
DASHED
 10
12.9588837674
 20
7.1168986948
 11
13.4854806279
 21
7.1168986948
  0
LINE
  5
466
100
AcDbEntity
  8
0
100
AcDbLine
 62
7
  6
CONTINUOUS
 10
12.0140018776
 20
7.3531191672
 11
12.9588837674
 21
7.3531191672
  0
LINE
  5
467
100
AcDbEntity
  8
0
100
AcDbLine
 62
2
  6
CONTINUOUS
 10
11.5152321926
 20
10.4374839974
 11
11.5152321926
 21
10.7499839974
  0
LINE
  5
468
100
AcDbEntity
  8
0
100
AcDbLine
 62
2
  6
CONTINUOUS
 10
11.7964821926
 20
10.7499839974
 11
11.7964821926
 21
10.4374839974
  0
LINE
  5
469
100
AcDbEntity
  8
02___PRT_ALL_AXES
100
AcDbLine
 62
2
  6
CONTINUOUS
 10
13.6390442958
 20
7.8944956918
 11
13.3577942958
 21
7.8944956918
  0
LINE
  5
46A
100
AcDbEntity
  8
0
100
AcDbLine
 62
7
  6
CONTINUOUS
 10
12.0140018776
 20
7.1168986948
 11
12.0140018776
 21
7.3531191672
  0
LINE
  5
46B
100
AcDbEntity
  8
0
100
AcDbLine
 62
7
  6
CONTINUOUS
 10
12.0533719564
 20
7.1168986948
 11
12.0533719564
 21
7.3531191672
  0
LINE
  5
46C
100
AcDbEntity
  8
0
100
AcDbLine
 62
7
  6
CONTINUOUS
 10
12.1714821926
 20
7.3531191672
 11
12.1714821926
 21
9.9200483011
  0
LINE
  5
46D
100
AcDbEntity
  8
0
100
AcDbLine
 62
2
  6
CONTINUOUS
 10
12.1714821926
 20
9.9825483011
 11
12.1714821926
 21
10.7187339974
  0
LINE
  5
46E
100
AcDbEntity
  8
02___PRT_ALL_AXES
100
AcDbLine
 62
2
  6
CONTINUOUS
 10
13.3577942958
 20
8.2069956918
 11
13.6390442958
 21
8.2069956918
  0
LINE
  5
46F
100
AcDbEntity
  8
02___PRT_ALL_AXES
100
AcDbLine
 62
7
  6
CENTER
 10
12.4864428225
 20
10.0200483011
 11
12.4864428225
 21
7.0168986948
  0
LINE
  5
470
100
AcDbEntity
  8
02___PRT_ALL_AXES
100
AcDbLine
 62
2
  6
CENTER
 10
13.6937397753
 20
8.5184734979
 11
11.9140018776
 21
8.5184734979
  0
LINE
  5
471
100
AcDbEntity
  8
0
100
AcDbLine
 62
7
  6
CONTINUOUS
 10
12.8014034525
 20
7.3531191672
 11
12.8014034525
 21
9.9200483011
  0
LINE
  5
472
100
AcDbEntity
  8
0
100
AcDbLine
 62
2
  6
CONTINUOUS
 10
12.8014034525
 20
9.9825483011
 11
12.8014034525
 21
10.7187339974
  0
LINE
  5
473
100
AcDbEntity
  8
0
100
AcDbLine
 62
7
  6
CONTINUOUS
 10
12.9195136887
 20
7.3531191672
 11
12.9195136887
 21
7.1168986948
  0
LINE
  5
474
100
AcDbEntity
  8
0
100
AcDbLine
 62
7
  6
CONTINUOUS
 10
12.9588837674
 20
7.3531191672
 11
12.9588837674
 21
7.1168986948
  0
LINE
  5
475
100
AcDbEntity
  8
0
100
AcDbLine
 62
2
  6
CONTINUOUS
 10
13.3448556279
 20
6.4868736644
 11
13.3448556279
 21
6.7993736644
  0
LINE
  5
476
100
AcDbEntity
  8
02___PRT_ALL_AXES
100
AcDbLine
 62
2
  6
CONTINUOUS
 10
13.3577942958
 20
7.8944956918
 11
13.3577942958
 21
8.2069956918
  0
LINE
  5
477
100
AcDbEntity
  8
0
100
AcDbLine
 62
2
  6
CONTINUOUS
 10
13.4854806279
 20
6.9606486948
 11
13.4854806279
 21
6.7993736644
  0
LINE
  5
478
100
AcDbEntity
  8
02___PRT_ALL_AXES
100
AcDbLine
 62
2
  6
CONTINUOUS
 10
13.4984192958
 20
8.3622234979
 11
13.4984192958
 21
8.2069956918
  0
LINE
  5
479
100
AcDbEntity
  8
0
100
AcDbLine
 62
2
  6
CONTINUOUS
 10
13.6261056279
 20
6.7993736644
 11
13.6261056279
 21
6.4868736644
  0
LINE
  5
47A
100
AcDbEntity
  8
02___PRT_ALL_AXES
100
AcDbLine
 62
2
  6
CONTINUOUS
 10
13.6390442958
 20
8.2069956918
 11
13.6390442958
 21
7.8944956918
  0
LINE
  5
47B
100
AcDbEntity
  8
0
100
AcDbLine
 62
7
  6
CONTINUOUS
 10
12.8014034525
 20
9.7625679861
 11
12.1714821926
 21
9.7625679861
  0
LINE
  5
47C
100
AcDbEntity
  8
0
100
AcDbLine
 62
2
  6
CONTINUOUS
 10
13.7963686715
 20
10.4374839974
 11
13.7963686715
 21
10.1249839974
  0
LINE
  5
47D
100
AcDbEntity
  8
0
100
AcDbLine
 62
2
  6
CONTINUOUS
 10
14.3106915882
 20
10.1249839974
 11
14.3106915882
 21
10.4374839974
  0
LINE
  5
47E
100
AcDbEntity
  8
0
100
AcDbLine
 62
2
  6
CONTINUOUS
 10
14.9278790882
 20
10.1249839974
 11
14.9278790882
 21
10.4374839974
  0
LINE
  5
47F
100
AcDbEntity
  8
0
100
AcDbLine
 62
2
  6
CONTINUOUS
 10
15.1895978382
 20
10.1249839974
 11
15.1895978382
 21
10.4374839974
  0
LINE
  5
480
100
AcDbEntity
  8
0
100
AcDbLine
 62
7
  6
CONTINUOUS
 10
12.8014034525
 20
9.9200483011
 11
12.1714821926
 21
9.9200483011
  0
LINE
  5
481
100
AcDbEntity
  8
0
100
AcDbLine
 62
2
  6
CONTINUOUS
 10
13.7963686715
 20
10.1249839974
 11
15.1895978382
 21
10.1249839974
  0
LINE
  5
482
100
AcDbEntity
  8
0
100
AcDbLine
 62
2
  6
CONTINUOUS
 10
15.1895978382
 20
10.4374839974
 11
13.7963686715
 21
10.4374839974
  0
LINE
  5
483
100
AcDbEntity
  8
0
100
AcDbLine
 62
2
  6
CONTINUOUS
 10
11.7964821926
 20
10.4374839974
 11
11.5152321926
 21
10.4374839974
  0
LINE
  5
484
100
AcDbEntity
  8
0
100
AcDbLine
 62
2
  6
CONTINUOUS
 10
12.0152321926
 20
10.5937339974
 11
11.7964821926
 21
10.5937339974
  0
LINE
  5
485
100
AcDbEntity
  8
0
100
AcDbLine
 62
2
  6
CONTINUOUS
 10
12.8014034525
 20
10.5937339974
 11
13.7182436715
 21
10.5937339974
  0
LINE
  5
486
100
AcDbEntity
  8
0
100
AcDbLine
 62
2
  6
CONTINUOUS
 10
11.5152321926
 20
10.7499839974
 11
11.7964821926
 21
10.7499839974
  0
LINE
  5
487
100
AcDbEntity
  8
0
100
AcDbLine
 62
7
  6
CONTINUOUS
 10
12.9195136887
 20
3.4407733824
 11
12.0533719564
 21
3.4407733824
  0
LINE
  5
488
100
AcDbEntity
  8
02___PRT_ALL_AXES
100
AcDbLine
 62
7
  6
CENTER
 10
12.8801436099
 20
3.5195135399
 11
12.8137258035
 21
3.5195135399
  0
LINE
  5
489
100
AcDbEntity
  8
02___PRT_ALL_AXES
100
AcDbLine
 62
7
  6
CENTER
 10
12.6832932162
 20
3.5195135399
 11
12.6268124496
 21
3.5195135399
  0
LINE
  5
48A
100
AcDbEntity
  8
02___PRT_ALL_AXES
100
AcDbLine
 62
7
  6
CENTER
 10
12.4864428225
 20
3.5195135399
 11
12.4376014577
 21
3.5195135399
  0
LINE
  5
48B
100
AcDbEntity
  8
02___PRT_ALL_AXES
100
AcDbLine
 62
7
  6
CENTER
 10
12.2895924288
 20
3.5195135399
 11
12.2300093605
 21
3.5195135399
  0
LINE
  5
48C
100
AcDbEntity
  8
02___PRT_ALL_AXES
100
AcDbLine
 62
7
  6
CENTER
 10
12.0927420351
 20
3.5195135399
 11
12.0300746962
 21
3.5195135399
  0
LINE
  5
48D
100
AcDbEntity
  8
02___PRT_ALL_AXES
100
AcDbLine
 62
7
  6
CENTER
 10
12.0927420351
 20
3.5195135399
 11
12.155409374
 21
3.5195135399
  0
LINE
  5
48E
100
AcDbEntity
  8
02___PRT_ALL_AXES
100
AcDbLine
 62
7
  6
CENTER
 10
12.2895924288
 20
3.5195135399
 11
12.3491754972
 21
3.5195135399
  0
LINE
  5
48F
100
AcDbEntity
  8
02___PRT_ALL_AXES
100
AcDbLine
 62
7
  6
CENTER
 10
12.4864428225
 20
3.5195135399
 11
12.5352841874
 21
3.5195135399
  0
LINE
  5
490
100
AcDbEntity
  8
02___PRT_ALL_AXES
100
AcDbLine
 62
7
  6
CENTER
 10
12.6832932162
 20
3.5195135399
 11
12.7397739828
 21
3.5195135399
  0
LINE
  5
491
100
AcDbEntity
  8
02___PRT_ALL_AXES
100
AcDbLine
 62
7
  6
CENTER
 10
12.8801436099
 20
3.5195135399
 11
12.9465614164
 21
3.5195135399
  0
LINE
  5
492
100
AcDbEntity
  8
02___PRT_ALL_AXES
100
AcDbLine
 62
7
  6
CENTER
 10
12.8801436099
 20
3.7163639336
 11
12.8136181017
 21
3.7163639336
  0
LINE
  5
493
100
AcDbEntity
  8
02___PRT_ALL_AXES
100
AcDbLine
 62
7
  6
CENTER
 10
12.0927420351
 20
3.7163639336
 11
12.033905454
 21
3.7163639336
  0
LINE
  5
494
100
AcDbEntity
  8
02___PRT_ALL_AXES
100
AcDbLine
 62
7
  6
CENTER
 10
12.0927420351
 20
3.7163639336
 11
12.1515786162
 21
3.7163639336
  0
LINE
  5
495
100
AcDbEntity
  8
02___PRT_ALL_AXES
100
AcDbLine
 62
7
  6
CENTER
 10
12.8801436099
 20
3.7163639336
 11
12.9466691182
 21
3.7163639336
  0
LINE
  5
496
100
AcDbEntity
  8
02___PRT_ALL_AXES
100
AcDbLine
 62
7
  6
CENTER
 10
12.8801436099
 20
3.9132143273
 11
12.8136181017
 21
3.9132143273
  0
LINE
  5
497
100
AcDbEntity
  8
02___PRT_ALL_AXES
100
AcDbLine
 62
7
  6
CENTER
 10
12.0927420351
 20
3.9132143273
 11
12.0362030922
 21
3.9132143273
  0
LINE
  5
498
100
AcDbEntity
  8
02___PRT_ALL_AXES
100
AcDbLine
 62
7
  6
CENTER
 10
12.0927420351
 20
3.9132143273
 11
12.1492809781
 21
3.9132143273
  0
LINE
  5
499
100
AcDbEntity
  8
02___PRT_ALL_AXES
100
AcDbLine
 62
7
  6
CENTER
 10
12.8801436099
 20
3.9132143273
 11
12.9466691182
 21
3.9132143273
  0
LINE
  5
49A
100
AcDbEntity
  8
02___PRT_ALL_AXES
100
AcDbLine
 62
7
  6
CENTER
 10
12.8801436099
 20
4.110064721
 11
12.8136181017
 21
4.110064721
  0
LINE
  5
49B
100
AcDbEntity
  8
02___PRT_ALL_AXES
100
AcDbLine
 62
7
  6
CENTER
 10
12.0927420351
 20
4.110064721
 11
12.0334459264
 21
4.110064721
  0
LINE
  5
49C
100
AcDbEntity
  8
02___PRT_ALL_AXES
100
AcDbLine
 62
7
  6
CENTER
 10
12.0927420351
 20
4.110064721
 11
12.1520381439
 21
4.110064721
  0
LINE
  5
49D
100
AcDbEntity
  8
02___PRT_ALL_AXES
100
AcDbLine
 62
7
  6
CENTER
 10
12.8801436099
 20
4.110064721
 11
12.9466691182
 21
4.110064721
  0
LINE
  5
49E
100
AcDbEntity
  8
02___PRT_ALL_AXES
100
AcDbLine
 62
7
  6
CENTER
 10
12.8801436099
 20
4.3069151147
 11
12.8078740063
 21
4.3069151147
  0
LINE
  5
49F
100
AcDbEntity
  8
02___PRT_ALL_AXES
100
AcDbLine
 62
7
  6
CENTER
 10
12.0927420351
 20
4.3069151147
 11
12.0340077707
 21
4.3069151147
  0
LINE
  5
4A0
100
AcDbEntity
  8
02___PRT_ALL_AXES
100
AcDbLine
 62
7
  6
CENTER
 10
12.0927420351
 20
4.3069151147
 11
12.1514762995
 21
4.3069151147
  0
LINE
  5
4A1
100
AcDbEntity
  8
02___PRT_ALL_AXES
100
AcDbLine
 62
7
  6
CENTER
 10
12.8801436099
 20
4.3069151147
 11
12.9524132136
 21
4.3069151147
  0
LINE
  5
4A2
100
AcDbEntity
  8
0
100
AcDbLine
 62
7
  6
CONTINUOUS
 10
12.0140018776
 20
3.4801434612
 11
12.0140018776
 21
6.5116395242
  0
LINE
  5
4A3
100
AcDbEntity
  8
02___PRT_ALL_AXES
100
AcDbLine
 62
7
  6
CENTER
 10
12.8801436099
 20
4.5037655084
 11
12.8164901494
 21
4.5037655084
  0
LINE
  5
4A4
100
AcDbEntity
  8
02___PRT_ALL_AXES
100
AcDbLine
 62
7
  6
CENTER
 10
12.0927420351
 20
4.5037655084
 11
12.0367502621
 21
4.5037655084
  0
LINE
  5
4A5
100
AcDbEntity
  8
02___PRT_ALL_AXES
100
AcDbLine
 62
7
  6
CENTER
 10
12.0927420351
 20
4.5037655084
 11
12.1487338081
 21
4.5037655084
  0
LINE
  5
4A6
100
AcDbEntity
  8
02___PRT_ALL_AXES
100
AcDbLine
 62
7
  6
CENTER
 10
12.8801436099
 20
4.5037655084
 11
12.9437970705
 21
4.5037655084
  0
LINE
  5
4A7
100
AcDbEntity
  8
02___PRT_ALL_AXES
100
AcDbLine
 62
7
  6
CENTER
 10
12.0927420351
 20
6.4722694454
 11
12.0927420351
 21
6.4187666159
  0
LINE
  5
4A8
100
AcDbEntity
  8
02___PRT_ALL_AXES
100
AcDbLine
 62
7
  6
CENTER
 10
12.0927420351
 20
6.2754190517
 11
12.0927420351
 21
6.2130932917
  0
LINE
  5
4A9
100
AcDbEntity
  8
02___PRT_ALL_AXES
100
AcDbLine
 62
7
  6
CENTER
 10
12.0927420351
 20
6.078568658
 11
12.0927420351
 21
6.0250658285
  0
LINE
  5
4AA
100
AcDbEntity
  8
02___PRT_ALL_AXES
100
AcDbLine
 62
7
  6
CENTER
 10
12.0927420351
 20
5.8817182643
 11
12.0927420351
 21
5.8286502359
  0
LINE
  5
4AB
100
AcDbEntity
  8
02___PRT_ALL_AXES
100
AcDbLine
 62
7
  6
CENTER
 10
12.0927420351
 20
5.6848678706
 11
12.0927420351
 21
5.6288071685
  0
LINE
  5
4AC
100
AcDbEntity
  8
02___PRT_ALL_AXES
100
AcDbLine
 62
7
  6
CENTER
 10
12.0927420351
 20
5.4880174769
 11
12.0927420351
 21
5.4280967427
  0
LINE
  5
4AD
100
AcDbEntity
  8
02___PRT_ALL_AXES
100
AcDbLine
 62
7
  6
CENTER
 10
12.0927420351
 20
5.2911670832
 11
12.0927420351
 21
5.2253643953
  0
LINE
  5
4AE
100
AcDbEntity
  8
02___PRT_ALL_AXES
100
AcDbLine
 62
7
  6
CENTER
 10
12.0927420351
 20
5.0943166895
 11
12.0927420351
 21
5.0476808991
  0
LINE
  5
4AF
100
AcDbEntity
  8
02___PRT_ALL_AXES
100
AcDbLine
 62
7
  6
CENTER
 10
12.0927420351
 20
4.8974662958
 11
12.0927420351
 21
4.8358499046
  0
LINE
  5
4B0
100
AcDbEntity
  8
02___PRT_ALL_AXES
100
AcDbLine
 62
7
  6
CENTER
 10
12.0927420351
 20
4.7006159021
 11
12.0927420351
 21
4.6343307102
  0
LINE
  5
4B1
100
AcDbEntity
  8
02___PRT_ALL_AXES
100
AcDbLine
 62
7
  6
CENTER
 10
12.0927420351
 20
4.5037655084
 11
12.0927420351
 21
4.4477737354
  0
LINE
  5
4B2
100
AcDbEntity
  8
02___PRT_ALL_AXES
100
AcDbLine
 62
7
  6
CENTER
 10
12.0927420351
 20
4.3069151147
 11
12.0927420351
 21
4.2481808503
  0
LINE
  5
4B3
100
AcDbEntity
  8
02___PRT_ALL_AXES
100
AcDbLine
 62
7
  6
CENTER
 10
12.0927420351
 20
4.110064721
 11
12.0927420351
 21
4.0507686123
  0
LINE
  5
4B4
100
AcDbEntity
  8
02___PRT_ALL_AXES
100
AcDbLine
 62
7
  6
CENTER
 10
12.0927420351
 20
3.9132143273
 11
12.0927420351
 21
3.8566753844
  0
LINE
  5
4B5
100
AcDbEntity
  8
02___PRT_ALL_AXES
100
AcDbLine
 62
7
  6
CENTER
 10
12.0927420351
 20
3.7163639336
 11
12.0927420351
 21
3.6575273525
  0
LINE
  5
4B6
100
AcDbEntity
  8
02___PRT_ALL_AXES
100
AcDbLine
 62
7
  6
CENTER
 10
12.0927420351
 20
3.5195135399
 11
12.0927420351
 21
3.456846201
  0
LINE
  5
4B7
100
AcDbEntity
  8
02___PRT_ALL_AXES
100
AcDbLine
 62
7
  6
CENTER
 10
12.0927420351
 20
3.5195135399
 11
12.0927420351
 21
3.5821808788
  0
LINE
  5
4B8
100
AcDbEntity
  8
02___PRT_ALL_AXES
100
AcDbLine
 62
7
  6
CENTER
 10
12.0927420351
 20
3.7163639336
 11
12.0927420351
 21
3.7752005147
  0
LINE
  5
4B9
100
AcDbEntity
  8
02___PRT_ALL_AXES
100
AcDbLine
 62
7
  6
CENTER
 10
12.0927420351
 20
3.9132143273
 11
12.0927420351
 21
3.9697532702
  0
LINE
  5
4BA
100
AcDbEntity
  8
02___PRT_ALL_AXES
100
AcDbLine
 62
7
  6
CENTER
 10
12.0927420351
 20
4.110064721
 11
12.0927420351
 21
4.1693608297
  0
LINE
  5
4BB
100
AcDbEntity
  8
02___PRT_ALL_AXES
100
AcDbLine
 62
7
  6
CENTER
 10
12.0927420351
 20
4.3069151147
 11
12.0927420351
 21
4.3656493791
  0
LINE
  5
4BC
100
AcDbEntity
  8
02___PRT_ALL_AXES
100
AcDbLine
 62
7
  6
CENTER
 10
12.0927420351
 20
4.5037655084
 11
12.0927420351
 21
4.5597572814
  0
LINE
  5
4BD
100
AcDbEntity
  8
02___PRT_ALL_AXES
100
AcDbLine
 62
7
  6
CENTER
 10
12.0927420351
 20
4.7006159021
 11
12.0927420351
 21
4.766901094
  0
LINE
  5
4BE
100
AcDbEntity
  8
02___PRT_ALL_AXES
100
AcDbLine
 62
7
  6
CENTER
 10
12.0927420351
 20
4.8974662958
 11
12.0927420351
 21
4.959082687
  0
LINE
  5
4BF
100
AcDbEntity
  8
02___PRT_ALL_AXES
100
AcDbLine
 62
7
  6
CENTER
 10
12.0927420351
 20
5.0943166895
 11
12.0927420351
 21
5.1409524799
  0
LINE
  5
4C0
100
AcDbEntity
  8
02___PRT_ALL_AXES
100
AcDbLine
 62
7
  6
CENTER
 10
12.0927420351
 20
5.2911670832
 11
12.0927420351
 21
5.3569697711
  0
LINE
  5
4C1
100
AcDbEntity
  8
02___PRT_ALL_AXES
100
AcDbLine
 62
7
  6
CENTER
 10
12.0927420351
 20
5.4880174769
 11
12.0927420351
 21
5.5479382111
  0
LINE
  5
4C2
100
AcDbEntity
  8
02___PRT_ALL_AXES
100
AcDbLine
 62
7
  6
CENTER
 10
12.0927420351
 20
5.6848678706
 11
12.0927420351
 21
5.7409285727
  0
LINE
  5
4C3
100
AcDbEntity
  8
02___PRT_ALL_AXES
100
AcDbLine
 62
7
  6
CENTER
 10
12.0927420351
 20
5.8817182643
 11
12.0927420351
 21
5.9347862927
  0
LINE
  5
4C4
100
AcDbEntity
  8
02___PRT_ALL_AXES
100
AcDbLine
 62
7
  6
CENTER
 10
12.0927420351
 20
6.078568658
 11
12.0927420351
 21
6.1320714875
  0
LINE
  5
4C5
100
AcDbEntity
  8
02___PRT_ALL_AXES
100
AcDbLine
 62
7
  6
CENTER
 10
12.0927420351
 20
6.2754190517
 11
12.0927420351
 21
6.3377448117
  0
LINE
  5
4C6
100
AcDbEntity
  8
02___PRT_ALL_AXES
100
AcDbLine
 62
7
  6
CENTER
 10
12.0927420351
 20
6.4722694454
 11
12.0927420351
 21
6.5257722749
  0
LINE
  5
4C7
100
AcDbEntity
  8
02___PRT_ALL_AXES
100
AcDbLine
 62
7
  6
CENTER
 10
12.8801436099
 20
4.7006159021
 11
12.8177130134
 21
4.7006159021
  0
LINE
  5
4C8
100
AcDbEntity
  8
02___PRT_ALL_AXES
100
AcDbLine
 62
7
  6
CENTER
 10
12.0927420351
 20
4.7006159021
 11
12.0264568432
 21
4.7006159021
  0
LINE
  5
4C9
100
AcDbEntity
  8
02___PRT_ALL_AXES
100
AcDbLine
 62
7
  6
CENTER
 10
12.0927420351
 20
4.7006159021
 11
12.159027227
 21
4.7006159021
  0
LINE
  5
4CA
100
AcDbEntity
  8
02___PRT_ALL_AXES
100
AcDbLine
 62
7
  6
CENTER
 10
12.8801436099
 20
4.7006159021
 11
12.9425742064
 21
4.7006159021
  0
LINE
  5
4CB
100
AcDbEntity
  8
02___PRT_ALL_AXES
100
AcDbLine
 62
7
  6
CENTER
 10
12.2895924288
 20
6.4722694454
 11
12.2895924288
 21
6.4208667037
  0
LINE
  5
4CC
100
AcDbEntity
  8
02___PRT_ALL_AXES
100
AcDbLine
 62
7
  6
CENTER
 10
12.2895924288
 20
3.5195135399
 11
12.2895924288
 21
3.4599304715
  0
LINE
  5
4CD
100
AcDbEntity
  8
02___PRT_ALL_AXES
100
AcDbLine
 62
7
  6
CENTER
 10
12.2895924288
 20
3.5195135399
 11
12.2895924288
 21
3.5790966083
  0
LINE
  5
4CE
100
AcDbEntity
  8
02___PRT_ALL_AXES
100
AcDbLine
 62
7
  6
CENTER
 10
12.2895924288
 20
6.4722694454
 11
12.2895924288
 21
6.5236721871
  0
LINE
  5
4CF
100
AcDbEntity
  8
02___PRT_ALL_AXES
100
AcDbLine
 62
7
  6
CENTER
 10
12.8801436099
 20
4.8974662958
 11
12.8105328942
 21
4.8974662958
  0
LINE
  5
4D0
100
AcDbEntity
  8
02___PRT_ALL_AXES
100
AcDbLine
 62
7
  6
CENTER
 10
12.0927420351
 20
4.8974662958
 11
12.031125644
 21
4.8974662958
  0
LINE
  5
4D1
100
AcDbEntity
  8
02___PRT_ALL_AXES
100
AcDbLine
 62
7
  6
CENTER
 10
12.0927420351
 20
4.8974662958
 11
12.1543584263
 21
4.8974662958
  0
LINE
  5
4D2
100
AcDbEntity
  8
02___PRT_ALL_AXES
100
AcDbLine
 62
7
  6
CENTER
 10
12.8801436099
 20
4.8974662958
 11
12.9497543257
 21
4.8974662958
  0
LINE
  5
4D3
100
AcDbEntity
  8
02___PRT_ALL_AXES
100
AcDbLine
 62
7
  6
CENTER
 10
12.4864428225
 20
6.4722694454
 11
12.4864428225
 21
6.4171904827
  0
LINE
  5
4D4
100
AcDbEntity
  8
02___PRT_ALL_AXES
100
AcDbLine
 62
7
  6
CENTER
 10
12.4864428225
 20
3.5195135399
 11
12.4864428225
 21
3.470672175
  0
LINE
  5
4D5
100
AcDbEntity
  8
02___PRT_ALL_AXES
100
AcDbLine
 62
7
  6
CENTER
 10
12.4864428225
 20
3.5195135399
 11
12.4864428225
 21
3.5683549048
  0
LINE
  5
4D6
100
AcDbEntity
  8
02___PRT_ALL_AXES
100
AcDbLine
 62
7
  6
CENTER
 10
12.4864428225
 20
6.4722694454
 11
12.4864428225
 21
6.5273484081
  0
LINE
  5
4D7
100
AcDbEntity
  8
02___PRT_ALL_AXES
100
AcDbLine
 62
2
  6
CENTER
 10
14.2797284541
 20
4.9958914927
 11
11.9140018776
 21
4.9958914927
  0
LINE
  5
4D8
100
AcDbEntity
  8
02___PRT_ALL_AXES
100
AcDbLine
 62
7
  6
CENTER
 10
12.8801436099
 20
5.0943166895
 11
12.821303073
 21
5.0943166895
  0
LINE
  5
4D9
100
AcDbEntity
  8
02___PRT_ALL_AXES
100
AcDbLine
 62
7
  6
CENTER
 10
12.0927420351
 20
5.0943166895
 11
12.0461062447
 21
5.0943166895
  0
LINE
  5
4DA
100
AcDbEntity
  8
02___PRT_ALL_AXES
100
AcDbLine
 62
7
  6
CENTER
 10
12.0927420351
 20
5.0943166895
 11
12.1393778256
 21
5.0943166895
  0
LINE
  5
4DB
100
AcDbEntity
  8
02___PRT_ALL_AXES
100
AcDbLine
 62
7
  6
CENTER
 10
12.8801436099
 20
5.0943166895
 11
12.9389841468
 21
5.0943166895
  0
LINE
  5
4DC
100
AcDbEntity
  8
02___PRT_ALL_AXES
100
AcDbLine
 62
7
  6
CENTER
 10
12.6832932162
 20
6.4722694454
 11
12.6832932162
 21
6.4024855985
  0
LINE
  5
4DD
100
AcDbEntity
  8
02___PRT_ALL_AXES
100
AcDbLine
 62
7
  6
CENTER
 10
12.6832932162
 20
3.5195135399
 11
12.6832932162
 21
3.4630327733
  0
LINE
  5
4DE
100
AcDbEntity
  8
02___PRT_ALL_AXES
100
AcDbLine
 62
7
  6
CENTER
 10
12.6832932162
 20
3.5195135399
 11
12.6832932162
 21
3.5759943065
  0
LINE
  5
4DF
100
AcDbEntity
  8
02___PRT_ALL_AXES
100
AcDbLine
 62
7
  6
CENTER
 10
12.6832932162
 20
6.4722694454
 11
12.6832932162
 21
6.5420532923
  0
LINE
  5
4E0
100
AcDbEntity
  8
02___PRT_ALL_AXES
100
AcDbLine
 62
7
  6
CENTER
 10
12.8801436099
 20
5.2911670832
 11
12.8197660788
 21
5.2911670832
  0
LINE
  5
4E1
100
AcDbEntity
  8
02___PRT_ALL_AXES
100
AcDbLine
 62
7
  6
CENTER
 10
12.0927420351
 20
5.2911670832
 11
12.0269393472
 21
5.2911670832
  0
LINE
  5
4E2
100
AcDbEntity
  8
02___PRT_ALL_AXES
100
AcDbLine
 62
7
  6
CENTER
 10
12.0927420351
 20
5.2911670832
 11
12.158544723
 21
5.2911670832
  0
LINE
  5
4E3
100
AcDbEntity
  8
02___PRT_ALL_AXES
100
AcDbLine
 62
7
  6
CENTER
 10
12.8801436099
 20
5.2911670832
 11
12.9405211411
 21
5.2911670832
  0
LINE
  5
4E4
100
AcDbEntity
  8
02___PRT_ALL_AXES
100
AcDbLine
 62
7
  6
CENTER
 10
12.8801436099
 20
6.4722694454
 11
12.8801436099
 21
6.4190285932
  0
LINE
  5
4E5
100
AcDbEntity
  8
02___PRT_ALL_AXES
100
AcDbLine
 62
7
  6
CENTER
 10
12.8801436099
 20
6.2754190517
 11
12.8801436099
 21
6.2288560699
  0
LINE
  5
4E6
100
AcDbEntity
  8
02___PRT_ALL_AXES
100
AcDbLine
 62
7
  6
CENTER
 10
12.8801436099
 20
6.078568658
 11
12.8801436099
 21
6.0173007921
  0
LINE
  5
4E7
100
AcDbEntity
  8
02___PRT_ALL_AXES
100
AcDbLine
 62
7
  6
CENTER
 10
12.8801436099
 20
5.8817182643
 11
12.8801436099
 21
5.8278258168
  0
LINE
  5
4E8
100
AcDbEntity
  8
02___PRT_ALL_AXES
100
AcDbLine
 62
7
  6
CENTER
 10
12.8801436099
 20
5.6848678706
 11
12.8801436099
 21
5.6295049347
  0
LINE
  5
4E9
100
AcDbEntity
  8
02___PRT_ALL_AXES
100
AcDbLine
 62
7
  6
CENTER
 10
12.8801436099
 20
5.4880174769
 11
12.8801436099
 21
5.4342169349
  0
LINE
  5
4EA
100
AcDbEntity
  8
02___PRT_ALL_AXES
100
AcDbLine
 62
7
  6
CENTER
 10
12.8801436099
 20
5.2911670832
 11
12.8801436099
 21
5.230789552
  0
LINE
  5
4EB
100
AcDbEntity
  8
02___PRT_ALL_AXES
100
AcDbLine
 62
7
  6
CENTER
 10
12.8801436099
 20
5.0943166895
 11
12.8801436099
 21
5.0354761526
  0
LINE
  5
4EC
100
AcDbEntity
  8
02___PRT_ALL_AXES
100
AcDbLine
 62
7
  6
CENTER
 10
12.8801436099
 20
4.8974662958
 11
12.8801436099
 21
4.8278555801
  0
LINE
  5
4ED
100
AcDbEntity
  8
02___PRT_ALL_AXES
100
AcDbLine
 62
7
  6
CENTER
 10
12.8801436099
 20
4.7006159021
 11
12.8801436099
 21
4.6381853056
  0
LINE
  5
4EE
100
AcDbEntity
  8
02___PRT_ALL_AXES
100
AcDbLine
 62
7
  6
CENTER
 10
12.8801436099
 20
4.5037655084
 11
12.8801436099
 21
4.4401120478
  0
LINE
  5
4EF
100
AcDbEntity
  8
02___PRT_ALL_AXES
100
AcDbLine
 62
7
  6
CENTER
 10
12.8801436099
 20
4.3069151147
 11
12.8801436099
 21
4.2346455111
  0
LINE
  5
4F0
100
AcDbEntity
  8
02___PRT_ALL_AXES
100
AcDbLine
 62
7
  6
CENTER
 10
12.8801436099
 20
4.110064721
 11
12.8801436099
 21
4.0435392127
  0
LINE
  5
4F1
100
AcDbEntity
  8
02___PRT_ALL_AXES
100
AcDbLine
 62
7
  6
CENTER
 10
12.8801436099
 20
3.9132143273
 11
12.8801436099
 21
3.846688819
  0
LINE
  5
4F2
100
AcDbEntity
  8
02___PRT_ALL_AXES
100
AcDbLine
 62
7
  6
CENTER
 10
12.8801436099
 20
3.7163639336
 11
12.8801436099
 21
3.6498384253
  0
LINE
  5
4F3
100
AcDbEntity
  8
02___PRT_ALL_AXES
100
AcDbLine
 62
7
  6
CENTER
 10
12.8801436099
 20
3.5195135399
 11
12.8801436099
 21
3.4530957334
  0
LINE
  5
4F4
100
AcDbEntity
  8
02___PRT_ALL_AXES
100
AcDbLine
 62
7
  6
CENTER
 10
12.8801436099
 20
3.5195135399
 11
12.8801436099
 21
3.5859313464
  0
LINE
  5
4F5
100
AcDbEntity
  8
02___PRT_ALL_AXES
100
AcDbLine
 62
7
  6
CENTER
 10
12.8801436099
 20
3.7163639336
 11
12.8801436099
 21
3.7828894419
  0
LINE
  5
4F6
100
AcDbEntity
  8
02___PRT_ALL_AXES
100
AcDbLine
 62
7
  6
CENTER
 10
12.8801436099
 20
3.9132143273
 11
12.8801436099
 21
3.9797398356
  0
LINE
  5
4F7
100
AcDbEntity
  8
02___PRT_ALL_AXES
100
AcDbLine
 62
7
  6
CENTER
 10
12.8801436099
 20
4.110064721
 11
12.8801436099
 21
4.1765902293
  0
LINE
  5
4F8
100
AcDbEntity
  8
02___PRT_ALL_AXES
100
AcDbLine
 62
7
  6
CENTER
 10
12.8801436099
 20
4.3069151147
 11
12.8801436099
 21
4.3791847183
  0
LINE
  5
4F9
100
AcDbEntity
  8
02___PRT_ALL_AXES
100
AcDbLine
 62
7
  6
CENTER
 10
12.8801436099
 20
4.5037655084
 11
12.8801436099
 21
4.567418969
  0
LINE
  5
4FA
100
AcDbEntity
  8
02___PRT_ALL_AXES
100
AcDbLine
 62
7
  6
CENTER
 10
12.8801436099
 20
4.7006159021
 11
12.8801436099
 21
4.7630464986
  0
LINE
  5
4FB
100
AcDbEntity
  8
02___PRT_ALL_AXES
100
AcDbLine
 62
7
  6
CENTER
 10
12.8801436099
 20
4.8974662958
 11
12.8801436099
 21
4.9670770115
  0
LINE
  5
4FC
100
AcDbEntity
  8
02___PRT_ALL_AXES
100
AcDbLine
 62
7
  6
CENTER
 10
12.8801436099
 20
5.0943166895
 11
12.8801436099
 21
5.1531572264
  0
LINE
  5
4FD
100
AcDbEntity
  8
02___PRT_ALL_AXES
100
AcDbLine
 62
7
  6
CENTER
 10
12.8801436099
 20
5.2911670832
 11
12.8801436099
 21
5.3515446144
  0
LINE
  5
4FE
100
AcDbEntity
  8
02___PRT_ALL_AXES
100
AcDbLine
 62
7
  6
CENTER
 10
12.8801436099
 20
5.4880174769
 11
12.8801436099
 21
5.5418180189
  0
LINE
  5
4FF
100
AcDbEntity
  8
02___PRT_ALL_AXES
100
AcDbLine
 62
7
  6
CENTER
 10
12.8801436099
 20
5.6848678706
 11
12.8801436099
 21
5.7402308065
  0
LINE
  5
500
100
AcDbEntity
  8
02___PRT_ALL_AXES
100
AcDbLine
 62
7
  6
CENTER
 10
12.8801436099
 20
5.8817182643
 11
12.8801436099
 21
5.9356107118
  0
LINE
  5
501
100
AcDbEntity
  8
02___PRT_ALL_AXES
100
AcDbLine
 62
7
  6
CENTER
 10
12.8801436099
 20
6.078568658
 11
12.8801436099
 21
6.139836524
  0
LINE
  5
502
100
AcDbEntity
  8
02___PRT_ALL_AXES
100
AcDbLine
 62
7
  6
CENTER
 10
12.8801436099
 20
6.2754190517
 11
12.8801436099
 21
6.3219820335
  0
LINE
  5
503
100
AcDbEntity
  8
02___PRT_ALL_AXES
100
AcDbLine
 62
7
  6
CENTER
 10
12.8801436099
 20
6.4722694454
 11
12.8801436099
 21
6.5255102976
  0
LINE
  5
504
100
AcDbEntity
  8
0
100
AcDbLine
 62
7
  6
CONTINUOUS
 10
12.9588837674
 20
3.4801434612
 11
12.9588837674
 21
6.5116395242
  0
LINE
  5
505
100
AcDbEntity
  8
02___PRT_ALL_AXES
100
AcDbLine
 62
7
  6
CENTER
 10
12.8801436099
 20
5.4880174769
 11
12.826343068
 21
5.4880174769
  0
LINE
  5
506
100
AcDbEntity
  8
02___PRT_ALL_AXES
100
AcDbLine
 62
7
  6
CENTER
 10
12.0927420351
 20
5.4880174769
 11
12.0328213009
 21
5.4880174769
  0
LINE
  5
507
100
AcDbEntity
  8
02___PRT_ALL_AXES
100
AcDbLine
 62
7
  6
CENTER
 10
12.0927420351
 20
5.4880174769
 11
12.1526627693
 21
5.4880174769
  0
LINE
  5
508
100
AcDbEntity
  8
02___PRT_ALL_AXES
100
AcDbLine
 62
7
  6
CENTER
 10
12.8801436099
 20
5.4880174769
 11
12.9339441519
 21
5.4880174769
  0
LINE
  5
509
100
AcDbEntity
  8
02___PRT_ALL_AXES
100
AcDbLine
 62
2
  6
CONTINUOUS
 10
14.4203534541
 20
5.6792603848
 11
14.1391034541
 21
5.6792603848
  0
LINE
  5
50A
100
AcDbEntity
  8
02___PRT_ALL_AXES
100
AcDbLine
 62
7
  6
CENTER
 10
12.8801436099
 20
5.6848678706
 11
12.824780674
 21
5.6848678706
  0
LINE
  5
50B
100
AcDbEntity
  8
02___PRT_ALL_AXES
100
AcDbLine
 62
7
  6
CENTER
 10
12.0927420351
 20
5.6848678706
 11
12.036681333
 21
5.6848678706
  0
LINE
  5
50C
100
AcDbEntity
  8
02___PRT_ALL_AXES
100
AcDbLine
 62
7
  6
CENTER
 10
12.0927420351
 20
5.6848678706
 11
12.1488027373
 21
5.6848678706
  0
LINE
  5
50D
100
AcDbEntity
  8
02___PRT_ALL_AXES
100
AcDbLine
 62
7
  6
CENTER
 10
12.8801436099
 20
5.6848678706
 11
12.9355065458
 21
5.6848678706
  0
LINE
  5
50E
100
AcDbEntity
  8
02___PRT_ALL_AXES
100
AcDbLine
 62
7
  6
CENTER
 10
12.8801436099
 20
5.8817182643
 11
12.8262511624
 21
5.8817182643
  0
LINE
  5
50F
100
AcDbEntity
  8
02___PRT_ALL_AXES
100
AcDbLine
 62
7
  6
CENTER
 10
12.0927420351
 20
5.8817182643
 11
12.0396740067
 21
5.8817182643
  0
LINE
  5
510
100
AcDbEntity
  8
02___PRT_ALL_AXES
100
AcDbLine
 62
7
  6
CENTER
 10
12.0927420351
 20
5.8817182643
 11
12.1458100636
 21
5.8817182643
  0
LINE
  5
511
100
AcDbEntity
  8
02___PRT_ALL_AXES
100
AcDbLine
 62
7
  6
CENTER
 10
12.8801436099
 20
5.8817182643
 11
12.9340360574
 21
5.8817182643
  0
LINE
  5
512
100
AcDbEntity
  8
02___PRT_ALL_AXES
100
AcDbLine
 62
2
  6
CONTINUOUS
 10
14.1391034541
 20
5.9917603848
 11
14.4203534541
 21
5.9917603848
  0
LINE
  5
513
100
AcDbEntity
  8
02___PRT_ALL_AXES
100
AcDbLine
 62
7
  6
CENTER
 10
12.8801436099
 20
6.078568658
 11
12.818875744
 21
6.078568658
  0
LINE
  5
514
100
AcDbEntity
  8
02___PRT_ALL_AXES
100
AcDbLine
 62
7
  6
CENTER
 10
12.0927420351
 20
6.078568658
 11
12.0392392056
 21
6.078568658
  0
LINE
  5
515
100
AcDbEntity
  8
02___PRT_ALL_AXES
100
AcDbLine
 62
7
  6
CENTER
 10
12.0927420351
 20
6.078568658
 11
12.1462448647
 21
6.078568658
  0
LINE
  5
516
100
AcDbEntity
  8
02___PRT_ALL_AXES
100
AcDbLine
 62
7
  6
CENTER
 10
12.8801436099
 20
6.078568658
 11
12.9414114759
 21
6.078568658
  0
LINE
  5
517
100
AcDbEntity
  8
02___PRT_ALL_AXES
100
AcDbLine
 62
7
  6
CENTER
 10
12.8801436099
 20
6.2754190517
 11
12.8335806281
 21
6.2754190517
  0
LINE
  5
518
100
AcDbEntity
  8
02___PRT_ALL_AXES
100
AcDbLine
 62
7
  6
CENTER
 10
12.0927420351
 20
6.2754190517
 11
12.0304162751
 21
6.2754190517
  0
LINE
  5
519
100
AcDbEntity
  8
02___PRT_ALL_AXES
100
AcDbLine
 62
7
  6
CENTER
 10
12.0927420351
 20
6.2754190517
 11
12.1550677952
 21
6.2754190517
  0
LINE
  5
51A
100
AcDbEntity
  8
02___PRT_ALL_AXES
100
AcDbLine
 62
7
  6
CENTER
 10
12.8801436099
 20
6.2754190517
 11
12.9267065917
 21
6.2754190517
  0
LINE
  5
51B
100
AcDbEntity
  8
02___PRT_ALL_AXES
100
AcDbLine
 62
2
  6
CONTINUOUS
 10
14.1391034541
 20
5.6792603848
 11
14.1391034541
 21
5.9917603848
  0
LINE
  5
51C
100
AcDbEntity
  8
02___PRT_ALL_AXES
100
AcDbLine
 62
2
  6
CONTINUOUS
 10
14.2797284541
 20
5.1521414927
 11
14.2797284541
 21
5.6792603848
  0
LINE
  5
51D
100
AcDbEntity
  8
02___PRT_ALL_AXES
100
AcDbLine
 62
2
  6
CONTINUOUS
 10
14.4203534541
 20
5.9917603848
 11
14.4203534541
 21
5.6792603848
  0
LINE
  5
51E
100
AcDbEntity
  8
02___PRT_ALL_AXES
100
AcDbLine
 62
7
  6
CENTER
 10
12.8801436099
 20
6.4722694454
 11
12.8269027577
 21
6.4722694454
  0
LINE
  5
51F
100
AcDbEntity
  8
02___PRT_ALL_AXES
100
AcDbLine
 62
7
  6
CENTER
 10
12.6832932162
 20
6.4722694454
 11
12.6135093694
 21
6.4722694454
  0
LINE
  5
520
100
AcDbEntity
  8
02___PRT_ALL_AXES
100
AcDbLine
 62
7
  6
CENTER
 10
12.4864428225
 20
6.4722694454
 11
12.4313638598
 21
6.4722694454
  0
LINE
  5
521
100
AcDbEntity
  8
02___PRT_ALL_AXES
100
AcDbLine
 62
7
  6
CENTER
 10
12.2895924288
 20
6.4722694454
 11
12.2381896872
 21
6.4722694454
  0
LINE
  5
522
100
AcDbEntity
  8
02___PRT_ALL_AXES
100
AcDbLine
 62
7
  6
CENTER
 10
12.0927420351
 20
6.4722694454
 11
12.0392392056
 21
6.4722694454
  0
LINE
  5
523
100
AcDbEntity
  8
02___PRT_ALL_AXES
100
AcDbLine
 62
7
  6
CENTER
 10
12.0927420351
 20
6.4722694454
 11
12.1462448647
 21
6.4722694454
  0
LINE
  5
524
100
AcDbEntity
  8
02___PRT_ALL_AXES
100
AcDbLine
 62
7
  6
CENTER
 10
12.2895924288
 20
6.4722694454
 11
12.3409951705
 21
6.4722694454
  0
LINE
  5
525
100
AcDbEntity
  8
02___PRT_ALL_AXES
100
AcDbLine
 62
7
  6
CENTER
 10
12.4864428225
 20
6.4722694454
 11
12.5415217852
 21
6.4722694454
  0
LINE
  5
526
100
AcDbEntity
  8
02___PRT_ALL_AXES
100
AcDbLine
 62
7
  6
CENTER
 10
12.6832932162
 20
6.4722694454
 11
12.7530770631
 21
6.4722694454
  0
LINE
  5
527
100
AcDbEntity
  8
02___PRT_ALL_AXES
100
AcDbLine
 62
7
  6
CENTER
 10
12.8801436099
 20
6.4722694454
 11
12.9333844621
 21
6.4722694454
  0
LINE
  5
528
100
AcDbEntity
  8
0
100
AcDbLine
 62
7
  6
CONTINUOUS
 10
12.9195136887
 20
6.5510096029
 11
12.0533719564
 21
6.5510096029
  0
ARC
  5
529
100
AcDbEntity
  8
0
100
AcDbCircle
 62
7
  6
CONTINUOUS
 10
5.9271634927
 20
9.7625679861
 40
0.157480315
100
AcDbArc
 50
0.0
 51
90.0
  0
ARC
  5
52A
100
AcDbEntity
  8
0
100
AcDbCircle
 62
7
  6
CONTINUOUS
 10
3.4389745163
 20
9.7625679861
 40
0.157480315
100
AcDbArc
 50
90.0
 51
180.0
  0
ARC
  5
52B
100
AcDbEntity
  8
0
100
AcDbCircle
 62
7
  6
CONTINUOUS
 10
3.8855886895
 20
9.3159538129
 40
0.0787401575
100
AcDbArc
 50
270.0
 51
360.0
  0
ARC
  5
52C
100
AcDbEntity
  8
0
100
AcDbCircle
 62
7
  6
CONTINUOUS
 10
4.0430690045
 20
9.5224105058
 40
0.0787401575
100
AcDbArc
 50
90.0
 51
180.0
  0
ARC
  5
52D
100
AcDbEntity
  8
0
100
AcDbCircle
 62
7
  6
CONTINUOUS
 10
5.3230690045
 20
9.5224105058
 40
0.0787401575
100
AcDbArc
 50
0.0
 51
90.0
  0
ARC
  5
52E
100
AcDbEntity
  8
0
100
AcDbCircle
 62
7
  6
CONTINUOUS
 10
5.4805493194
 20
9.3159538129
 40
0.0787401575
100
AcDbArc
 50
180.0
 51
270.0
  0
ARC
  5
52F
100
AcDbEntity
  8
0
100
AcDbCircle
 62
7
  6
CONTINUOUS
 10
5.6870060123
 20
9.1584734979
 40
0.0787401575
100
AcDbArc
 50
0.0
 51
90.0
  0
ARC
  5
530
100
AcDbEntity
  8
0
100
AcDbCircle
 62
7
  6
CONTINUOUS
 10
5.6870060123
 20
7.8784734979
 40
0.0787401575
100
AcDbArc
 50
270.0
 51
360.0
  0
ARC
  5
531
100
AcDbEntity
  8
0
100
AcDbCircle
 62
7
  6
CONTINUOUS
 10
5.4805493194
 20
7.720993183
 40
0.0787401575
100
AcDbArc
 50
90.0
 51
180.0
  0
ARC
  5
532
100
AcDbEntity
  8
0
100
AcDbCircle
 62
7
  6
CONTINUOUS
 10
5.3230690045
 20
7.5145364901
 40
0.0787401575
100
AcDbArc
 50
270.0
 51
360.0
  0
ARC
  5
533
100
AcDbEntity
  8
0
100
AcDbCircle
 62
7
  6
CONTINUOUS
 10
4.0430690045
 20
7.5145364901
 40
0.0787401575
100
AcDbArc
 50
180.0
 51
270.0
  0
ARC
  5
534
100
AcDbEntity
  8
0
100
AcDbCircle
 62
7
  6
CONTINUOUS
 10
3.8855886895
 20
7.720993183
 40
0.0787401575
100
AcDbArc
 50
0.0
 51
90.0
  0
ARC
  5
535
100
AcDbEntity
  8
0
100
AcDbCircle
 62
7
  6
CONTINUOUS
 10
3.6791319966
 20
7.8784734979
 40
0.0787401575
100
AcDbArc
 50
180.0
 51
270.0
  0
ARC
  5
536
100
AcDbEntity
  8
0
100
AcDbCircle
 62
7
  6
CONTINUOUS
 10
3.6791319966
 20
9.1584734979
 40
0.0787401575
100
AcDbArc
 50
90.0
 51
180.0
  0
CIRCLE
  5
537
100
AcDbEntity
  8
0
100
AcDbCircle
 62
7
  6
CONTINUOUS
 10
3.7922258156
 20
9.4093166868
 40
0.0708661417
  0
CIRCLE
  5
538
100
AcDbEntity
  8
0
100
AcDbCircle
 62
7
  6
CONTINUOUS
 10
5.5739121934
 20
9.4093166868
 40
0.0708661417
  0
CIRCLE
  5
539
100
AcDbEntity
  8
0
100
AcDbCircle
 62
7
  6
CONTINUOUS
 10
5.5739121934
 20
7.627630309
 40
0.0708661417
  0
CIRCLE
  5
53A
100
AcDbEntity
  8
0
100
AcDbCircle
 62
7
  6
CONTINUOUS
 10
3.7922258156
 20
7.627630309
 40
0.0708661417
  0
CIRCLE
  5
53B
100
AcDbEntity
  8
0
100
AcDbCircle
 62
7
  6
CONTINUOUS
 10
3.7922258156
 20
9.4093166868
 40
0.062992126
  0
CIRCLE
  5
53C
100
AcDbEntity
  8
0
100
AcDbCircle
 62
7
  6
CONTINUOUS
 10
5.5739121934
 20
9.4093166868
 40
0.062992126
  0
CIRCLE
  5
53D
100
AcDbEntity
  8
0
100
AcDbCircle
 62
7
  6
CONTINUOUS
 10
5.5739121934
 20
7.627630309
 40
0.062992126
  0
CIRCLE
  5
53E
100
AcDbEntity
  8
0
100
AcDbCircle
 62
7
  6
CONTINUOUS
 10
3.7922258156
 20
7.627630309
 40
0.062992126
  0
ARC
  5
53F
100
AcDbEntity
  8
0
100
AcDbCircle
 62
7
  6
CONTINUOUS
 10
12.0533719564
 20
3.4801434612
 40
0.0393700787
100
AcDbArc
 50
180.0
 51
270.0
  0
CIRCLE
  5
540
100
AcDbEntity
  8
0
100
AcDbCircle
 62
7
  6
CONTINUOUS
 10
12.0927420351
 20
3.7163639336
 40
0.0283464567
  0
CIRCLE
  5
541
100
AcDbEntity
  8
0
100
AcDbCircle
 62
7
  6
CONTINUOUS
 10
12.0927420351
 20
3.5195135399
 40
0.0283464567
  0
CIRCLE
  5
542
100
AcDbEntity
  8
0
100
AcDbCircle
 62
7
  6
CONTINUOUS
 10
12.0927420351
 20
3.5195135399
 40
0.0244094488
  0
CIRCLE
  5
543
100
AcDbEntity
  8
0
100
AcDbCircle
 62
7
  6
CONTINUOUS
 10
12.0927420351
 20
3.7163639336
 40
0.0244094488
  0
CIRCLE
  5
544
100
AcDbEntity
  8
0
100
AcDbCircle
 62
7
  6
CONTINUOUS
 10
12.0927420351
 20
4.110064721
 40
0.0283464567
  0
CIRCLE
  5
545
100
AcDbEntity
  8
0
100
AcDbCircle
 62
7
  6
CONTINUOUS
 10
12.0927420351
 20
3.9132143273
 40
0.0283464567
  0
CIRCLE
  5
546
100
AcDbEntity
  8
0
100
AcDbCircle
 62
7
  6
CONTINUOUS
 10
12.0927420351
 20
3.9132143273
 40
0.0244094488
  0
CIRCLE
  5
547
100
AcDbEntity
  8
0
100
AcDbCircle
 62
7
  6
CONTINUOUS
 10
12.0927420351
 20
4.110064721
 40
0.0244094488
  0
CIRCLE
  5
548
100
AcDbEntity
  8
0
100
AcDbCircle
 62
7
  6
CONTINUOUS
 10
12.0927420351
 20
4.8974662958
 40
0.0283464567
  0
CIRCLE
  5
549
100
AcDbEntity
  8
0
100
AcDbCircle
 62
7
  6
CONTINUOUS
 10
12.0927420351
 20
4.7006159021
 40
0.0283464567
  0
CIRCLE
  5
54A
100
AcDbEntity
  8
0
100
AcDbCircle
 62
7
  6
CONTINUOUS
 10
12.0927420351
 20
4.5037655084
 40
0.0283464567
  0
CIRCLE
  5
54B
100
AcDbEntity
  8
0
100
AcDbCircle
 62
7
  6
CONTINUOUS
 10
12.0927420351
 20
4.3069151147
 40
0.0283464567
  0
CIRCLE
  5
54C
100
AcDbEntity
  8
0
100
AcDbCircle
 62
7
  6
CONTINUOUS
 10
12.0927420351
 20
4.3069151147
 40
0.0244094488
  0
CIRCLE
  5
54D
100
AcDbEntity
  8
0
100
AcDbCircle
 62
7
  6
CONTINUOUS
 10
12.0927420351
 20
4.5037655084
 40
0.0244094488
  0
CIRCLE
  5
54E
100
AcDbEntity
  8
0
100
AcDbCircle
 62
7
  6
CONTINUOUS
 10
12.0927420351
 20
4.7006159021
 40
0.0244094488
  0
CIRCLE
  5
54F
100
AcDbEntity
  8
0
100
AcDbCircle
 62
7
  6
CONTINUOUS
 10
12.0927420351
 20
4.8974662958
 40
0.0244094488
  0
CIRCLE
  5
550
100
AcDbEntity
  8
0
100
AcDbCircle
 62
7
  6
CONTINUOUS
 10
12.2895924288
 20
3.5195135399
 40
0.0283464567
  0
CIRCLE
  5
551
100
AcDbEntity
  8
0
100
AcDbCircle
 62
7
  6
CONTINUOUS
 10
12.2895924288
 20
3.5195135399
 40
0.0244094488
  0
CIRCLE
  5
552
100
AcDbEntity
  8
0
100
AcDbCircle
 62
7
  6
CONTINUOUS
 10
12.0927420351
 20
5.6848678706
 40
0.0283464567
  0
CIRCLE
  5
553
100
AcDbEntity
  8
0
100
AcDbCircle
 62
7
  6
CONTINUOUS
 10
12.0927420351
 20
5.4880174769
 40
0.0283464567
  0
CIRCLE
  5
554
100
AcDbEntity
  8
0
100
AcDbCircle
 62
7
  6
CONTINUOUS
 10
12.0927420351
 20
5.2911670832
 40
0.0283464567
  0
CIRCLE
  5
555
100
AcDbEntity
  8
0
100
AcDbCircle
 62
7
  6
CONTINUOUS
 10
12.0927420351
 20
5.0943166895
 40
0.0283464567
  0
CIRCLE
  5
556
100
AcDbEntity
  8
0
100
AcDbCircle
 62
7
  6
CONTINUOUS
 10
12.0927420351
 20
5.0943166895
 40
0.0244094488
  0
CIRCLE
  5
557
100
AcDbEntity
  8
0
100
AcDbCircle
 62
7
  6
CONTINUOUS
 10
12.0927420351
 20
5.2911670832
 40
0.0244094488
  0
CIRCLE
  5
558
100
AcDbEntity
  8
0
100
AcDbCircle
 62
7
  6
CONTINUOUS
 10
12.0927420351
 20
5.4880174769
 40
0.0244094488
  0
CIRCLE
  5
559
100
AcDbEntity
  8
0
100
AcDbCircle
 62
7
  6
CONTINUOUS
 10
12.0927420351
 20
5.6848678706
 40
0.0244094488
  0
ARC
  5
55A
100
AcDbEntity
  8
0
100
AcDbCircle
 62
7
  6
CONTINUOUS
 10
12.0533719564
 20
6.5116395242
 40
0.0393700787
100
AcDbArc
 50
90.0
 51
180.0
  0
CIRCLE
  5
55B
100
AcDbEntity
  8
0
100
AcDbCircle
 62
7
  6
CONTINUOUS
 10
12.0927420351
 20
6.078568658
 40
0.0283464567
  0
CIRCLE
  5
55C
100
AcDbEntity
  8
0
100
AcDbCircle
 62
7
  6
CONTINUOUS
 10
12.0927420351
 20
5.8817182643
 40
0.0283464567
  0
CIRCLE
  5
55D
100
AcDbEntity
  8
0
100
AcDbCircle
 62
7
  6
CONTINUOUS
 10
12.0927420351
 20
5.8817182643
 40
0.0244094488
  0
CIRCLE
  5
55E
100
AcDbEntity
  8
0
100
AcDbCircle
 62
7
  6
CONTINUOUS
 10
12.0927420351
 20
6.078568658
 40
0.0244094488
  0
CIRCLE
  5
55F
100
AcDbEntity
  8
0
100
AcDbCircle
 62
7
  6
CONTINUOUS
 10
12.0927420351
 20
6.4722694454
 40
0.0283464567
  0
CIRCLE
  5
560
100
AcDbEntity
  8
0
100
AcDbCircle
 62
7
  6
CONTINUOUS
 10
12.0927420351
 20
6.2754190517
 40
0.0283464567
  0
CIRCLE
  5
561
100
AcDbEntity
  8
0
100
AcDbCircle
 62
7
  6
CONTINUOUS
 10
12.0927420351
 20
6.2754190517
 40
0.0244094488
  0
CIRCLE
  5
562
100
AcDbEntity
  8
0
100
AcDbCircle
 62
7
  6
CONTINUOUS
 10
12.0927420351
 20
6.4722694454
 40
0.0244094488
  0
CIRCLE
  5
563
100
AcDbEntity
  8
0
100
AcDbCircle
 62
7
  6
CONTINUOUS
 10
12.2895924288
 20
6.4722694454
 40
0.0283464567
  0
CIRCLE
  5
564
100
AcDbEntity
  8
0
100
AcDbCircle
 62
7
  6
CONTINUOUS
 10
12.2895924288
 20
6.4722694454
 40
0.0244094488
  0
CIRCLE
  5
565
100
AcDbEntity
  8
0
100
AcDbCircle
 62
7
  6
CONTINUOUS
 10
12.4864428225
 20
3.5195135399
 40
0.0283464567
  0
CIRCLE
  5
566
100
AcDbEntity
  8
0
100
AcDbCircle
 62
7
  6
CONTINUOUS
 10
12.6832932162
 20
3.5195135399
 40
0.0283464567
  0
CIRCLE
  5
567
100
AcDbEntity
  8
0
100
AcDbCircle
 62
7
  6
CONTINUOUS
 10
12.6832932162
 20
3.5195135399
 40
0.0244094488
  0
CIRCLE
  5
568
100
AcDbEntity
  8
0
100
AcDbCircle
 62
7
  6
CONTINUOUS
 10
12.4864428225
 20
3.5195135399
 40
0.0244094488
  0
CIRCLE
  5
569
100
AcDbEntity
  8
0
100
AcDbCircle
 62
7
  6
CONTINUOUS
 10
12.8801436099
 20
3.5195135399
 40
0.0283464567
  0
CIRCLE
  5
56A
100
AcDbEntity
  8
0
100
AcDbCircle
 62
7
  6
CONTINUOUS
 10
12.8801436099
 20
3.7163639336
 40
0.0283464567
  0
CIRCLE
  5
56B
100
AcDbEntity
  8
0
100
AcDbCircle
 62
7
  6
CONTINUOUS
 10
12.8801436099
 20
3.5195135399
 40
0.0244094488
  0
CIRCLE
  5
56C
100
AcDbEntity
  8
0
100
AcDbCircle
 62
7
  6
CONTINUOUS
 10
12.8801436099
 20
3.7163639336
 40
0.0244094488
  0
CIRCLE
  5
56D
100
AcDbEntity
  8
0
100
AcDbCircle
 62
7
  6
CONTINUOUS
 10
12.8801436099
 20
3.9132143273
 40
0.0283464567
  0
CIRCLE
  5
56E
100
AcDbEntity
  8
0
100
AcDbCircle
 62
7
  6
CONTINUOUS
 10
12.8801436099
 20
4.110064721
 40
0.0283464567
  0
CIRCLE
  5
56F
100
AcDbEntity
  8
0
100
AcDbCircle
 62
7
  6
CONTINUOUS
 10
12.8801436099
 20
4.110064721
 40
0.0244094488
  0
CIRCLE
  5
570
100
AcDbEntity
  8
0
100
AcDbCircle
 62
7
  6
CONTINUOUS
 10
12.8801436099
 20
3.9132143273
 40
0.0244094488
  0
ARC
  5
571
100
AcDbEntity
  8
0
100
AcDbCircle
 62
7
  6
CONTINUOUS
 10
12.9195136887
 20
3.4801434612
 40
0.0393700787
100
AcDbArc
 50
270.0
 51
360.0
  0
CIRCLE
  5
572
100
AcDbEntity
  8
0
100
AcDbCircle
 62
7
  6
CONTINUOUS
 10
12.8801436099
 20
4.3069151147
 40
0.0283464567
  0
CIRCLE
  5
573
100
AcDbEntity
  8
0
100
AcDbCircle
 62
7
  6
CONTINUOUS
 10
12.8801436099
 20
4.5037655084
 40
0.0283464567
  0
CIRCLE
  5
574
100
AcDbEntity
  8
0
100
AcDbCircle
 62
7
  6
CONTINUOUS
 10
12.8801436099
 20
4.7006159021
 40
0.0283464567
  0
CIRCLE
  5
575
100
AcDbEntity
  8
0
100
AcDbCircle
 62
7
  6
CONTINUOUS
 10
12.8801436099
 20
4.8974662958
 40
0.0283464567
  0
CIRCLE
  5
576
100
AcDbEntity
  8
0
100
AcDbCircle
 62
7
  6
CONTINUOUS
 10
12.8801436099
 20
4.8974662958
 40
0.0244094488
  0
CIRCLE
  5
577
100
AcDbEntity
  8
0
100
AcDbCircle
 62
7
  6
CONTINUOUS
 10
12.8801436099
 20
4.5037655084
 40
0.0244094488
  0
CIRCLE
  5
578
100
AcDbEntity
  8
0
100
AcDbCircle
 62
7
  6
CONTINUOUS
 10
12.8801436099
 20
4.3069151147
 40
0.0244094488
  0
CIRCLE
  5
579
100
AcDbEntity
  8
0
100
AcDbCircle
 62
7
  6
CONTINUOUS
 10
12.8801436099
 20
4.7006159021
 40
0.0244094488
  0
CIRCLE
  5
57A
100
AcDbEntity
  8
0
100
AcDbCircle
 62
7
  6
CONTINUOUS
 10
12.6832932162
 20
6.4722694454
 40
0.0283464567
  0
CIRCLE
  5
57B
100
AcDbEntity
  8
0
100
AcDbCircle
 62
7
  6
CONTINUOUS
 10
12.4864428225
 20
6.4722694454
 40
0.0283464567
  0
CIRCLE
  5
57C
100
AcDbEntity
  8
0
100
AcDbCircle
 62
7
  6
CONTINUOUS
 10
12.4864428225
 20
6.4722694454
 40
0.0244094488
  0
CIRCLE
  5
57D
100
AcDbEntity
  8
0
100
AcDbCircle
 62
7
  6
CONTINUOUS
 10
12.6832932162
 20
6.4722694454
 40
0.0244094488
  0
CIRCLE
  5
57E
100
AcDbEntity
  8
0
100
AcDbCircle
 62
7
  6
CONTINUOUS
 10
12.8801436099
 20
5.0943166895
 40
0.0283464567
  0
CIRCLE
  5
57F
100
AcDbEntity
  8
0
100
AcDbCircle
 62
7
  6
CONTINUOUS
 10
12.8801436099
 20
5.2911670832
 40
0.0283464567
  0
CIRCLE
  5
580
100
AcDbEntity
  8
0
100
AcDbCircle
 62
7
  6
CONTINUOUS
 10
12.8801436099
 20
5.4880174769
 40
0.0283464567
  0
CIRCLE
  5
581
100
AcDbEntity
  8
0
100
AcDbCircle
 62
7
  6
CONTINUOUS
 10
12.8801436099
 20
5.6848678706
 40
0.0283464567
  0
CIRCLE
  5
582
100
AcDbEntity
  8
0
100
AcDbCircle
 62
7
  6
CONTINUOUS
 10
12.8801436099
 20
5.4880174769
 40
0.0244094488
  0
CIRCLE
  5
583
100
AcDbEntity
  8
0
100
AcDbCircle
 62
7
  6
CONTINUOUS
 10
12.8801436099
 20
5.2911670832
 40
0.0244094488
  0
CIRCLE
  5
584
100
AcDbEntity
  8
0
100
AcDbCircle
 62
7
  6
CONTINUOUS
 10
12.8801436099
 20
5.0943166895
 40
0.0244094488
  0
CIRCLE
  5
585
100
AcDbEntity
  8
0
100
AcDbCircle
 62
7
  6
CONTINUOUS
 10
12.8801436099
 20
5.6848678706
 40
0.0244094488
  0
CIRCLE
  5
586
100
AcDbEntity
  8
0
100
AcDbCircle
 62
7
  6
CONTINUOUS
 10
12.8801436099
 20
5.8817182643
 40
0.0283464567
  0
CIRCLE
  5
587
100
AcDbEntity
  8
0
100
AcDbCircle
 62
7
  6
CONTINUOUS
 10
12.8801436099
 20
6.078568658
 40
0.0283464567
  0
CIRCLE
  5
588
100
AcDbEntity
  8
0
100
AcDbCircle
 62
7
  6
CONTINUOUS
 10
12.8801436099
 20
6.078568658
 40
0.0244094488
  0
CIRCLE
  5
589
100
AcDbEntity
  8
0
100
AcDbCircle
 62
7
  6
CONTINUOUS
 10
12.8801436099
 20
5.8817182643
 40
0.0244094488
  0
CIRCLE
  5
58A
100
AcDbEntity
  8
0
100
AcDbCircle
 62
7
  6
CONTINUOUS
 10
12.8801436099
 20
6.2754190517
 40
0.0283464567
  0
CIRCLE
  5
58B
100
AcDbEntity
  8
0
100
AcDbCircle
 62
7
  6
CONTINUOUS
 10
12.8801436099
 20
6.4722694454
 40
0.0283464567
  0
CIRCLE
  5
58C
100
AcDbEntity
  8
0
100
AcDbCircle
 62
7
  6
CONTINUOUS
 10
12.8801436099
 20
6.4722694454
 40
0.0244094488
  0
CIRCLE
  5
58D
100
AcDbEntity
  8
0
100
AcDbCircle
 62
7
  6
CONTINUOUS
 10
12.8801436099
 20
6.2754190517
 40
0.0244094488
  0
ARC
  5
58E
100
AcDbEntity
  8
0
100
AcDbCircle
 62
7
  6
CONTINUOUS
 10
12.9195136887
 20
6.5116395242
 40
0.0393700787
100
AcDbArc
 50
0.0
 51
90.0
  0
ENDSEC
  0
SECTION
  2
OBJECTS
  0
DICTIONARY
  5
C
100
AcDbDictionary
280
0
281
1
  3
ACAD_GROUP
350
D
  3
ACAD_MLINESTYLE
350
17
  3
ACAD_LAYOUT
350
1A
  3
ACAD_PLOTSETTINGS
350
19
  3
ACAD_PLOTSTYLENAME
350
E
  3
ACAD_TABLESTYLE
350
       58F
  0
DICTIONARY
  5
D
102
{ACAD_REACTORS
330
C
102
}
100
AcDbDictionary
280
0
281
1
  0
ACDBDICTIONARYWDFLT
  5
E
102
{ACAD_REACTORS
330
C
102
}
100
AcDbDictionary
281
1
  3
Normal
350
F
100
AcDbDictionaryWithDefault
340
F
  0
DICTIONARY
  5
17
102
{ACAD_REACTORS
330
C
102
}
100
AcDbDictionary
280
0
281
1
  3
Standard
350
18
  0
DICTIONARY
  5
58F
330
C
100
AcDbDictionary
281
1
  3
Standard
350
       592
  3
Standard1
350
       593
  0
DICTIONARY
  5
19
102
{ACAD_REACTORS
330
C
102
}
100
AcDbDictionary
281
1
  0
DICTIONARY
  5
1A
102
{ACAD_REACTORS
330
C
102
}
100
AcDbDictionary
281
1
  3
Model
350
590
  3
Layout1
350
591
  0
ACDBPLACEHOLDER
  5
F
102
{ACAD_REACTORS
330
E
102
}
  0
MLINESTYLE
  5
18
102
{ACAD_REACTORS
330
17
102
}
100
AcDbMlineStyle
  2
STANDARD
 70
0
  3

 62
256
 51
90.0
 52
90.0
 71
2
 49
0.5
 62
256
  6
BYLAYER
 49
-0.5
 62
256
  6
BYLAYER
  0
LAYOUT
  5
590
102
{ACAD_REACTORS
330
1A
102
}
100
AcDbPlotSettings
  1

  2
none_device
  4
ISO_A3_(420.00_x_297.00_MM)
  6

 40
0.0
 41
0.0
 42
0.0
 43
0.0
 44
420.0
 45
297.0
 46
0.0
 47
0.0
 48
0.0
 49
0.0
140
0.0
141
0.0
142
1.0
143
1.0
 70
1024
 72
0
 73
0
 74
0
  7

 75
0
147
1.0
148
0.0
149
0.0
100
AcDbLayout
  1
Model
 70
0
 71
0
 10
0.0
 20
0.0
 11
16.5354330709
 21
11.6929133858
 12
0.0
 22
0.0
 32
0.0
 14
0.0
 24
0.0
 34
0.0
 15
0.0
 25
0.0
 35
0.0
146
0.0
 13
0.0
 23
0.0
 33
0.0
 16
1.0
 26
0.0
 36
0.0
 17
0.0
 27
1.0
 37
0.0
 76
0
330
208
345
0
346
0
  0
LAYOUT
  5
591
102
{ACAD_REACTORS
330
1A
102
}
100
AcDbPlotSettings
  1

  2
none_device
  4
ISO_A3_(420.00_x_297.00_MM)
  6

 40
0.0
 41
0.0
 42
0.0
 43
0.0
 44
420.0
 45
297.0
 46
0.0
 47
0.0
 48
0.0
 49
0.0
140
0.0
141
0.0
142
1.0
143
1.0
 70
0
 72
0
 73
0
 74
0
  7

 75
0
147
1.0
148
0.0
149
0.0
100
AcDbLayout
  1
Layout1
 70
0
 71
1
 10
0.0
 20
0.0
 11
16.5354330709
 21
11.6929133858
 12
0.0
 22
0.0
 32
0.0
 14
0.0
 24
0.0
 34
0.0
 15
0.0
 25
0.0
 35
0.0
146
0.0
 13
0.0
 23
0.0
 33
0.0
 16
1.0
 26
0.0
 36
0.0
 17
0.0
 27
1.0
 37
0.0
 76
0
330
209
345
0
346
0
  0
TABLESTYLE
  5
592
102
{ACAD_REACTORS
330
58F
330
419
330
41A
330
41B
330
41C
330
41D
330
41E
102
}
330
58F
100
AcDbTableStyle
  3
Standard
 70
0
 71
0
 40
0.06
 41
0.06
280
1
281
1
  7
Standard
140
0.18
170
1
 62
0
 63
7
283
0
  7
Standard
140
0.18
170
1
 62
0
 63
7
283
0
  7
Standard
140
0.18
170
1
 62
0
 63
7
283
0
  0
TABLESTYLE
  5
593
102
{ACAD_REACTORS
330
58F
102
}
330
58F
100
AcDbTableStyle
  3
Standard1
 70
1
 71
0
 40
0.06
 41
0.06
280
1
281
1
  7
Standard
140
0.18
170
1
 62
0
 63
7
283
0
  7
Standard
140
0.18
170
1
 62
0
 63
7
283
0
  7
Standard
140
0.18
170
1
 62
0
 63
7
283
0
  0
ENDSEC
  0
EOF
