999
DXF file: C:\Users\Harry\OneDrive - Loughborough University\3rd Year Notes\17MMD550 - Individual Project\5. CAD Models\Creo Rig Design\v_new\Drawings\DXF\hinge.dxf
999
Pro/ENGINEER 2014440 by Parametric Technology Corporation
  0
SECTION
  2
HEADER
  9
$ACADVER
  1
AC1027
  9
$DWGCODEPAGE
  3
ANSI_1252
  9
$EXTMAX
 10
16.5354330709
 20
11.6929133858
 30
0.0
  9
$EXTMIN
 10
0.0
 20
0.0
 30
0.0
  9
$LIMMIN
 10
0.0
 20
0.0
  9
$LIMMAX
 10
16.5354330709
 20
11.6929133858
  9
$VIEWCTR
 10
8.2677165354
 20
5.8464566929
  9
$VIEWSIZE
 40
11.6929133858
  9
$CLAYER
  8
0
  9
$LTSCALE
 40
0.9094488189
  9
$CELTYPE
  6
BYLAYER
  9
$DIMSCALE
 40
1.0
  9
$DIMASZ
 40
0.1875
  9
$DIMEXO
 40
0.0625
  9
$DIMDLI
 40
0.6283464567
  9
$DIMEXE
 40
0.125
  9
$DIMCEN
 40
0.1488188976
  9
$DIMLFAC
 40
1.0
  9
$DIMBLK
  1
_CLOSED
  9
$DIMALT
 70
0
  9
$DIMALTF
 40
25.4
  9
$DIMTXT
 40
0.15625
  9
$DIMTOL
 70
1
  9
$DIMLIM
 70
0
  9
$DIMTFAC
 40
1.0
  9
$DIMTP
 40
0.01
  9
$DIMTM
 40
0.01
  9
$DIMGAP
 40
0.09
  9
$DIMDSEP
 70
46
  9
$AUNITS
 70
0
  9
$PDMODE
 70
3
  9
$PDSIZE
 40
0.3125
  9
$HANDSEED
  5
3F3
  9
$TILEMODE
 70
1
  9
$MEASUREMENT
 70
0
  9
$INSUNITS
 70
1
  0
ENDSEC
  0
SECTION
  2
CLASSES
  0
CLASS
  1
ACDBDICTIONARYWDFLT
  2
AcDbDictionaryWithDefault
  3
AutoCAD 2000
 90
0
 91
1
280
0
281
0
  0
CLASS
  1
ACDBPLACEHOLDER
  2
AcDbPlaceHolder
  3
AutoCAD 2000
 90
0
 91
1
280
0
281
0
  0
CLASS
  1
LAYOUT
  2
AcDbLayout
  3
AutoCAD 2000
 90
0
 91
0
280
0
281
0
  0
CLASS
  1
RASTERVARIABLES
  2
AcDbRasterVariables
  3
ISM
 90
0
 91
1
280
0
281
0
  0
CLASS
  1
IMAGEDEF
  2
AcDbRasterImageDef
  3
ISM
 90
0
 91
1
280
0
281
0
  0
CLASS
  1
IMAGEDEF_REACTOR
  2
AcDbRasterImageDefReactor
  3
ISM
 90
0
 91
1
280
0
281
0
  0
CLASS
  1
IMAGE
  2
AcDbRasterImage
  3
ISM
 90
127
 91
1
280
0
281
1
  0
CLASS
  1
TABLESTYLE
  2
AcDbTableStyle
  3
ObjectDBX Classes
 90
2047
 91
1
280
0
281
0
  0
CLASS
  1
ACAD_TABLE
  2
AcDbTable
  3
ObjectDBX Classes
 90
1025
 91
6
280
0
281
1
  0
ENDSEC
  0
SECTION
  2
TABLES
  0
TABLE
  2
VPORT
  5
8
100
AcDbSymbolTable
 70
2
  0
VPORT
  5
1F4
100
AcDbSymbolTableRecord
100
AcDbViewportTableRecord
  2
*ACTIVE
 70
0
 10
0.0
 20
0.0
 11
1.0
 21
1.0
 12
8.2677165354
 22
5.8464566929
 13
0.0
 23
0.0
 14
1.0
 24
1.0
 15
0.0
 25
0.0
 16
0.0
 26
0.0
 36
1.0
 17
0.0
 27
0.0
 37
0.0
 40
11.6929133858
 41
1.4141414141
 42
50.0
 43
0.0
 44
0.0
 50
0.0
 51
0.0
 71
0
 72
100
 73
1
 74
1
 75
0
 76
0
 77
0
 78
0
  0
ENDTAB
  0
TABLE
  2
LTYPE
  5
5
100
AcDbSymbolTable
 70
6
  0
LTYPE
  5
14
100
AcDbSymbolTableRecord
100
AcDbLinetypeTableRecord
  2
BYBLOCK
 70
0
  3

 72
65
 73
0
 40
0.0
  0
LTYPE
  5
15
100
AcDbSymbolTableRecord
100
AcDbLinetypeTableRecord
  2
BYLAYER
 70
0
  3

 72
65
 73
0
 40
0.0
  0
LTYPE
  5
16
100
AcDbSymbolTableRecord
100
AcDbLinetypeTableRecord
  2
CONTINUOUS
 70
64
  3
Solid line
 72
65
 73
0
 40
0.0
  0
LTYPE
  5
1F5
100
AcDbSymbolTableRecord
100
AcDbLinetypeTableRecord
  2
CENTER
 70
64
  3
____ _ ____ _ ____ _ ____ _ ____ _ ____ _ ____
 72
65
 73
4
 40
0.6
 49
0.375
 74
0
 49
-0.075
 74
0
 49
0.075
 74
0
 49
-0.075
 74
0
  0
LTYPE
  5
1F6
100
AcDbSymbolTableRecord
100
AcDbLinetypeTableRecord
  2
HIDDEN
 70
64
  3
- - - - - - - - - - - - - - - - - - - -
 72
65
 73
2
 40
0.2
 49
0.1
 74
0
 49
-0.1
 74
0
  0
LTYPE
  5
1F7
100
AcDbSymbolTableRecord
100
AcDbLinetypeTableRecord
  2
PHANTOM
 70
64
  3
_____ _ _ _____ _ _ _____ _ _ _____
 72
65
 73
6
 40
0.8
 49
0.45
 74
0
 49
-0.05
 74
0
 49
0.1
 74
0
 49
-0.05
 74
0
 49
0.1
 74
0
 49
-0.05
 74
0
  0
LTYPE
  5
1F8
100
AcDbSymbolTableRecord
100
AcDbLinetypeTableRecord
  2
DOT
 70
64
  3
. . . . . . . . . . . . . . . . . . . .
 72
65
 73
2
 40
0.2
 49
0.1
 74
0
 49
-0.1
 74
0
  0
LTYPE
  5
1F9
100
AcDbSymbolTableRecord
100
AcDbLinetypeTableRecord
  2
DASHED
 70
64
  3
- - - - - - - - - - - - - - - - - - - -
 72
65
 73
2
 40
0.2
 49
0.1
 74
0
 49
-0.1
 74
0
  0
ENDTAB
  0
TABLE
  2
LAYER
  5
2
100
AcDbSymbolTable
 70
36
  0
LAYER
  5
10
100
AcDbSymbolTableRecord
100
AcDbLayerTableRecord
  2
0
 70
0
 62
7
  6
CONTINUOUS
370
-3
390
F
  0
LAYER
  5
1FA
100
AcDbSymbolTableRecord
100
AcDbLayerTableRecord
  2
DEFAULT_1
 70
0
 62
7
  6
CENTER
370
-3
390
F
  0
LAYER
  5
1FB
100
AcDbSymbolTableRecord
100
AcDbLayerTableRecord
  2
DEFAULT_2
 70
0
 62
8
  6
HIDDEN
370
-3
390
F
  0
LAYER
  5
1FC
100
AcDbSymbolTableRecord
100
AcDbLayerTableRecord
  2
DEFAULT_3
 70
0
 62
7
  6
PHANTOM
370
-3
390
F
  0
LAYER
  5
1FD
100
AcDbSymbolTableRecord
100
AcDbLayerTableRecord
  2
01___PRT_ALL_DTM_PLN
 70
0
 62
7
  6
CONTINUOUS
370
-3
390
F
  0
LAYER
  5
1FE
100
AcDbSymbolTableRecord
100
AcDbLayerTableRecord
  2
01___PRT_DEF_DTM_PLN
 70
0
 62
7
  6
CONTINUOUS
370
-3
390
F
  0
LAYER
  5
1FF
100
AcDbSymbolTableRecord
100
AcDbLayerTableRecord
  2
02___PRT_ALL_AXES
 70
0
 62
7
  6
CONTINUOUS
370
-3
390
F
  0
LAYER
  5
200
100
AcDbSymbolTableRecord
100
AcDbLayerTableRecord
  2
03___PRT_ALL_CURVES
 70
0
 62
7
  6
CONTINUOUS
370
-3
390
F
  0
LAYER
  5
201
100
AcDbSymbolTableRecord
100
AcDbLayerTableRecord
  2
04___PRT_ALL_DTM_PNT
 70
0
 62
7
  6
CONTINUOUS
370
-3
390
F
  0
LAYER
  5
202
100
AcDbSymbolTableRecord
100
AcDbLayerTableRecord
  2
05___PRT_ALL_DTM_CSYS
 70
0
 62
7
  6
CONTINUOUS
370
-3
390
F
  0
LAYER
  5
203
100
AcDbSymbolTableRecord
100
AcDbLayerTableRecord
  2
05___PRT_DEF_DTM_CSYS
 70
0
 62
7
  6
CONTINUOUS
370
-3
390
F
  0
LAYER
  5
204
100
AcDbSymbolTableRecord
100
AcDbLayerTableRecord
  2
06___PRT_ALL_SURFS
 70
0
 62
7
  6
CONTINUOUS
370
-3
390
F
  0
LAYER
  5
205
100
AcDbSymbolTableRecord
100
AcDbLayerTableRecord
  2
3_ALL_SYMBOLS
 70
0
 62
7
  6
CONTINUOUS
370
-3
390
F
  0
ENDTAB
  0
TABLE
  2
STYLE
  5
3
100
AcDbSymbolTable
 70
1
  0
STYLE
  5
11
100
AcDbSymbolTableRecord
100
AcDbTextStyleTableRecord
  2
STANDARD
 70
0
 40
0.0
 41
0.8
 50
0.0
 71
0
 42
0.2
  3
txt
  4

  0
STYLE
  5
206
100
AcDbSymbolTableRecord
100
AcDbTextStyleTableRecord
  2
TEXTSTYLE_1
 70
0
 40
0.0
 41
0.8
 50
0.0
 71
0
 42
0.2
  3
gdt
  4

  0
ENDTAB
  0
TABLE
  2
VIEW
  5
6
100
AcDbSymbolTable
 70
0
  0
ENDTAB
  0
TABLE
  2
UCS
  5
7
100
AcDbSymbolTable
 70
0
  0
ENDTAB
  0
TABLE
  2
APPID
  5
9
100
AcDbSymbolTable
 70
1
  0
APPID
  5
207
100
AcDbSymbolTableRecord
100
AcDbRegAppTableRecord
  2
ACAD
 70
0
  0
ENDTAB
  0
TABLE
  2
BLOCK_RECORD
  5
1
100
AcDbSymbolTable
 70
0
  0
BLOCK_RECORD
  5
208
100
AcDbSymbolTableRecord
100
AcDbBlockTableRecord
  2
*Model_Space
  0
BLOCK_RECORD
  5
209
100
AcDbSymbolTableRecord
100
AcDbBlockTableRecord
  2
*Paper_Space
  0
BLOCK_RECORD
  5
20A
100
AcDbSymbolTableRecord
100
AcDbBlockTableRecord
  2
_CLOSED
  0
BLOCK_RECORD
  5
20B
100
AcDbSymbolTableRecord
100
AcDbBlockTableRecord
  2
*D0
  0
BLOCK_RECORD
  5
20C
100
AcDbSymbolTableRecord
100
AcDbBlockTableRecord
  2
*D1
  0
BLOCK_RECORD
  5
20D
100
AcDbSymbolTableRecord
100
AcDbBlockTableRecord
  2
*D2
  0
BLOCK_RECORD
  5
20E
100
AcDbSymbolTableRecord
100
AcDbBlockTableRecord
  2
*D3
  0
BLOCK_RECORD
  5
20F
100
AcDbSymbolTableRecord
100
AcDbBlockTableRecord
  2
*D4
  0
BLOCK_RECORD
  5
210
100
AcDbSymbolTableRecord
100
AcDbBlockTableRecord
  2
*D5
  0
BLOCK_RECORD
  5
211
100
AcDbSymbolTableRecord
100
AcDbBlockTableRecord
  2
*D6
  0
BLOCK_RECORD
  5
212
100
AcDbSymbolTableRecord
100
AcDbBlockTableRecord
  2
*D7
  0
BLOCK_RECORD
  5
213
100
AcDbSymbolTableRecord
100
AcDbBlockTableRecord
  2
*D8
  0
BLOCK_RECORD
  5
214
100
AcDbSymbolTableRecord
100
AcDbBlockTableRecord
  2
*D9
  0
BLOCK_RECORD
  5
215
100
AcDbSymbolTableRecord
100
AcDbBlockTableRecord
  2
*D10
  0
BLOCK_RECORD
  5
216
100
AcDbSymbolTableRecord
100
AcDbBlockTableRecord
  2
*D11
  0
BLOCK_RECORD
  5
217
100
AcDbSymbolTableRecord
100
AcDbBlockTableRecord
  2
*D12
  0
BLOCK_RECORD
  5
218
100
AcDbSymbolTableRecord
100
AcDbBlockTableRecord
  2
*D13
  0
BLOCK_RECORD
  5
219
100
AcDbSymbolTableRecord
100
AcDbBlockTableRecord
  2
*T1
  0
BLOCK_RECORD
  5
21A
100
AcDbSymbolTableRecord
100
AcDbBlockTableRecord
  2
*T2
  0
BLOCK_RECORD
  5
21B
100
AcDbSymbolTableRecord
100
AcDbBlockTableRecord
  2
*T3
  0
BLOCK_RECORD
  5
21C
100
AcDbSymbolTableRecord
100
AcDbBlockTableRecord
  2
*T4
  0
BLOCK_RECORD
  5
21D
100
AcDbSymbolTableRecord
100
AcDbBlockTableRecord
  2
*T5
  0
BLOCK_RECORD
  5
21E
100
AcDbSymbolTableRecord
100
AcDbBlockTableRecord
  2
*T6
  0
ENDTAB
  0
TABLE
  2
DIMSTYLE
  5
A
100
AcDbSymbolTable
 70
1
100
AcDbDimStyleTable
 71
0
  0
DIMSTYLE
105
21F
100
AcDbSymbolTableRecord
100
AcDbDimStyleTableRecord
  2
STANDARD
 70
0
  3

  4

 40
1.0
 41
0.1875
 42
0.0625
 43
0.38
 44
0.125
 45
0.0
 46
0.0
 47
0.01
 48
0.01
140
0.15625
141
0.09
142
0.0
143
25.4
144
1.0
145
0.0
146
1.0
147
0.09
 71
1.0
 72
0.0
 73
1
 74
1
 75
0
 76
0
 77
0
 78
4
170
0
171
2
172
0
173
0
174
0
175
0
176
0
177
0
178
0
270
2
271
2
272
2
273
2
274
2
275
0
280
0
281
0
282
0
283
1
284
4
285
0
286
0
287
3
288
0
340
11
278
46
341
20A
342
20A
343
20A
344
20A
  0
DIMSTYLE
105
220
100
AcDbSymbolTableRecord
100
AcDbDimStyleTableRecord
  2
DIMSTYLE_1
 70
0
  3

  4

 40
1.0
 41
0.1875
 42
0.0625
 43
0.38
 44
0.125
 45
0.0
 46
0.0
 47
0.01
 48
0.01
140
0.15625
141
0.09
142
0.0
143
25.4
144
5.0
145
0.0
146
1.0
147
0.078125
 71
0.0
 72
0.0
 73
1
 74
1
 75
0
 76
0
 77
0
 78
4
170
0
171
2
172
0
173
0
174
0
175
0
176
0
177
0
178
0
270
2
271
2
272
2
273
2
274
2
275
0
280
0
281
0
282
0
283
1
284
4
285
0
286
0
287
3
288
0
340
11
278
46
341
20A
342
20A
343
20A
344
20A
  0
DIMSTYLE
105
221
100
AcDbSymbolTableRecord
100
AcDbDimStyleTableRecord
  2
DIMSTYLE_2
 70
0
  3
<>
  4

 40
1.0
 41
0.1875
 42
0.0625
 43
0.38
 44
0.125
 45
0.0
 46
0.0
 47
0.2
 48
0.0
140
0.15625
141
0.09
142
0.0
143
25.4
144
5.0
145
0.0
146
1.0
147
0.09
 71
1.0
 72
0.0
 73
1
 74
1
 75
0
 76
0
 77
0
 78
4
170
0
171
2
172
0
173
0
174
0
175
0
176
0
177
0
178
0
270
2
271
2
272
2
273
2
274
2
275
0
280
0
281
0
282
0
283
1
284
4
285
0
286
0
287
3
288
1
340
11
278
46
289
2
341
20A
342
20A
343
20A
344
20A
  0
DIMSTYLE
105
222
100
AcDbSymbolTableRecord
100
AcDbDimStyleTableRecord
  2
DIMSTYLE_3
 70
0
  3
<>
  4

 40
1.0
 41
0.1875
 42
0.0625
 43
0.38
 44
0.125
 45
0.0
 46
0.0
 47
0.01
 48
0.01
140
0.15625
141
0.09
142
0.0
143
25.4
144
5.0
145
0.0
146
1.0
147
0.09
 71
0.0
 72
0.0
 73
1
 74
1
 75
0
 76
0
 77
0
 78
4
170
0
171
2
172
1
173
0
174
0
175
0
176
0
177
0
178
0
270
2
271
2
272
2
273
2
274
2
275
0
280
0
281
0
282
0
283
1
284
4
285
0
286
0
287
3
288
1
340
11
278
46
289
2
341
20A
342
20A
343
20A
344
20A
  0
DIMSTYLE
105
223
100
AcDbSymbolTableRecord
100
AcDbDimStyleTableRecord
  2
DIMSTYLE_4
 70
0
  3
<>
  4

 40
1.0
 41
0.1875
 42
0.0625
 43
0.38
 44
0.125
 45
0.0
 46
0.0
 47
0.01
 48
0.01
140
0.15625
141
0.09
142
0.0
143
25.4
144
5.0
145
0.0
146
1.0
147
0.09
 71
0.0
 72
0.0
 73
1
 74
1
 75
0
 76
0
 77
0
 78
4
170
0
171
2
172
0
173
0
174
0
175
0
176
0
177
0
178
0
270
2
271
2
272
2
273
2
274
2
275
0
280
0
281
0
282
0
283
1
284
4
285
0
286
0
287
3
288
1
340
11
278
46
289
2
341
20A
342
20A
343
20A
344
20A
  0
ENDTAB
  0
ENDSEC
  0
SECTION
  2
BLOCKS
  0
BLOCK
  5
20
100
AcDbEntity
  8
0
100
AcDbBlockBegin
  2
*Model_Space
 70
0
 10
0.0
 20
0.0
 30
0.0
  3
*Model_Space
  1

  0
ENDBLK
  5
21
100
AcDbEntity
  8
0
100
AcDbBlockEnd
  0
BLOCK
  5
1C
100
AcDbEntity
  8
0
100
AcDbBlockBegin
  2
*Paper_Space
 70
0
 10
0.0
 20
0.0
 30
0.0
  3
*Paper_Space
  1

  0
ENDBLK
  5
1D
100
AcDbEntity
  8
0
100
AcDbBlockEnd
  0
BLOCK
  5
224
100
AcDbEntity
  8
0
100
AcDbBlockBegin
  2
_CLOSED
 70
64
 10
0.0
 20
0.0
  3
_CLOSED
  1

  0
LINE
  5
225
100
AcDbEntity
  8
0
  6
BYBLOCK
 62
0
100
AcDbLine
 10
0.0
 20
0.0
 11
-1.0
 21
0.1666666667
  0
LINE
  5
226
100
AcDbEntity
  8
0
  6
BYBLOCK
 62
0
100
AcDbLine
 10
-1.0
 20
0.1666666667
 11
-1.0
 21
-0.1666666667
  0
LINE
  5
227
100
AcDbEntity
  8
0
  6
BYBLOCK
 62
0
100
AcDbLine
 10
-1.0
 20
-0.1666666667
 11
0.0
 21
0.0
  0
LINE
  5
228
100
AcDbEntity
  8
0
  6
BYBLOCK
 62
0
100
AcDbLine
 10
-1.0
 20
0.0
 11
0.0
 21
0.0
  0
ENDBLK
  5
229
100
AcDbEntity
  8
0
  6
BYBLOCK
 62
0
100
AcDbBlockEnd
  0
BLOCK
  5
22A
100
AcDbEntity
  8
0
100
AcDbBlockBegin
 62
2
  6
CONTINUOUS
  2
*D0
 70
65
 10
0.0
 20
0.0
  3
*D0
  1

  0
MTEXT
  5
22B
100
AcDbEntity
  8
0
100
AcDbMText
 62
2
  6
CONTINUOUS
  7
STANDARD
 71
2
 72
1
 10
1.889220386
 20
7.7576320474
 30
0.0
 11
1.0
 21
0.0
 31
0.0
 44
0.9
  1
120
 40
0.15625
 41
0.375
  0
LINE
  5
22C
100
AcDbEntity
  8
0
100
AcDbLine
 62
2
  6
CONTINUOUS
 10
2.9034890111
 20
7.2070661025
 11
1.764220386
 21
7.2070661025
  0
LINE
  5
22D
100
AcDbEntity
  8
0
100
AcDbLine
 62
2
  6
CONTINUOUS
 10
2.9267294075
 20
8.1519479923
 11
1.764220386
 21
8.1519479923
  0
LINE
  5
22E
100
AcDbEntity
  8
0
100
AcDbLine
 62
2
  6
CONTINUOUS
 10
1.889220386
 20
7.2070661025
 11
1.889220386
 21
7.5232570474
  0
LINE
  5
22F
100
AcDbEntity
  8
0
100
AcDbLine
 62
2
  6
CONTINUOUS
 10
1.889220386
 20
8.1519479923
 11
1.889220386
 21
7.8357570474
  0
INSERT
  5
230
100
AcDbEntity
  8
0
100
AcDbBlockReference
 62
2
  6
CONTINUOUS
  2
_CLOSED
 10
1.889220386
 20
7.2070661025
 41
0.1875
 42
0.1875
 43
0.1875
 50
270.0
  0
INSERT
  5
231
100
AcDbEntity
  8
0
100
AcDbBlockReference
 62
2
  6
CONTINUOUS
  2
_CLOSED
 10
1.889220386
 20
8.1519479923
 41
0.1875
 42
0.1875
 43
0.1875
 50
90.0
  0
ENDBLK
  5
232
100
AcDbEntity
  8
0
  6
BYBLOCK
 62
0
100
AcDbBlockEnd
  0
BLOCK
  5
233
100
AcDbEntity
  8
0
100
AcDbBlockBegin
 62
2
  6
CONTINUOUS
  2
*D1
 70
65
 10
0.0
 20
0.0
  3
*D1
  1

  0
MTEXT
  5
234
100
AcDbEntity
  8
0
100
AcDbMText
 62
2
  6
CONTINUOUS
  7
STANDARD
 71
2
 72
1
 10
13.6396625423
 20
4.1241576415
 30
0.0
 11
1.0
 21
0.0
 31
0.0
 44
0.9
  1
120
 40
0.15625
 41
0.375
  0
LINE
  5
235
100
AcDbEntity
  8
0
100
AcDbLine
 62
2
  6
CONTINUOUS
 10
12.6219794233
 20
4.5184735864
 11
13.7646625423
 21
4.5184735864
  0
LINE
  5
236
100
AcDbEntity
  8
0
100
AcDbLine
 62
2
  6
CONTINUOUS
 10
12.6355150559
 20
3.5735916966
 11
13.7646625423
 21
3.5735916966
  0
LINE
  5
237
100
AcDbEntity
  8
0
100
AcDbLine
 62
2
  6
CONTINUOUS
 10
13.6396625423
 20
4.5184735864
 11
13.6396625423
 21
4.2022826415
  0
LINE
  5
238
100
AcDbEntity
  8
0
100
AcDbLine
 62
2
  6
CONTINUOUS
 10
13.6396625423
 20
3.5735916966
 11
13.6396625423
 21
3.8897826415
  0
INSERT
  5
239
100
AcDbEntity
  8
0
100
AcDbBlockReference
 62
2
  6
CONTINUOUS
  2
_CLOSED
 10
13.6396625423
 20
4.5184735864
 41
0.1875
 42
0.1875
 43
0.1875
 50
90.0
  0
INSERT
  5
23A
100
AcDbEntity
  8
0
100
AcDbBlockReference
 62
2
  6
CONTINUOUS
  2
_CLOSED
 10
13.6396625423
 20
3.5735916966
 41
0.1875
 42
0.1875
 43
0.1875
 50
270.0
  0
ENDBLK
  5
23B
100
AcDbEntity
  8
0
  6
BYBLOCK
 62
0
100
AcDbBlockEnd
  0
BLOCK
  5
23C
100
AcDbEntity
  8
0
100
AcDbBlockBegin
 62
2
  6
CONTINUOUS
  2
*D2
 70
65
 10
0.0
 20
0.0
  3
*D2
  1

  0
MTEXT
  5
23D
100
AcDbEntity
  8
0
100
AcDbMText
 62
2
  6
CONTINUOUS
  7
STANDARD
 71
2
 72
1
 10
7.8185632086
 20
9.4517568203
 30
0.0
 11
1.0
 21
0.0
 31
0.0
 44
0.9
  1
1220
 40
0.15625
 41
0.5
  0
LINE
  5
23E
100
AcDbEntity
  8
0
100
AcDbLine
 62
2
  6
CONTINUOUS
 10
3.0154136023
 20
8.5505309326
 11
3.0154136023
 21
9.4986318203
  0
LINE
  5
23F
100
AcDbEntity
  8
0
100
AcDbLine
 62
2
  6
CONTINUOUS
 10
12.6217128149
 20
8.2507896035
 11
12.6217128149
 21
9.4986318203
  0
LINE
  5
240
100
AcDbEntity
  8
0
100
AcDbLine
 62
2
  6
CONTINUOUS
 10
3.0154136023
 20
9.3736318203
 11
7.4904382086
 21
9.3736318203
  0
LINE
  5
241
100
AcDbEntity
  8
0
100
AcDbLine
 62
2
  6
CONTINUOUS
 10
12.6217128149
 20
9.3736318203
 11
8.1466882086
 21
9.3736318203
  0
INSERT
  5
242
100
AcDbEntity
  8
0
100
AcDbBlockReference
 62
2
  6
CONTINUOUS
  2
_CLOSED
 10
3.0154136023
 20
9.3736318203
 41
0.1875
 42
0.1875
 43
0.1875
 50
180.0
  0
INSERT
  5
243
100
AcDbEntity
  8
0
100
AcDbBlockReference
 62
2
  6
CONTINUOUS
  2
_CLOSED
 10
12.6217128149
 20
9.3736318203
 41
0.1875
 42
0.1875
 43
0.1875
  0
ENDBLK
  5
244
100
AcDbEntity
  8
0
  6
BYBLOCK
 62
0
100
AcDbBlockEnd
  0
BLOCK
  5
245
100
AcDbEntity
  8
0
100
AcDbBlockBegin
 62
2
  6
CONTINUOUS
  2
*D3
 70
65
 10
0.0
 20
0.0
  3
*D3
  1

  0
MTEXT
  5
246
100
AcDbEntity
  8
0
100
AcDbMText
 62
2
  6
CONTINUOUS
  7
STANDARD
 71
2
 72
1
 10
13.0224493382
 20
4.3603781139
 30
0.0
 11
1.0
 21
0.0
 31
0.0
 44
0.9
  1
60
 40
0.15625
 41
0.25
  0
LINE
  5
247
100
AcDbEntity
  8
0
100
AcDbLine
 62
2
  6
CONTINUOUS
 10
12.8326884839
 20
4.0460326415
 11
13.1474493382
 21
4.0460326415
  0
LINE
  5
248
100
AcDbEntity
  8
0
100
AcDbLine
 62
2
  6
CONTINUOUS
 10
12.8974493382
 20
4.5184735864
 11
13.2047684354
 21
4.5184735864
  0
LINE
  5
249
100
AcDbEntity
  8
0
100
AcDbLine
 62
2
  6
CONTINUOUS
 10
13.0224493382
 20
4.0460326415
 11
13.0224493382
 21
3.5460326415
  0
LINE
  5
24A
100
AcDbEntity
  8
0
100
AcDbLine
 62
2
  6
CONTINUOUS
 10
13.0224493382
 20
4.5184735864
 11
13.0224493382
 21
5.0184735864
  0
INSERT
  5
24B
100
AcDbEntity
  8
0
100
AcDbBlockReference
 62
2
  6
CONTINUOUS
  2
_CLOSED
 10
13.0224493382
 20
4.0460326415
 41
0.1875
 42
0.1875
 43
0.1875
 50
90.0
  0
INSERT
  5
24C
100
AcDbEntity
  8
0
100
AcDbBlockReference
 62
2
  6
CONTINUOUS
  2
_CLOSED
 10
13.0224493382
 20
4.5184735864
 41
0.1875
 42
0.1875
 43
0.1875
 50
270.0
  0
ENDBLK
  5
24D
100
AcDbEntity
  8
0
  6
BYBLOCK
 62
0
100
AcDbBlockEnd
  0
BLOCK
  5
24E
100
AcDbEntity
  8
0
100
AcDbBlockBegin
 62
2
  6
CONTINUOUS
  2
*D4
 70
65
 10
0.0
 20
0.0
  3
*D4
  1

  0
MTEXT
  5
24F
100
AcDbEntity
  8
0
100
AcDbMText
 62
2
  6
CONTINUOUS
  7
STANDARD
 71
2
 72
1
 10
5.4169884054
 20
8.8455333194
 30
0.0
 11
1.0
 21
0.0
 31
0.0
 44
0.9
  1
610
 40
0.15625
 41
0.375
  0
LINE
  5
250
100
AcDbEntity
  8
0
100
AcDbLine
 62
2
  6
CONTINUOUS
 10
7.8185632086
 20
8.3365978996
 11
7.8185632086
 21
8.8924083194
  0
LINE
  5
251
100
AcDbEntity
  8
0
100
AcDbLine
 62
2
  6
CONTINUOUS
 10
3.0154136023
 20
8.2161425231
 11
3.0154136023
 21
8.8924083194
  0
LINE
  5
252
100
AcDbEntity
  8
0
100
AcDbLine
 62
2
  6
CONTINUOUS
 10
7.8185632086
 20
8.7674083194
 11
5.6826134054
 21
8.7674083194
  0
LINE
  5
253
100
AcDbEntity
  8
0
100
AcDbLine
 62
2
  6
CONTINUOUS
 10
3.0154136023
 20
8.7674083194
 11
5.1513634054
 21
8.7674083194
  0
INSERT
  5
254
100
AcDbEntity
  8
0
100
AcDbBlockReference
 62
2
  6
CONTINUOUS
  2
_CLOSED
 10
7.8185632086
 20
8.7674083194
 41
0.1875
 42
0.1875
 43
0.1875
  0
INSERT
  5
255
100
AcDbEntity
  8
0
100
AcDbBlockReference
 62
2
  6
CONTINUOUS
  2
_CLOSED
 10
3.0154136023
 20
8.7674083194
 41
0.1875
 42
0.1875
 43
0.1875
 50
180.0
  0
ENDBLK
  5
256
100
AcDbEntity
  8
0
  6
BYBLOCK
 62
0
100
AcDbBlockEnd
  0
BLOCK
  5
257
100
AcDbEntity
  8
0
100
AcDbBlockBegin
 62
2
  6
CONTINUOUS
  2
*D5
 70
65
 10
0.0
 20
0.0
  3
*D5
  1

  0
TEXT
  5
258
100
AcDbEntity
  8
0
100
AcDbText
 62
2
  6
CONTINUOUS
 10
8.950086829
 20
6.6988615066
  7
TEXTSTYLE_1
 40
0.15625
  1
n
 41
1.0
 72
0
100
AcDbText
  0
TEXT
  5
259
100
AcDbEntity
  8
0
100
AcDbText
 62
2
  6
CONTINUOUS
 10
9.1584201624
 20
6.6988615066
  7
STANDARD
 40
0.15625
  1
30
 41
0.8
 72
0
100
AcDbText
  0
TEXT
  5
25A
100
AcDbEntity
  8
0
100
AcDbText
 62
2
  6
CONTINUOUS
 10
9.4084201624
 20
6.8160490066
  7
STANDARD
 40
0.15625
  1
+0.2
 41
0.8
 72
0
100
AcDbText
  0
TEXT
  5
25B
100
AcDbEntity
  8
0
100
AcDbText
 62
2
  6
CONTINUOUS
 10
9.4084201624
 20
6.5816740066
  7
STANDARD
 40
0.15625
  1
 0
 41
0.8
 72
0
100
AcDbText
  0
LINE
  5
25C
100
AcDbEntity
  8
0
100
AcDbLine
 62
2
  6
CONTINUOUS
 10
7.9010911121
 20
7.5950134202
 11
8.700086829
 21
6.7769865066
  0
LINE
  5
25D
100
AcDbEntity
  8
0
100
AcDbLine
 62
2
  6
CONTINUOUS
 10
8.700086829
 20
6.7769865066
 11
8.871961829
 21
6.7769865066
  0
INSERT
  5
25E
100
AcDbEntity
  8
0
100
AcDbBlockReference
 62
2
  6
CONTINUOUS
  2
_CLOSED
 10
7.9010911121
 20
7.5950134202
 41
0.1875
 42
0.1875
 43
0.1875
 50
134.3257008964
  0
ENDBLK
  5
25F
100
AcDbEntity
  8
0
  6
BYBLOCK
 62
0
100
AcDbBlockEnd
  0
BLOCK
  5
260
100
AcDbEntity
  8
0
100
AcDbBlockBegin
 62
2
  6
CONTINUOUS
  2
*D6
 70
65
 10
0.0
 20
0.0
  3
*D6
  1

  0
MTEXT
  5
261
100
AcDbEntity
  8
0
100
AcDbMText
 62
2
  6
CONTINUOUS
  7
STANDARD
 71
2
 72
1
 10
2.5154136023
 20
7.9938525199
 30
0.0
 11
1.0
 21
0.0
 31
0.0
 44
0.9
  1
60
 40
0.15625
 41
0.25
  0
LINE
  5
262
100
AcDbEntity
  8
0
100
AcDbLine
 62
2
  6
CONTINUOUS
 10
2.7623420699
 20
8.1519479923
 11
2.3904136023
 21
8.1519479923
  0
LINE
  5
263
100
AcDbEntity
  8
0
100
AcDbLine
 62
2
  6
CONTINUOUS
 10
2.8257529463
 20
7.6795070474
 11
2.3904136023
 21
7.6795070474
  0
LINE
  5
264
100
AcDbEntity
  8
0
100
AcDbLine
 62
2
  6
CONTINUOUS
 10
2.5154136023
 20
8.1519479923
 11
2.5154136023
 21
8.6519479923
  0
LINE
  5
265
100
AcDbEntity
  8
0
100
AcDbLine
 62
2
  6
CONTINUOUS
 10
2.5154136023
 20
7.6795070474
 11
2.5154136023
 21
7.1795070474
  0
INSERT
  5
266
100
AcDbEntity
  8
0
100
AcDbBlockReference
 62
2
  6
CONTINUOUS
  2
_CLOSED
 10
2.5154136023
 20
8.1519479923
 41
0.1875
 42
0.1875
 43
0.1875
 50
270.0
  0
INSERT
  5
267
100
AcDbEntity
  8
0
100
AcDbBlockReference
 62
2
  6
CONTINUOUS
  2
_CLOSED
 10
2.5154136023
 20
7.6795070474
 41
0.1875
 42
0.1875
 43
0.1875
 50
90.0
  0
ENDBLK
  5
268
100
AcDbEntity
  8
0
  6
BYBLOCK
 62
0
100
AcDbBlockEnd
  0
BLOCK
  5
269
100
AcDbEntity
  8
0
100
AcDbBlockBegin
 62
2
  6
CONTINUOUS
  2
*D7
 70
65
 10
0.0
 20
0.0
  3
*D7
  1

  0
MTEXT
  5
26A
100
AcDbEntity
  8
0
100
AcDbMText
 62
2
  6
CONTINUOUS
  7
STANDARD
 71
2
 72
1
 10
5.6532088779
 20
5.3425704822
 30
0.0
 11
1.0
 21
0.0
 31
0.0
 44
0.9
  1
550
 40
0.15625
 41
0.375
  0
LINE
  5
26B
100
AcDbEntity
  8
0
100
AcDbLine
 62
2
  6
CONTINUOUS
 10
7.8185632086
 20
4.1085326415
 11
7.8185632086
 21
5.3894454822
  0
LINE
  5
26C
100
AcDbEntity
  8
0
100
AcDbLine
 62
2
  6
CONTINUOUS
 10
3.4878545472
 20
4.1085326415
 11
3.4878545472
 21
5.3894454822
  0
LINE
  5
26D
100
AcDbEntity
  8
0
100
AcDbLine
 62
2
  6
CONTINUOUS
 10
7.8185632086
 20
5.2644454822
 11
5.9188338779
 21
5.2644454822
  0
LINE
  5
26E
100
AcDbEntity
  8
0
100
AcDbLine
 62
2
  6
CONTINUOUS
 10
3.4878545472
 20
5.2644454822
 11
5.3875838779
 21
5.2644454822
  0
INSERT
  5
26F
100
AcDbEntity
  8
0
100
AcDbBlockReference
 62
2
  6
CONTINUOUS
  2
_CLOSED
 10
7.8185632086
 20
5.2644454822
 41
0.1875
 42
0.1875
 43
0.1875
  0
INSERT
  5
270
100
AcDbEntity
  8
0
100
AcDbBlockReference
 62
2
  6
CONTINUOUS
  2
_CLOSED
 10
3.4878545472
 20
5.2644454822
 41
0.1875
 42
0.1875
 43
0.1875
 50
180.0
  0
ENDBLK
  5
271
100
AcDbEntity
  8
0
  6
BYBLOCK
 62
0
100
AcDbBlockEnd
  0
BLOCK
  5
272
100
AcDbEntity
  8
0
100
AcDbBlockBegin
 62
2
  6
CONTINUOUS
  2
*D8
 70
65
 10
0.0
 20
0.0
  3
*D8
  1

  0
MTEXT
  5
273
100
AcDbEntity
  8
0
100
AcDbMText
 62
2
  6
CONTINUOUS
  7
TEXTSTYLE_1
 71
1
 72
1
 10
4.2840359005
 20
3.2747987504
 30
0.0
 11
1.0
 21
0.0
 31
0.0
 44
0.9
  1
{\Fgdt;n}\Ftxt;60\P\Fgdt;{\Fgdt;x}\Ftxt; 40\PChamfer 1 x 45\Fgdt;{\Fgdt;~}
 40
0.15625
 41
1.8541666667
  0
LINE
  5
274
100
AcDbEntity
  8
0
100
AcDbLine
 62
2
  6
CONTINUOUS
 10
3.6156198579
 20
3.8473466154
 11
3.4878545472
 21
4.0460326415
  0
LINE
  5
275
100
AcDbEntity
  8
0
100
AcDbLine
 62
2
  6
CONTINUOUS
 10
3.4878545472
 20
4.0460326415
 11
4.0340359005
 21
3.1966737504
  0
LINE
  5
276
100
AcDbEntity
  8
0
100
AcDbLine
 62
2
  6
CONTINUOUS
 10
4.0340359005
 20
3.1966737504
 11
4.2059109005
 21
3.1966737504
  0
LINE
  5
277
100
AcDbEntity
  8
0
100
AcDbLine
 62
2
  6
CONTINUOUS
 10
3.3600892364
 20
4.2447186676
 11
3.4878545472
 21
4.0460326415
  0
INSERT
  5
278
100
AcDbEntity
  8
0
100
AcDbBlockReference
 62
2
  6
CONTINUOUS
  2
_CLOSED
 10
3.6156198579
 20
3.8473466154
 41
0.1875
 42
0.1875
 43
0.1875
 50
302.7430976659
  0
INSERT
  5
279
100
AcDbEntity
  8
0
100
AcDbBlockReference
 62
2
  6
CONTINUOUS
  2
_CLOSED
 10
3.3600892364
 20
4.2447186676
 41
0.1875
 42
0.1875
 43
0.1875
 50
122.7430976659
  0
ENDBLK
  5
27A
100
AcDbEntity
  8
0
  6
BYBLOCK
 62
0
100
AcDbBlockEnd
  0
BLOCK
  5
27B
100
AcDbEntity
  8
0
100
AcDbBlockBegin
 62
2
  6
CONTINUOUS
  2
*D9
 70
65
 10
0.0
 20
0.0
  3
*D9
  1

  0
MTEXT
  5
27C
100
AcDbEntity
  8
0
100
AcDbMText
 62
2
  6
CONTINUOUS
  7
STANDARD
 71
3
 72
1
 10
2.8381594294
 20
5.7875131343
 30
0.0
 11
1.0
 21
0.0
 31
0.0
 44
0.9
  1
2 x M8\P\Fgdt;{\Fgdt;x}\Ftxt; 40\PChamfer 0.5 x 45\Fgdt;{\Fgdt;~}\Ftxt; 
 40
0.15625
 41
2.2291666667
  0
LINE
  5
27D
100
AcDbEntity
  8
0
100
AcDbLine
 62
2
  6
CONTINUOUS
 10
3.4786568055
 20
4.4304864896
 11
3.0881594294
 21
5.7093881343
  0
LINE
  5
27E
100
AcDbEntity
  8
0
100
AcDbLine
 62
2
  6
CONTINUOUS
 10
3.0881594294
 20
5.7093881343
 11
2.9162844294
 21
5.7093881343
  0
INSERT
  5
27F
100
AcDbEntity
  8
0
100
AcDbBlockReference
 62
2
  6
CONTINUOUS
  2
_CLOSED
 10
3.4786568055
 20
4.4304864896
 41
0.1875
 42
0.1875
 43
0.1875
 50
286.9794263247
  0
ENDBLK
  5
280
100
AcDbEntity
  8
0
  6
BYBLOCK
 62
0
100
AcDbBlockEnd
  0
BLOCK
  5
281
100
AcDbEntity
  8
0
100
AcDbBlockBegin
 62
2
  6
CONTINUOUS
  2
*D10
 70
65
 10
0.0
 20
0.0
  3
*D10
  1

  0
MTEXT
  5
282
100
AcDbEntity
  8
0
100
AcDbMText
 62
2
  6
CONTINUOUS
  7
STANDARD
 71
2
 72
1
 10
1.8055159058
 20
4.3013229958
 30
0.0
 11
1.0
 21
0.0
 31
0.0
 44
0.9
  1
45
 40
0.15625
 41
0.25
  0
LINE
  5
283
100
AcDbEntity
  8
0
100
AcDbLine
 62
2
  6
CONTINUOUS
 10
2.5258818785
 20
4.0460326415
 11
1.6805159058
 21
4.0460326415
  0
LINE
  5
284
100
AcDbEntity
  8
0
100
AcDbLine
 62
2
  6
CONTINUOUS
 10
3.3610490838
 20
4.4003633502
 11
1.6805159058
 21
4.4003633502
  0
LINE
  5
285
100
AcDbEntity
  8
0
100
AcDbLine
 62
2
  6
CONTINUOUS
 10
1.8055159058
 20
4.0460326415
 11
1.8055159058
 21
3.5460326415
  0
LINE
  5
286
100
AcDbEntity
  8
0
100
AcDbLine
 62
2
  6
CONTINUOUS
 10
1.8055159058
 20
4.4003633502
 11
1.8055159058
 21
4.9003633502
  0
INSERT
  5
287
100
AcDbEntity
  8
0
100
AcDbBlockReference
 62
2
  6
CONTINUOUS
  2
_CLOSED
 10
1.8055159058
 20
4.0460326415
 41
0.1875
 42
0.1875
 43
0.1875
 50
90.0
  0
INSERT
  5
288
100
AcDbEntity
  8
0
100
AcDbBlockReference
 62
2
  6
CONTINUOUS
  2
_CLOSED
 10
1.8055159058
 20
4.4003633502
 41
0.1875
 42
0.1875
 43
0.1875
 50
270.0
  0
ENDBLK
  5
289
100
AcDbEntity
  8
0
  6
BYBLOCK
 62
0
100
AcDbBlockEnd
  0
BLOCK
  5
28A
100
AcDbEntity
  8
0
100
AcDbBlockBegin
 62
2
  6
CONTINUOUS
  2
*D11
 70
65
 10
0.0
 20
0.0
  3
*D11
  1

  0
MTEXT
  5
28B
100
AcDbEntity
  8
0
100
AcDbMText
 62
2
  6
CONTINUOUS
  7
TEXTSTYLE_1
 71
1
 72
1
 10
10.4438891239
 20
3.2659092146
 30
0.0
 11
1.0
 21
0.0
 31
0.0
 44
0.9
  1
{\Fgdt;n}\Ftxt;20\P\Fgdt;{\Fgdt;x}\Ftxt; 40\PCHAMFER 1 x 45\Fgdt;{\Fgdt;~}
 40
0.15625
 41
1.8541666667
  0
LINE
  5
28C
100
AcDbEntity
  8
0
100
AcDbLine
 62
2
  6
CONTINUOUS
 10
9.409068929
 20
3.9897563972
 11
10.1938891239
 21
3.1877842146
  0
LINE
  5
28D
100
AcDbEntity
  8
0
100
AcDbLine
 62
2
  6
CONTINUOUS
 10
10.1938891239
 20
3.1877842146
 11
10.3657641239
 21
3.1877842146
  0
INSERT
  5
28E
100
AcDbEntity
  8
0
100
AcDbBlockReference
 62
2
  6
CONTINUOUS
  2
_CLOSED
 10
9.409068929
 20
3.9897563972
 41
0.1875
 42
0.1875
 43
0.1875
 50
134.3807014374
  0
ENDBLK
  5
28F
100
AcDbEntity
  8
0
  6
BYBLOCK
 62
0
100
AcDbBlockEnd
  0
BLOCK
  5
290
100
AcDbEntity
  8
0
100
AcDbBlockBegin
 62
2
  6
CONTINUOUS
  2
*D12
 70
65
 10
0.0
 20
0.0
  3
*D12
  1

  0
MTEXT
  5
291
100
AcDbEntity
  8
0
100
AcDbMText
 62
2
  6
CONTINUOUS
  7
STANDARD
 71
2
 72
1
 10
8.586279744
 20
5.3425704822
 30
0.0
 11
1.0
 21
0.0
 31
0.0
 44
0.9
  1
195
 40
0.15625
 41
0.375
  0
LINE
  5
292
100
AcDbEntity
  8
0
100
AcDbLine
 62
2
  6
CONTINUOUS
 10
7.8185632086
 20
4.1085326415
 11
7.8185632086
 21
5.3894454822
  0
LINE
  5
293
100
AcDbEntity
  8
0
100
AcDbLine
 62
2
  6
CONTINUOUS
 10
9.3539962794
 20
4.4059454095
 11
9.3539962794
 21
5.3894454822
  0
LINE
  5
294
100
AcDbEntity
  8
0
100
AcDbLine
 62
2
  6
CONTINUOUS
 10
7.8185632086
 20
5.2644454822
 11
8.320654744
 21
5.2644454822
  0
LINE
  5
295
100
AcDbEntity
  8
0
100
AcDbLine
 62
2
  6
CONTINUOUS
 10
9.3539962794
 20
5.2644454822
 11
8.851904744
 21
5.2644454822
  0
INSERT
  5
296
100
AcDbEntity
  8
0
100
AcDbBlockReference
 62
2
  6
CONTINUOUS
  2
_CLOSED
 10
7.8185632086
 20
5.2644454822
 41
0.1875
 42
0.1875
 43
0.1875
 50
180.0
  0
INSERT
  5
297
100
AcDbEntity
  8
0
100
AcDbBlockReference
 62
2
  6
CONTINUOUS
  2
_CLOSED
 10
9.3539962794
 20
5.2644454822
 41
0.1875
 42
0.1875
 43
0.1875
  0
ENDBLK
  5
298
100
AcDbEntity
  8
0
  6
BYBLOCK
 62
0
100
AcDbBlockEnd
  0
BLOCK
  5
299
100
AcDbEntity
  8
0
100
AcDbBlockBegin
 62
2
  6
CONTINUOUS
  2
*D13
 70
65
 10
0.0
 20
0.0
  3
*D13
  1

  0
MTEXT
  5
29A
100
AcDbEntity
  8
0
100
AcDbMText
 62
2
  6
CONTINUOUS
  7
STANDARD
 71
1
 72
1
 10
10.2362936181
 20
5.2984329615
 30
0.0
 11
1.0
 21
0.0
 31
0.0
 44
0.9
  1
4 x M8 EQUISPACED\P\Fgdt;{\Fgdt;x}\Ftxt; 25\PON A \Fgdt;{\Fgdt;n}\Ftxt;46 PCD
 40
0.15625
 41
2.125
  0
LINE
  5
29B
100
AcDbEntity
  8
0
100
AcDbLine
 62
2
  6
CONTINUOUS
 10
9.3709110402
 20
4.2537036478
 11
9.9862936181
 21
5.2203079615
  0
LINE
  5
29C
100
AcDbEntity
  8
0
100
AcDbLine
 62
2
  6
CONTINUOUS
 10
9.9862936181
 20
5.2203079615
 11
10.1581686181
 21
5.2203079615
  0
INSERT
  5
29D
100
AcDbEntity
  8
0
100
AcDbBlockReference
 62
2
  6
CONTINUOUS
  2
_CLOSED
 10
9.3709110402
 20
4.2537036478
 41
0.1875
 42
0.1875
 43
0.1875
 50
237.5173865364
  0
ENDBLK
  5
29E
100
AcDbEntity
  8
0
  6
BYBLOCK
 62
0
100
AcDbBlockEnd
  0
BLOCK
  5
29F
100
AcDbEntity
  8
0
100
AcDbBlockBegin
  2
*T1
 70
1
 10
0.0
 20
0.0
  3
*T1
  1

  0
LINE
  5
2A0
100
AcDbEntity
  8
0
100
AcDbLine
 62
2
  6
CONTINUOUS
 10
0.0
 20
0.0
 11
15.8267716535
 21
0.0
  0
LINE
  5
2A1
100
AcDbEntity
  8
0
100
AcDbLine
 62
2
  6
CONTINUOUS
 10
0.0
 20
0.0
 11
0.0
 21
-0.157480315
  0
LINE
  5
2A2
100
AcDbEntity
  8
0
100
AcDbLine
 62
2
  6
CONTINUOUS
 10
0.0
 20
-0.157480315
 11
15.8267716535
 21
-0.157480315
  0
LINE
  5
2A3
100
AcDbEntity
  8
0
100
AcDbLine
 62
2
  6
CONTINUOUS
 10
1.4566929134
 20
0.0
 11
1.4566929134
 21
-0.157480315
  0
LINE
  5
2A4
100
AcDbEntity
  8
0
100
AcDbLine
 62
2
  6
CONTINUOUS
 10
3.0708661417
 20
0.0
 11
3.0708661417
 21
-0.157480315
  0
LINE
  5
2A5
100
AcDbEntity
  8
0
100
AcDbLine
 62
2
  6
CONTINUOUS
 10
4.6850393701
 20
0.0
 11
4.6850393701
 21
-0.157480315
  0
LINE
  5
2A6
100
AcDbEntity
  8
0
100
AcDbLine
 62
2
  6
CONTINUOUS
 10
6.2992125984
 20
0.0
 11
6.2992125984
 21
-0.157480315
  0
LINE
  5
2A7
100
AcDbEntity
  8
0
100
AcDbLine
 62
2
  6
CONTINUOUS
 10
7.9133858268
 20
0.0
 11
7.9133858268
 21
-0.157480315
  0
LINE
  5
2A8
100
AcDbEntity
  8
0
100
AcDbLine
 62
2
  6
CONTINUOUS
 10
9.5275590551
 20
0.0
 11
9.5275590551
 21
-0.157480315
  0
LINE
  5
2A9
100
AcDbEntity
  8
0
100
AcDbLine
 62
2
  6
CONTINUOUS
 10
11.1417322835
 20
0.0
 11
11.1417322835
 21
-0.157480315
  0
LINE
  5
2AA
100
AcDbEntity
  8
0
100
AcDbLine
 62
2
  6
CONTINUOUS
 10
12.7559055118
 20
0.0
 11
12.7559055118
 21
-0.157480315
  0
LINE
  5
2AB
100
AcDbEntity
  8
0
100
AcDbLine
 62
2
  6
CONTINUOUS
 10
14.3700787402
 20
0.0
 11
14.3700787402
 21
-0.157480315
  0
LINE
  5
2AC
100
AcDbEntity
  8
0
100
AcDbLine
 62
2
  6
CONTINUOUS
 10
15.8267716535
 20
0.0
 11
15.8267716535
 21
-0.157480315
  0
MTEXT
  5
2AD
100
AcDbEntity
  8
0
100
AcDbMText
 62
2
  6
CONTINUOUS
  7
STANDARD
 71
2
 72
1
 10
0.7283464567
 20
-0.0196850394
 30
0.0
 11
1.0
 21
0.0
 31
0.0
 44
0.9
  1
1
 40
0.1181102362
 41
0.188976378
  0
MTEXT
  5
2AE
100
AcDbEntity
  8
0
100
AcDbMText
 62
2
  6
CONTINUOUS
  7
STANDARD
 71
2
 72
1
 10
2.2637795276
 20
-0.0196850394
 30
0.0
 11
1.0
 21
0.0
 31
0.0
 44
0.9
  1
2
 40
0.1181102362
 41
0.188976378
  0
MTEXT
  5
2AF
100
AcDbEntity
  8
0
100
AcDbMText
 62
2
  6
CONTINUOUS
  7
STANDARD
 71
2
 72
1
 10
3.8779527559
 20
-0.0196850394
 30
0.0
 11
1.0
 21
0.0
 31
0.0
 44
0.9
  1
3 
 40
0.1181102362
 41
0.3779527559
  0
MTEXT
  5
2B0
100
AcDbEntity
  8
0
100
AcDbMText
 62
2
  6
CONTINUOUS
  7
STANDARD
 71
2
 72
1
 10
5.4921259843
 20
-0.0196850394
 30
0.0
 11
1.0
 21
0.0
 31
0.0
 44
0.9
  1
4
 40
0.1181102362
 41
0.188976378
  0
MTEXT
  5
2B1
100
AcDbEntity
  8
0
100
AcDbMText
 62
2
  6
CONTINUOUS
  7
STANDARD
 71
2
 72
1
 10
7.1062992126
 20
-0.0196850394
 30
0.0
 11
1.0
 21
0.0
 31
0.0
 44
0.9
  1
5
 40
0.1181102362
 41
0.188976378
  0
MTEXT
  5
2B2
100
AcDbEntity
  8
0
100
AcDbMText
 62
2
  6
CONTINUOUS
  7
STANDARD
 71
2
 72
1
 10
8.7204724409
 20
-0.0196850394
 30
0.0
 11
1.0
 21
0.0
 31
0.0
 44
0.9
  1
6
 40
0.1181102362
 41
0.188976378
  0
MTEXT
  5
2B3
100
AcDbEntity
  8
0
100
AcDbMText
 62
2
  6
CONTINUOUS
  7
STANDARD
 71
2
 72
1
 10
10.3346456693
 20
-0.0196850394
 30
0.0
 11
1.0
 21
0.0
 31
0.0
 44
0.9
  1
7
 40
0.1181102362
 41
0.188976378
  0
MTEXT
  5
2B4
100
AcDbEntity
  8
0
100
AcDbMText
 62
2
  6
CONTINUOUS
  7
STANDARD
 71
2
 72
1
 10
11.9488188976
 20
-0.0196850394
 30
0.0
 11
1.0
 21
0.0
 31
0.0
 44
0.9
  1
8
 40
0.1181102362
 41
0.188976378
  0
MTEXT
  5
2B5
100
AcDbEntity
  8
0
100
AcDbMText
 62
2
  6
CONTINUOUS
  7
STANDARD
 71
2
 72
1
 10
13.562992126
 20
-0.0196850394
 30
0.0
 11
1.0
 21
0.0
 31
0.0
 44
0.9
  1
9
 40
0.1181102362
 41
0.188976378
  0
MTEXT
  5
2B6
100
AcDbEntity
  8
0
100
AcDbMText
 62
2
  6
CONTINUOUS
  7
STANDARD
 71
2
 72
1
 10
15.0984251969
 20
-0.0196850394
 30
0.0
 11
1.0
 21
0.0
 31
0.0
 44
0.9
  1
10
 40
0.1181102362
 41
0.3779527559
  0
ENDBLK
  5
2B7
100
AcDbEntity
  8
0
  6
BYBLOCK
 62
0
100
AcDbBlockEnd
  0
BLOCK
  5
2B8
100
AcDbEntity
  8
0
100
AcDbBlockBegin
  2
*T2
 70
1
 10
0.0
 20
0.0
  3
*T2
  1

  0
LINE
  5
2B9
100
AcDbEntity
  8
0
100
AcDbLine
 62
2
  6
CONTINUOUS
 10
0.0
 20
0.0
 11
15.8267716535
 21
0.0
  0
LINE
  5
2BA
100
AcDbEntity
  8
0
100
AcDbLine
 62
2
  6
CONTINUOUS
 10
0.0
 20
0.0
 11
0.0
 21
-0.157480315
  0
LINE
  5
2BB
100
AcDbEntity
  8
0
100
AcDbLine
 62
2
  6
CONTINUOUS
 10
0.0
 20
-0.157480315
 11
15.8267716535
 21
-0.157480315
  0
LINE
  5
2BC
100
AcDbEntity
  8
0
100
AcDbLine
 62
2
  6
CONTINUOUS
 10
1.4566929134
 20
0.0
 11
1.4566929134
 21
-0.157480315
  0
LINE
  5
2BD
100
AcDbEntity
  8
0
100
AcDbLine
 62
2
  6
CONTINUOUS
 10
3.0708661417
 20
0.0
 11
3.0708661417
 21
-0.157480315
  0
LINE
  5
2BE
100
AcDbEntity
  8
0
100
AcDbLine
 62
2
  6
CONTINUOUS
 10
4.6850393701
 20
0.0
 11
4.6850393701
 21
-0.157480315
  0
LINE
  5
2BF
100
AcDbEntity
  8
0
100
AcDbLine
 62
2
  6
CONTINUOUS
 10
6.2992125984
 20
0.0
 11
6.2992125984
 21
-0.157480315
  0
LINE
  5
2C0
100
AcDbEntity
  8
0
100
AcDbLine
 62
2
  6
CONTINUOUS
 10
7.9133858268
 20
0.0
 11
7.9133858268
 21
-0.157480315
  0
LINE
  5
2C1
100
AcDbEntity
  8
0
100
AcDbLine
 62
2
  6
CONTINUOUS
 10
9.5275590551
 20
0.0
 11
9.5275590551
 21
-0.157480315
  0
LINE
  5
2C2
100
AcDbEntity
  8
0
100
AcDbLine
 62
2
  6
CONTINUOUS
 10
11.1417322835
 20
0.0
 11
11.1417322835
 21
-0.157480315
  0
LINE
  5
2C3
100
AcDbEntity
  8
0
100
AcDbLine
 62
2
  6
CONTINUOUS
 10
12.7559055118
 20
0.0
 11
12.7559055118
 21
-0.157480315
  0
LINE
  5
2C4
100
AcDbEntity
  8
0
100
AcDbLine
 62
2
  6
CONTINUOUS
 10
14.3700787402
 20
0.0
 11
14.3700787402
 21
-0.157480315
  0
LINE
  5
2C5
100
AcDbEntity
  8
0
100
AcDbLine
 62
2
  6
CONTINUOUS
 10
15.8267716535
 20
0.0
 11
15.8267716535
 21
-0.157480315
  0
MTEXT
  5
2C6
100
AcDbEntity
  8
0
100
AcDbMText
 62
2
  6
CONTINUOUS
  7
STANDARD
 71
2
 72
1
 10
0.7283464567
 20
-0.0196850394
 30
0.0
 11
1.0
 21
0.0
 31
0.0
 44
0.9
  1
1
 40
0.1181102362
 41
0.188976378
  0
MTEXT
  5
2C7
100
AcDbEntity
  8
0
100
AcDbMText
 62
2
  6
CONTINUOUS
  7
STANDARD
 71
2
 72
1
 10
2.2637795276
 20
-0.0196850394
 30
0.0
 11
1.0
 21
0.0
 31
0.0
 44
0.9
  1
2
 40
0.1181102362
 41
0.188976378
  0
MTEXT
  5
2C8
100
AcDbEntity
  8
0
100
AcDbMText
 62
2
  6
CONTINUOUS
  7
STANDARD
 71
2
 72
1
 10
3.8779527559
 20
-0.0196850394
 30
0.0
 11
1.0
 21
0.0
 31
0.0
 44
0.9
  1
3 
 40
0.1181102362
 41
0.3779527559
  0
MTEXT
  5
2C9
100
AcDbEntity
  8
0
100
AcDbMText
 62
2
  6
CONTINUOUS
  7
STANDARD
 71
2
 72
1
 10
5.4921259843
 20
-0.0196850394
 30
0.0
 11
1.0
 21
0.0
 31
0.0
 44
0.9
  1
4 
 40
0.1181102362
 41
0.3779527559
  0
MTEXT
  5
2CA
100
AcDbEntity
  8
0
100
AcDbMText
 62
2
  6
CONTINUOUS
  7
STANDARD
 71
2
 72
1
 10
7.1062992126
 20
-0.0196850394
 30
0.0
 11
1.0
 21
0.0
 31
0.0
 44
0.9
  1
5
 40
0.1181102362
 41
0.188976378
  0
MTEXT
  5
2CB
100
AcDbEntity
  8
0
100
AcDbMText
 62
2
  6
CONTINUOUS
  7
STANDARD
 71
2
 72
1
 10
8.7204724409
 20
-0.0196850394
 30
0.0
 11
1.0
 21
0.0
 31
0.0
 44
0.9
  1
6
 40
0.1181102362
 41
0.188976378
  0
MTEXT
  5
2CC
100
AcDbEntity
  8
0
100
AcDbMText
 62
2
  6
CONTINUOUS
  7
STANDARD
 71
2
 72
1
 10
10.3346456693
 20
-0.0196850394
 30
0.0
 11
1.0
 21
0.0
 31
0.0
 44
0.9
  1
7
 40
0.1181102362
 41
0.188976378
  0
MTEXT
  5
2CD
100
AcDbEntity
  8
0
100
AcDbMText
 62
2
  6
CONTINUOUS
  7
STANDARD
 71
2
 72
1
 10
11.9488188976
 20
-0.0196850394
 30
0.0
 11
1.0
 21
0.0
 31
0.0
 44
0.9
  1
8
 40
0.1181102362
 41
0.188976378
  0
MTEXT
  5
2CE
100
AcDbEntity
  8
0
100
AcDbMText
 62
2
  6
CONTINUOUS
  7
STANDARD
 71
2
 72
1
 10
13.562992126
 20
-0.0196850394
 30
0.0
 11
1.0
 21
0.0
 31
0.0
 44
0.9
  1
9
 40
0.1181102362
 41
0.188976378
  0
MTEXT
  5
2CF
100
AcDbEntity
  8
0
100
AcDbMText
 62
2
  6
CONTINUOUS
  7
STANDARD
 71
2
 72
1
 10
15.0984251969
 20
-0.0196850394
 30
0.0
 11
1.0
 21
0.0
 31
0.0
 44
0.9
  1
10
 40
0.1181102362
 41
0.3779527559
  0
ENDBLK
  5
2D0
100
AcDbEntity
  8
0
  6
BYBLOCK
 62
0
100
AcDbBlockEnd
  0
BLOCK
  5
2D1
100
AcDbEntity
  8
0
100
AcDbBlockBegin
  2
*T3
 70
1
 10
0.0
 20
0.0
  3
*T3
  1

  0
LINE
  5
2D2
100
AcDbEntity
  8
0
100
AcDbLine
 62
2
  6
CONTINUOUS
 10
0.0
 20
0.0
 11
0.157480315
 21
0.0
  0
LINE
  5
2D3
100
AcDbEntity
  8
0
100
AcDbLine
 62
2
  6
CONTINUOUS
 10
0.0
 20
0.0
 11
0.0
 21
-10.9842519685
  0
LINE
  5
2D4
100
AcDbEntity
  8
0
100
AcDbLine
 62
2
  6
CONTINUOUS
 10
0.0
 20
-1.0984251969
 11
0.157480315
 21
-1.0984251969
  0
LINE
  5
2D5
100
AcDbEntity
  8
0
100
AcDbLine
 62
2
  6
CONTINUOUS
 10
0.0
 20
-2.1968503937
 11
0.157480315
 21
-2.1968503937
  0
LINE
  5
2D6
100
AcDbEntity
  8
0
100
AcDbLine
 62
2
  6
CONTINUOUS
 10
0.0
 20
-3.2952755906
 11
0.157480315
 21
-3.2952755906
  0
LINE
  5
2D7
100
AcDbEntity
  8
0
100
AcDbLine
 62
2
  6
CONTINUOUS
 10
0.0
 20
-4.3937007874
 11
0.157480315
 21
-4.3937007874
  0
LINE
  5
2D8
100
AcDbEntity
  8
0
100
AcDbLine
 62
2
  6
CONTINUOUS
 10
0.0
 20
-5.4921259843
 11
0.157480315
 21
-5.4921259843
  0
LINE
  5
2D9
100
AcDbEntity
  8
0
100
AcDbLine
 62
2
  6
CONTINUOUS
 10
0.0
 20
-6.5905511811
 11
0.157480315
 21
-6.5905511811
  0
LINE
  5
2DA
100
AcDbEntity
  8
0
100
AcDbLine
 62
2
  6
CONTINUOUS
 10
0.0
 20
-7.688976378
 11
0.157480315
 21
-7.688976378
  0
LINE
  5
2DB
100
AcDbEntity
  8
0
100
AcDbLine
 62
2
  6
CONTINUOUS
 10
0.0
 20
-8.7874015748
 11
0.157480315
 21
-8.7874015748
  0
LINE
  5
2DC
100
AcDbEntity
  8
0
100
AcDbLine
 62
2
  6
CONTINUOUS
 10
0.0
 20
-9.8858267717
 11
0.157480315
 21
-9.8858267717
  0
LINE
  5
2DD
100
AcDbEntity
  8
0
100
AcDbLine
 62
2
  6
CONTINUOUS
 10
0.0
 20
-10.9842519685
 11
0.157480315
 21
-10.9842519685
  0
LINE
  5
2DE
100
AcDbEntity
  8
0
100
AcDbLine
 62
2
  6
CONTINUOUS
 10
0.157480315
 20
0.0
 11
0.157480315
 21
-10.9842519685
  0
MTEXT
  5
2DF
100
AcDbEntity
  8
0
100
AcDbMText
 62
2
  6
CONTINUOUS
  7
STANDARD
 71
2
 72
1
 10
0.0787401575
 20
-0.4901574803
 30
0.0
 11
1.0
 21
0.0
 31
0.0
 44
0.9
  1
A
 40
0.1181102362
 41
0.188976378
  0
MTEXT
  5
2E0
100
AcDbEntity
  8
0
100
AcDbMText
 62
2
  6
CONTINUOUS
  7
STANDARD
 71
2
 72
1
 10
0.0787401575
 20
-1.5885826772
 30
0.0
 11
1.0
 21
0.0
 31
0.0
 44
0.9
  1
B
 40
0.1181102362
 41
0.188976378
  0
MTEXT
  5
2E1
100
AcDbEntity
  8
0
100
AcDbMText
 62
2
  6
CONTINUOUS
  7
STANDARD
 71
2
 72
1
 10
0.0787401575
 20
-2.687007874
 30
0.0
 11
1.0
 21
0.0
 31
0.0
 44
0.9
  1
C
 40
0.1181102362
 41
0.188976378
  0
MTEXT
  5
2E2
100
AcDbEntity
  8
0
100
AcDbMText
 62
2
  6
CONTINUOUS
  7
STANDARD
 71
2
 72
1
 10
0.0787401575
 20
-3.7854330709
 30
0.0
 11
1.0
 21
0.0
 31
0.0
 44
0.9
  1
D
 40
0.1181102362
 41
0.188976378
  0
MTEXT
  5
2E3
100
AcDbEntity
  8
0
100
AcDbMText
 62
2
  6
CONTINUOUS
  7
STANDARD
 71
2
 72
1
 10
0.0787401575
 20
-4.8838582677
 30
0.0
 11
1.0
 21
0.0
 31
0.0
 44
0.9
  1
E
 40
0.1181102362
 41
0.188976378
  0
MTEXT
  5
2E4
100
AcDbEntity
  8
0
100
AcDbMText
 62
2
  6
CONTINUOUS
  7
STANDARD
 71
2
 72
1
 10
0.0787401575
 20
-5.9822834646
 30
0.0
 11
1.0
 21
0.0
 31
0.0
 44
0.9
  1
F
 40
0.1181102362
 41
0.188976378
  0
MTEXT
  5
2E5
100
AcDbEntity
  8
0
100
AcDbMText
 62
2
  6
CONTINUOUS
  7
STANDARD
 71
2
 72
1
 10
0.0787401575
 20
-7.0807086614
 30
0.0
 11
1.0
 21
0.0
 31
0.0
 44
0.9
  1
G
 40
0.1181102362
 41
0.188976378
  0
MTEXT
  5
2E6
100
AcDbEntity
  8
0
100
AcDbMText
 62
2
  6
CONTINUOUS
  7
STANDARD
 71
2
 72
1
 10
0.0787401575
 20
-8.1791338583
 30
0.0
 11
1.0
 21
0.0
 31
0.0
 44
0.9
  1
H
 40
0.1181102362
 41
0.188976378
  0
MTEXT
  5
2E7
100
AcDbEntity
  8
0
100
AcDbMText
 62
2
  6
CONTINUOUS
  7
STANDARD
 71
2
 72
1
 10
0.0787401575
 20
-9.2775590551
 30
0.0
 11
1.0
 21
0.0
 31
0.0
 44
0.9
  1
J
 40
0.1181102362
 41
0.188976378
  0
MTEXT
  5
2E8
100
AcDbEntity
  8
0
100
AcDbMText
 62
2
  6
CONTINUOUS
  7
STANDARD
 71
2
 72
1
 10
0.0787401575
 20
-10.375984252
 30
0.0
 11
1.0
 21
0.0
 31
0.0
 44
0.9
  1
K
 40
0.1181102362
 41
0.188976378
  0
ENDBLK
  5
2E9
100
AcDbEntity
  8
0
  6
BYBLOCK
 62
0
100
AcDbBlockEnd
  0
BLOCK
  5
2EA
100
AcDbEntity
  8
0
100
AcDbBlockBegin
  2
*T4
 70
1
 10
0.0
 20
0.0
  3
*T4
  1

  0
LINE
  5
2EB
100
AcDbEntity
  8
0
100
AcDbLine
 62
2
  6
CONTINUOUS
 10
0.0
 20
0.0
 11
0.157480315
 21
0.0
  0
LINE
  5
2EC
100
AcDbEntity
  8
0
100
AcDbLine
 62
2
  6
CONTINUOUS
 10
0.0
 20
0.0
 11
0.0
 21
-10.9842519685
  0
LINE
  5
2ED
100
AcDbEntity
  8
0
100
AcDbLine
 62
2
  6
CONTINUOUS
 10
0.0
 20
-1.0984251969
 11
0.157480315
 21
-1.0984251969
  0
LINE
  5
2EE
100
AcDbEntity
  8
0
100
AcDbLine
 62
2
  6
CONTINUOUS
 10
0.0
 20
-2.1968503937
 11
0.157480315
 21
-2.1968503937
  0
LINE
  5
2EF
100
AcDbEntity
  8
0
100
AcDbLine
 62
2
  6
CONTINUOUS
 10
0.0
 20
-3.2952755906
 11
0.157480315
 21
-3.2952755906
  0
LINE
  5
2F0
100
AcDbEntity
  8
0
100
AcDbLine
 62
2
  6
CONTINUOUS
 10
0.0
 20
-4.3937007874
 11
0.157480315
 21
-4.3937007874
  0
LINE
  5
2F1
100
AcDbEntity
  8
0
100
AcDbLine
 62
2
  6
CONTINUOUS
 10
0.0
 20
-5.4921259843
 11
0.157480315
 21
-5.4921259843
  0
LINE
  5
2F2
100
AcDbEntity
  8
0
100
AcDbLine
 62
2
  6
CONTINUOUS
 10
0.0
 20
-6.5905511811
 11
0.157480315
 21
-6.5905511811
  0
LINE
  5
2F3
100
AcDbEntity
  8
0
100
AcDbLine
 62
2
  6
CONTINUOUS
 10
0.0
 20
-7.688976378
 11
0.157480315
 21
-7.688976378
  0
LINE
  5
2F4
100
AcDbEntity
  8
0
100
AcDbLine
 62
2
  6
CONTINUOUS
 10
0.0
 20
-8.7874015748
 11
0.157480315
 21
-8.7874015748
  0
LINE
  5
2F5
100
AcDbEntity
  8
0
100
AcDbLine
 62
2
  6
CONTINUOUS
 10
0.0
 20
-9.8858267717
 11
0.157480315
 21
-9.8858267717
  0
LINE
  5
2F6
100
AcDbEntity
  8
0
100
AcDbLine
 62
2
  6
CONTINUOUS
 10
0.0
 20
-10.9842519685
 11
0.157480315
 21
-10.9842519685
  0
LINE
  5
2F7
100
AcDbEntity
  8
0
100
AcDbLine
 62
2
  6
CONTINUOUS
 10
0.157480315
 20
0.0
 11
0.157480315
 21
-10.9842519685
  0
MTEXT
  5
2F8
100
AcDbEntity
  8
0
100
AcDbMText
 62
2
  6
CONTINUOUS
  7
STANDARD
 71
2
 72
1
 10
0.0787401575
 20
-0.4901574803
 30
0.0
 11
1.0
 21
0.0
 31
0.0
 44
0.9
  1
A
 40
0.1181102362
 41
0.188976378
  0
MTEXT
  5
2F9
100
AcDbEntity
  8
0
100
AcDbMText
 62
2
  6
CONTINUOUS
  7
STANDARD
 71
2
 72
1
 10
0.0787401575
 20
-1.5885826772
 30
0.0
 11
1.0
 21
0.0
 31
0.0
 44
0.9
  1
B
 40
0.1181102362
 41
0.188976378
  0
MTEXT
  5
2FA
100
AcDbEntity
  8
0
100
AcDbMText
 62
2
  6
CONTINUOUS
  7
STANDARD
 71
2
 72
1
 10
0.0787401575
 20
-2.687007874
 30
0.0
 11
1.0
 21
0.0
 31
0.0
 44
0.9
  1
C
 40
0.1181102362
 41
0.188976378
  0
MTEXT
  5
2FB
100
AcDbEntity
  8
0
100
AcDbMText
 62
2
  6
CONTINUOUS
  7
STANDARD
 71
2
 72
1
 10
0.0787401575
 20
-3.7854330709
 30
0.0
 11
1.0
 21
0.0
 31
0.0
 44
0.9
  1
D
 40
0.1181102362
 41
0.188976378
  0
MTEXT
  5
2FC
100
AcDbEntity
  8
0
100
AcDbMText
 62
2
  6
CONTINUOUS
  7
STANDARD
 71
2
 72
1
 10
0.0787401575
 20
-4.8838582677
 30
0.0
 11
1.0
 21
0.0
 31
0.0
 44
0.9
  1
E
 40
0.1181102362
 41
0.188976378
  0
MTEXT
  5
2FD
100
AcDbEntity
  8
0
100
AcDbMText
 62
2
  6
CONTINUOUS
  7
STANDARD
 71
2
 72
1
 10
0.0787401575
 20
-5.9822834646
 30
0.0
 11
1.0
 21
0.0
 31
0.0
 44
0.9
  1
F
 40
0.1181102362
 41
0.188976378
  0
MTEXT
  5
2FE
100
AcDbEntity
  8
0
100
AcDbMText
 62
2
  6
CONTINUOUS
  7
STANDARD
 71
2
 72
1
 10
0.0787401575
 20
-7.0807086614
 30
0.0
 11
1.0
 21
0.0
 31
0.0
 44
0.9
  1
G
 40
0.1181102362
 41
0.188976378
  0
MTEXT
  5
2FF
100
AcDbEntity
  8
0
100
AcDbMText
 62
2
  6
CONTINUOUS
  7
STANDARD
 71
2
 72
1
 10
0.0787401575
 20
-8.1791338583
 30
0.0
 11
1.0
 21
0.0
 31
0.0
 44
0.9
  1
H
 40
0.1181102362
 41
0.188976378
  0
MTEXT
  5
300
100
AcDbEntity
  8
0
100
AcDbMText
 62
2
  6
CONTINUOUS
  7
STANDARD
 71
2
 72
1
 10
0.0787401575
 20
-9.2775590551
 30
0.0
 11
1.0
 21
0.0
 31
0.0
 44
0.9
  1
J
 40
0.1181102362
 41
0.188976378
  0
MTEXT
  5
301
100
AcDbEntity
  8
0
100
AcDbMText
 62
2
  6
CONTINUOUS
  7
STANDARD
 71
2
 72
1
 10
0.0787401575
 20
-10.375984252
 30
0.0
 11
1.0
 21
0.0
 31
0.0
 44
0.9
  1
K
 40
0.1181102362
 41
0.188976378
  0
ENDBLK
  5
302
100
AcDbEntity
  8
0
  6
BYBLOCK
 62
0
100
AcDbBlockEnd
  0
BLOCK
  5
303
100
AcDbEntity
  8
0
100
AcDbBlockBegin
  2
*T5
 70
1
 10
0.0
 20
0.0
  3
*T5
  1

  0
LINE
  5
304
100
AcDbEntity
  8
0
100
AcDbLine
 62
2
  6
CONTINUOUS
 10
0.0
 20
0.0
 11
1.7716535433
 21
0.0
  0
LINE
  5
305
100
AcDbEntity
  8
0
100
AcDbLine
 62
2
  6
CONTINUOUS
 10
0.0
 20
0.0
 11
0.0
 21
-0.4330708661
  0
LINE
  5
306
100
AcDbEntity
  8
0
100
AcDbLine
 62
2
  6
CONTINUOUS
 10
0.0
 20
-0.2952755906
 11
1.7716535433
 21
-0.2952755906
  0
LINE
  5
307
100
AcDbEntity
  8
0
100
AcDbLine
 62
2
  6
CONTINUOUS
 10
0.0
 20
-0.4330708661
 11
1.7716535433
 21
-0.4330708661
  0
LINE
  5
308
100
AcDbEntity
  8
0
100
AcDbLine
 62
2
  6
CONTINUOUS
 10
1.3779527559
 20
0.0
 11
1.3779527559
 21
-0.4330708661
  0
LINE
  5
309
100
AcDbEntity
  8
0
100
AcDbLine
 62
2
  6
CONTINUOUS
 10
1.7716535433
 20
0.0
 11
1.7716535433
 21
-0.4330708661
  0
MTEXT
  5
30A
100
AcDbEntity
  8
0
100
AcDbMText
 62
2
  6
CONTINUOUS
  7
STANDARD
 71
2
 72
1
 10
1.5748031496
 20
-0.0738188976
 30
0.0
 11
1.0
 21
0.0
 31
0.0
 44
0.9
  1
SHEET\P1 of 1
 40
0.0590551181
 41
0.5669291339
  0
MTEXT
  5
30B
100
AcDbEntity
  8
0
100
AcDbMText
 62
2
  6
CONTINUOUS
  7
STANDARD
 71
2
 72
1
 10
0.688976378
 20
-0.3248031496
 30
0.0
 11
1.0
 21
0.0
 31
0.0
 44
0.9
  1
PART A3 DWG-01
 40
0.0787401575
 41
1.7637795276
  0
ENDBLK
  5
30C
100
AcDbEntity
  8
0
  6
BYBLOCK
 62
0
100
AcDbBlockEnd
  0
BLOCK
  5
30D
100
AcDbEntity
  8
0
100
AcDbBlockBegin
  2
*T6
 70
1
 10
0.0
 20
0.0
  3
*T6
  1

  0
LINE
  5
30E
100
AcDbEntity
  8
0
100
AcDbLine
 62
2
  6
CONTINUOUS
 10
0.0
 20
0.0
 11
15.8267716535
 21
0.0
  0
LINE
  5
30F
100
AcDbEntity
  8
0
100
AcDbLine
 62
2
  6
CONTINUOUS
 10
0.0
 20
0.0
 11
0.0
 21
-1.4173228346
  0
LINE
  5
310
100
AcDbEntity
  8
0
100
AcDbLine
 62
2
  6
CONTINUOUS
 10
5.1181102362
 20
-0.2755905512
 11
11.8897637795
 21
-0.2755905512
  0
LINE
  5
311
100
AcDbEntity
  8
0
100
AcDbLine
 62
2
  6
CONTINUOUS
 10
11.8897637795
 20
-0.4133858268
 11
15.8267716535
 21
-0.4133858268
  0
LINE
  5
312
100
AcDbEntity
  8
0
100
AcDbLine
 62
2
  6
CONTINUOUS
 10
7.5590551181
 20
-0.5511811024
 11
11.8897637795
 21
-0.5511811024
  0
LINE
  5
313
100
AcDbEntity
  8
0
100
AcDbLine
 62
2
  6
CONTINUOUS
 10
0.0
 20
-0.8267716535
 11
5.1181102362
 21
-0.8267716535
  0
LINE
  5
314
100
AcDbEntity
  8
0
100
AcDbLine
 62
2
  6
CONTINUOUS
 10
10.5118110236
 20
-0.8267716535
 11
15.8267716535
 21
-0.8267716535
  0
LINE
  5
315
100
AcDbEntity
  8
0
100
AcDbLine
 62
2
  6
CONTINUOUS
 10
0.0
 20
-1.1220472441
 11
5.1181102362
 21
-1.1220472441
  0
LINE
  5
316
100
AcDbEntity
  8
0
100
AcDbLine
 62
2
  6
CONTINUOUS
 10
10.5118110236
 20
-1.1220472441
 11
15.8267716535
 21
-1.1220472441
  0
LINE
  5
317
100
AcDbEntity
  8
0
100
AcDbLine
 62
2
  6
CONTINUOUS
 10
0.0
 20
-1.4173228346
 11
15.8267716535
 21
-1.4173228346
  0
LINE
  5
318
100
AcDbEntity
  8
0
100
AcDbLine
 62
2
  6
CONTINUOUS
 10
0.3149606299
 20
0.0
 11
0.3149606299
 21
-1.1220472441
  0
LINE
  5
319
100
AcDbEntity
  8
0
100
AcDbLine
 62
2
  6
CONTINUOUS
 10
0.7874015748
 20
0.0
 11
0.7874015748
 21
-1.1220472441
  0
LINE
  5
31A
100
AcDbEntity
  8
0
100
AcDbLine
 62
2
  6
CONTINUOUS
 10
2.7559055118
 20
0.0
 11
2.7559055118
 21
-1.1220472441
  0
LINE
  5
31B
100
AcDbEntity
  8
0
100
AcDbLine
 62
2
  6
CONTINUOUS
 10
3.3070866142
 20
0.0
 11
3.3070866142
 21
-1.1220472441
  0
LINE
  5
31C
100
AcDbEntity
  8
0
100
AcDbLine
 62
2
  6
CONTINUOUS
 10
3.8582677165
 20
0.0
 11
3.8582677165
 21
-1.1220472441
  0
LINE
  5
31D
100
AcDbEntity
  8
0
100
AcDbLine
 62
2
  6
CONTINUOUS
 10
4.4094488189
 20
0.0
 11
4.4094488189
 21
-1.1220472441
  0
LINE
  5
31E
100
AcDbEntity
  8
0
100
AcDbLine
 62
2
  6
CONTINUOUS
 10
5.1181102362
 20
0.0
 11
5.1181102362
 21
-1.4173228346
  0
LINE
  5
31F
100
AcDbEntity
  8
0
100
AcDbLine
 62
2
  6
CONTINUOUS
 10
6.3385826772
 20
0.0
 11
6.3385826772
 21
-1.4173228346
  0
LINE
  5
320
100
AcDbEntity
  8
0
100
AcDbLine
 62
2
  6
CONTINUOUS
 10
7.5590551181
 20
0.0
 11
7.5590551181
 21
-1.4173228346
  0
LINE
  5
321
100
AcDbEntity
  8
0
100
AcDbLine
 62
2
  6
CONTINUOUS
 10
10.5118110236
 20
0.0
 11
10.5118110236
 21
-1.4173228346
  0
LINE
  5
322
100
AcDbEntity
  8
0
100
AcDbLine
 62
2
  6
CONTINUOUS
 10
11.2007874016
 20
0.0
 11
11.2007874016
 21
-1.4173228346
  0
LINE
  5
323
100
AcDbEntity
  8
0
100
AcDbLine
 62
2
  6
CONTINUOUS
 10
11.8897637795
 20
0.0
 11
11.8897637795
 21
-1.4173228346
  0
LINE
  5
324
100
AcDbEntity
  8
0
100
AcDbLine
 62
2
  6
CONTINUOUS
 10
14.2519685039
 20
-0.4133858268
 11
14.2519685039
 21
-0.8267716535
  0
LINE
  5
325
100
AcDbEntity
  8
0
100
AcDbLine
 62
2
  6
CONTINUOUS
 10
15.8267716535
 20
0.0
 11
15.8267716535
 21
-1.4173228346
  0
MTEXT
  5
326
100
AcDbEntity
  8
0
100
AcDbMText
 62
2
  6
CONTINUOUS
  7
STANDARD
 71
2
 72
1
 10
0.157480315
 20
-0.374015748
 30
0.0
 11
1.0
 21
0.0
 31
0.0
 44
0.9
  1
 1
 40
0.0787401575
 41
0.2519685039
  0
MTEXT
  5
327
100
AcDbEntity
  8
0
100
AcDbMText
 62
2
  6
CONTINUOUS
  7
STANDARD
 71
2
 72
1
 10
1.7716535433
 20
-0.374015748
 30
0.0
 11
1.0
 21
0.0
 31
0.0
 44
0.9
  1
FIRST ISSUE
 40
0.0787401575
 41
1.3858267717
  0
MTEXT
  5
328
100
AcDbEntity
  8
0
100
AcDbMText
 62
2
  6
CONTINUOUS
  7
STANDARD
 71
2
 72
1
 10
3.031496063
 20
-0.374015748
 30
0.0
 11
1.0
 21
0.0
 31
0.0
 44
0.9
  1
 HLQ
 40
0.0787401575
 41
0.5039370079
  0
MTEXT
  5
329
100
AcDbEntity
  8
0
100
AcDbMText
 62
2
  6
CONTINUOUS
  7
STANDARD
 71
2
 72
1
 10
4.7637795276
 20
-0.374015748
 30
0.0
 11
1.0
 21
0.0
 31
0.0
 44
0.9
  1
05.02.18 
 40
0.0787401575
 41
1.1338582677
  0
MTEXT
  5
32A
100
AcDbEntity
  8
0
100
AcDbMText
 62
2
  6
CONTINUOUS
  7
STANDARD
 71
2
 72
1
 10
5.7283464567
 20
-0.0984251969
 30
0.0
 11
1.0
 21
0.0
 31
0.0
 44
0.9
  1
UNSPECIFIED DETAIL
 40
0.0787401575
 41
2.2677165354
  0
MTEXT
  5
32B
100
AcDbEntity
  8
0
100
AcDbMText
 62
2
  6
CONTINUOUS
  7
STANDARD
 71
2
 72
1
 10
6.9488188976
 20
-0.0984251969
 30
0.0
 11
1.0
 21
0.0
 31
0.0
 44
0.9
  1
UNSPECIFIED TOL.
 40
0.0787401575
 41
2.0157480315
  0
MTEXT
  5
32C
100
AcDbEntity
  8
0
100
AcDbMText
 62
2
  6
CONTINUOUS
  7
STANDARD
 71
1
 72
1
 10
7.5984251969
 20
-0.0984251969
 30
0.0
 11
1.0
 21
0.0
 31
0.0
 44
0.9
  1
MATERIAL: AS SUPPLIED 
 40
0.0787401575
 41
2.7716535433
  0
MTEXT
  5
32D
100
AcDbEntity
  8
0
100
AcDbMText
 62
2
  6
CONTINUOUS
  7
STANDARD
 71
2
 72
1
 10
10.8562992126
 20
-0.0492125984
 30
0.0
 11
1.0
 21
0.0
 31
0.0
 44
0.9
  1
DRAWN BY\PHLQ 
 40
0.0688976378
 41
0.8818897638
  0
MTEXT
  5
32E
100
AcDbEntity
  8
0
100
AcDbMText
 62
2
  6
CONTINUOUS
  7
STANDARD
 71
2
 72
1
 10
11.5452755906
 20
-0.0492125984
 30
0.0
 11
1.0
 21
0.0
 31
0.0
 44
0.9
  1
DATE\P05.02.18 
 40
0.0688976378
 41
0.9921259843
  0
MTEXT
  5
32F
100
AcDbEntity
  8
0
100
AcDbMText
 62
2
  6
CONTINUOUS
  7
STANDARD
 71
1
 72
1
 10
11.9291338583
 20
-0.0295275591
 30
0.0
 11
1.0
 21
0.0
 31
0.0
 44
0.9
  1
TITLE
 40
0.0787401575
 41
0.6299212598
  0
MTEXT
  5
330
100
AcDbEntity
  8
0
100
AcDbMText
 62
2
  6
CONTINUOUS
  7
STANDARD
 71
2
 72
1
 10
13.8582677165
 20
-0.2165354331
 30
0.0
 11
1.0
 21
0.0
 31
0.0
 44
0.9
  1
HINGE
 40
0.1181102362
 41
0.9448818898
  0
MTEXT
  5
331
100
AcDbEntity
  8
0
100
AcDbMText
 62
2
  6
CONTINUOUS
  7
STANDARD
 71
1
 72
1
 10
5.157480315
 20
-0.3248031496
 30
0.0
 11
1.0
 21
0.0
 31
0.0
 44
0.9
  1
BREAK ALL\PSHARP EDGES
 40
0.0984251969
 41
1.7322834646
  0
MTEXT
  5
332
100
AcDbEntity
  8
0
100
AcDbMText
 62
2
  6
CONTINUOUS
  7
TEXTSTYLE_1
 71
1
 72
1
 10
6.3779527559
 20
-0.3248031496
 30
0.0
 11
1.0
 21
0.0
 31
0.0
 44
0.9
  1
{\Fgdt;`}\Ftxt;0.2
 40
0.0984251969
 41
0.7020997375
  0
MTEXT
  5
333
100
AcDbEntity
  8
0
100
AcDbMText
 62
2
  6
CONTINUOUS
  7
STANDARD
 71
1
 72
1
 10
7.5984251969
 20
-0.374015748
 30
0.0
 11
1.0
 21
0.0
 31
0.0
 44
0.9
  1
FINISH:  AS SUPPLIED
 40
0.0787401575
 41
2.5196850394
  0
MTEXT
  5
334
100
AcDbEntity
  8
0
100
AcDbMText
 62
2
  6
CONTINUOUS
  7
STANDARD
 71
2
 72
1
 10
10.8562992126
 20
-0.3248031496
 30
0.0
 11
1.0
 21
0.0
 31
0.0
 44
0.9
  1
CHECKED BY\P 
 40
0.0688976378
 41
1.1023622047
  0
MTEXT
  5
335
100
AcDbEntity
  8
0
100
AcDbMText
 62
2
  6
CONTINUOUS
  7
STANDARD
 71
2
 72
1
 10
11.5452755906
 20
-0.3248031496
 30
0.0
 11
1.0
 21
0.0
 31
0.0
 44
0.9
  1
DATE\P 
 40
0.0688976378
 41
0.4409448819
  0
MTEXT
  5
336
100
AcDbEntity
  8
0
100
AcDbMText
 62
2
  6
CONTINUOUS
  7
STANDARD
 71
1
 72
1
 10
11.9291338583
 20
-0.4429133858
 30
0.0
 11
1.0
 21
0.0
 31
0.0
 44
0.9
  1
DOCUMENT REFERENCE NUMBER
 40
0.0787401575
 41
3.1496062992
  0
MTEXT
  5
337
100
AcDbEntity
  8
0
100
AcDbMText
 62
2
  6
CONTINUOUS
  7
STANDARD
 71
2
 72
1
 10
15.0393700787
 20
-0.4429133858
 30
0.0
 11
1.0
 21
0.0
 31
0.0
 44
0.9
  1
PART NUMBER
 40
0.0787401575
 41
1.3858267717
  0
MTEXT
  5
338
100
AcDbEntity
  8
0
100
AcDbMText
 62
2
  6
CONTINUOUS
  7
STANDARD
 71
2
 72
1
 10
10.8562992126
 20
-0.6003937008
 30
0.0
 11
1.0
 21
0.0
 31
0.0
 44
0.9
  1
APPROVED BY\P 
 40
0.0688976378
 41
1.2125984252
  0
MTEXT
  5
339
100
AcDbEntity
  8
0
100
AcDbMText
 62
2
  6
CONTINUOUS
  7
STANDARD
 71
2
 72
1
 10
11.5452755906
 20
-0.6003937008
 30
0.0
 11
1.0
 21
0.0
 31
0.0
 44
0.9
  1
DATE\P 
 40
0.0688976378
 41
0.4409448819
  0
MTEXT
  5
33A
100
AcDbEntity
  8
0
100
AcDbMText
 62
2
  6
CONTINUOUS
  7
STANDARD
 71
2
 72
1
 10
15.0393700787
 20
-0.6299212598
 30
0.0
 11
1.0
 21
0.0
 31
0.0
 44
0.9
  1
HSR-1004-02 
 40
0.1181102362
 41
2.2677165354
  0
MTEXT
  5
33B
100
AcDbEntity
  8
0
100
AcDbMText
 62
2
  6
CONTINUOUS
  7
STANDARD
 71
2
 72
1
 10
0.157480315
 20
-0.9251968504
 30
0.0
 11
1.0
 21
0.0
 31
0.0
 44
0.9
  1
VER
 40
0.0984251969
 41
0.4724409449
  0
MTEXT
  5
33C
100
AcDbEntity
  8
0
100
AcDbMText
 62
2
  6
CONTINUOUS
  7
STANDARD
 71
2
 72
1
 10
0.5511811024
 20
-0.9251968504
 30
0.0
 11
1.0
 21
0.0
 31
0.0
 44
0.9
  1
ECN
 40
0.0984251969
 41
0.4724409449
  0
MTEXT
  5
33D
100
AcDbEntity
  8
0
100
AcDbMText
 62
2
  6
CONTINUOUS
  7
STANDARD
 71
2
 72
1
 10
1.7716535433
 20
-0.9350393701
 30
0.0
 11
1.0
 21
0.0
 31
0.0
 44
0.9
  1
DETAILS OF MODIFICATION
 40
0.0787401575
 41
2.8976377953
  0
MTEXT
  5
33E
100
AcDbEntity
  8
0
100
AcDbMText
 62
2
  6
CONTINUOUS
  7
STANDARD
 71
2
 72
1
 10
3.031496063
 20
-0.9251968504
 30
0.0
 11
1.0
 21
0.0
 31
0.0
 44
0.9
  1
DWN
 40
0.0984251969
 41
0.4724409449
  0
MTEXT
  5
33F
100
AcDbEntity
  8
0
100
AcDbMText
 62
2
  6
CONTINUOUS
  7
STANDARD
 71
2
 72
1
 10
3.5826771654
 20
-0.9251968504
 30
0.0
 11
1.0
 21
0.0
 31
0.0
 44
0.9
  1
CHKD
 40
0.0984251969
 41
0.6299212598
  0
MTEXT
  5
340
100
AcDbEntity
  8
0
100
AcDbMText
 62
2
  6
CONTINUOUS
  7
STANDARD
 71
2
 72
1
 10
4.1338582677
 20
-0.9251968504
 30
0.0
 11
1.0
 21
0.0
 31
0.0
 44
0.9
  1
APPR
 40
0.0984251969
 41
0.6299212598
  0
MTEXT
  5
341
100
AcDbEntity
  8
0
100
AcDbMText
 62
2
  6
CONTINUOUS
  7
STANDARD
 71
2
 72
1
 10
4.7637795276
 20
-0.9251968504
 30
0.0
 11
1.0
 21
0.0
 31
0.0
 44
0.9
  1
DATE
 40
0.0984251969
 41
0.6299212598
  0
MTEXT
  5
342
100
AcDbEntity
  8
0
100
AcDbMText
 62
2
  6
CONTINUOUS
  7
STANDARD
 71
2
 72
1
 10
10.8562992126
 20
-0.9399606299
 30
0.0
 11
1.0
 21
0.0
 31
0.0
 44
0.9
  1
SHEET SCALE
 40
0.0688976378
 41
1.2125984252
  0
MTEXT
  5
343
100
AcDbEntity
  8
0
100
AcDbMText
 62
2
  6
CONTINUOUS
  7
STANDARD
 71
2
 72
1
 10
11.5452755906
 20
-0.9399606299
 30
0.0
 11
1.0
 21
0.0
 31
0.0
 44
0.9
  1
0.200
 40
0.0688976378
 41
0.5511811024
  0
MTEXT
  5
344
100
AcDbEntity
  8
0
100
AcDbMText
 62
2
  6
CONTINUOUS
  7
STANDARD
 71
2
 72
1
 10
13.8582677165
 20
-0.9251968504
 30
0.0
 11
1.0
 21
0.0
 31
0.0
 44
0.9
  1
USED ON:  HSR-1000-01  
 40
0.0984251969
 41
3.6220472441
  0
MTEXT
  5
345
100
AcDbEntity
  8
0
100
AcDbMText
 62
2
  6
CONTINUOUS
  7
STANDARD
 71
2
 72
1
 10
2.5590551181
 20
-1.2204724409
 30
0.0
 11
1.0
 21
0.0
 31
0.0
 44
0.9
  1
VERSIONS 
 40
0.0984251969
 41
1.4173228346
  0
MTEXT
  5
346
100
AcDbEntity
  8
0
100
AcDbMText
 62
2
  6
CONTINUOUS
  7
STANDARD
 71
2
 72
1
 10
10.8562992126
 20
-1.1835629921
 30
0.0
 11
1.0
 21
0.0
 31
0.0
 44
0.9
  1
ESTIMATED \PMASS KG. 
 40
0.0688976378
 41
1.1023622047
  0
MTEXT
  5
347
100
AcDbEntity
  8
0
100
AcDbMText
 62
2
  6
CONTINUOUS
  7
STANDARD
 71
2
 72
1
 10
13.8582677165
 20
-1.2303149606
 30
0.0
 11
1.0
 21
0.0
 31
0.0
 44
0.9
  1
HSR-1004-27 
 40
0.0787401575
 41
1.5118110236
  0
ENDBLK
  5
348
100
AcDbEntity
  8
0
  6
BYBLOCK
 62
0
100
AcDbBlockEnd
  0
ENDSEC
  0
SECTION
  2
ENTITIES
  0
IMAGE
  5
349
100
AcDbEntity
  8
0
100
AcDbRasterImage
 62
7
  6
CONTINUOUS
 10
8.3200173861
 20
0.4811769754
 30
0.0
 11
0.0066666667
 21
0.0
 31
0.0
 12
0.0
 22
0.0066666667
 32
0.0
 13
349.0
 23
111.0
340
       3F0
 70
9
280
0
281
50
282
50
283
0
360
       3EA
 71
1
 91
2
 14
-0.5
 24
-0.5
 14
348.5
 24
110.5
  0
MTEXT
  5
34A
100
AcDbEntity
  8
0
100
AcDbMText
 62
2
  6
CONTINUOUS
  7
STANDARD
 71
2
 72
1
 10
3.4964485267
 20
11.3047167072
 30
0.0
 11
1.0
 21
0.0
 31
0.0
 44
0.9
  1
DO NOT SCALE DRAWING
 40
0.1377952756
 41
2.2047244094
  0
MTEXT
  5
34B
100
AcDbEntity
  8
0
100
AcDbMText
 62
2
  6
CONTINUOUS
  7
STANDARD
 71
2
 72
1
 10
6.500368638
 20
11.2685764172
 30
0.0
 11
1.0
 21
0.0
 31
0.0
 44
0.9
  1
IF IN DOUBT ASK
 40
0.1377952756
 41
1.6535433071
  0
MTEXT
  5
34C
100
AcDbEntity
  8
0
100
AcDbMText
 62
2
  6
CONTINUOUS
  7
STANDARD
 71
2
 72
1
 10
9.9447414158
 20
11.2803258722
 30
0.0
 11
1.0
 21
0.0
 31
0.0
 44
0.9
  1
ALL DIMENSIONS IN MILLIMETRES
 40
0.1377952756
 41
3.1968503937
  0
MTEXT
  5
34D
100
AcDbEntity
  8
0
100
AcDbMText
 62
2
  6
CONTINUOUS
  7
STANDARD
 71
2
 72
1
 10
14.3434392795
 20
11.2496136633
 30
0.0
 11
1.0
 21
0.0
 31
0.0
 44
0.9
  1
THIRD ANGLE PROJECTION
 40
0.1377952756
 41
2.4251968504
  0
MTEXT
  5
34E
100
AcDbEntity
  8
0
100
AcDbMText
 62
2
  6
CONTINUOUS
  7
STANDARD
 71
2
 72
1
 10
1.9065366808
 20
0.2122942676
 30
0.0
 11
1.0
 21
0.0
 31
0.0
 44
0.9
  1
CAD REFERENCE: HINGE
 40
0.1377952756
 41
2.2047244094
  0
MTEXT
  5
34F
100
AcDbEntity
  8
0
100
AcDbMText
 62
2
  6
CONTINUOUS
  7
STANDARD
 71
2
 72
1
 10
0.0572825666
 20
5.7918269413
 30
0.0
 11
0.0
 21
1.0
 31
0.0
 44
0.9
  1
DO NOT MANUALLY UPDATE
 40
0.1377952756
 41
2.4251968504
  0
MTEXT
  5
350
100
AcDbEntity
  8
0
100
AcDbMText
 62
2
  6
CONTINUOUS
  7
STANDARD
 71
1
 72
1
 10
12.387295234
 20
0.6136810847
 30
0.0
 11
1.0
 21
0.0
 31
0.0
 44
0.9
  1
ALL CHANGES LISTED ON:
 40
0.0787401575
 41
1.3858267717
  0
DIMENSION
  5
351
100
AcDbEntity
  8
0
100
AcDbDimension
 62
2
  6
CONTINUOUS
  2
*D0
 10
1.889220386
 20
8.1519479923
 11
1.9048453804
 21
7.6795074463
 70
160
 71
2
 42
120.0
  3
DIMSTYLE_1
100
AcDbAlignedDimension
 13
2.9659890111
 23
7.2070661025
 14
2.9892294075
 24
8.1519479923
 50
90.0
100
AcDbRotatedDimension
  0
DIMENSION
  5
352
100
AcDbEntity
  8
0
100
AcDbDimension
 62
2
  6
CONTINUOUS
  2
*D1
 10
13.6396625423
 20
3.5735916966
 11
13.6552874227
 21
4.0460327389
 70
160
 71
2
 42
120.0
  3
DIMSTYLE_1
100
AcDbAlignedDimension
 13
12.5594794233
 23
4.5184735864
 14
12.5730150559
 24
3.5735916966
 50
270.0
100
AcDbRotatedDimension
  0
DIMENSION
  5
353
100
AcDbEntity
  8
0
100
AcDbDimension
 62
2
  6
CONTINUOUS
  2
*D2
 10
12.6217128149
 20
9.3736318203
 11
7.8341879897
 21
9.3736313948
 70
160
 71
2
 42
1220.0
  3
DIMSTYLE_1
100
AcDbAlignedDimension
 13
3.0154136023
 23
8.4880309326
 14
12.6217128149
 24
8.1882896035
100
AcDbRotatedDimension
  0
DIMENSION
  5
354
100
AcDbEntity
  8
0
100
AcDbDimension
 62
2
  6
CONTINUOUS
  2
*D3
 10
13.0224493382
 20
4.5184735864
 11
13.0224493312
 21
4.2822530671
 70
160
 71
2
 42
60.0
  3
DIMSTYLE_1
100
AcDbAlignedDimension
 13
12.7701884839
 23
4.0460326415
 14
13.2672684354
 24
4.5184735864
 50
90.0
100
AcDbRotatedDimension
  0
DIMENSION
  5
355
100
AcDbEntity
  8
0
100
AcDbDimension
 62
2
  6
CONTINUOUS
  2
*D4
 10
3.0154136023
 20
8.7674083194
 11
5.4169882947
 21
8.7674085482
 70
160
 71
2
 42
610.0
  3
DIMSTYLE_1
100
AcDbAlignedDimension
 13
7.8185632086
 23
8.2740978996
 14
3.0154136023
 24
8.1536425231
 50
180.0
100
AcDbRotatedDimension
  0
DIMENSION
  5
356
100
AcDbEntity
  8
0
100
AcDbDimension
 62
2
  6
CONTINUOUS
  2
*D5
 10
7.9010911121
 20
7.5950134202
 11
9.4292534957
 21
6.7769865066
 70
163
 71
1
 42
30.0
  1
%%c<>
  3
DIMSTYLE_2
100
AcDbDiametricDimension
 15
7.736035305
 25
7.7640006746
  0
DIMENSION
  5
357
100
AcDbEntity
  8
0
100
AcDbDimension
 62
2
  6
CONTINUOUS
  2
*D6
 10
2.5154136023
 20
7.6795070474
 11
2.5154136477
 21
7.9157277746
 70
160
 71
2
 42
60.0
  3
DIMSTYLE_1
100
AcDbAlignedDimension
 13
2.8248420699
 23
8.1519479923
 14
2.8882529463
 24
7.6795070474
 50
270.0
100
AcDbRotatedDimension
  0
DIMENSION
  5
358
100
AcDbEntity
  8
0
100
AcDbDimension
 62
2
  6
CONTINUOUS
  2
*D7
 10
3.4878545472
 20
5.2644454822
 11
5.6532088753
 21
5.2644455797
 70
160
 71
2
 42
550.0
  3
DIMSTYLE_1
100
AcDbAlignedDimension
 13
7.8185632086
 23
4.0460326415
 14
3.4878545472
 24
4.0460326415
 50
180.0
100
AcDbRotatedDimension
  0
DIMENSION
  5
359
100
AcDbEntity
  8
0
100
AcDbDimension
 62
2
  6
CONTINUOUS
  2
*D8
 10
3.6156198579
 20
3.8473466154
 11
5.2111192339
 21
2.9622987504
 70
163
 71
1
 42
60.0
  1
%%c<>\P{\Fgdt;x} 40\PChamfer 1 x 45%%d
  3
DIMSTYLE_3
100
AcDbDiametricDimension
 15
3.3600892364
 25
4.2447186676
  0
DIMENSION
  5
35A
100
AcDbEntity
  8
0
100
AcDbDimension
 62
2
  6
CONTINUOUS
  2
*D9
 10
3.4786568055
 20
4.4304864896
 11
1.7235760961
 21
5.4750131343
 70
163
 71
3
 42
8.0
  1
2 x M<>\P{\Fgdt;x} 40\PChamfer 0.5 x 45%%d 
  3
DIMSTYLE_4
100
AcDbDiametricDimension
 15
3.4970522888
 25
4.3702402107
  0
DIMENSION
  5
35B
100
AcDbEntity
  8
0
100
AcDbDimension
 62
2
  6
CONTINUOUS
  2
*D10
 10
1.8055159058
 20
4.4003633502
 11
1.8094221731
 21
4.2231979851
 70
160
 71
2
 42
45.0
  3
DIMSTYLE_1
100
AcDbAlignedDimension
 13
2.5883818785
 23
4.0460326415
 14
3.4235490838
 24
4.4003633502
 50
90.0
100
AcDbRotatedDimension
  0
DIMENSION
  5
35C
100
AcDbEntity
  8
0
100
AcDbDimension
 62
2
  6
CONTINUOUS
  2
*D11
 10
9.409068929
 20
3.9897563972
 11
11.3709724572
 21
2.9534092146
 70
163
 71
1
 42
20.0
  1
%%c<>\P{\Fgdt;x} 40\PCHAMFER 1 x 45%%d
  3
DIMSTYLE_4
100
AcDbDiametricDimension
 15
9.2989236299
 25
4.1023088858
  0
DIMENSION
  5
35D
100
AcDbEntity
  8
0
100
AcDbDimension
 62
2
  6
CONTINUOUS
  2
*D12
 10
9.3539962794
 20
5.2644454822
 11
8.6058110875
 21
5.2644455797
 70
160
 71
2
 42
195.0
  3
DIMSTYLE_1
100
AcDbAlignedDimension
 13
7.8185632086
 23
4.0460326415
 14
9.3539962794
 24
4.3434454095
100
AcDbRotatedDimension
  0
DIMENSION
  5
35E
100
AcDbEntity
  8
0
100
AcDbDimension
 62
2
  6
CONTINUOUS
  2
*D13
 10
9.3709110402
 20
4.2537036478
 11
11.2987936181
 21
4.9859329615
 70
163
 71
1
 42
8.0
  1
4 x M<> EQUISPACED\P{\Fgdt;x} 25\PON A n46 PCD
  3
DIMSTYLE_4
100
AcDbDiametricDimension
 15
9.3370815187
 25
4.2005663595
  0
ACAD_TABLE
  5
35F
100
AcDbEntity
  8
0
 62
2
  6
CONTINUOUS
100
AcDbBlockReference
  2
*T1
 10
0.4330708661
 20
11.5748031496
 30
0.0
100
AcDbTable
342
       3F1
343
219
 11
1.0
 21
0.0
 31
0.0
 90
22
 91
1
 92
10
 93
16
 94
0
 95
0
 96
0
 41
0.0157480315
141
0.157480315
142
1.4566929134
142
1.6141732283
142
1.6141732283
142
1.6141732283
142
1.6141732283
142
1.6141732283
142
1.6141732283
142
1.6141732283
142
1.6141732283
142
1.4566929134
171
1
172
0
173
0
174
0
175
1
176
1
 91
33
178
0
145
0.0
301
CELL_VALUE
 90
4
  1
1
304
ACVALUE_END
170
5
140
0.1181102362
171
1
172
0
173
0
174
0
175
1
176
1
 91
33
178
0
145
0.0
301
CELL_VALUE
 90
4
  1
2
304
ACVALUE_END
170
5
140
0.1181102362
171
1
172
0
173
0
174
0
175
1
176
1
 91
33
178
0
145
0.0
301
CELL_VALUE
 90
4
  1
3 
304
ACVALUE_END
170
5
140
0.1181102362
171
1
172
0
173
0
174
0
175
1
176
1
 91
33
178
0
145
0.0
301
CELL_VALUE
 90
4
  1
4
304
ACVALUE_END
170
5
140
0.1181102362
171
1
172
0
173
0
174
0
175
1
176
1
 91
33
178
0
145
0.0
301
CELL_VALUE
 90
4
  1
5
304
ACVALUE_END
170
5
140
0.1181102362
171
1
172
0
173
0
174
0
175
1
176
1
 91
33
178
0
145
0.0
301
CELL_VALUE
 90
4
  1
6
304
ACVALUE_END
170
5
140
0.1181102362
171
1
172
0
173
0
174
0
175
1
176
1
 91
33
178
0
145
0.0
301
CELL_VALUE
 90
4
  1
7
304
ACVALUE_END
170
5
140
0.1181102362
171
1
172
0
173
0
174
0
175
1
176
1
 91
33
178
0
145
0.0
301
CELL_VALUE
 90
4
  1
8
304
ACVALUE_END
170
5
140
0.1181102362
171
1
172
0
173
0
174
0
175
1
176
1
 91
33
178
0
145
0.0
301
CELL_VALUE
 90
4
  1
9
304
ACVALUE_END
170
5
140
0.1181102362
171
1
172
0
173
0
174
0
175
1
176
1
 91
33
178
0
145
0.0
301
CELL_VALUE
 90
4
  1
10
304
ACVALUE_END
170
5
140
0.1181102362
  0
ACAD_TABLE
  5
360
100
AcDbEntity
  8
0
 62
2
  6
CONTINUOUS
100
AcDbBlockReference
  2
*T2
 10
0.4330708661
 20
0.4330708661
 30
0.0
100
AcDbTable
342
       3F1
343
21A
 11
1.0
 21
0.0
 31
0.0
 90
22
 91
1
 92
10
 93
16
 94
0
 95
0
 96
0
 41
0.0157480315
141
0.157480315
142
1.4566929134
142
1.6141732283
142
1.6141732283
142
1.6141732283
142
1.6141732283
142
1.6141732283
142
1.6141732283
142
1.6141732283
142
1.6141732283
142
1.4566929134
171
1
172
0
173
0
174
0
175
1
176
1
 91
33
178
0
145
0.0
301
CELL_VALUE
 90
4
  1
1
304
ACVALUE_END
170
5
140
0.1181102362
171
1
172
0
173
0
174
0
175
1
176
1
 91
33
178
0
145
0.0
301
CELL_VALUE
 90
4
  1
2
304
ACVALUE_END
170
5
140
0.1181102362
171
1
172
0
173
0
174
0
175
1
176
1
 91
33
178
0
145
0.0
301
CELL_VALUE
 90
4
  1
3 
304
ACVALUE_END
170
5
140
0.1181102362
171
1
172
0
173
0
174
0
175
1
176
1
 91
33
178
0
145
0.0
301
CELL_VALUE
 90
4
  1
4 
304
ACVALUE_END
170
5
140
0.1181102362
171
1
172
0
173
0
174
0
175
1
176
1
 91
33
178
0
145
0.0
301
CELL_VALUE
 90
4
  1
5
304
ACVALUE_END
170
5
140
0.1181102362
171
1
172
0
173
0
174
0
175
1
176
1
 91
33
178
0
145
0.0
301
CELL_VALUE
 90
4
  1
6
304
ACVALUE_END
170
5
140
0.1181102362
171
1
172
0
173
0
174
0
175
1
176
1
 91
33
178
0
145
0.0
301
CELL_VALUE
 90
4
  1
7
304
ACVALUE_END
170
5
140
0.1181102362
171
1
172
0
173
0
174
0
175
1
176
1
 91
33
178
0
145
0.0
301
CELL_VALUE
 90
4
  1
8
304
ACVALUE_END
170
5
140
0.1181102362
171
1
172
0
173
0
174
0
175
1
176
1
 91
33
178
0
145
0.0
301
CELL_VALUE
 90
4
  1
9
304
ACVALUE_END
170
5
140
0.1181102362
171
1
172
0
173
0
174
0
175
1
176
1
 91
33
178
0
145
0.0
301
CELL_VALUE
 90
4
  1
10
304
ACVALUE_END
170
5
140
0.1181102362
  0
ACAD_TABLE
  5
361
100
AcDbEntity
  8
0
 62
2
  6
CONTINUOUS
100
AcDbBlockReference
  2
*T3
 10
0.2755905512
 20
11.4173228346
 30
0.0
100
AcDbTable
342
       3F1
343
21B
 11
1.0
 21
0.0
 31
0.0
 90
22
 91
10
 92
1
 93
0
 94
0
 95
0
 96
0
141
1.0984251969
141
1.0984251969
141
1.0984251969
141
1.0984251969
141
1.0984251969
141
1.0984251969
141
1.0984251969
141
1.0984251969
141
1.0984251969
141
1.0984251969
142
0.157480315
171
1
172
0
173
0
174
0
175
1
176
1
 91
33
178
0
145
0.0
301
CELL_VALUE
 90
4
  1
A
304
ACVALUE_END
170
5
140
0.1181102362
171
1
172
0
173
0
174
0
175
1
176
1
 91
33
178
0
145
0.0
301
CELL_VALUE
 90
4
  1
B
304
ACVALUE_END
170
5
140
0.1181102362
171
1
172
0
173
0
174
0
175
1
176
1
 91
33
178
0
145
0.0
301
CELL_VALUE
 90
4
  1
C
304
ACVALUE_END
170
5
140
0.1181102362
171
1
172
0
173
0
174
0
175
1
176
1
 91
33
178
0
145
0.0
301
CELL_VALUE
 90
4
  1
D
304
ACVALUE_END
170
5
140
0.1181102362
171
1
172
0
173
0
174
0
175
1
176
1
 91
33
178
0
145
0.0
301
CELL_VALUE
 90
4
  1
E
304
ACVALUE_END
170
5
140
0.1181102362
171
1
172
0
173
0
174
0
175
1
176
1
 91
33
178
0
145
0.0
301
CELL_VALUE
 90
4
  1
F
304
ACVALUE_END
170
5
140
0.1181102362
171
1
172
0
173
0
174
0
175
1
176
1
 91
33
178
0
145
0.0
301
CELL_VALUE
 90
4
  1
G
304
ACVALUE_END
170
5
140
0.1181102362
171
1
172
0
173
0
174
0
175
1
176
1
 91
33
178
0
145
0.0
301
CELL_VALUE
 90
4
  1
H
304
ACVALUE_END
170
5
140
0.1181102362
171
1
172
0
173
0
174
0
175
1
176
1
 91
33
178
0
145
0.0
301
CELL_VALUE
 90
4
  1
J
304
ACVALUE_END
170
5
140
0.1181102362
171
1
172
0
173
0
174
0
175
1
176
1
 91
33
178
0
145
0.0
301
CELL_VALUE
 90
4
  1
K
304
ACVALUE_END
170
5
140
0.1181102362
  0
ACAD_TABLE
  5
362
100
AcDbEntity
  8
0
 62
2
  6
CONTINUOUS
100
AcDbBlockReference
  2
*T4
 10
16.2598425197
 20
11.4173228346
 30
0.0
100
AcDbTable
342
       3F1
343
21C
 11
1.0
 21
0.0
 31
0.0
 90
22
 91
10
 92
1
 93
0
 94
0
 95
0
 96
0
141
1.0984251969
141
1.0984251969
141
1.0984251969
141
1.0984251969
141
1.0984251969
141
1.0984251969
141
1.0984251969
141
1.0984251969
141
1.0984251969
141
1.0984251969
142
0.157480315
171
1
172
0
173
0
174
0
175
1
176
1
 91
33
178
0
145
0.0
301
CELL_VALUE
 90
4
  1
A
304
ACVALUE_END
170
5
140
0.1181102362
171
1
172
0
173
0
174
0
175
1
176
1
 91
33
178
0
145
0.0
301
CELL_VALUE
 90
4
  1
B
304
ACVALUE_END
170
5
140
0.1181102362
171
1
172
0
173
0
174
0
175
1
176
1
 91
33
178
0
145
0.0
301
CELL_VALUE
 90
4
  1
C
304
ACVALUE_END
170
5
140
0.1181102362
171
1
172
0
173
0
174
0
175
1
176
1
 91
33
178
0
145
0.0
301
CELL_VALUE
 90
4
  1
D
304
ACVALUE_END
170
5
140
0.1181102362
171
1
172
0
173
0
174
0
175
1
176
1
 91
33
178
0
145
0.0
301
CELL_VALUE
 90
4
  1
E
304
ACVALUE_END
170
5
140
0.1181102362
171
1
172
0
173
0
174
0
175
1
176
1
 91
33
178
0
145
0.0
301
CELL_VALUE
 90
4
  1
F
304
ACVALUE_END
170
5
140
0.1181102362
171
1
172
0
173
0
174
0
175
1
176
1
 91
33
178
0
145
0.0
301
CELL_VALUE
 90
4
  1
G
304
ACVALUE_END
170
5
140
0.1181102362
171
1
172
0
173
0
174
0
175
1
176
1
 91
33
178
0
145
0.0
301
CELL_VALUE
 90
4
  1
H
304
ACVALUE_END
170
5
140
0.1181102362
171
1
172
0
173
0
174
0
175
1
176
1
 91
33
178
0
145
0.0
301
CELL_VALUE
 90
4
  1
J
304
ACVALUE_END
170
5
140
0.1181102362
171
1
172
0
173
0
174
0
175
1
176
1
 91
33
178
0
145
0.0
301
CELL_VALUE
 90
4
  1
K
304
ACVALUE_END
170
5
140
0.1181102362
  0
ACAD_TABLE
  5
363
100
AcDbEntity
  8
0
 62
2
  6
CONTINUOUS
100
AcDbBlockReference
  2
*T5
 10
0.4330708661
 20
11.4173228346
 30
0.0
100
AcDbTable
342
       3F1
343
21D
 11
1.0
 21
0.0
 31
0.0
 90
22
 91
2
 92
2
 93
16
 94
0
 95
0
 96
0
 41
0.0
141
0.2952755906
141
0.1377952756
142
1.3779527559
142
0.3937007874
171
1
172
0
173
0
174
0
175
1
176
1
 91
33
178
0
145
0.0
301
CELL_VALUE
 90
4
  1
 
304
ACVALUE_END
170
5
140
0.0984251969
171
1
172
0
173
0
174
0
175
1
176
1
 91
33
178
0
145
0.0
301
CELL_VALUE
 90
4
  1
SHEET\P1 of 1
304
ACVALUE_END
170
5
140
0.0590551181
171
1
172
0
173
0
174
0
175
1
176
1
 91
33
178
0
145
0.0
301
CELL_VALUE
 90
4
  1
PART A3 DWG-01
304
ACVALUE_END
170
5
140
0.0787401575
171
1
172
0
173
0
174
0
175
1
176
1
 91
33
178
0
145
0.0
301
CELL_VALUE
 90
4
  1
 
304
ACVALUE_END
170
1
140
0.0061515748
  0
ACAD_TABLE
  5
364
100
AcDbEntity
  8
0
 62
2
  6
CONTINUOUS
100
AcDbBlockReference
  2
*T6
 10
0.4330917283
 20
1.8505122202
 30
0.0
100
AcDbTable
342
       3F1
343
21E
 11
1.0
 21
0.0
 31
0.0
 90
22
 91
7
 92
14
 93
16
 94
0
 95
0
 96
0
 41
0.0
141
0.1377952756
141
0.1377952756
141
0.1377952756
141
0.1377952756
141
0.2755905512
141
0.2952755906
141
0.2952755906
142
0.3149606299
142
0.4724409449
142
1.968503937
142
0.5511811024
142
0.5511811024
142
0.5511811024
142
0.7086614173
142
1.2204724409
142
1.2204724409
142
2.9527559055
142
0.688976378
142
0.688976378
142
2.3622047244
142
1.5748031496
171
1
172
0
173
0
174
0
175
1
176
5
 91
33
178
0
145
0.0
301
CELL_VALUE
 90
4
  1
 1
304
ACVALUE_END
170
5
140
0.0787401575
171
1
172
0
173
0
174
0
175
1
176
5
 91
33
178
0
145
0.0
301
CELL_VALUE
 90
4
  1
 
304
ACVALUE_END
170
5
140
0.0787401575
171
1
172
0
173
0
174
0
175
1
176
5
 91
33
178
0
145
0.0
301
CELL_VALUE
 90
4
  1
FIRST ISSUE
304
ACVALUE_END
170
5
140
0.0787401575
171
1
172
0
173
0
174
0
175
1
176
5
 91
33
178
0
145
0.0
301
CELL_VALUE
 90
4
  1
 HLQ
304
ACVALUE_END
170
5
140
0.0787401575
171
1
172
0
173
0
174
0
175
1
176
5
 91
33
178
0
145
0.0
301
CELL_VALUE
 90
4
  1
 
304
ACVALUE_END
170
5
140
0.0787401575
171
1
172
0
173
0
174
0
175
1
176
5
 91
33
178
0
145
0.0
301
CELL_VALUE
 90
4
  1
 
304
ACVALUE_END
170
5
140
0.0787401575
171
1
172
0
173
0
174
0
175
1
176
5
 91
33
178
0
145
0.0
301
CELL_VALUE
 90
4
  1
05.02.18 
304
ACVALUE_END
170
5
140
0.0787401575
171
1
172
0
173
0
174
0
175
1
176
2
 91
33
178
0
145
0.0
301
CELL_VALUE
 90
4
  1
UNSPECIFIED DETAIL
304
ACVALUE_END
170
5
140
0.0787401575
171
1
172
0
173
0
174
0
175
1
176
2
 91
33
178
0
145
0.0
301
CELL_VALUE
 90
4
  1
UNSPECIFIED TOL.
304
ACVALUE_END
170
5
140
0.0787401575
171
1
172
0
173
0
174
0
175
1
176
2
 91
33
178
0
145
0.0
301
CELL_VALUE
 90
4
  1
MATERIAL: AS SUPPLIED 
304
ACVALUE_END
170
4
140
0.0787401575
171
1
172
0
173
0
174
0
175
1
176
2
 91
33
178
0
145
0.0
301
CELL_VALUE
 90
4
  1
DRAWN BY\PHLQ 
304
ACVALUE_END
170
2
140
0.0688976378
171
1
172
0
173
0
174
0
175
1
176
2
 91
33
178
0
145
0.0
301
CELL_VALUE
 90
4
  1
DATE\P05.02.18 
304
ACVALUE_END
170
2
140
0.0688976378
171
1
172
0
173
0
174
0
175
2
176
1
 91
33
178
0
145
0.0
301
CELL_VALUE
 90
4
  1
TITLE
304
ACVALUE_END
170
4
140
0.0787401575
171
1
172
0
173
1
174
0
175
1
176
1
 91
1
178
0
145
0.0
170
1
171
1
172
0
173
1
174
0
175
1
176
1
 91
1
178
0
145
0.0
170
1
171
1
172
0
173
1
174
0
175
1
176
1
 91
1
178
0
145
0.0
170
1
171
1
172
0
173
1
174
0
175
1
176
1
 91
1
178
0
145
0.0
170
1
171
1
172
0
173
1
174
0
175
1
176
1
 91
1
178
0
145
0.0
170
1
171
1
172
0
173
1
174
0
175
1
176
1
 91
1
178
0
145
0.0
170
1
171
1
172
0
173
1
174
0
175
1
176
1
 91
1
178
0
145
0.0
170
1
171
1
172
0
173
1
174
0
175
1
176
1
 91
1
178
0
145
0.0
170
1
171
1
172
0
173
1
174
0
175
1
176
1
 91
1
178
0
145
0.0
170
1
171
1
172
0
173
1
174
0
175
1
176
1
 91
1
178
0
145
0.0
170
1
171
1
172
0
173
1
174
0
175
1
176
1
 91
1
178
0
145
0.0
170
1
171
1
172
0
173
1
174
0
175
1
176
1
 91
1
178
0
145
0.0
170
1
171
1
172
0
173
1
174
0
175
1
176
1
 91
1
178
0
145
0.0
170
1
171
1
172
0
173
0
174
0
175
2
176
2
 91
33
178
0
145
0.0
301
CELL_VALUE
 90
4
  1
HINGE
304
ACVALUE_END
170
5
140
0.1181102362
171
1
172
0
173
1
174
0
175
1
176
1
 91
1
178
0
145
0.0
170
1
171
1
172
0
173
1
174
0
175
1
176
1
 91
1
178
0
145
0.0
170
1
171
1
172
0
173
1
174
0
175
1
176
1
 91
1
178
0
145
0.0
170
1
171
1
172
0
173
1
174
0
175
1
176
1
 91
1
178
0
145
0.0
170
1
171
1
172
0
173
1
174
0
175
1
176
1
 91
1
178
0
145
0.0
170
1
171
1
172
0
173
1
174
0
175
1
176
1
 91
1
178
0
145
0.0
170
1
171
1
172
0
173
1
174
0
175
1
176
1
 91
1
178
0
145
0.0
170
1
171
1
172
0
173
1
174
0
175
1
176
1
 91
1
178
0
145
0.0
170
1
171
1
172
0
173
0
174
0
175
1
176
5
 91
33
178
0
145
0.0
301
CELL_VALUE
 90
4
  1
BREAK ALL\PSHARP EDGES
304
ACVALUE_END
170
1
140
0.0984251969
171
1
172
0
173
0
174
0
175
1
176
5
 91
49
178
0
145
0.0
  7
TEXTSTYLE_1
301
CELL_VALUE
 90
4
  1
{\Fgdt;`}\Ftxt;0.2
304
ACVALUE_END
170
1
140
0.0984251969
171
1
172
0
173
0
174
0
175
1
176
2
 91
33
178
0
145
0.0
301
CELL_VALUE
 90
4
  1
FINISH:  AS SUPPLIED
304
ACVALUE_END
170
4
140
0.0787401575
171
1
172
0
173
0
174
0
175
1
176
2
 91
33
178
0
145
0.0
301
CELL_VALUE
 90
4
  1
CHECKED BY\P 
304
ACVALUE_END
170
2
140
0.0688976378
171
1
172
0
173
0
174
0
175
1
176
2
 91
33
178
0
145
0.0
301
CELL_VALUE
 90
4
  1
DATE\P 
304
ACVALUE_END
170
2
140
0.0688976378
171
1
172
0
173
1
174
0
175
1
176
1
 91
1
178
0
145
0.0
170
1
171
1
172
0
173
1
174
0
175
1
176
1
 91
1
178
0
145
0.0
170
1
171
1
172
0
173
1
174
0
175
1
176
1
 91
1
178
0
145
0.0
170
1
171
1
172
0
173
1
174
0
175
1
176
1
 91
1
178
0
145
0.0
170
1
171
1
172
0
173
1
174
0
175
1
176
1
 91
1
178
0
145
0.0
170
1
171
1
172
0
173
1
174
0
175
1
176
1
 91
1
178
0
145
0.0
170
1
171
1
172
0
173
1
174
0
175
1
176
1
 91
1
178
0
145
0.0
170
1
171
1
172
0
173
1
174
0
175
1
176
1
 91
1
178
0
145
0.0
170
1
171
1
172
0
173
1
174
0
175
1
176
1
 91
1
178
0
145
0.0
170
1
171
1
172
0
173
1
174
0
175
1
176
1
 91
1
178
0
145
0.0
170
1
171
1
172
0
173
1
174
0
175
1
176
1
 91
1
178
0
145
0.0
170
1
171
1
172
0
173
1
174
0
175
1
176
1
 91
1
178
0
145
0.0
170
1
171
1
172
0
173
1
174
0
175
1
176
1
 91
1
178
0
145
0.0
170
1
171
1
172
0
173
1
174
0
175
1
176
1
 91
1
178
0
145
0.0
170
1
171
1
172
0
173
0
174
0
175
1
176
1
 91
33
178
0
145
0.0
301
CELL_VALUE
 90
4
  1
DOCUMENT REFERENCE NUMBER
304
ACVALUE_END
170
4
140
0.0787401575
171
1
172
0
173
0
174
0
175
1
176
1
 91
33
178
0
145
0.0
301
CELL_VALUE
 90
4
  1
PART NUMBER
304
ACVALUE_END
170
5
140
0.0787401575
171
1
172
0
173
1
174
0
175
1
176
1
 91
1
178
0
145
0.0
170
1
171
1
172
0
173
1
174
0
175
1
176
1
 91
1
178
0
145
0.0
170
1
171
1
172
0
173
1
174
0
175
1
176
1
 91
1
178
0
145
0.0
170
1
171
1
172
0
173
1
174
0
175
1
176
1
 91
1
178
0
145
0.0
170
1
171
1
172
0
173
1
174
0
175
1
176
1
 91
1
178
0
145
0.0
170
1
171
1
172
0
173
1
174
0
175
1
176
1
 91
1
178
0
145
0.0
170
1
171
1
172
0
173
1
174
0
175
1
176
1
 91
1
178
0
145
0.0
170
1
171
1
172
0
173
1
174
0
175
1
176
1
 91
1
178
0
145
0.0
170
1
171
1
172
0
173
1
174
0
175
1
176
1
 91
1
178
0
145
0.0
170
1
171
1
172
0
173
0
174
0
175
1
176
3
 91
33
178
0
145
0.0
301
CELL_VALUE
 90
4
  1
 
304
ACVALUE_END
170
1
140
0.0492125984
171
1
172
0
173
0
174
0
175
1
176
1
 91
33
178
0
145
0.0
301
CELL_VALUE
 90
4
  1
APPROVED BY\P 
304
ACVALUE_END
170
2
140
0.0688976378
171
1
172
0
173
0
174
0
175
1
176
1
 91
33
178
0
145
0.0
301
CELL_VALUE
 90
4
  1
DATE\P 
304
ACVALUE_END
170
2
140
0.0688976378
171
1
172
0
173
0
174
0
175
1
176
1
 91
33
178
0
145
0.0
301
CELL_VALUE
 90
4
  1
 
304
ACVALUE_END
170
5
140
0.1181102362
171
1
172
0
173
0
174
0
175
1
176
1
 91
33
178
0
145
0.0
301
CELL_VALUE
 90
4
  1
HSR-1004-02 
304
ACVALUE_END
170
5
140
0.1181102362
171
1
172
0
173
0
174
0
175
1
176
1
 91
33
178
0
145
0.0
301
CELL_VALUE
 90
4
  1
VER
304
ACVALUE_END
170
5
140
0.0984251969
171
1
172
0
173
0
174
0
175
1
176
1
 91
33
178
0
145
0.0
301
CELL_VALUE
 90
4
  1
ECN
304
ACVALUE_END
170
5
140
0.0984251969
171
1
172
0
173
0
174
0
175
1
176
1
 91
33
178
0
145
0.0
301
CELL_VALUE
 90
4
  1
DETAILS OF MODIFICATION
304
ACVALUE_END
170
5
140
0.0787401575
171
1
172
0
173
0
174
0
175
1
176
1
 91
33
178
0
145
0.0
301
CELL_VALUE
 90
4
  1
DWN
304
ACVALUE_END
170
5
140
0.0984251969
171
1
172
0
173
0
174
0
175
1
176
1
 91
33
178
0
145
0.0
301
CELL_VALUE
 90
4
  1
CHKD
304
ACVALUE_END
170
5
140
0.0984251969
171
1
172
0
173
0
174
0
175
1
176
1
 91
33
178
0
145
0.0
301
CELL_VALUE
 90
4
  1
APPR
304
ACVALUE_END
170
5
140
0.0984251969
171
1
172
0
173
0
174
0
175
1
176
1
 91
33
178
0
145
0.0
301
CELL_VALUE
 90
4
  1
DATE
304
ACVALUE_END
170
5
140
0.0984251969
171
1
172
0
173
1
174
0
175
1
176
1
 91
1
178
0
145
0.0
170
1
171
1
172
0
173
1
174
0
175
1
176
1
 91
1
178
0
145
0.0
170
1
171
1
172
0
173
1
174
0
175
1
176
1
 91
1
178
0
145
0.0
170
1
171
1
172
0
173
0
174
0
175
1
176
1
 91
33
178
0
145
0.0
301
CELL_VALUE
 90
4
  1
SHEET SCALE
304
ACVALUE_END
170
5
140
0.0688976378
171
1
172
0
173
0
174
0
175
1
176
1
 91
33
178
0
145
0.0
301
CELL_VALUE
 90
4
  1
0.200
304
ACVALUE_END
170
5
140
0.0688976378
171
1
172
0
173
0
174
0
175
2
176
1
 91
33
178
0
145
0.0
301
CELL_VALUE
 90
4
  1
USED ON:  HSR-1000-01  
304
ACVALUE_END
170
5
140
0.0984251969
171
1
172
0
173
1
174
0
175
1
176
1
 91
1
178
0
145
0.0
170
1
171
1
172
0
173
0
174
0
175
7
176
1
 91
33
178
0
145
0.0
301
CELL_VALUE
 90
4
  1
VERSIONS 
304
ACVALUE_END
170
5
140
0.0984251969
171
1
172
0
173
1
174
0
175
1
176
1
 91
1
178
0
145
0.0
170
1
171
1
172
0
173
1
174
0
175
1
176
1
 91
1
178
0
145
0.0
170
1
171
1
172
0
173
1
174
0
175
1
176
1
 91
1
178
0
145
0.0
170
1
171
1
172
0
173
1
174
0
175
1
176
1
 91
1
178
0
145
0.0
170
1
171
1
172
0
173
1
174
0
175
1
176
1
 91
1
178
0
145
0.0
170
1
171
1
172
0
173
1
174
0
175
1
176
1
 91
1
178
0
145
0.0
170
1
171
1
172
0
173
1
174
0
175
1
176
1
 91
1
178
0
145
0.0
170
1
171
1
172
0
173
1
174
0
175
1
176
1
 91
1
178
0
145
0.0
170
1
171
1
172
0
173
1
174
0
175
1
176
1
 91
1
178
0
145
0.0
170
1
171
1
172
0
173
0
174
0
175
1
176
1
 91
33
178
0
145
0.0
301
CELL_VALUE
 90
4
  1
ESTIMATED \PMASS KG. 
304
ACVALUE_END
170
5
140
0.0688976378
171
1
172
0
173
0
174
0
175
1
176
1
 91
33
178
0
145
0.0
301
CELL_VALUE
 90
4
  1
 
304
ACVALUE_END
170
5
140
0.0787401575
171
1
172
0
173
0
174
0
175
2
176
1
 91
33
178
0
145
0.0
301
CELL_VALUE
 90
4
  1
HSR-1004-27 
304
ACVALUE_END
170
5
140
0.0787401575
171
1
172
0
173
1
174
0
175
1
176
1
 91
1
178
0
145
0.0
170
1
  0
MTEXT
  5
365
100
AcDbEntity
  8
0
100
AcDbMText
 62
2
  6
CONTINUOUS
  7
TEXTSTYLE_1
 71
1
 72
1
 10
7.7375837743
 20
3.2697110154
 30
0.0
 11
1.0
 21
0.0
 31
0.0
 44
0.9
  1
{\Fgdt;q}
 40
0.15625
 41
0.2473958333
  0
MTEXT
  5
366
100
AcDbEntity
  8
0
100
AcDbMText
 62
2
  6
CONTINUOUS
  7
TEXTSTYLE_1
 71
1
 72
1
 10
2.596065845
 20
4.1324127777
 30
0.0
 11
1.0
 21
0.0
 31
0.0
 44
0.9
  1
{\Fgdt;q}
 40
0.15625
 41
0.2473958333
  0
MTEXT
  5
367
100
AcDbEntity
  8
0
100
AcDbMText
 62
2
  6
CONTINUOUS
  7
TEXTSTYLE_1
 71
1
 72
1
 10
7.7339570166
 20
6.9665321832
 30
0.0
 11
1.0
 21
0.0
 31
0.0
 44
0.9
  1
{\Fgdt;q}
 40
0.15625
 41
0.2473958333
  0
LINE
  5
368
100
AcDbEntity
  8
0
100
AcDbLine
 62
7
  6
CONTINUOUS
 10
0.2755905512
 20
11.4173228346
 11
0.4330708661
 21
11.5748031496
  0
LINE
  5
369
100
AcDbEntity
  8
0
100
AcDbLine
 62
7
  6
CONTINUOUS
 10
0.2755905512
 20
11.4173228346
 11
0.2755905512
 21
11.5748031496
  0
LINE
  5
36A
100
AcDbEntity
  8
0
100
AcDbLine
 62
7
  6
CONTINUOUS
 10
0.2755905512
 20
11.5748031496
 11
0.4330708661
 21
11.5748031496
  0
HATCH
  5
36B
100
AcDbEntity
  8
0
100
AcDbHatch
 62
2
  6
CONTINUOUS
 10
0.0
 20
0.0
 30
0.0
210
0.0
220
0.0
230
1.0
  2
XSEC0002
 70
1
 71
1
 91
1
 92
1
 93
3
 72
1
 10
0.2755905512
 20
11.5748031496
 11
0.4330708661
 21
11.5748031496
 72
1
 10
0.2755905512
 20
11.4173228346
 11
0.2755905512
 21
11.5748031496
 72
1
 10
0.2755905512
 20
11.4173228346
 11
0.4330708661
 21
11.5748031496
 97
3
330
368
330
369
330
36A
 75
0
 76
1
 98
1
 10
0.0
 20
0.0
  0
LINE
  5
36C
100
AcDbEntity
  8
0
100
AcDbLine
 62
7
  6
CONTINUOUS
 10
0.4330708661
 20
0.2755905512
 11
0.2755905512
 21
0.4330708661
  0
LINE
  5
36D
100
AcDbEntity
  8
0
100
AcDbLine
 62
7
  6
CONTINUOUS
 10
0.2755905512
 20
0.2755905512
 11
0.2755905512
 21
0.4330708661
  0
LINE
  5
36E
100
AcDbEntity
  8
0
100
AcDbLine
 62
7
  6
CONTINUOUS
 10
0.2755905512
 20
0.2755905512
 11
0.4330708661
 21
0.2755905512
  0
HATCH
  5
36F
100
AcDbEntity
  8
0
100
AcDbHatch
 62
2
  6
CONTINUOUS
 10
0.0
 20
0.0
 30
0.0
210
0.0
220
0.0
230
1.0
  2
XSEC0001
 70
1
 71
1
 91
1
 92
1
 93
3
 72
1
 10
0.2755905512
 20
0.2755905512
 11
0.2755905512
 21
0.4330708661
 72
1
 10
0.2755905512
 20
0.2755905512
 11
0.4330708661
 21
0.2755905512
 72
1
 10
0.4330708661
 20
0.2755905512
 11
0.2755905512
 21
0.4330708661
 97
3
330
36C
330
36D
330
36E
 75
0
 76
1
 98
1
 10
0.0
 20
0.0
  0
LINE
  5
370
100
AcDbEntity
  8
0
100
AcDbLine
 62
7
  6
CONTINUOUS
 10
0.4392224409
 20
0.6631397638
 11
0.4269192913
 21
0.6754429134
  0
LINE
  5
371
100
AcDbEntity
  8
0
100
AcDbLine
 62
7
  6
CONTINUOUS
 10
0.2755905512
 20
0.4330708661
 11
0.2755905512
 21
11.4173228346
  0
LINE
  5
372
100
AcDbEntity
  8
0
100
AcDbLine
 62
7
  6
CONTINUOUS
 10
0.4330708661
 20
0.2755905512
 11
0.4330708661
 21
0.4330708661
  0
LINE
  5
373
100
AcDbEntity
  8
0
100
AcDbLine
 62
7
  6
CONTINUOUS
 10
0.4330708661
 20
11.4173228346
 11
0.4330708661
 21
11.5748031496
  0
LINE
  5
374
100
AcDbEntity
  8
0
100
AcDbLine
 62
7
  6
CONTINUOUS
 10
2.9982775591
 20
0.6631397638
 11
2.9859744094
 21
0.6754429134
  0
LINE
  5
375
100
AcDbEntity
  8
0
100
AcDbLine
 62
7
  6
CONTINUOUS
 10
0.4330708661
 20
0.2755905512
 11
16.2598425197
 21
0.2755905512
  0
LINE
  5
376
100
AcDbEntity
  8
0
100
AcDbLine
 62
7
  6
CONTINUOUS
 10
16.2598425197
 20
0.2755905512
 11
16.4173228346
 21
0.2755905512
  0
LINE
  5
377
100
AcDbEntity
  8
0
100
AcDbLine
 62
7
  6
CONTINUOUS
 10
16.4173228346
 20
0.2755905512
 11
16.4173228346
 21
0.4330708661
  0
LINE
  5
378
100
AcDbEntity
  8
0
100
AcDbLine
 62
7
  6
CONTINUOUS
 10
16.4173228346
 20
0.4330708661
 11
16.2598425197
 21
0.2755905512
  0
HATCH
  5
379
100
AcDbEntity
  8
0
100
AcDbHatch
 62
2
  6
CONTINUOUS
 10
0.0
 20
0.0
 30
0.0
210
0.0
220
0.0
230
1.0
  2
XSEC0004
 70
1
 71
1
 91
1
 92
1
 93
3
 72
1
 10
16.4173228346
 20
0.2755905512
 11
16.4173228346
 21
0.4330708661
 72
1
 10
16.4173228346
 20
0.4330708661
 11
16.2598425197
 21
0.2755905512
 72
1
 10
16.2598425197
 20
0.2755905512
 11
16.4173228346
 21
0.2755905512
 97
3
330
376
330
377
330
378
 75
0
 76
1
 98
1
 10
0.0
 20
0.0
  0
LINE
  5
37A
100
AcDbEntity
  8
0
100
AcDbLine
 62
7
  6
CONTINUOUS
 10
0.2755905512
 20
0.4330708661
 11
0.4330708661
 21
0.4330708661
  0
LINE
  5
37B
100
AcDbEntity
  8
0
100
AcDbLine
 62
7
  6
CONTINUOUS
 10
16.2598425197
 20
0.4330708661
 11
16.4173228346
 21
0.4330708661
  0
LINE
  5
37C
100
AcDbEntity
  8
0
100
AcDbLine
 62
7
  6
CONTINUOUS
 10
6.7778051181
 20
0.4269192913
 11
6.7655019685
 21
0.4392224409
  0
LINE
  5
37D
100
AcDbEntity
  8
0
100
AcDbLine
 62
7
  6
CONTINUOUS
 10
7.9982775591
 20
0.4269192913
 11
7.9859744094
 21
0.4392224409
  0
LINE
  5
37E
100
AcDbEntity
  8
0
100
AcDbLine
 62
7
  6
CONTINUOUS
 10
0.4392224409
 20
0.6754429134
 11
0.4269192913
 21
0.6631397638
  0
LINE
  5
37F
100
AcDbEntity
  8
0
100
AcDbLine
 62
7
  6
CONTINUOUS
 10
10.9510334646
 20
0.4269192913
 11
10.938730315
 21
0.4392224409
  0
LINE
  5
380
100
AcDbEntity
  8
0
100
AcDbLine
 62
7
  6
CONTINUOUS
 10
12.3289862205
 20
0.4269192913
 11
12.3166830709
 21
0.4392224409
  0
LINE
  5
381
100
AcDbEntity
  8
0
100
AcDbLine
 62
7
  6
CONTINUOUS
 10
2.9982775591
 20
0.6754429134
 11
2.9859744094
 21
0.6631397638
  0
LINE
  5
382
100
AcDbEntity
  8
0
100
AcDbLine
 62
7
  6
CONTINUOUS
 10
6.7778051181
 20
0.4392224409
 11
6.7655019685
 21
0.4269192913
  0
LINE
  5
383
100
AcDbEntity
  8
0
100
AcDbLine
 62
7
  6
CONTINUOUS
 10
7.9982775591
 20
0.4392224409
 11
7.9859744094
 21
0.4269192913
  0
LINE
  5
384
100
AcDbEntity
  8
0
100
AcDbLine
 62
7
  6
CONTINUOUS
 10
10.9510334646
 20
0.4392224409
 11
10.938730315
 21
0.4269192913
  0
LINE
  5
385
100
AcDbEntity
  8
0
100
AcDbLine
 62
7
  6
CONTINUOUS
 10
0.2755905512
 20
11.4173228346
 11
0.4330708661
 21
11.4173228346
  0
LINE
  5
386
100
AcDbEntity
  8
0
100
AcDbLine
 62
7
  6
CONTINUOUS
 10
16.2598425197
 20
11.4173228346
 11
16.4173228346
 21
11.4173228346
  0
LINE
  5
387
100
AcDbEntity
  8
0
100
AcDbLine
 62
7
  6
CONTINUOUS
 10
0.4330708661
 20
11.5748031496
 11
16.2598425197
 21
11.5748031496
  0
LINE
  5
388
100
AcDbEntity
  8
0
100
AcDbLine
 62
7
  6
CONTINUOUS
 10
16.2598425197
 20
11.5748031496
 11
16.4173228346
 21
11.5748031496
  0
LINE
  5
389
100
AcDbEntity
  8
0
100
AcDbLine
 62
7
  6
CONTINUOUS
 10
16.4173228346
 20
11.4173228346
 11
16.4173228346
 21
11.5748031496
  0
LINE
  5
38A
100
AcDbEntity
  8
0
100
AcDbLine
 62
7
  6
CONTINUOUS
 10
16.2598425197
 20
11.5748031496
 11
16.4173228346
 21
11.4173228346
  0
HATCH
  5
38B
100
AcDbEntity
  8
0
100
AcDbHatch
 62
2
  6
CONTINUOUS
 10
0.0
 20
0.0
 30
0.0
210
0.0
220
0.0
230
1.0
  2
XSEC0003
 70
1
 71
1
 91
1
 92
1
 93
3
 72
1
 10
16.4173228346
 20
11.4173228346
 11
16.4173228346
 21
11.5748031496
 72
1
 10
16.2598425197
 20
11.5748031496
 11
16.4173228346
 21
11.4173228346
 72
1
 10
16.2598425197
 20
11.5748031496
 11
16.4173228346
 21
11.5748031496
 97
3
330
388
330
389
330
38A
 75
0
 76
1
 98
1
 10
0.0
 20
0.0
  0
LINE
  5
38C
100
AcDbEntity
  8
0
100
AcDbLine
 62
7
  6
CONTINUOUS
 10
12.3289862205
 20
0.4392224409
 11
12.3166830709
 21
0.4269192913
  0
LINE
  5
38D
100
AcDbEntity
  8
0
100
AcDbLine
 62
7
  6
CONTINUOUS
 10
16.2598425197
 20
0.2755905512
 11
16.2598425197
 21
0.4330708661
  0
LINE
  5
38E
100
AcDbEntity
  8
0
100
AcDbLine
 62
7
  6
CONTINUOUS
 10
16.2598425197
 20
11.4173228346
 11
16.2598425197
 21
11.5748031496
  0
LINE
  5
38F
100
AcDbEntity
  8
0
100
AcDbLine
 62
7
  6
CONTINUOUS
 10
16.4173228346
 20
0.4330708661
 11
16.4173228346
 21
11.4173228346
  0
LINE
  5
390
100
AcDbEntity
  8
0
100
AcDbLine
 62
7
  6
CONTINUOUS
 10
3.0154136023
 20
3.7310720116
 11
3.0154136023
 21
4.3609932714
  0
LINE
  5
391
100
AcDbEntity
  8
02___PRT_ALL_AXES
100
AcDbLine
 62
7
  6
CENTER
 10
3.4878545472
 20
4.4003633502
 11
3.4878545472
 21
4.3334238652
  0
LINE
  5
392
100
AcDbEntity
  8
02___PRT_ALL_AXES
100
AcDbLine
 62
7
  6
CENTER
 10
3.4878545472
 20
4.0460326415
 11
3.4878545472
 21
3.7749223844
  0
LINE
  5
393
100
AcDbEntity
  8
02___PRT_ALL_AXES
100
AcDbLine
 62
7
  6
CENTER
 10
3.4878545472
 20
3.6917019328
 11
3.4878545472
 21
3.5602058698
  0
LINE
  5
394
100
AcDbEntity
  8
02___PRT_ALL_AXES
100
AcDbLine
 62
7
  6
CENTER
 10
3.4878545472
 20
3.6917019328
 11
3.4878545472
 21
3.7749223844
  0
LINE
  5
395
100
AcDbEntity
  8
02___PRT_ALL_AXES
100
AcDbLine
 62
7
  6
CENTER
 10
3.4878545472
 20
4.0460326415
 11
3.4878545472
 21
4.3171428986
  0
LINE
  5
396
100
AcDbEntity
  8
02___PRT_ALL_AXES
100
AcDbLine
 62
7
  6
CENTER
 10
3.4878545472
 20
4.4003633502
 11
3.4878545472
 21
4.4673028351
  0
LINE
  5
397
100
AcDbEntity
  8
0
100
AcDbLine
 62
7
  6
CONTINUOUS
 10
7.3461222637
 20
3.8098121691
 11
7.3461222637
 21
4.2822531139
  0
LINE
  5
398
100
AcDbEntity
  8
0
100
AcDbLine
 62
7
  6
CONTINUOUS
 10
8.6847049409
 20
3.4948515391
 11
6.9524214763
 21
3.4948515391
  0
LINE
  5
399
100
AcDbEntity
  8
0
100
AcDbLine
 62
7
  6
CONTINUOUS
 10
12.4642324999
 20
3.5735916966
 11
8.8930318157
 21
3.5735916966
  0
LINE
  5
39A
100
AcDbEntity
  8
0
100
AcDbLine
 62
7
  6
CONTINUOUS
 10
6.7440946014
 20
3.5735916966
 11
3.1728939172
 21
3.5735916966
  0
LINE
  5
39B
100
AcDbEntity
  8
02___PRT_ALL_AXES
100
AcDbLine
 62
7
  6
CENTER
 10
3.4878545472
 20
3.6917019328
 11
3.3563584842
 21
3.6917019328
  0
LINE
  5
39C
100
AcDbEntity
  8
02___PRT_ALL_AXES
100
AcDbLine
 62
7
  6
CENTER
 10
3.4878545472
 20
3.6917019328
 11
3.6193506102
 21
3.6917019328
  0
LINE
  5
39D
100
AcDbEntity
  8
0
100
AcDbLine
 62
7
  6
CONTINUOUS
 10
8.212263996
 20
3.7310720116
 11
7.4248624212
 21
3.7310720116
  0
LINE
  5
39E
100
AcDbEntity
  8
02___PRT_ALL_AXES
100
AcDbLine
 62
7
  6
CENTER
 10
7.8185632086
 20
3.3948515391
 11
7.8185632086
 21
4.6972137439
  0
LINE
  5
39F
100
AcDbEntity
  8
02___PRT_ALL_AXES
100
AcDbLine
 62
7
  6
CENTER
 10
9.3539962794
 20
3.8649302793
 11
9.2875417554
 21
3.8649302793
  0
LINE
  5
3A0
100
AcDbEntity
  8
02___PRT_ALL_AXES
100
AcDbLine
 62
7
  6
CENTER
 10
9.3539962794
 20
3.8649302793
 11
9.4204508035
 21
3.8649302793
  0
LINE
  5
3A1
100
AcDbEntity
  8
02___PRT_ALL_AXES
100
AcDbLine
 62
7
  6
CENTER
 10
2.9154136023
 20
4.0460326415
 11
12.7217128149
 21
4.0460326415
  0
LINE
  5
3A2
100
AcDbEntity
  8
02___PRT_ALL_AXES
100
AcDbLine
 62
7
  6
CENTER
 10
9.3539962794
 20
4.2271350037
 11
9.2942273572
 21
4.2271350037
  0
LINE
  5
3A3
100
AcDbEntity
  8
02___PRT_ALL_AXES
100
AcDbLine
 62
7
  6
CENTER
 10
9.3539962794
 20
4.2271350037
 11
9.4137652017
 21
4.2271350037
  0
LINE
  5
3A4
100
AcDbEntity
  8
0
100
AcDbLine
 62
7
  6
CONTINUOUS
 10
7.4248624212
 20
4.3609932714
 11
8.212263996
 21
4.3609932714
  0
LINE
  5
3A5
100
AcDbEntity
  8
02___PRT_ALL_AXES
100
AcDbLine
 62
7
  6
CENTER
 10
3.4878545472
 20
4.4003633502
 11
3.4209150622
 21
4.4003633502
  0
LINE
  5
3A6
100
AcDbEntity
  8
02___PRT_ALL_AXES
100
AcDbLine
 62
7
  6
CENTER
 10
3.4878545472
 20
4.4003633502
 11
3.5547940321
 21
4.4003633502
  0
LINE
  5
3A7
100
AcDbEntity
  8
0
100
AcDbLine
 62
7
  6
CONTINUOUS
 10
8.2910041535
 20
4.2822531139
 11
8.2910041535
 21
3.8098121691
  0
LINE
  5
3A8
100
AcDbEntity
  8
0
100
AcDbLine
 62
7
  6
CONTINUOUS
 10
3.1728939172
 20
4.5184735864
 11
6.7440946014
 21
4.5184735864
  0
LINE
  5
3A9
100
AcDbEntity
  8
0
100
AcDbLine
 62
7
  6
CONTINUOUS
 10
8.8930318157
 20
4.5184735864
 11
12.4642324999
 21
4.5184735864
  0
LINE
  5
3AA
100
AcDbEntity
  8
0
100
AcDbLine
 62
7
  6
CONTINUOUS
 10
6.9524214763
 20
4.5972137439
 11
8.6847049409
 21
4.5972137439
  0
LINE
  5
3AB
100
AcDbEntity
  8
02___PRT_ALL_AXES
100
AcDbLine
 62
7
  6
CENTER
 10
9.1728939172
 20
4.0460326415
 11
9.1728939172
 21
3.9788654483
  0
LINE
  5
3AC
100
AcDbEntity
  8
02___PRT_ALL_AXES
100
AcDbLine
 62
7
  6
CENTER
 10
9.1728939172
 20
4.0460326415
 11
9.1728939172
 21
4.1131998347
  0
LINE
  5
3AD
100
AcDbEntity
  8
02___PRT_ALL_AXES
100
AcDbLine
 62
7
  6
CENTER
 10
9.3539962794
 20
4.2271350037
 11
9.3539962794
 21
4.1673660814
  0
LINE
  5
3AE
100
AcDbEntity
  8
02___PRT_ALL_AXES
100
AcDbLine
 62
7
  6
CENTER
 10
9.3539962794
 20
4.0460326415
 11
9.3539962794
 21
3.9311134047
  0
LINE
  5
3AF
100
AcDbEntity
  8
02___PRT_ALL_AXES
100
AcDbLine
 62
7
  6
CENTER
 10
9.3539962794
 20
3.8649302793
 11
9.3539962794
 21
3.7984757552
  0
LINE
  5
3B0
100
AcDbEntity
  8
02___PRT_ALL_AXES
100
AcDbLine
 62
7
  6
CENTER
 10
9.3539962794
 20
3.8649302793
 11
9.3539962794
 21
3.9313848033
  0
LINE
  5
3B1
100
AcDbEntity
  8
02___PRT_ALL_AXES
100
AcDbLine
 62
7
  6
CENTER
 10
9.3539962794
 20
4.0460326415
 11
9.3539962794
 21
4.1609518783
  0
LINE
  5
3B2
100
AcDbEntity
  8
02___PRT_ALL_AXES
100
AcDbLine
 62
7
  6
CENTER
 10
9.3539962794
 20
4.2271350037
 11
9.3539962794
 21
4.286903926
  0
LINE
  5
3B3
100
AcDbEntity
  8
02___PRT_ALL_AXES
100
AcDbLine
 62
7
  6
CENTER
 10
9.5350986416
 20
4.0460326415
 11
9.5350986416
 21
3.9933718627
  0
LINE
  5
3B4
100
AcDbEntity
  8
02___PRT_ALL_AXES
100
AcDbLine
 62
7
  6
CENTER
 10
9.5350986416
 20
4.0460326415
 11
9.5350986416
 21
4.0986934203
  0
LINE
  5
3B5
100
AcDbEntity
  8
0
100
AcDbLine
 62
7
  6
CONTINUOUS
 10
12.6217128149
 20
4.3609932714
 11
12.6217128149
 21
3.7310720116
  0
LINE
  5
3B6
100
AcDbEntity
  8
0
100
AcDbLine
 62
7
  6
CONTINUOUS
 10
3.0154136023
 20
7.2070661025
 11
3.0154136023
 21
8.1519479923
  0
LINE
  5
3B7
100
AcDbEntity
  8
0
100
AcDbLine
 62
7
  6
CONTINUOUS
 10
3.1728939172
 20
7.2070661025
 11
3.1728939172
 21
8.1519479923
  0
LINE
  5
3B8
100
AcDbEntity
  8
0
100
AcDbLine
 62
7
  6
CONTINUOUS
 10
6.7440946014
 20
7.2070661025
 11
6.7440946014
 21
8.1519479923
  0
LINE
  5
3B9
100
AcDbEntity
  8
0
100
AcDbLine
 62
7
  6
CONTINUOUS
 10
6.9524214763
 20
7.2070661025
 11
6.9524214763
 21
8.1519479923
  0
LINE
  5
3BA
100
AcDbEntity
  8
0
100
AcDbLine
 62
7
  6
CONTINUOUS
 10
3.0154136023
 20
7.2070661025
 11
12.6217128149
 21
7.2070661025
  0
LINE
  5
3BB
100
AcDbEntity
  8
02___PRT_ALL_AXES
100
AcDbLine
 62
7
  6
CENTER
 10
7.8185632086
 20
8.2519479923
 11
7.8185632086
 21
7.1070661023
  0
LINE
  5
3BC
100
AcDbEntity
  8
02___PRT_ALL_AXES
100
AcDbLine
 62
7
  6
CENTER
 10
7.8185632086
 20
7.6795070474
 11
7.6004529724
 21
7.6795070474
  0
LINE
  5
3BD
100
AcDbEntity
  8
02___PRT_ALL_AXES
100
AcDbLine
 62
7
  6
CENTER
 10
7.8185632086
 20
7.6795070474
 11
8.0366734448
 21
7.6795070474
  0
LINE
  5
3BE
100
AcDbEntity
  8
0
100
AcDbLine
 62
7
  6
CONTINUOUS
 10
3.0154136023
 20
8.1519479923
 11
12.6217128149
 21
8.1519479923
  0
LINE
  5
3BF
100
AcDbEntity
  8
0
100
AcDbLine
 62
7
  6
CONTINUOUS
 10
8.6847049409
 20
7.2070661025
 11
8.6847049409
 21
8.1519479923
  0
LINE
  5
3C0
100
AcDbEntity
  8
0
100
AcDbLine
 62
7
  6
CONTINUOUS
 10
8.8930318157
 20
7.2070661025
 11
8.8930318157
 21
8.1519479923
  0
LINE
  5
3C1
100
AcDbEntity
  8
0
100
AcDbLine
 62
7
  6
CONTINUOUS
 10
12.4642324999
 20
7.2070661025
 11
12.4642324999
 21
8.1519479923
  0
LINE
  5
3C2
100
AcDbEntity
  8
0
100
AcDbLine
 62
7
  6
CONTINUOUS
 10
12.6217128149
 20
7.2070661025
 11
12.6217128149
 21
8.1519479923
  0
LINE
  5
3C3
100
AcDbEntity
  8
0
100
AcDbLine
 62
7
  6
CONTINUOUS
 10
13.7513501082
 20
7.2070661025
 11
13.7513501082
 21
8.1519479923
  0
LINE
  5
3C4
100
AcDbEntity
  8
0
100
AcDbLine
 62
7
  6
CONTINUOUS
 10
13.8300902657
 20
7.2070661025
 11
13.8300902657
 21
8.1519479923
  0
LINE
  5
3C5
100
AcDbEntity
  8
0
100
AcDbLine
 62
7
  6
CONTINUOUS
 10
13.7513501082
 20
7.2070661025
 11
14.8537123129
 21
7.2070661025
  0
LINE
  5
3C6
100
AcDbEntity
  8
0
100
AcDbLine
 62
7
  6
CONTINUOUS
 10
13.9875705807
 20
7.2070661025
 11
13.9875705807
 21
8.1519479923
  0
LINE
  5
3C7
100
AcDbEntity
  8
0
100
AcDbLine
 62
7
  6
CONTINUOUS
 10
14.6174918405
 20
7.2070661025
 11
14.6174918405
 21
8.1519479923
  0
LINE
  5
3C8
100
AcDbEntity
  8
0
100
AcDbLine
 62
7
  6
CONTINUOUS
 10
14.7749721555
 20
7.2070661025
 11
14.7749721555
 21
8.1519479923
  0
LINE
  5
3C9
100
AcDbEntity
  8
0
100
AcDbLine
 62
7
  6
CONTINUOUS
 10
13.7513501082
 20
8.1519479923
 11
14.8537123129
 21
8.1519479923
  0
LINE
  5
3CA
100
AcDbEntity
  8
0
100
AcDbLine
 62
7
  6
CONTINUOUS
 10
14.8537123129
 20
7.2070661025
 11
14.8537123129
 21
8.1519479923
  0
ARC
  5
3CB
100
AcDbEntity
  8
0
100
AcDbCircle
 62
7
  6
CONTINUOUS
 10
6.7440946014
 20
3.2586310667
 40
0.3149606299
100
AcDbArc
 50
48.5903778907
 51
90.0
  0
ARC
  5
3CC
100
AcDbEntity
  8
0
100
AcDbCircle
 62
7
  6
CONTINUOUS
 10
3.1728939172
 20
3.7310720116
 40
0.157480315
100
AcDbArc
 50
180.0
 51
270.0
  0
ARC
  5
3CD
100
AcDbEntity
  8
0
100
AcDbCircle
 62
7
  6
CONTINUOUS
 10
7.4248624212
 20
3.8098121691
 40
0.0787401575
100
AcDbArc
 50
180.0
 51
270.0
  0
CIRCLE
  5
3CE
100
AcDbEntity
  8
0
100
AcDbCircle
 62
7
  6
CONTINUOUS
 10
3.4878545472
 20
3.6917019328
 40
0.0354330709
  0
CIRCLE
  5
3CF
100
AcDbEntity
  8
0
100
AcDbCircle
 62
7
  6
CONTINUOUS
 10
3.4878545472
 20
3.6917019328
 40
0.031496063
  0
ARC
  5
3D0
100
AcDbEntity
  8
0
100
AcDbCircle
 62
7
  6
CONTINUOUS
 10
6.7440946014
 20
4.8334342163
 40
0.3149606299
100
AcDbArc
 50
270.0
 51
311.4096221093
  0
CIRCLE
  5
3D1
100
AcDbEntity
  8
0
100
AcDbCircle
 62
7
  6
CONTINUOUS
 10
3.4878545472
 20
4.0460326415
 40
0.2440944882
  0
CIRCLE
  5
3D2
100
AcDbEntity
  8
0
100
AcDbCircle
 62
7
  6
CONTINUOUS
 10
3.4878545472
 20
4.0460326415
 40
0.2362204724
  0
CIRCLE
  5
3D3
100
AcDbEntity
  8
0
100
AcDbCircle
 62
7
  6
CONTINUOUS
 10
3.4878545472
 20
4.0460326415
 40
0.2283464567
  0
ARC
  5
3D4
100
AcDbEntity
  8
0
100
AcDbCircle
 62
7
  6
CONTINUOUS
 10
3.1728939172
 20
4.3609932714
 40
0.157480315
100
AcDbArc
 50
90.0
 51
180.0
  0
ARC
  5
3D5
100
AcDbEntity
  8
0
100
AcDbCircle
 62
7
  6
CONTINUOUS
 10
7.4248624212
 20
4.2822531139
 40
0.0787401575
100
AcDbArc
 50
90.0
 51
180.0
  0
CIRCLE
  5
3D6
100
AcDbEntity
  8
0
100
AcDbCircle
 62
7
  6
CONTINUOUS
 10
3.4878545472
 20
4.4003633502
 40
0.0354330709
  0
CIRCLE
  5
3D7
100
AcDbEntity
  8
0
100
AcDbCircle
 62
7
  6
CONTINUOUS
 10
3.4878545472
 20
4.4003633502
 40
0.031496063
  0
ARC
  5
3D8
100
AcDbEntity
  8
0
100
AcDbCircle
 62
7
  6
CONTINUOUS
 10
8.8930318157
 20
3.2586310667
 40
0.3149606299
100
AcDbArc
 50
90.0
 51
131.4096221093
  0
ARC
  5
3D9
100
AcDbEntity
  8
0
100
AcDbCircle
 62
7
  6
CONTINUOUS
 10
12.4642324999
 20
3.7310720116
 40
0.157480315
100
AcDbArc
 50
270.0
 51
360.0
  0
ARC
  5
3DA
100
AcDbEntity
  8
0
100
AcDbCircle
 62
7
  6
CONTINUOUS
 10
8.212263996
 20
3.8098121691
 40
0.0787401575
100
AcDbArc
 50
270.0
 51
360.0
  0
CIRCLE
  5
3DB
100
AcDbEntity
  8
0
100
AcDbCircle
 62
7
  6
CONTINUOUS
 10
9.3539962794
 20
3.8649302793
 40
0.0354330709
  0
CIRCLE
  5
3DC
100
AcDbEntity
  8
0
100
AcDbCircle
 62
7
  6
CONTINUOUS
 10
9.3539962794
 20
3.8649302793
 40
0.031496063
  0
ARC
  5
3DD
100
AcDbEntity
  8
0
100
AcDbCircle
 62
7
  6
CONTINUOUS
 10
8.212263996
 20
4.2822531139
 40
0.0787401575
100
AcDbArc
 50
0.0
 51
90.0
  0
CIRCLE
  5
3DE
100
AcDbEntity
  8
0
100
AcDbCircle
 62
7
  6
CONTINUOUS
 10
9.3539962794
 20
4.0460326415
 40
0.0866141732
  0
CIRCLE
  5
3DF
100
AcDbEntity
  8
0
100
AcDbCircle
 62
7
  6
CONTINUOUS
 10
9.3539962794
 20
4.0460326415
 40
0.0787401575
  0
CIRCLE
  5
3E0
100
AcDbEntity
  8
0
100
AcDbCircle
 62
7
  6
CONTINUOUS
 10
9.3539962794
 20
4.0460326415
 40
0.0708661417
  0
CIRCLE
  5
3E1
100
AcDbEntity
  8
0
100
AcDbCircle
 62
7
  6
CONTINUOUS
 10
9.5350986416
 20
4.0460326415
 40
0.0354330709
  0
CIRCLE
  5
3E2
100
AcDbEntity
  8
0
100
AcDbCircle
 62
7
  6
CONTINUOUS
 10
9.1728939172
 20
4.0460326415
 40
0.0354330709
  0
CIRCLE
  5
3E3
100
AcDbEntity
  8
0
100
AcDbCircle
 62
7
  6
CONTINUOUS
 10
9.1728939172
 20
4.0460326415
 40
0.031496063
  0
CIRCLE
  5
3E4
100
AcDbEntity
  8
0
100
AcDbCircle
 62
7
  6
CONTINUOUS
 10
9.5350986416
 20
4.0460326415
 40
0.031496063
  0
CIRCLE
  5
3E5
100
AcDbEntity
  8
0
100
AcDbCircle
 62
7
  6
CONTINUOUS
 10
9.3539962794
 20
4.2271350037
 40
0.0354330709
  0
CIRCLE
  5
3E6
100
AcDbEntity
  8
0
100
AcDbCircle
 62
7
  6
CONTINUOUS
 10
9.3539962794
 20
4.2271350037
 40
0.031496063
  0
ARC
  5
3E7
100
AcDbEntity
  8
0
100
AcDbCircle
 62
7
  6
CONTINUOUS
 10
8.8930318157
 20
4.8334342163
 40
0.3149606299
100
AcDbArc
 50
228.5903778907
 51
270.0
  0
ARC
  5
3E8
100
AcDbEntity
  8
0
100
AcDbCircle
 62
7
  6
CONTINUOUS
 10
12.4642324999
 20
4.3609932714
 40
0.157480315
100
AcDbArc
 50
0.0
 51
90.0
  0
CIRCLE
  5
3E9
100
AcDbEntity
  8
02___PRT_ALL_AXES
100
AcDbCircle
 62
7
  6
CONTINUOUS
 10
7.8185632086
 20
7.6795070474
 40
0.1181102362
  0
ENDSEC
  0
SECTION
  2
OBJECTS
  0
DICTIONARY
  5
C
100
AcDbDictionary
280
0
281
1
  3
ACAD_GROUP
350
D
  3
ACAD_MLINESTYLE
350
17
  3
ACAD_LAYOUT
350
1A
  3
ACAD_PLOTSETTINGS
350
19
  3
ACAD_PLOTSTYLENAME
350
E
  3
ACAD_IMAGE_DICT
350
       3EB
  3
ACAD_IMAGE_VARS
350
       3EC
  3
ACAD_TABLESTYLE
350
       3ED
  0
IMAGEDEF_REACTOR
  5
3EA
100
AcDbRasterImageDefReactor
 90
2
330
349
  0
DICTIONARY
  5
D
102
{ACAD_REACTORS
330
C
102
}
100
AcDbDictionary
280
0
281
1
  0
ACDBDICTIONARYWDFLT
  5
E
102
{ACAD_REACTORS
330
C
102
}
100
AcDbDictionary
281
1
  3
Normal
350
F
100
AcDbDictionaryWithDefault
340
F
  0
DICTIONARY
  5
3EB
330
C
100
AcDbDictionary
281
1
  3
hinge_img_1
350
       3F0
  0
RASTERVARIABLES
  5
3EC
330
C
100
AcDbRasterVariables
 90
0
 70
0
 71
1
 72
5
  0
DICTIONARY
  5
17
102
{ACAD_REACTORS
330
C
102
}
100
AcDbDictionary
280
0
281
1
  3
Standard
350
18
  0
DICTIONARY
  5
3ED
330
C
100
AcDbDictionary
281
1
  3
Standard
350
       3F1
  3
Standard1
350
       3F2
  0
DICTIONARY
  5
19
102
{ACAD_REACTORS
330
C
102
}
100
AcDbDictionary
281
1
  0
DICTIONARY
  5
1A
102
{ACAD_REACTORS
330
C
102
}
100
AcDbDictionary
281
1
  3
Model
350
3EE
  3
Layout1
350
3EF
  0
ACDBPLACEHOLDER
  5
F
102
{ACAD_REACTORS
330
E
102
}
  0
MLINESTYLE
  5
18
102
{ACAD_REACTORS
330
17
102
}
100
AcDbMlineStyle
  2
STANDARD
 70
0
  3

 62
256
 51
90.0
 52
90.0
 71
2
 49
0.5
 62
256
  6
BYLAYER
 49
-0.5
 62
256
  6
BYLAYER
  0
LAYOUT
  5
3EE
102
{ACAD_REACTORS
330
1A
102
}
100
AcDbPlotSettings
  1

  2
none_device
  4
ISO_A3_(420.00_x_297.00_MM)
  6

 40
0.0
 41
0.0
 42
0.0
 43
0.0
 44
420.0
 45
297.0
 46
0.0
 47
0.0
 48
0.0
 49
0.0
140
0.0
141
0.0
142
1.0
143
1.0
 70
1024
 72
0
 73
0
 74
0
  7

 75
0
147
1.0
148
0.0
149
0.0
100
AcDbLayout
  1
Model
 70
0
 71
0
 10
0.0
 20
0.0
 11
16.5354330709
 21
11.6929133858
 12
0.0
 22
0.0
 32
0.0
 14
0.0
 24
0.0
 34
0.0
 15
0.0
 25
0.0
 35
0.0
146
0.0
 13
0.0
 23
0.0
 33
0.0
 16
1.0
 26
0.0
 36
0.0
 17
0.0
 27
1.0
 37
0.0
 76
0
330
208
345
0
346
0
  0
LAYOUT
  5
3EF
102
{ACAD_REACTORS
330
1A
102
}
100
AcDbPlotSettings
  1

  2
none_device
  4
ISO_A3_(420.00_x_297.00_MM)
  6

 40
0.0
 41
0.0
 42
0.0
 43
0.0
 44
420.0
 45
297.0
 46
0.0
 47
0.0
 48
0.0
 49
0.0
140
0.0
141
0.0
142
1.0
143
1.0
 70
0
 72
0
 73
0
 74
0
  7

 75
0
147
1.0
148
0.0
149
0.0
100
AcDbLayout
  1
Layout1
 70
0
 71
1
 10
0.0
 20
0.0
 11
16.5354330709
 21
11.6929133858
 12
0.0
 22
0.0
 32
0.0
 14
0.0
 24
0.0
 34
0.0
 15
0.0
 25
0.0
 35
0.0
146
0.0
 13
0.0
 23
0.0
 33
0.0
 16
1.0
 26
0.0
 36
0.0
 17
0.0
 27
1.0
 37
0.0
 76
0
330
209
345
0
346
0
  0
IMAGEDEF
  5
3F0
102
{ACAD_REACTORS
330
3EB
330
3EA
102
}
100
AcDbRasterImageDef
 90
0
  1
hinge_img_1.png
 10
349.0
 20
111.0
 11
0.0066666667
 21
0.0066666667
280
1
281
0
  0
TABLESTYLE
  5
3F1
102
{ACAD_REACTORS
330
3ED
330
35F
330
360
330
361
330
362
330
363
330
364
102
}
330
3ED
100
AcDbTableStyle
  3
Standard
 70
0
 71
0
 40
0.06
 41
0.06
280
1
281
1
  7
Standard
140
0.18
170
1
 62
0
 63
7
283
0
  7
Standard
140
0.18
170
1
 62
0
 63
7
283
0
  7
Standard
140
0.18
170
1
 62
0
 63
7
283
0
  0
TABLESTYLE
  5
3F2
102
{ACAD_REACTORS
330
3ED
102
}
330
3ED
100
AcDbTableStyle
  3
Standard1
 70
1
 71
0
 40
0.06
 41
0.06
280
1
281
1
  7
Standard
140
0.18
170
1
 62
0
 63
7
283
0
  7
Standard
140
0.18
170
1
 62
0
 63
7
283
0
  7
Standard
140
0.18
170
1
 62
0
 63
7
283
0
  0
ENDSEC
  0
EOF
